<svg width="721" height="777" viewBox="0 0 721 777" fill="none" xmlns="http://www.w3.org/2000/svg">
<g filter="url(#filter0_d)">
<path fill-rule="evenodd" clip-rule="evenodd" d="M341.039 126.892C361.329 115.421 387.077 122.572 398.547 142.862C411.527 165.823 428.37 203.652 438.5 245.554C446.928 280.412 451.868 322.797 442.005 362.863C468.335 371.991 491.285 383.677 511.278 399.202C548.995 428.489 571.455 467.715 589.523 515.501C597.766 537.303 586.774 561.659 564.972 569.903C543.17 578.146 518.813 567.154 510.57 545.352C495.189 504.67 479.902 481.704 459.51 465.87C449.973 458.465 438.341 451.856 423.372 445.947C422.834 462.316 424.011 478.994 426.633 495.251C432.889 534.043 446.29 564.041 457.032 577.388C471.646 595.545 468.774 622.112 450.616 636.727C432.458 651.341 405.891 648.468 391.277 630.31C368.254 601.705 350.954 556.132 343.302 508.69C339.084 482.535 337.483 453.92 340.137 425.018C240.999 403.375 175.041 336.944 152.028 302.258C139.142 282.836 144.44 256.645 163.862 243.758C183.284 230.872 209.476 236.17 222.362 255.592C236.35 276.674 285.926 327.417 359.979 342.945C365.198 322.013 363.612 294.982 356.457 265.39C348.376 231.965 334.677 201.397 325.068 184.4C313.598 164.11 320.748 138.362 341.039 126.892Z" stroke="#E0E0E0" stroke-opacity="0.45" stroke-linecap="round"/>
<path fill-rule="evenodd" clip-rule="evenodd" d="M318.083 378.551C322.116 355.594 343.996 340.254 366.953 344.287C427.018 354.84 474.224 370.429 511.277 399.2C548.994 428.487 571.454 467.713 589.522 515.499C597.765 537.301 586.773 561.658 564.971 569.901C543.169 578.144 518.813 567.153 510.569 545.351C495.188 504.668 479.902 481.703 459.509 465.869C438.453 449.518 407.186 437.056 352.347 427.421C329.39 423.387 314.05 401.507 318.083 378.551Z" fill="url(#paint0_linear)" fill-opacity="0.5"/>
</g>
<defs>
<filter id="filter0_d" x="103.948" y="93.741" width="543.837" height="654.105" filterUnits="userSpaceOnUse" color-interpolation-filters="sRGB">
<feFlood flood-opacity="0" result="BackgroundImageFix"/>
<feColorMatrix in="SourceAlpha" type="matrix" values="0 0 0 0 0 0 0 0 0 0 0 0 0 0 0 0 0 0 127 0" result="hardAlpha"/>
<feOffset dx="10" dy="35"/>
<feGaussianBlur stdDeviation="15"/>
<feColorMatrix type="matrix" values="0 0 0 0 0 0 0 0 0 0 0 0 0 0 0 0 0 0 0.12 0"/>
<feBlend mode="normal" in2="BackgroundImageFix" result="effect1_dropShadow"/>
<feBlend mode="normal" in="SourceGraphic" in2="effect1_dropShadow" result="shape"/>
</filter>
<linearGradient id="paint0_linear" x1="201.169" y1="362.102" x2="510.132" y2="310.27" gradientUnits="userSpaceOnUse">
<stop stop-color="#00ADA9"/>
<stop offset="1" stop-color="#2088E9"/>
</linearGradient>
</defs>
</svg>
