<svg width="83" height="50" viewBox="0 0 83 50" fill="none" xmlns="http://www.w3.org/2000/svg">
<g clip-path="url(#clip0_2535:5472)">
<mask id="path-1-inside-1_2535:5472" fill="white">
<path fill-rule="evenodd" clip-rule="evenodd" d="M22.1993 50C21.1076 50 20.2227 49.115 20.2227 48.0233V14.0536L34.3267 0H60.246C61.3377 0 62.2227 0.884991 62.2227 1.97668V48.0233C62.2227 49.115 61.3377 50 60.246 50H22.1993Z"/>
</mask>
<path fill-rule="evenodd" clip-rule="evenodd" d="M22.1993 50C21.1076 50 20.2227 49.115 20.2227 48.0233V14.0536L34.3267 0H60.246C61.3377 0 62.2227 0.884991 62.2227 1.97668V48.0233C62.2227 49.115 61.3377 50 60.246 50H22.1993Z" fill="white"/>
<path d="M20.2227 14.0536H18.2227C18.2227 13.522 18.4344 13.0122 18.811 12.6369L20.2227 14.0536ZM34.3267 0L32.915 -1.41674C33.2899 -1.79027 33.7975 -2 34.3267 -2V0ZM22.2227 48.0233C22.2227 48.0243 22.2227 48.0233 22.2222 48.0207C22.2217 48.0183 22.221 48.0159 22.22 48.0136C22.2182 48.0094 22.2165 48.0075 22.2158 48.0068C22.2152 48.0062 22.2133 48.0044 22.209 48.0027C22.2068 48.0017 22.2043 48.0009 22.2019 48.0004C22.1994 47.9999 22.1983 48 22.1993 48V52C20.0031 52 18.2227 50.2196 18.2227 48.0233H22.2227ZM22.2227 14.0536V48.0233H18.2227V14.0536H22.2227ZM18.811 12.6369L32.915 -1.41674L35.7384 1.41674L21.6343 15.4704L18.811 12.6369ZM60.246 2H34.3267V-2H60.246V2ZM60.2227 1.97668C60.2227 1.97566 60.2226 1.97675 60.2231 1.97926C60.2236 1.98166 60.2244 1.98412 60.2253 1.98637C60.2271 1.99061 60.2288 1.99251 60.2295 1.99317C60.2301 1.99382 60.232 1.99555 60.2363 1.99734C60.2385 1.99829 60.241 1.99907 60.2434 1.99956C60.2459 2.00007 60.247 2 60.246 2V-2C62.4422 -2 64.2227 -0.219578 64.2227 1.97668H60.2227ZM60.2227 48.0233V1.97668H64.2227V48.0233H60.2227ZM60.246 48C60.247 48 60.2459 47.9999 60.2434 48.0004C60.241 48.0009 60.2385 48.0017 60.2363 48.0027C60.2321 48.0044 60.2301 48.0062 60.2295 48.0068C60.2288 48.0075 60.2271 48.0094 60.2253 48.0136C60.2244 48.0159 60.2236 48.0183 60.2231 48.0207C60.2226 48.0233 60.2227 48.0243 60.2227 48.0233H64.2227C64.2227 50.2196 62.4422 52 60.246 52V48ZM22.1993 48H60.246V52H22.1993V48Z" fill="black" mask="url(#path-1-inside-1_2535:5472)"/>
<path d="M21.2227 14.5H33.7343C34.2802 14.5 34.7227 14.0575 34.7227 13.5117V1" stroke="black" stroke-width="2" stroke-linecap="round" stroke-linejoin="round"/>
<mask id="path-4-inside-2_2535:5472" fill="white">
<rect x="64.1182" y="30.4961" width="4.82732" height="10.7108" rx="0.988339" transform="rotate(-45 64.1182 30.4961)"/>
</mask>
<rect x="64.1182" y="30.4961" width="4.82732" height="10.7108" rx="0.988339" transform="rotate(-45 64.1182 30.4961)" fill="white" stroke="black" stroke-width="4" mask="url(#path-4-inside-2_2535:5472)"/>
<mask id="path-5-inside-3_2535:5472" fill="white">
<rect x="67.8911" y="35.3579" width="6.36769" height="15" rx="1.48251" transform="rotate(-45 67.8911 35.3579)"/>
</mask>
<rect x="67.8911" y="35.3579" width="6.36769" height="15" rx="1.48251" transform="rotate(-45 67.8911 35.3579)" fill="white" stroke="black" stroke-width="4" mask="url(#path-5-inside-3_2535:5472)"/>
<circle cx="59.5356" cy="22.5" r="11.5" fill="white" stroke="black" stroke-width="2"/>
<circle cx="54.7856" cy="22.5" r="1.49998" fill="#2E87EF"/>
<circle cx="59.5356" cy="22.5" r="1.49998" fill="#2E87EF"/>
<circle cx="64.2856" cy="22.5" r="1.49998" fill="#2E87EF"/>
</g>
<defs>
<clipPath id="clip0_2535:5472">
<rect width="83" height="50" fill="white"/>
</clipPath>
</defs>
</svg>
