<svg width="335" height="452" viewBox="0 0 335 452" fill="none" xmlns="http://www.w3.org/2000/svg">
<path d="M0.5 42C0.5 23.4985 15.4985 8.5 34 8.5H301C319.502 8.5 334.5 23.4985 334.5 42C334.5 60.5015 319.502 75.5 301 75.5H34C15.4985 75.5 0.5 60.5015 0.5 42Z" fill="white" stroke="#2E87EF"/>
<path d="M91.5373 34.344H89.6813V24.008H91.5373V34.344ZM91.8573 37.88H81.9693V33.32H83.8573V36.408H91.8573V37.88ZM80.2093 28.584C80.2093 27.56 80.5613 26.7173 81.2653 26.056C81.9799 25.3947 82.9133 25.064 84.0653 25.064C85.2279 25.064 86.1613 25.3947 86.8653 26.056C87.5693 26.7173 87.9213 27.56 87.9213 28.584C87.9213 29.6187 87.5693 30.4613 86.8653 31.112C86.1613 31.7627 85.2279 32.088 84.0653 32.088C82.9026 32.088 81.9693 31.7627 81.2653 31.112C80.5613 30.4613 80.2093 29.6187 80.2093 28.584ZM82.1293 28.584C82.1293 29.16 82.3053 29.6347 82.6573 30.008C83.0093 30.3707 83.4786 30.552 84.0653 30.552C84.6733 30.552 85.1479 30.3707 85.4893 30.008C85.8413 29.6347 86.0173 29.16 86.0173 28.584C86.0173 28.0293 85.8413 27.5707 85.4893 27.208C85.1373 26.8453 84.6626 26.664 84.0653 26.664C83.4786 26.664 83.0093 26.8453 82.6573 27.208C82.3053 27.5707 82.1293 28.0293 82.1293 28.584ZM106.289 29.608H104.257V34.328H102.369V24.008H104.257V28.072H106.289V29.608ZM100.273 25.096C100.262 27.0587 99.649 28.7067 98.433 30.04C97.2277 31.3627 95.697 32.2587 93.841 32.728L92.913 31.24C94.193 31.016 95.345 30.4933 96.369 29.672C97.4037 28.84 98.033 27.832 98.257 26.648H93.633V25.096H100.273ZM104.609 37.848H95.089V33.256H96.977V36.36H104.609V37.848ZM108.929 28.328C108.929 28.872 109.11 29.32 109.473 29.672C109.846 30.024 110.347 30.2 110.977 30.2C111.606 30.2 112.107 30.024 112.481 29.672C112.854 29.32 113.041 28.872 113.041 28.328C113.041 27.8053 112.854 27.3733 112.481 27.032C112.107 26.68 111.606 26.504 110.977 26.504C110.358 26.504 109.862 26.68 109.489 27.032C109.115 27.3733 108.929 27.8053 108.929 28.328ZM118.481 24.008V38.264H116.625V24.008H118.481ZM107.009 28.344C107.009 27.3307 107.371 26.5093 108.097 25.88C108.822 25.24 109.782 24.92 110.977 24.92C112.171 24.92 113.126 25.24 113.841 25.88C114.566 26.5093 114.929 27.3307 114.929 28.344C114.929 29.3467 114.566 30.168 113.841 30.808C113.126 31.448 112.171 31.768 110.977 31.768C109.793 31.768 108.833 31.448 108.097 30.808C107.371 30.168 107.009 29.3467 107.009 28.344ZM116.033 34.616C114.625 34.7973 113.019 34.936 111.217 35.032C109.083 35.1173 107.59 35.1547 106.737 35.144L106.465 33.544C108.214 33.544 109.761 33.5173 111.105 33.464C112.961 33.4 114.55 33.2827 115.873 33.112L116.033 34.616ZM135.288 34.344H133.416V29.752H130.792V28.216H133.416V24.008H135.288V34.344ZM135.592 37.88H125.896V33.384H127.784V36.392H135.592V37.88ZM130.808 25.096C130.765 27.0693 130.173 28.696 129.032 29.976C127.901 31.256 126.36 32.1787 124.408 32.744L123.48 31.256C124.792 31.0107 125.949 30.4827 126.952 29.672C127.954 28.8613 128.568 27.8533 128.792 26.648H124.168V25.096H130.808ZM150.023 28.904H147.991V32.328H146.103V24.008H147.991V27.368H150.023V28.904ZM148.167 35.368C148.167 36.2533 147.735 36.9573 146.871 37.48C146.018 38.0027 144.818 38.264 143.271 38.264C141.757 38.264 140.573 38.0027 139.719 37.48C138.866 36.9573 138.439 36.2533 138.439 35.368C138.439 34.472 138.866 33.768 139.719 33.256C140.573 32.7333 141.757 32.472 143.271 32.472C144.818 32.472 146.018 32.7333 146.871 33.256C147.735 33.768 148.167 34.472 148.167 35.368ZM145.463 36.408C145.986 36.152 146.247 35.8053 146.247 35.368C146.247 34.9307 145.986 34.5893 145.463 34.344C144.941 34.0987 144.21 33.976 143.271 33.976C142.343 33.976 141.623 34.0987 141.111 34.344C140.599 34.5893 140.343 34.9307 140.343 35.368C140.343 35.8053 140.599 36.152 141.111 36.408C141.623 36.6533 142.343 36.776 143.271 36.776C144.21 36.776 144.941 36.6533 145.463 36.408ZM144.007 24.984C143.997 26.872 143.426 28.44 142.295 29.688C141.165 30.9253 139.602 31.8267 137.607 32.392L136.679 30.904C137.981 30.6267 139.133 30.1093 140.135 29.352C141.138 28.5947 141.735 27.656 141.927 26.536H137.367V24.984H144.007ZM163.351 31.384H161.463V38.264H159.607V24.008H161.463V29.848H163.351V31.384ZM158.919 34.92C157.682 35.08 155.986 35.224 153.831 35.352C152.359 35.416 151.111 35.448 150.087 35.448L149.847 33.928C151.159 33.928 152.135 33.9227 152.775 33.912V29.896H154.567V33.832C156.402 33.736 157.804 33.624 158.775 33.496L158.919 34.92ZM158.263 25.56C158.263 28.28 158.103 30.3547 157.783 31.784L155.991 31.592C156.236 30.4507 156.359 28.9413 156.359 27.064H150.743V25.56H158.263ZM179.454 38.152H169.646V34.344H177.15V33.432H169.55V31.944H179.006V35.72H171.534V36.648H179.454V38.152ZM167.87 26.264V24.776H175.39V26.264H172.702C172.819 27.1173 173.161 27.8267 173.726 28.392C174.302 28.9467 174.995 29.352 175.806 29.608L174.782 31.064C174.227 30.8613 173.651 30.504 173.054 29.992C172.467 29.48 172.019 28.9253 171.71 28.328C171.497 29.0107 171.075 29.64 170.446 30.216C169.817 30.792 169.145 31.208 168.43 31.464L167.31 30.04C169.358 29.2827 170.489 28.024 170.702 26.264H167.87ZM179.006 31.224H177.15V24.008H179.006V31.224ZM192.35 24.008V32.328H190.494V30.392H188.462V28.936H190.494V27.4H188.462V25.944H190.494V24.008H192.35ZM187.742 31.528H181.038V24.824H182.91V26.824H185.886V24.792H187.742V31.528ZM185.886 30.056V28.28H182.91V30.056H185.886ZM192.462 35.384C192.462 36.2587 192.03 36.952 191.166 37.464C190.302 37.9867 189.096 38.248 187.55 38.248C186.035 38.248 184.846 37.9867 183.982 37.464C183.128 36.952 182.702 36.2587 182.702 35.384C182.702 34.488 183.128 33.784 183.982 33.272C184.835 32.7493 186.024 32.488 187.55 32.488C189.096 32.488 190.302 32.7493 191.166 33.272C192.03 33.784 192.462 34.488 192.462 35.384ZM187.55 33.992C186.632 33.992 185.912 34.1147 185.39 34.36C184.867 34.6053 184.606 34.9467 184.606 35.384C184.606 35.8107 184.867 36.1467 185.39 36.392C185.912 36.6267 186.632 36.744 187.55 36.744C188.499 36.744 189.23 36.6267 189.742 36.392C190.264 36.1467 190.526 35.8107 190.526 35.384C190.526 34.9467 190.264 34.6053 189.742 34.36C189.23 34.1147 188.499 33.992 187.55 33.992ZM207.086 31.384H205.198V38.264H203.342V24.008H205.198V29.848H207.086V31.384ZM202.654 34.92C201.416 35.08 199.72 35.224 197.566 35.352C196.094 35.416 194.846 35.448 193.822 35.448L193.582 33.928C194.893 33.928 195.87 33.9227 196.51 33.912V29.896H198.302V33.832C200.136 33.736 201.539 33.624 202.51 33.496L202.654 34.92ZM201.998 25.56C201.998 28.28 201.838 30.3547 201.517 31.784L199.726 31.592C199.971 30.4507 200.094 28.9413 200.094 27.064H194.478V25.56H201.998ZM218.836 30.936L218.884 29.352H220.884V27.4H218.884L218.852 25.816H220.884V24.008H222.756V34.344H220.884V30.936H218.836ZM223.06 37.88H213.204V33.384H215.108V36.408H223.06V37.88ZM212.052 31.16C211.37 30.4987 211.028 29.6453 211.028 28.6C211.028 27.5547 211.37 26.7013 212.052 26.04C212.746 25.3787 213.658 25.048 214.788 25.048C215.908 25.048 216.81 25.3787 217.492 26.04C218.186 26.7013 218.532 27.5547 218.532 28.6C218.532 29.6453 218.186 30.4987 217.492 31.16C216.81 31.8213 215.908 32.152 214.788 32.152C213.658 32.152 212.746 31.8213 212.052 31.16ZM212.932 28.584C212.932 29.1707 213.098 29.6507 213.428 30.024C213.77 30.3973 214.223 30.584 214.788 30.584C215.343 30.584 215.786 30.3973 216.116 30.024C216.458 29.6507 216.628 29.1707 216.628 28.584C216.628 28.0293 216.458 27.5653 216.116 27.192C215.786 26.8187 215.343 26.632 214.788 26.632C214.223 26.632 213.77 26.8187 213.428 27.192C213.098 27.5653 212.932 28.0293 212.932 28.584ZM237.412 29.832H235.604V34.6H233.748V24.008H235.604V28.28H237.412V29.832ZM235.972 37.88H226.228V33.688H228.116V36.392H235.972V37.88ZM233.092 32.28C231.279 32.4827 229.801 32.6 228.66 32.632C226.185 32.728 224.708 32.776 224.228 32.776L223.988 31.256C224.575 31.256 225.487 31.2453 226.724 31.224V28.36H228.58V31.176C230.393 31.1333 231.849 31.0267 232.948 30.856L233.092 32.28ZM232.148 25.016C232.148 27.416 232.015 29.1067 231.748 30.088L229.972 29.832C230.164 29.1067 230.26 27.9973 230.26 26.504H224.868V25.016H232.148ZM247.092 32.584C245.716 32.7547 244.191 32.8773 242.516 32.952C240.649 33.048 239.076 33.096 237.796 33.096L237.54 31.576C239.001 31.576 240.292 31.5547 241.412 31.512V29.912H238.932V25.016H245.62V26.504H240.804V28.424H245.732V29.912H243.3V31.448C244.793 31.3733 245.999 31.272 246.916 31.144L247.092 32.584ZM249.54 24.008V34.472H247.652V24.008H249.54ZM249.652 37.848H240.02V33.848H241.908V36.36H249.652V37.848ZM109.812 48.008V53.48H111.748V55.032H109.812V62.264H107.908V48.008H109.812ZM103.908 57.096V50.824H100.868V57.096H103.908ZM105.78 49.32V58.584H99.0117V49.32H105.78ZM123.779 62.264H121.923V48.008H123.779V62.264ZM113.379 57.768C112.729 56.84 112.403 55.6133 112.403 54.088C112.403 52.5627 112.729 51.3307 113.379 50.392C114.041 49.4533 114.942 48.984 116.083 48.984C117.235 48.984 118.137 49.4533 118.787 50.392C119.449 51.3307 119.779 52.5627 119.779 54.088C119.779 55.6027 119.449 56.8293 118.787 57.768C118.137 58.696 117.235 59.16 116.083 59.16C114.942 59.16 114.041 58.696 113.379 57.768ZM117.987 54.088C117.987 52.9787 117.811 52.104 117.459 51.464C117.107 50.8133 116.649 50.488 116.083 50.488C115.539 50.488 115.091 50.8133 114.739 51.464C114.398 52.104 114.227 52.9787 114.227 54.088C114.227 55.1867 114.398 56.056 114.739 56.696C115.091 57.336 115.539 57.656 116.083 57.656C116.649 57.656 117.107 57.336 117.459 56.696C117.811 56.056 117.987 55.1867 117.987 54.088ZM136.723 49.56C136.723 53.432 136.489 56.3173 136.019 58.216C135.689 58.184 135.091 58.1307 134.227 58.056C134.409 57.3307 134.563 56.2427 134.691 54.792C133.795 54.8347 132.446 54.904 130.643 55C128.851 55.096 127.507 55.1653 126.611 55.208L126.371 53.72C130.051 53.5707 132.851 53.4533 134.771 53.368C134.825 52.4293 134.851 51.6507 134.851 51.032H126.883V49.56H136.723ZM138.227 60.376H125.347V58.904H138.227V60.376ZM150.355 56.776H146.035V59H151.571V60.488H138.691V59H144.163V56.776H140.339V52.056H148.083V50.408H140.259V48.92H149.939V53.544H142.195V55.272H150.355V56.776ZM163.187 48.008V53.384H165.219V54.936H163.187V62.264H161.299V48.008H163.187ZM159.299 58.744H152.547V49.16H154.403V52.584H157.427V49.128H159.299V58.744ZM157.427 57.272V54.056H154.403V57.272H157.427ZM177.154 62.264H175.298V48.008H177.154V62.264ZM166.754 57.768C166.104 56.84 165.778 55.6133 165.778 54.088C165.778 52.5627 166.104 51.3307 166.754 50.392C167.416 49.4533 168.317 48.984 169.458 48.984C170.61 48.984 171.512 49.4533 172.162 50.392C172.824 51.3307 173.154 52.5627 173.154 54.088C173.154 55.6027 172.824 56.8293 172.162 57.768C171.512 58.696 170.61 59.16 169.458 59.16C168.317 59.16 167.416 58.696 166.754 57.768ZM171.362 54.088C171.362 52.9787 171.186 52.104 170.834 51.464C170.482 50.8133 170.024 50.488 169.458 50.488C168.914 50.488 168.466 50.8133 168.114 51.464C167.773 52.104 167.602 52.9787 167.602 54.088C167.602 55.1867 167.773 56.056 168.114 56.696C168.466 57.336 168.914 57.656 169.458 57.656C170.024 57.656 170.482 57.336 170.834 56.696C171.186 56.056 171.362 55.1867 171.362 54.088ZM180.194 50.968C180.194 50.1573 180.632 49.5013 181.506 49C182.381 48.488 183.597 48.232 185.154 48.232C186.733 48.232 187.96 48.488 188.834 49C189.709 49.5013 190.146 50.1573 190.146 50.968C190.146 51.704 189.789 52.3173 189.074 52.808C188.36 53.2987 187.357 53.592 186.066 53.688V54.744H191.602V56.248H178.722V54.744H184.194V53.688C182.925 53.5813 181.938 53.2827 181.234 52.792C180.541 52.3013 180.194 51.6933 180.194 50.968ZM189.954 62.088H180.37V57.304H189.954V62.088ZM182.93 50.008C182.397 50.2427 182.13 50.5627 182.13 50.968C182.13 51.3733 182.397 51.6987 182.93 51.944C183.464 52.1787 184.205 52.296 185.154 52.296C186.093 52.296 186.834 52.1733 187.378 51.928C187.933 51.6827 188.21 51.3627 188.21 50.968C188.21 50.5627 187.938 50.2427 187.394 50.008C186.861 49.7627 186.114 49.64 185.154 49.64C184.205 49.64 183.464 49.7627 182.93 50.008ZM188.098 60.632V58.728H182.226V60.632H188.098ZM201.346 61.608H199.586V54.968H198.37C198.285 56.2267 197.981 57.2667 197.458 58.088C196.946 58.8987 196.221 59.304 195.282 59.304C194.589 59.304 194.002 59.0533 193.522 58.552C193.042 58.0507 192.701 57.4267 192.498 56.68C192.306 55.9333 192.21 55.096 192.21 54.168C192.21 53.2507 192.306 52.424 192.498 51.688C192.701 50.952 193.042 50.3333 193.522 49.832C194.002 49.3307 194.589 49.08 195.282 49.08C196.231 49.08 196.962 49.4907 197.474 50.312C197.986 51.1227 198.285 52.1627 198.37 53.432H199.586V48.28H201.346V61.608ZM204.194 62.264H202.434V48.008H204.194V62.264ZM196.322 56.68C196.546 56.04 196.658 55.208 196.658 54.184C196.658 53.16 196.546 52.328 196.322 51.688C196.098 51.0373 195.757 50.712 195.298 50.712C194.861 50.712 194.53 51.0373 194.306 51.688C194.082 52.328 193.97 53.16 193.97 54.184C193.97 55.1973 194.082 56.0293 194.306 56.68C194.53 57.32 194.861 57.64 195.298 57.64C195.757 57.64 196.098 57.32 196.322 56.68ZM221.593 55.48L220.809 56.984C219.753 56.8133 218.702 56.4293 217.657 55.832C216.622 55.2347 215.918 54.5733 215.545 53.848C215.171 54.584 214.473 55.2507 213.449 55.848C212.425 56.4347 211.358 56.8187 210.249 57L209.513 55.512C210.643 55.416 211.705 55.0747 212.697 54.488C213.699 53.8907 214.318 53.1867 214.553 52.376H210.281V50.888H220.809V52.376H216.585C216.83 53.176 217.459 53.88 218.473 54.488C219.486 55.0853 220.526 55.416 221.593 55.48ZM221.993 60.488H209.113V59.016H214.585V56.216H216.457V59.016H221.993V60.488ZM213.177 49.912V48.424H217.913V49.912H213.177ZM234.249 62.088H224.777V56.824H234.249V62.088ZM222.953 50.456V48.92H230.473V50.456H227.737C227.801 51.416 228.131 52.2373 228.729 52.92C229.337 53.6027 230.062 54.0827 230.905 54.36L229.881 55.832C229.294 55.608 228.702 55.24 228.105 54.728C227.518 54.216 227.081 53.6507 226.793 53.032C226.579 53.704 226.153 54.344 225.513 54.952C224.873 55.56 224.195 55.992 223.481 56.248L222.377 54.776C223.39 54.4027 224.206 53.8427 224.825 53.096C225.443 52.3493 225.774 51.4693 225.817 50.456H222.953ZM234.249 56.136H232.377V52.952H230.265V51.448H232.377V48.008H234.249V56.136ZM232.377 60.632V58.264H226.633V60.632H232.377Z" fill="#186BE8"/>
<path d="M166.5 97C166.5 97.5523 166.948 98 167.5 98C168.052 98 168.5 97.5523 168.5 97L166.5 97ZM168.5 81C168.5 80.4477 168.052 80 167.5 80C166.948 80 166.5 80.4477 166.5 81L168.5 81ZM168.5 96.9512C168.5 96.3989 168.052 95.9512 167.5 95.9512C166.948 95.9512 166.5 96.3989 166.5 96.9512L168.5 96.9512ZM166.5 93.0488C166.5 93.6011 166.948 94.0488 167.5 94.0488C168.052 94.0488 168.5 93.6011 168.5 93.0488L166.5 93.0488ZM168.5 92.9512C168.5 92.3989 168.052 91.9512 167.5 91.9512C166.948 91.9512 166.5 92.3989 166.5 92.9512L168.5 92.9512ZM166.5 89.0488C166.5 89.6011 166.948 90.0488 167.5 90.0488C168.052 90.0488 168.5 89.6011 168.5 89.0488L166.5 89.0488ZM168.5 88.9512C168.5 88.3989 168.052 87.9512 167.5 87.9512C166.948 87.9512 166.5 88.3989 166.5 88.9512L168.5 88.9512ZM166.5 85.0488C166.5 85.6011 166.948 86.0488 167.5 86.0488C168.052 86.0488 168.5 85.6011 168.5 85.0488L166.5 85.0488ZM168.5 84.9512C168.5 84.3989 168.052 83.9512 167.5 83.9512C166.948 83.9512 166.5 84.3989 166.5 84.9512L168.5 84.9512ZM166.5 81.0488C166.5 81.6011 166.948 82.0488 167.5 82.0488C168.052 82.0488 168.5 81.6011 168.5 81.0488L166.5 81.0488ZM168.5 97L168.5 96.9512L166.5 96.9512L166.5 97L168.5 97ZM168.5 93.0488L168.5 92.9512L166.5 92.9512L166.5 93.0488L168.5 93.0488ZM168.5 89.0488L168.5 88.9512L166.5 88.9512L166.5 89.0488L168.5 89.0488ZM168.5 85.0488L168.5 84.9512L166.5 84.9512L166.5 85.0488L168.5 85.0488ZM168.5 81.0488L168.5 81L166.5 81L166.5 81.0488L168.5 81.0488Z" fill="#2E87EF"/>
<path d="M0.5 136C0.5 117.498 15.4985 102.5 34 102.5H301C319.502 102.5 334.5 117.498 334.5 136C334.5 154.502 319.502 169.5 301 169.5H34C15.4985 169.5 0.5 154.502 0.5 136Z" fill="white" stroke="#2E87EF"/>
<path d="M81.2726 118.008V123.48H83.2086V125.032H81.2726V132.264H79.3686V118.008H81.2726ZM75.3686 127.096V120.824H72.3286V127.096H75.3686ZM77.2406 119.32V128.584H70.4726V119.32H77.2406ZM95.2404 132.264H93.3844V118.008H95.2404V132.264ZM84.8404 127.768C84.1897 126.84 83.8644 125.613 83.8644 124.088C83.8644 122.563 84.1897 121.331 84.8404 120.392C85.5017 119.453 86.403 118.984 87.5444 118.984C88.6964 118.984 89.5977 119.453 90.2484 120.392C90.9097 121.331 91.2404 122.563 91.2404 124.088C91.2404 125.603 90.9097 126.829 90.2484 127.768C89.5977 128.696 88.6964 129.16 87.5444 129.16C86.403 129.16 85.5017 128.696 84.8404 127.768ZM89.4484 124.088C89.4484 122.979 89.2724 122.104 88.9204 121.464C88.5684 120.813 88.1097 120.488 87.5444 120.488C87.0004 120.488 86.5524 120.813 86.2004 121.464C85.859 122.104 85.6884 122.979 85.6884 124.088C85.6884 125.187 85.859 126.056 86.2004 126.696C86.5524 127.336 87.0004 127.656 87.5444 127.656C88.1097 127.656 88.5684 127.336 88.9204 126.696C89.2724 126.056 89.4484 125.187 89.4484 124.088ZM108.184 119.56C108.184 123.432 107.949 126.317 107.48 128.216C107.149 128.184 106.552 128.131 105.688 128.056C105.869 127.331 106.024 126.243 106.152 124.792C105.256 124.835 103.907 124.904 102.104 125C100.312 125.096 98.9681 125.165 98.0721 125.208L97.8321 123.72C101.512 123.571 104.312 123.453 106.232 123.368C106.285 122.429 106.312 121.651 106.312 121.032H98.3441V119.56H108.184ZM109.688 130.376H96.8081V128.904H109.688V130.376ZM121.816 126.776H117.496V129H123.032V130.488H110.152V129H115.624V126.776H111.8V122.056H119.544V120.408H111.72V118.92H121.4V123.544H113.656V125.272H121.816V126.776ZM134.648 118.008V123.384H136.68V124.936H134.648V132.264H132.76V118.008H134.648ZM130.76 128.744H124.008V119.16H125.864V122.584H128.888V119.128H130.76V128.744ZM128.888 127.272V124.056H125.864V127.272H128.888ZM148.615 132.264H146.759V118.008H148.615V132.264ZM138.215 127.768C137.565 126.84 137.239 125.613 137.239 124.088C137.239 122.563 137.565 121.331 138.215 120.392C138.877 119.453 139.778 118.984 140.919 118.984C142.071 118.984 142.973 119.453 143.623 120.392C144.285 121.331 144.615 122.563 144.615 124.088C144.615 125.603 144.285 126.829 143.623 127.768C142.973 128.696 142.071 129.16 140.919 129.16C139.778 129.16 138.877 128.696 138.215 127.768ZM142.823 124.088C142.823 122.979 142.647 122.104 142.295 121.464C141.943 120.813 141.485 120.488 140.919 120.488C140.375 120.488 139.927 120.813 139.575 121.464C139.234 122.104 139.063 122.979 139.063 124.088C139.063 125.187 139.234 126.056 139.575 126.696C139.927 127.336 140.375 127.656 140.919 127.656C141.485 127.656 141.943 127.336 142.295 126.696C142.647 126.056 142.823 125.187 142.823 124.088ZM151.655 120.968C151.655 120.157 152.092 119.501 152.967 119C153.842 118.488 155.058 118.232 156.615 118.232C158.194 118.232 159.42 118.488 160.295 119C161.17 119.501 161.607 120.157 161.607 120.968C161.607 121.704 161.25 122.317 160.535 122.808C159.82 123.299 158.818 123.592 157.527 123.688V124.744H163.063V126.248H150.183V124.744H155.655V123.688C154.386 123.581 153.399 123.283 152.695 122.792C152.002 122.301 151.655 121.693 151.655 120.968ZM161.415 132.088H151.831V127.304H161.415V132.088ZM154.391 120.008C153.858 120.243 153.591 120.563 153.591 120.968C153.591 121.373 153.858 121.699 154.391 121.944C154.924 122.179 155.666 122.296 156.615 122.296C157.554 122.296 158.295 122.173 158.839 121.928C159.394 121.683 159.671 121.363 159.671 120.968C159.671 120.563 159.399 120.243 158.855 120.008C158.322 119.763 157.575 119.64 156.615 119.64C155.666 119.64 154.924 119.763 154.391 120.008ZM159.559 130.632V128.728H153.687V130.632H159.559ZM176.407 125.512H163.527V124.024H176.407V125.512ZM175.223 132.2H165.063V128.568H172.855V127.752H165.079V126.296H174.711V129.88H166.935V130.664H175.223V132.2ZM166.887 120.776C166.887 121.107 167.164 121.384 167.719 121.608C168.274 121.821 169.031 121.928 169.991 121.928C170.951 121.928 171.708 121.821 172.263 121.608C172.828 121.384 173.111 121.107 173.111 120.776C173.111 120.435 172.834 120.163 172.279 119.96C171.724 119.747 170.962 119.64 169.991 119.64C169.02 119.64 168.258 119.747 167.703 119.96C167.159 120.163 166.887 120.435 166.887 120.776ZM164.951 120.776C164.951 119.987 165.388 119.363 166.263 118.904C167.148 118.445 168.391 118.216 169.991 118.216C171.58 118.216 172.818 118.445 173.703 118.904C174.588 119.363 175.031 119.987 175.031 120.776C175.031 121.555 174.588 122.179 173.703 122.648C172.818 123.107 171.58 123.336 169.991 123.336C168.402 123.336 167.164 123.107 166.279 122.648C165.394 122.179 164.951 121.555 164.951 120.776ZM182.974 127.56C185.416 127.56 187.294 127.416 188.606 127.128C188.627 127.299 188.659 127.544 188.702 127.864C188.755 128.184 188.792 128.429 188.814 128.6C187.47 128.909 185.358 129.064 182.478 129.064H181.118V119.256H187.662V120.728H182.974V123.32H187.406V124.808H182.974V127.56ZM191.71 118.008V123.384H193.694V124.92H191.71V132.264H189.838V118.008H191.71ZM206.03 127.288H204.254V118.008H206.03V127.288ZM203.214 126.072H201.47V123.32H199.742V121.816H201.47V118.264H203.214V126.072ZM206.702 130.968L205.822 132.424C204.862 132.243 203.928 131.869 203.022 131.304C202.115 130.749 201.491 130.147 201.15 129.496C200.83 130.157 200.222 130.765 199.326 131.32C198.43 131.885 197.475 132.253 196.462 132.424L195.582 130.92C196.872 130.771 197.966 130.355 198.862 129.672C199.768 128.979 200.222 128.157 200.222 127.208V126.808H202.126V127.208C202.126 128.157 202.568 128.968 203.454 129.64C204.35 130.312 205.432 130.755 206.702 130.968ZM199.966 119.256C199.923 122.829 198.275 125.347 195.022 126.808L193.838 125.368C195.022 124.952 195.976 124.339 196.702 123.528C197.427 122.707 197.843 121.789 197.95 120.776H194.526V119.256H199.966ZM220.141 130.392H207.261V128.92H220.141V130.392ZM217.501 120.04C218.461 120.723 218.941 121.613 218.941 122.712C218.941 123.811 218.461 124.701 217.501 125.384C216.552 126.067 215.288 126.408 213.709 126.408C212.141 126.408 210.877 126.067 209.917 125.384C208.957 124.701 208.477 123.811 208.477 122.712C208.477 121.613 208.957 120.723 209.917 120.04C210.877 119.357 212.141 119.016 213.709 119.016C215.288 119.016 216.552 119.357 217.501 120.04ZM216.109 124.328C216.717 123.923 217.021 123.389 217.021 122.728C217.021 122.067 216.717 121.539 216.109 121.144C215.512 120.739 214.712 120.536 213.709 120.536C212.717 120.536 211.917 120.739 211.309 121.144C210.712 121.539 210.413 122.067 210.413 122.728C210.413 123.389 210.712 123.923 211.309 124.328C211.917 124.723 212.717 124.92 213.709 124.92C214.712 124.92 215.512 124.723 216.109 124.328ZM232.269 126.776H227.949V129H233.485V130.488H220.605V129H226.077V126.776H222.253V122.056H229.997V120.408H222.173V118.92H231.853V123.544H224.109V125.272H232.269V126.776ZM245.86 122.888H237.588V121.4H245.86V122.888ZM239.588 120.408V118.936H243.988V120.408H239.588ZM248.804 118.008V123.784H250.788V125.336H248.804V132.264H246.916V118.008H248.804ZM238.292 126.456C238.292 125.571 238.612 124.84 239.252 124.264C239.892 123.677 240.719 123.384 241.732 123.384C242.756 123.384 243.583 123.672 244.212 124.248C244.852 124.824 245.172 125.56 245.172 126.456C245.172 127.341 244.852 128.077 244.212 128.664C243.572 129.24 242.745 129.528 241.732 129.528C240.708 129.528 239.876 129.245 239.236 128.68C238.607 128.104 238.292 127.363 238.292 126.456ZM240.116 126.456C240.116 126.915 240.265 127.288 240.564 127.576C240.873 127.864 241.263 128.008 241.732 128.008C242.244 128.008 242.639 127.869 242.916 127.592C243.204 127.304 243.348 126.925 243.348 126.456C243.348 125.987 243.193 125.608 242.884 125.32C242.585 125.032 242.201 124.888 241.732 124.888C241.263 124.888 240.873 125.032 240.564 125.32C240.265 125.608 240.116 125.987 240.116 126.456ZM263.876 126.536H250.996V125.032H263.876V126.536ZM262.292 123.432H252.724V118.472H254.596V121.944H262.292V123.432ZM262.388 131.88H252.644V127.672H254.5V130.392H262.388V131.88ZM68.7216 152.152L67.7456 153.608C67.0416 153.267 66.343 152.739 65.6496 152.024C64.9563 151.309 64.503 150.621 64.2896 149.96C64.1083 150.685 63.687 151.427 63.0256 152.184C62.375 152.931 61.639 153.507 60.8176 153.912L59.6976 152.536C61.9803 151.448 63.175 149.56 63.2816 146.872H60.4336V145.4H68.0336V146.872H65.2336C65.2976 148.184 65.6443 149.283 66.2736 150.168C66.903 151.053 67.719 151.715 68.7216 152.152ZM71.5376 156.264H69.6656V142.008H71.5376V156.264ZM62.0816 144.36V142.872H66.3696V144.36H62.0816ZM84.7534 150.776H82.6894V153H85.9694V154.488H73.0894V153H76.3374V150.776H74.7374V146.056H82.4814V144.408H74.6574V142.92H84.3374V147.544H76.5934V149.272H84.7534V150.776ZM78.1614 150.776V153H80.8814V150.776H78.1614ZM98.2251 156.088H88.8331V150.456H90.7371V151.832H96.3531V150.44H98.2251V156.088ZM96.3531 154.6V153.288H90.7371V154.6H96.3531ZM98.2091 149.704H96.3531V146.664H94.3211V145.08H96.3531V142.008H98.2091V149.704ZM93.6011 149.08H86.8971V142.664H88.7691V144.52H91.7451V142.632H93.6011V149.08ZM91.7451 147.576V145.96H88.7691V147.576H91.7451ZM112.657 149.512H99.7769V148.024H112.657V149.512ZM111.473 156.2H101.313V152.568H109.105V151.752H101.329V150.296H110.961V153.88H103.185V154.664H111.473V156.2ZM103.137 144.776C103.137 145.107 103.414 145.384 103.969 145.608C104.524 145.821 105.281 145.928 106.241 145.928C107.201 145.928 107.958 145.821 108.513 145.608C109.078 145.384 109.361 145.107 109.361 144.776C109.361 144.435 109.084 144.163 108.529 143.96C107.974 143.747 107.212 143.64 106.241 143.64C105.27 143.64 104.508 143.747 103.953 143.96C103.409 144.163 103.137 144.435 103.137 144.776ZM101.201 144.776C101.201 143.987 101.638 143.363 102.513 142.904C103.398 142.445 104.641 142.216 106.241 142.216C107.83 142.216 109.068 142.445 109.953 142.904C110.838 143.363 111.281 143.987 111.281 144.776C111.281 145.555 110.838 146.179 109.953 146.648C109.068 147.107 107.83 147.336 106.241 147.336C104.652 147.336 103.414 147.107 102.529 146.648C101.644 146.179 101.201 145.555 101.201 144.776ZM123.848 151.624L122.792 152.968C122.301 152.659 121.805 152.184 121.304 151.544C120.813 150.893 120.482 150.264 120.312 149.656C120.141 150.317 119.789 151.005 119.256 151.72C118.733 152.435 118.184 152.957 117.608 153.288L116.472 152.024C118.434 150.723 119.416 148.659 119.416 145.832V145.144H117.016V143.656H123.448V145.144H121.224V145.8C121.224 147.187 121.448 148.381 121.896 149.384C122.344 150.376 122.994 151.123 123.848 151.624ZM126.104 155.608H124.36V148.456H122.504V146.92H124.36V142.28H126.104V155.608ZM128.968 156.264H127.192V142.008H128.968V156.264ZM140.104 151.56C140.978 152.051 141.416 152.712 141.416 153.544C141.416 154.376 140.978 155.037 140.104 155.528C139.229 156.019 138.018 156.264 136.472 156.264C134.914 156.264 133.693 156.019 132.808 155.528C131.933 155.037 131.496 154.376 131.496 153.544C131.496 152.712 131.933 152.051 132.808 151.56C133.693 151.069 134.914 150.824 136.472 150.824C138.018 150.824 139.229 151.069 140.104 151.56ZM143.048 149.736H130.168V148.248H135.048V145.768H136.92V148.248H143.048V149.736ZM141.384 142.52C141.384 144.504 141.234 146.179 140.936 147.544C139.826 147.395 139.224 147.315 139.128 147.304C139.384 146.28 139.512 145.176 139.512 143.992H131.64V142.52H141.384ZM139.512 153.56C139.512 153.155 139.24 152.851 138.696 152.648C138.162 152.435 137.421 152.328 136.472 152.328C134.445 152.328 133.432 152.739 133.432 153.56C133.432 153.955 133.698 154.259 134.232 154.472C134.776 154.675 135.522 154.776 136.472 154.776C137.421 154.776 138.162 154.675 138.696 154.472C139.24 154.259 139.512 153.955 139.512 153.56ZM151.719 146.888H143.447V145.4H151.719V146.888ZM145.447 144.408V142.936H149.847V144.408H145.447ZM154.663 142.008V147.784H156.647V149.336H154.663V156.264H152.775V142.008H154.663ZM144.151 150.456C144.151 149.571 144.471 148.84 145.111 148.264C145.751 147.677 146.578 147.384 147.591 147.384C148.615 147.384 149.442 147.672 150.071 148.248C150.711 148.824 151.031 149.56 151.031 150.456C151.031 151.341 150.711 152.077 150.071 152.664C149.431 153.24 148.605 153.528 147.591 153.528C146.567 153.528 145.735 153.245 145.095 152.68C144.466 152.104 144.151 151.363 144.151 150.456ZM145.975 150.456C145.975 150.915 146.125 151.288 146.423 151.576C146.733 151.864 147.122 152.008 147.591 152.008C148.103 152.008 148.498 151.869 148.775 151.592C149.063 151.304 149.207 150.925 149.207 150.456C149.207 149.987 149.053 149.608 148.743 149.32C148.445 149.032 148.061 148.888 147.591 148.888C147.122 148.888 146.733 149.032 146.423 149.32C146.125 149.608 145.975 149.987 145.975 150.456ZM168.647 156.264H166.775V142.008H168.647V156.264ZM164.263 143.496C164.146 148.04 162.023 151.437 157.895 153.688L156.743 152.28C158.279 151.576 159.548 150.557 160.551 149.224C161.554 147.88 162.119 146.488 162.247 145.048H157.607V143.496H164.263ZM182.222 145.72C182.222 146.573 181.87 147.283 181.166 147.848C180.473 148.403 179.582 148.68 178.494 148.68C177.395 148.68 176.505 148.403 175.822 147.848C175.139 147.293 174.798 146.584 174.798 145.72C174.798 144.835 175.139 144.109 175.822 143.544C176.505 142.968 177.395 142.68 178.494 142.68C179.603 142.68 180.499 142.968 181.182 143.544C181.875 144.109 182.222 144.835 182.222 145.72ZM185.774 142.008V156.264H183.918V142.008H185.774ZM179.486 155.848H177.582V151.128C176.227 151.192 175.054 151.224 174.062 151.224L173.79 149.688C177.246 149.688 180.371 149.544 183.166 149.256L183.326 150.696C182.377 150.824 181.097 150.936 179.486 151.032V155.848ZM180.35 145.704C180.35 145.267 180.174 144.909 179.822 144.632C179.481 144.344 179.038 144.2 178.494 144.2C177.971 144.2 177.534 144.344 177.182 144.632C176.841 144.909 176.67 145.267 176.67 145.704C176.67 146.131 176.841 146.477 177.182 146.744C177.523 147.011 177.961 147.144 178.494 147.144C179.049 147.144 179.497 147.011 179.838 146.744C180.179 146.477 180.35 146.131 180.35 145.704ZM195.406 146.024H187.134V144.568H195.406V146.024ZM194.718 149.048C194.718 149.805 194.398 150.429 193.758 150.92C193.128 151.4 192.328 151.64 191.358 151.64C190.376 151.64 189.566 151.4 188.926 150.92C188.286 150.429 187.966 149.805 187.966 149.048C187.966 148.291 188.286 147.667 188.926 147.176C189.566 146.675 190.376 146.424 191.358 146.424C192.318 146.424 193.118 146.675 193.758 147.176C194.398 147.677 194.718 148.301 194.718 149.048ZM189.246 143.896V142.472H193.486V143.896H189.246ZM198.398 142.008V146.616H200.382V148.168H198.398V152.6H196.526V142.008H198.398ZM198.734 155.928H188.99V152.168H190.878V154.44H198.734V155.928ZM189.822 149.048C189.822 149.357 189.971 149.619 190.27 149.832C190.568 150.035 190.931 150.136 191.358 150.136C191.774 150.136 192.131 150.035 192.43 149.832C192.739 149.619 192.894 149.357 192.894 149.048C192.894 148.717 192.739 148.445 192.43 148.232C192.131 148.019 191.774 147.912 191.358 147.912C190.931 147.912 190.568 148.019 190.27 148.232C189.971 148.445 189.822 148.717 189.822 149.048ZM216.517 156.168H206.709V152.328H214.213V151.336H206.629V149.848H216.069V153.688H208.597V154.664H216.517V156.168ZM216.069 149.144H214.213V147.928H211.541V146.52H214.213V145.32H211.797V143.912H214.213V142.008H216.069V149.144ZM211.621 142.616C211.621 143.587 211.434 144.477 211.061 145.288C210.698 146.099 210.207 146.781 209.589 147.336C208.97 147.88 208.293 148.333 207.557 148.696C206.821 149.059 206.037 149.325 205.205 149.496L204.293 147.976C205.605 147.795 206.746 147.363 207.717 146.68C208.687 145.997 209.295 145.16 209.541 144.168H204.981V142.616H211.621ZM230.804 149.384H228.916V156.264H227.06V142.008H228.916V147.848H230.804V149.384ZM226.372 152.92C225.135 153.08 223.439 153.224 221.284 153.352C219.812 153.416 218.564 153.448 217.54 153.448L217.3 151.928C218.612 151.928 219.588 151.923 220.228 151.912V147.896H222.02V151.832C223.855 151.736 225.258 151.624 226.228 151.496L226.372 152.92ZM225.716 143.56C225.716 146.28 225.556 148.355 225.236 149.784L223.444 149.592C223.69 148.451 223.812 146.941 223.812 145.064H218.196V143.56H225.716ZM233.46 146.328C233.46 146.872 233.641 147.32 234.004 147.672C234.377 148.024 234.879 148.2 235.508 148.2C236.137 148.2 236.639 148.024 237.012 147.672C237.385 147.32 237.572 146.872 237.572 146.328C237.572 145.805 237.385 145.373 237.012 145.032C236.639 144.68 236.137 144.504 235.508 144.504C234.889 144.504 234.393 144.68 234.02 145.032C233.647 145.373 233.46 145.805 233.46 146.328ZM243.012 142.008V156.264H241.156V142.008H243.012ZM231.54 146.344C231.54 145.331 231.903 144.509 232.628 143.88C233.353 143.24 234.313 142.92 235.508 142.92C236.703 142.92 237.657 143.24 238.372 143.88C239.097 144.509 239.46 145.331 239.46 146.344C239.46 147.347 239.097 148.168 238.372 148.808C237.657 149.448 236.703 149.768 235.508 149.768C234.324 149.768 233.364 149.448 232.628 148.808C231.903 148.168 231.54 147.347 231.54 146.344ZM240.564 152.616C239.156 152.797 237.551 152.936 235.748 153.032C233.615 153.117 232.121 153.155 231.268 153.144L230.996 151.544C232.745 151.544 234.292 151.517 235.636 151.464C237.492 151.4 239.081 151.283 240.404 151.112L240.564 152.616ZM259.835 156.088H250.379V150.376H252.251V151.784H257.947V150.344H259.835V156.088ZM248.507 144.44V142.904H256.027V144.44H253.307C253.382 145.379 253.718 146.184 254.315 146.856C254.912 147.528 255.627 148.003 256.459 148.28L255.451 149.752C254.864 149.528 254.272 149.16 253.675 148.648C253.088 148.136 252.651 147.565 252.363 146.936C252.15 147.608 251.723 148.248 251.083 148.856C250.443 149.464 249.766 149.891 249.051 150.136L247.931 148.664C248.944 148.301 249.755 147.757 250.363 147.032C250.971 146.296 251.302 145.432 251.355 144.44H248.507ZM259.819 149.624H257.947V146.728H255.835V145.224H257.947V142.008H259.819V149.624ZM257.947 154.6V153.224H252.251V154.6H257.947ZM272.539 147.368H268.715V148.76H274.251V150.264H261.371V148.76H266.843V147.368H263.083V142.376H272.539V147.368ZM262.891 151.416H272.587V156.28H270.731V152.904H262.891V151.416ZM270.635 145.928V143.816H264.955V145.928H270.635Z" fill="#186BE8"/>
<path d="M166.5 191C166.5 191.552 166.948 192 167.5 192C168.052 192 168.5 191.552 168.5 191L166.5 191ZM168.5 175C168.5 174.448 168.052 174 167.5 174C166.948 174 166.5 174.448 166.5 175L168.5 175ZM168.5 190.951C168.5 190.399 168.052 189.951 167.5 189.951C166.948 189.951 166.5 190.399 166.5 190.951L168.5 190.951ZM166.5 187.049C166.5 187.601 166.948 188.049 167.5 188.049C168.052 188.049 168.5 187.601 168.5 187.049L166.5 187.049ZM168.5 186.951C168.5 186.399 168.052 185.951 167.5 185.951C166.948 185.951 166.5 186.399 166.5 186.951L168.5 186.951ZM166.5 183.049C166.5 183.601 166.948 184.049 167.5 184.049C168.052 184.049 168.5 183.601 168.5 183.049L166.5 183.049ZM168.5 182.951C168.5 182.399 168.052 181.951 167.5 181.951C166.948 181.951 166.5 182.399 166.5 182.951L168.5 182.951ZM166.5 179.049C166.5 179.601 166.948 180.049 167.5 180.049C168.052 180.049 168.5 179.601 168.5 179.049L166.5 179.049ZM168.5 178.951C168.5 178.399 168.052 177.951 167.5 177.951C166.948 177.951 166.5 178.399 166.5 178.951L168.5 178.951ZM166.5 175.049C166.5 175.601 166.948 176.049 167.5 176.049C168.052 176.049 168.5 175.601 168.5 175.049L166.5 175.049ZM168.5 191L168.5 190.951L166.5 190.951L166.5 191L168.5 191ZM168.5 187.049L168.5 186.951L166.5 186.951L166.5 187.049L168.5 187.049ZM168.5 183.049L168.5 182.951L166.5 182.951L166.5 183.049L168.5 183.049ZM168.5 179.049L168.5 178.951L166.5 178.951L166.5 179.049L168.5 179.049ZM168.5 175.049L168.5 175L166.5 175L166.5 175.049L168.5 175.049Z" fill="#2E87EF"/>
<path d="M0.5 230C0.5 211.498 15.4985 196.5 34 196.5H301C319.502 196.5 334.5 211.498 334.5 230C334.5 248.502 319.502 263.5 301 263.5H34C15.4985 263.5 0.5 248.502 0.5 230Z" fill="white" stroke="#2E87EF"/>
<path d="M122.14 215.816C122.14 216.765 121.676 217.533 120.748 218.12C119.831 218.696 118.604 218.984 117.068 218.984C115.543 218.984 114.316 218.696 113.388 218.12C112.471 217.533 112.012 216.765 112.012 215.816C112.012 214.877 112.471 214.12 113.388 213.544C114.316 212.957 115.543 212.664 117.068 212.664C118.604 212.664 119.831 212.957 120.748 213.544C121.676 214.12 122.14 214.877 122.14 215.816ZM115.548 226.248H113.676V221.496H110.652V220.008H123.532V221.496H120.444V226.248H118.572V221.496H115.548V226.248ZM119.324 217.016C119.9 216.696 120.188 216.296 120.188 215.816C120.188 215.336 119.905 214.941 119.34 214.632C118.775 214.323 118.017 214.168 117.068 214.168C116.119 214.168 115.361 214.323 114.796 214.632C114.231 214.941 113.948 215.336 113.948 215.816C113.948 216.296 114.231 216.696 114.796 217.016C115.361 217.325 116.119 217.48 117.068 217.48C118.007 217.48 118.759 217.325 119.324 217.016ZM135.148 212.008V217.48H137.26V219.032H135.148V226.264H133.244V212.008H135.148ZM124.108 218.088C124.108 216.563 124.438 215.331 125.1 214.392C125.761 213.453 126.662 212.984 127.804 212.984C128.956 212.984 129.857 213.453 130.508 214.392C131.169 215.331 131.5 216.563 131.5 218.088C131.5 219.603 131.169 220.829 130.508 221.768C129.857 222.696 128.956 223.16 127.804 223.16C126.662 223.16 125.761 222.696 125.1 221.768C124.438 220.829 124.108 219.603 124.108 218.088ZM129.708 218.088C129.708 216.979 129.532 216.104 129.18 215.464C128.828 214.813 128.369 214.488 127.804 214.488C127.26 214.488 126.812 214.813 126.46 215.464C126.108 216.104 125.932 216.979 125.932 218.088C125.932 219.187 126.108 220.056 126.46 220.696C126.812 221.336 127.26 221.656 127.804 221.656C128.369 221.656 128.828 221.336 129.18 220.696C129.532 220.056 129.708 219.187 129.708 218.088ZM139.819 216.328C139.819 216.872 140.001 217.32 140.363 217.672C140.737 218.024 141.238 218.2 141.867 218.2C142.497 218.2 142.998 218.024 143.371 217.672C143.745 217.32 143.931 216.872 143.931 216.328C143.931 215.805 143.745 215.373 143.371 215.032C142.998 214.68 142.497 214.504 141.867 214.504C141.249 214.504 140.753 214.68 140.379 215.032C140.006 215.373 139.819 215.805 139.819 216.328ZM149.371 212.008V226.264H147.515V212.008H149.371ZM137.899 216.344C137.899 215.331 138.262 214.509 138.987 213.88C139.713 213.24 140.673 212.92 141.867 212.92C143.062 212.92 144.017 213.24 144.731 213.88C145.457 214.509 145.819 215.331 145.819 216.344C145.819 217.347 145.457 218.168 144.731 218.808C144.017 219.448 143.062 219.768 141.867 219.768C140.683 219.768 139.723 219.448 138.987 218.808C138.262 218.168 137.899 217.347 137.899 216.344ZM146.923 222.616C145.515 222.797 143.91 222.936 142.107 223.032C139.974 223.117 138.481 223.155 137.627 223.144L137.355 221.544C139.105 221.544 140.651 221.517 141.995 221.464C143.851 221.4 145.441 221.283 146.763 221.112L146.923 222.616ZM166.178 222.344H164.306V217.752H161.682V216.216H164.306V212.008H166.178V222.344ZM166.482 225.88H156.786V221.384H158.674V224.392H166.482V225.88ZM161.698 213.096C161.656 215.069 161.064 216.696 159.922 217.976C158.792 219.256 157.25 220.179 155.298 220.744L154.37 219.256C155.682 219.011 156.84 218.483 157.842 217.672C158.845 216.861 159.458 215.853 159.682 214.648H155.058V213.096H161.698ZM180.914 216.904H178.882V220.328H176.994V212.008H178.882V215.368H180.914V216.904ZM179.058 223.368C179.058 224.253 178.626 224.957 177.762 225.48C176.909 226.003 175.709 226.264 174.162 226.264C172.647 226.264 171.463 226.003 170.61 225.48C169.757 224.957 169.33 224.253 169.33 223.368C169.33 222.472 169.757 221.768 170.61 221.256C171.463 220.733 172.647 220.472 174.162 220.472C175.709 220.472 176.909 220.733 177.762 221.256C178.626 221.768 179.058 222.472 179.058 223.368ZM176.354 224.408C176.877 224.152 177.138 223.805 177.138 223.368C177.138 222.931 176.877 222.589 176.354 222.344C175.831 222.099 175.101 221.976 174.162 221.976C173.234 221.976 172.514 222.099 172.002 222.344C171.49 222.589 171.234 222.931 171.234 223.368C171.234 223.805 171.49 224.152 172.002 224.408C172.514 224.653 173.234 224.776 174.162 224.776C175.101 224.776 175.831 224.653 176.354 224.408ZM174.898 212.984C174.887 214.872 174.317 216.44 173.186 217.688C172.055 218.925 170.493 219.827 168.498 220.392L167.57 218.904C168.871 218.627 170.023 218.109 171.026 217.352C172.029 216.595 172.626 215.656 172.818 214.536H168.258V212.984H174.898ZM193.954 219.512H181.074V218.024H193.954V219.512ZM192.77 226.2H182.61V222.568H190.402V221.752H182.626V220.296H192.258V223.88H184.482V224.664H192.77V226.2ZM184.434 214.776C184.434 215.107 184.711 215.384 185.266 215.608C185.82 215.821 186.578 215.928 187.538 215.928C188.498 215.928 189.255 215.821 189.81 215.608C190.375 215.384 190.658 215.107 190.658 214.776C190.658 214.435 190.38 214.163 189.826 213.96C189.271 213.747 188.508 213.64 187.538 213.64C186.567 213.64 185.804 213.747 185.25 213.96C184.706 214.163 184.434 214.435 184.434 214.776ZM182.498 214.776C182.498 213.987 182.935 213.363 183.81 212.904C184.695 212.445 185.938 212.216 187.538 212.216C189.127 212.216 190.364 212.445 191.25 212.904C192.135 213.363 192.578 213.987 192.578 214.776C192.578 215.555 192.135 216.179 191.25 216.648C190.364 217.107 189.127 217.336 187.538 217.336C185.948 217.336 184.711 217.107 183.826 216.648C182.94 216.179 182.498 215.555 182.498 214.776ZM206.441 215.72C206.441 216.573 206.089 217.283 205.385 217.848C204.691 218.403 203.801 218.68 202.713 218.68C201.614 218.68 200.723 218.403 200.041 217.848C199.358 217.293 199.017 216.584 199.017 215.72C199.017 214.835 199.358 214.109 200.041 213.544C200.723 212.968 201.614 212.68 202.713 212.68C203.822 212.68 204.718 212.968 205.401 213.544C206.094 214.109 206.441 214.835 206.441 215.72ZM209.993 212.008V226.264H208.137V212.008H209.993ZM203.705 225.848H201.801V221.128C200.446 221.192 199.273 221.224 198.281 221.224L198.009 219.688C201.465 219.688 204.59 219.544 207.385 219.256L207.545 220.696C206.595 220.824 205.315 220.936 203.705 221.032V225.848ZM204.569 215.704C204.569 215.267 204.393 214.909 204.041 214.632C203.699 214.344 203.257 214.2 202.713 214.2C202.19 214.2 201.753 214.344 201.401 214.632C201.059 214.909 200.889 215.267 200.889 215.704C200.889 216.131 201.059 216.477 201.401 216.744C201.742 217.011 202.179 217.144 202.713 217.144C203.267 217.144 203.715 217.011 204.057 216.744C204.398 216.477 204.569 216.131 204.569 215.704ZM219.624 216.024H211.352V214.568H219.624V216.024ZM218.936 219.048C218.936 219.805 218.616 220.429 217.976 220.92C217.347 221.4 216.547 221.64 215.576 221.64C214.595 221.64 213.784 221.4 213.144 220.92C212.504 220.429 212.184 219.805 212.184 219.048C212.184 218.291 212.504 217.667 213.144 217.176C213.784 216.675 214.595 216.424 215.576 216.424C216.536 216.424 217.336 216.675 217.976 217.176C218.616 217.677 218.936 218.301 218.936 219.048ZM213.464 213.896V212.472H217.704V213.896H213.464ZM222.616 212.008V216.616H224.6V218.168H222.616V222.6H220.744V212.008H222.616ZM222.952 225.928H213.208V222.168H215.096V224.44H222.952V225.928ZM214.04 219.048C214.04 219.357 214.19 219.619 214.488 219.832C214.787 220.035 215.15 220.136 215.576 220.136C215.992 220.136 216.35 220.035 216.648 219.832C216.958 219.619 217.112 219.357 217.112 219.048C217.112 218.717 216.958 218.445 216.648 218.232C216.35 218.019 215.992 217.912 215.576 217.912C215.15 217.912 214.787 218.019 214.488 218.232C214.19 218.445 214.04 218.717 214.04 219.048ZM85.3974 250.168H75.0454V246.84H82.9814V246.2H75.0454V244.824H79.0614V244.136H73.5894V242.744H86.4694V244.136H80.9334V244.824H84.8374V248.136H76.9334V248.792H85.3974V250.168ZM85.9094 240.904L85.1894 242.376C84.1014 242.301 83.0667 242.083 82.0854 241.72C81.1147 241.357 80.4267 240.904 80.0214 240.36C79.616 240.925 78.9387 241.389 77.9894 241.752C77.0507 242.115 76.0054 242.323 74.8534 242.376L74.1014 240.904C75.1787 240.915 76.1494 240.787 77.0134 240.52C77.888 240.253 78.496 239.901 78.8374 239.464H74.8534V238.056H85.1894V239.464H81.2534C81.6054 239.891 82.2134 240.237 83.0774 240.504C83.952 240.76 84.896 240.893 85.9094 240.904ZM77.6534 237.512V236.104H82.3894V237.512H77.6534ZM99.1731 247.384C99.1731 248.259 98.7251 248.957 97.8291 249.48C96.9438 250.003 95.7331 250.264 94.1971 250.264C92.6611 250.264 91.4505 250.003 90.5651 249.48C89.6798 248.957 89.2371 248.259 89.2371 247.384C89.2371 246.499 89.6798 245.8 90.5651 245.288C91.4505 244.765 92.6611 244.504 94.1971 244.504C95.7438 244.504 96.9598 244.765 97.8451 245.288C98.7305 245.8 99.1731 246.499 99.1731 247.384ZM99.0611 244.568H97.2851V241.032H96.1171V244.008H94.3891V236.264H96.1171V239.528H97.2851V236.008H99.0611V244.568ZM94.1011 242.328L93.1571 243.736C92.6665 243.523 92.1598 243.171 91.6371 242.68C91.1145 242.179 90.7625 241.704 90.5811 241.256C90.3785 241.821 90.0158 242.381 89.4931 242.936C88.9811 243.491 88.4265 243.907 87.8291 244.184L86.8051 242.856C87.6905 242.365 88.3785 241.731 88.8691 240.952C89.3705 240.173 89.6211 239.293 89.6211 238.312V236.904H91.4291V238.264C91.4291 239.203 91.6745 240.024 92.1651 240.728C92.6665 241.421 93.3118 241.955 94.1011 242.328ZM96.4371 248.392C96.9918 248.147 97.2691 247.811 97.2691 247.384C97.2691 246.957 96.9918 246.621 96.4371 246.376C95.8931 246.131 95.1465 246.008 94.1971 246.008C93.2691 246.008 92.5331 246.131 91.9891 246.376C91.4451 246.621 91.1731 246.957 91.1731 247.384C91.1731 247.811 91.4451 248.147 91.9891 248.392C92.5331 248.637 93.2691 248.76 94.1971 248.76C95.1465 248.76 95.8931 248.637 96.4371 248.392ZM115.036 242.584C115.036 243.288 114.625 243.843 113.804 244.248C112.993 244.643 111.873 244.84 110.444 244.84C109.015 244.84 107.895 244.643 107.084 244.248C106.273 243.843 105.868 243.288 105.868 242.584C105.868 241.869 106.273 241.309 107.084 240.904C107.895 240.499 109.015 240.296 110.444 240.296C111.884 240.296 113.009 240.499 113.82 240.904C114.631 241.309 115.036 241.869 115.036 242.584ZM111.324 250.248H109.452V246.888H103.98V245.4H116.86V246.888H111.324V250.248ZM116.14 239.8H104.732V238.328H116.14V239.8ZM107.884 237.656V236.2H112.972V237.656H107.884ZM113.116 242.584C113.116 242.317 112.86 242.104 112.348 241.944C111.847 241.784 111.212 241.704 110.444 241.704C109.676 241.704 109.041 241.784 108.54 241.944C108.049 242.093 107.804 242.307 107.804 242.584C107.804 242.84 108.049 243.048 108.54 243.208C109.041 243.357 109.676 243.432 110.444 243.432C111.212 243.432 111.847 243.357 112.348 243.208C112.86 243.048 113.116 242.84 113.116 242.584ZM132.371 247.384C132.371 248.269 131.934 248.968 131.059 249.48C130.184 249.992 128.963 250.248 127.395 250.248C125.827 250.248 124.606 249.992 123.731 249.48C122.867 248.968 122.435 248.269 122.435 247.384C122.435 246.488 122.867 245.789 123.731 245.288C124.606 244.776 125.827 244.52 127.395 244.52C128.963 244.52 130.184 244.776 131.059 245.288C131.934 245.789 132.371 246.488 132.371 247.384ZM121.219 238.536V237H128.723V238.536H126.019C126.094 239.485 126.424 240.296 127.011 240.968C127.608 241.629 128.328 242.099 129.171 242.376L128.147 243.848C127.56 243.624 126.974 243.261 126.387 242.76C125.8 242.248 125.358 241.677 125.059 241.048C124.846 241.72 124.419 242.36 123.779 242.968C123.139 243.576 122.462 244.003 121.747 244.248L120.643 242.792C121.656 242.429 122.467 241.88 123.075 241.144C123.683 240.397 124.014 239.528 124.067 238.536H121.219ZM134.211 240.952H132.179V244.344H130.291V236.008H132.179V239.416H134.211V240.952ZM127.395 246.024C126.424 246.024 125.667 246.141 125.123 246.376C124.59 246.611 124.323 246.947 124.323 247.384C124.323 247.821 124.59 248.163 125.123 248.408C125.667 248.643 126.424 248.76 127.395 248.76C128.376 248.76 129.134 248.643 129.667 248.408C130.211 248.163 130.483 247.821 130.483 247.384C130.483 246.947 130.216 246.611 129.683 246.376C129.15 246.141 128.387 246.024 127.395 246.024ZM149.226 236.008V241.48H151.162V243.032H149.226V250.264H147.322V236.008H149.226ZM143.322 245.096V238.824H140.282V245.096H143.322ZM145.194 237.32V246.584H138.426V237.32H145.194ZM163.194 250.264H161.338V236.008H163.194V250.264ZM152.794 245.768C152.143 244.84 151.818 243.613 151.818 242.088C151.818 240.563 152.143 239.331 152.794 238.392C153.455 237.453 154.356 236.984 155.498 236.984C156.65 236.984 157.551 237.453 158.202 238.392C158.863 239.331 159.194 240.563 159.194 242.088C159.194 243.603 158.863 244.829 158.202 245.768C157.551 246.696 156.65 247.16 155.498 247.16C154.356 247.16 153.455 246.696 152.794 245.768ZM157.402 242.088C157.402 240.979 157.226 240.104 156.874 239.464C156.522 238.813 156.063 238.488 155.498 238.488C154.954 238.488 154.506 238.813 154.154 239.464C153.812 240.104 153.642 240.979 153.642 242.088C153.642 243.187 153.812 244.056 154.154 244.696C154.506 245.336 154.954 245.656 155.498 245.656C156.063 245.656 156.522 245.336 156.874 244.696C157.226 244.056 157.402 243.187 157.402 242.088ZM176.137 237.56C176.137 241.432 175.903 244.317 175.433 246.216C175.103 246.184 174.505 246.131 173.641 246.056C173.823 245.331 173.977 244.243 174.105 242.792C173.209 242.835 171.86 242.904 170.057 243C168.265 243.096 166.921 243.165 166.025 243.208L165.785 241.72C169.465 241.571 172.265 241.453 174.185 241.368C174.239 240.429 174.265 239.651 174.265 239.032H166.297V237.56H176.137ZM177.641 248.376H164.761V246.904H177.641V248.376ZM189.769 244.776H185.449V247H190.985V248.488H178.105V247H183.577V244.776H179.753V240.056H187.497V238.408H179.673V236.92H189.353V241.544H181.609V243.272H189.769V244.776ZM202.601 236.008V241.384H204.633V242.936H202.601V250.264H200.713V236.008H202.601ZM198.713 246.744H191.961V237.16H193.817V240.584H196.841V237.128H198.713V246.744ZM196.841 245.272V242.056H193.817V245.272H196.841ZM216.569 250.264H214.713V236.008H216.569V250.264ZM206.169 245.768C205.518 244.84 205.193 243.613 205.193 242.088C205.193 240.563 205.518 239.331 206.169 238.392C206.83 237.453 207.731 236.984 208.873 236.984C210.025 236.984 210.926 237.453 211.577 238.392C212.238 239.331 212.569 240.563 212.569 242.088C212.569 243.603 212.238 244.829 211.577 245.768C210.926 246.696 210.025 247.16 208.873 247.16C207.731 247.16 206.83 246.696 206.169 245.768ZM210.777 242.088C210.777 240.979 210.601 240.104 210.249 239.464C209.897 238.813 209.438 238.488 208.873 238.488C208.329 238.488 207.881 238.813 207.529 239.464C207.187 240.104 207.017 240.979 207.017 242.088C207.017 243.187 207.187 244.056 207.529 244.696C207.881 245.336 208.329 245.656 208.873 245.656C209.438 245.656 209.897 245.336 210.249 244.696C210.601 244.056 210.777 243.187 210.777 242.088ZM219.608 238.968C219.608 238.157 220.046 237.501 220.92 237C221.795 236.488 223.011 236.232 224.568 236.232C226.147 236.232 227.374 236.488 228.248 237C229.123 237.501 229.56 238.157 229.56 238.968C229.56 239.704 229.203 240.317 228.488 240.808C227.774 241.299 226.771 241.592 225.48 241.688V242.744H231.016V244.248H218.136V242.744H223.608V241.688C222.339 241.581 221.352 241.283 220.648 240.792C219.955 240.301 219.608 239.693 219.608 238.968ZM229.368 250.088H219.784V245.304H229.368V250.088ZM222.344 238.008C221.811 238.243 221.544 238.563 221.544 238.968C221.544 239.373 221.811 239.699 222.344 239.944C222.878 240.179 223.619 240.296 224.568 240.296C225.507 240.296 226.248 240.173 226.792 239.928C227.347 239.683 227.624 239.363 227.624 238.968C227.624 238.563 227.352 238.243 226.808 238.008C226.275 237.763 225.528 237.64 224.568 237.64C223.619 237.64 222.878 237.763 222.344 238.008ZM227.512 248.632V246.728H221.64V248.632H227.512ZM246.415 242.248H236.831V236.584H238.703V238.056H244.559V236.568H246.415V242.248ZM242.687 247.144H240.815V244.808H235.183V243.336H248.063V244.808H242.687V247.144ZM246.559 249.88H236.831V245.88H238.703V248.408H246.559V249.88ZM244.559 240.76V239.512H238.703V240.76H244.559ZM250.671 245.016H260.335V250.28H258.447V246.504H250.671V245.016ZM260.319 244.296H258.447V240.504H256.015V239H258.447V236.008H260.319V244.296ZM257.071 242.248L255.983 243.72C255.396 243.496 254.794 243.117 254.175 242.584C253.567 242.04 253.114 241.453 252.815 240.824C252.612 241.528 252.18 242.189 251.519 242.808C250.868 243.427 250.191 243.853 249.487 244.088L248.383 242.6C249.439 242.216 250.276 241.619 250.895 240.808C251.514 239.997 251.823 239.064 251.823 238.008V236.6H253.759V237.912C253.759 238.957 254.084 239.869 254.735 240.648C255.386 241.427 256.164 241.96 257.071 242.248Z" fill="#186BE8"/>
<path d="M166.5 285C166.5 285.552 166.948 286 167.5 286C168.052 286 168.5 285.552 168.5 285L166.5 285ZM168.5 269C168.5 268.448 168.052 268 167.5 268C166.948 268 166.5 268.448 166.5 269L168.5 269ZM168.5 284.951C168.5 284.399 168.052 283.951 167.5 283.951C166.948 283.951 166.5 284.399 166.5 284.951L168.5 284.951ZM166.5 281.049C166.5 281.601 166.948 282.049 167.5 282.049C168.052 282.049 168.5 281.601 168.5 281.049L166.5 281.049ZM168.5 280.951C168.5 280.399 168.052 279.951 167.5 279.951C166.948 279.951 166.5 280.399 166.5 280.951L168.5 280.951ZM166.5 277.049C166.5 277.601 166.948 278.049 167.5 278.049C168.052 278.049 168.5 277.601 168.5 277.049L166.5 277.049ZM168.5 276.951C168.5 276.399 168.052 275.951 167.5 275.951C166.948 275.951 166.5 276.399 166.5 276.951L168.5 276.951ZM166.5 273.049C166.5 273.601 166.948 274.049 167.5 274.049C168.052 274.049 168.5 273.601 168.5 273.049L166.5 273.049ZM168.5 272.951C168.5 272.399 168.052 271.951 167.5 271.951C166.948 271.951 166.5 272.399 166.5 272.951L168.5 272.951ZM166.5 269.049C166.5 269.601 166.948 270.049 167.5 270.049C168.052 270.049 168.5 269.601 168.5 269.049L166.5 269.049ZM168.5 285L168.5 284.951L166.5 284.951L166.5 285L168.5 285ZM168.5 281.049L168.5 280.951L166.5 280.951L166.5 281.049L168.5 281.049ZM168.5 277.049L168.5 276.951L166.5 276.951L166.5 277.049L168.5 277.049ZM168.5 273.049L168.5 272.951L166.5 272.951L166.5 273.049L168.5 273.049ZM168.5 269.049L168.5 269L166.5 269L166.5 269.049L168.5 269.049Z" fill="#2E87EF"/>
<path d="M0.5 324C0.5 305.498 15.4985 290.5 34 290.5H301C319.502 290.5 334.5 305.498 334.5 324C334.5 342.502 319.502 357.5 301 357.5H34C15.4985 357.5 0.5 342.502 0.5 324Z" fill="white" stroke="#2E87EF"/>
<path d="M89.4208 315L89.4848 313.4H91.5328V310.408H89.4848L89.4208 308.824H91.5328V306.008H93.4048V320.264H91.5328V315H89.4208ZM81.6928 312.088C81.6928 310.552 82.0181 309.32 82.6688 308.392C83.3195 307.453 84.2155 306.984 85.3568 306.984C86.5088 306.984 87.4101 307.453 88.0608 308.392C88.7115 309.32 89.0368 310.552 89.0368 312.088C89.0368 313.603 88.7115 314.829 88.0608 315.768C87.4101 316.696 86.5088 317.16 85.3568 317.16C84.2155 317.16 83.3195 316.696 82.6688 315.768C82.0181 314.84 81.6928 313.613 81.6928 312.088ZM87.2448 312.088C87.2448 310.979 87.0688 310.104 86.7168 309.464C86.3755 308.813 85.9221 308.488 85.3568 308.488C84.8128 308.488 84.3701 308.813 84.0288 309.464C83.6875 310.104 83.5168 310.979 83.5168 312.088C83.5168 313.187 83.6875 314.056 84.0288 314.696C84.3701 315.336 84.8128 315.656 85.3568 315.656C85.9221 315.656 86.3755 315.336 86.7168 314.696C87.0688 314.056 87.2448 313.187 87.2448 312.088ZM106.749 314.328H104.877V310.456H102.445V308.968H104.877V306.008H106.749V314.328ZM103.485 312.328L102.413 313.784C101.826 313.549 101.223 313.165 100.605 312.632C99.9859 312.088 99.5326 311.507 99.2446 310.888C99.0419 311.592 98.6099 312.253 97.9486 312.872C97.2979 313.48 96.6259 313.901 95.9326 314.136L94.8126 312.648C95.8686 312.264 96.7059 311.672 97.3246 310.872C97.9432 310.061 98.2526 309.128 98.2526 308.072V306.664H100.189V307.976C100.189 309.021 100.509 309.933 101.149 310.712C101.799 311.491 102.578 312.029 103.485 312.328ZM106.845 317.384C106.845 318.259 106.413 318.952 105.549 319.464C104.685 319.987 103.479 320.248 101.933 320.248C100.418 320.248 99.2286 319.987 98.3646 319.464C97.5112 318.952 97.0846 318.259 97.0846 317.384C97.0846 316.488 97.5112 315.784 98.3646 315.272C99.2179 314.749 100.407 314.488 101.933 314.488C103.479 314.488 104.685 314.749 105.549 315.272C106.413 315.784 106.845 316.488 106.845 317.384ZM101.933 315.992C101.015 315.992 100.295 316.115 99.7726 316.36C99.2606 316.605 99.0046 316.947 99.0046 317.384C99.0046 317.811 99.2606 318.147 99.7726 318.392C100.295 318.627 101.015 318.744 101.933 318.744C102.882 318.744 103.613 318.627 104.125 318.392C104.647 318.147 104.909 317.811 104.909 317.384C104.909 316.947 104.647 316.605 104.125 316.36C103.613 316.115 102.882 315.992 101.933 315.992ZM110.78 310.328C110.78 310.872 110.962 311.32 111.324 311.672C111.698 312.024 112.199 312.2 112.828 312.2C113.458 312.2 113.959 312.024 114.332 311.672C114.706 311.32 114.892 310.872 114.892 310.328C114.892 309.805 114.706 309.373 114.332 309.032C113.959 308.68 113.458 308.504 112.828 308.504C112.21 308.504 111.714 308.68 111.34 309.032C110.967 309.373 110.78 309.805 110.78 310.328ZM120.332 306.008V320.264H118.476V306.008H120.332ZM108.86 310.344C108.86 309.331 109.223 308.509 109.948 307.88C110.674 307.24 111.634 306.92 112.828 306.92C114.023 306.92 114.978 307.24 115.692 307.88C116.418 308.509 116.78 309.331 116.78 310.344C116.78 311.347 116.418 312.168 115.692 312.808C114.978 313.448 114.023 313.768 112.828 313.768C111.644 313.768 110.684 313.448 109.948 312.808C109.223 312.168 108.86 311.347 108.86 310.344ZM117.884 316.616C116.476 316.797 114.871 316.936 113.068 317.032C110.935 317.117 109.442 317.155 108.588 317.144L108.316 315.544C110.066 315.544 111.612 315.517 112.956 315.464C114.812 315.4 116.402 315.283 117.724 315.112L117.884 316.616ZM137.139 316.344H135.267V311.752H132.643V310.216H135.267V306.008H137.139V316.344ZM137.443 319.88H127.747V315.384H129.635V318.392H137.443V319.88ZM132.659 307.096C132.617 309.069 132.025 310.696 130.883 311.976C129.753 313.256 128.211 314.179 126.259 314.744L125.331 313.256C126.643 313.011 127.801 312.483 128.803 311.672C129.806 310.861 130.419 309.853 130.643 308.648H126.019V307.096H132.659ZM151.875 310.904H149.843V314.328H147.955V306.008H149.843V309.368H151.875V310.904ZM150.019 317.368C150.019 318.253 149.587 318.957 148.723 319.48C147.87 320.003 146.67 320.264 145.123 320.264C143.608 320.264 142.424 320.003 141.571 319.48C140.718 318.957 140.291 318.253 140.291 317.368C140.291 316.472 140.718 315.768 141.571 315.256C142.424 314.733 143.608 314.472 145.123 314.472C146.67 314.472 147.87 314.733 148.723 315.256C149.587 315.768 150.019 316.472 150.019 317.368ZM147.315 318.408C147.838 318.152 148.099 317.805 148.099 317.368C148.099 316.931 147.838 316.589 147.315 316.344C146.792 316.099 146.062 315.976 145.123 315.976C144.195 315.976 143.475 316.099 142.963 316.344C142.451 316.589 142.195 316.931 142.195 317.368C142.195 317.805 142.451 318.152 142.963 318.408C143.475 318.653 144.195 318.776 145.123 318.776C146.062 318.776 146.792 318.653 147.315 318.408ZM145.859 306.984C145.848 308.872 145.278 310.44 144.147 311.688C143.016 312.925 141.454 313.827 139.459 314.392L138.531 312.904C139.832 312.627 140.984 312.109 141.987 311.352C142.99 310.595 143.587 309.656 143.779 308.536H139.219V306.984H145.859ZM164.915 313.512H152.035V312.024H164.915V313.512ZM163.731 320.2H153.571V316.568H161.363V315.752H153.587V314.296H163.219V317.88H155.443V318.664H163.731V320.2ZM155.395 308.776C155.395 309.107 155.672 309.384 156.227 309.608C156.781 309.821 157.539 309.928 158.499 309.928C159.459 309.928 160.216 309.821 160.771 309.608C161.336 309.384 161.619 309.107 161.619 308.776C161.619 308.435 161.341 308.163 160.787 307.96C160.232 307.747 159.469 307.64 158.499 307.64C157.528 307.64 156.765 307.747 156.211 307.96C155.667 308.163 155.395 308.435 155.395 308.776ZM153.459 308.776C153.459 307.987 153.896 307.363 154.771 306.904C155.656 306.445 156.899 306.216 158.499 306.216C160.088 306.216 161.325 306.445 162.211 306.904C163.096 307.363 163.539 307.987 163.539 308.776C163.539 309.555 163.096 310.179 162.211 310.648C161.325 311.107 160.088 311.336 158.499 311.336C156.909 311.336 155.672 311.107 154.787 310.648C153.901 310.179 153.459 309.555 153.459 308.776ZM181.226 320.264H179.45V313.08H178.186V319.608H176.442V306.264H178.186V311.592H179.45V306.008H181.226V320.264ZM175.146 307.688C175.167 311.944 173.444 315.208 169.978 317.48L168.762 316.184C170.138 315.363 171.215 314.349 171.994 313.144C172.772 311.939 173.22 310.621 173.338 309.192H169.626V307.688H175.146ZM190.905 312.904C190.799 313.053 190.623 313.293 190.377 313.624C190.143 313.944 189.967 314.189 189.849 314.36C189.284 314.147 188.681 313.752 188.041 313.176C187.412 312.6 186.948 311.992 186.649 311.352C186.436 312.067 185.999 312.755 185.337 313.416C184.687 314.077 184.02 314.52 183.337 314.744L182.233 313.256C183.279 312.872 184.111 312.253 184.729 311.4C185.348 310.536 185.657 309.571 185.657 308.504V306.824H187.609V308.408C187.609 309.443 187.935 310.381 188.585 311.224C189.247 312.056 190.02 312.616 190.905 312.904ZM194.217 316.344H192.345V310.792H189.897V309.288H192.345V306.008H194.217V316.344ZM194.521 319.88H184.825V315.4H186.681V318.392H194.521V319.88ZM203.977 310.888H195.705V309.4H203.977V310.888ZM197.705 308.408V306.936H202.105V308.408H197.705ZM206.921 306.008V311.784H208.905V313.336H206.921V320.264H205.033V306.008H206.921ZM196.409 314.456C196.409 313.571 196.729 312.84 197.369 312.264C198.009 311.677 198.836 311.384 199.849 311.384C200.873 311.384 201.7 311.672 202.329 312.248C202.969 312.824 203.289 313.56 203.289 314.456C203.289 315.341 202.969 316.077 202.329 316.664C201.689 317.24 200.862 317.528 199.849 317.528C198.825 317.528 197.993 317.245 197.353 316.68C196.724 316.104 196.409 315.363 196.409 314.456ZM198.233 314.456C198.233 314.915 198.382 315.288 198.681 315.576C198.99 315.864 199.38 316.008 199.849 316.008C200.361 316.008 200.756 315.869 201.033 315.592C201.321 315.304 201.465 314.925 201.465 314.456C201.465 313.987 201.31 313.608 201.001 313.32C200.702 313.032 200.318 312.888 199.849 312.888C199.38 312.888 198.99 313.032 198.681 313.32C198.382 313.608 198.233 313.987 198.233 314.456ZM220.905 320.264H219.033V306.008H220.905V320.264ZM216.521 307.496C216.403 312.04 214.281 315.437 210.153 317.688L209.001 316.28C210.537 315.576 211.806 314.557 212.809 313.224C213.811 311.88 214.377 310.488 214.505 309.048H209.865V307.496H216.521ZM234.48 309.72C234.48 310.573 234.128 311.283 233.424 311.848C232.73 312.403 231.84 312.68 230.752 312.68C229.653 312.68 228.762 312.403 228.08 311.848C227.397 311.293 227.056 310.584 227.056 309.72C227.056 308.835 227.397 308.109 228.08 307.544C228.762 306.968 229.653 306.68 230.752 306.68C231.861 306.68 232.757 306.968 233.44 307.544C234.133 308.109 234.48 308.835 234.48 309.72ZM238.032 306.008V320.264H236.176V306.008H238.032ZM231.744 319.848H229.84V315.128C228.485 315.192 227.312 315.224 226.32 315.224L226.048 313.688C229.504 313.688 232.629 313.544 235.424 313.256L235.584 314.696C234.634 314.824 233.354 314.936 231.744 315.032V319.848ZM232.608 309.704C232.608 309.267 232.432 308.909 232.08 308.632C231.738 308.344 231.296 308.2 230.752 308.2C230.229 308.2 229.792 308.344 229.44 308.632C229.098 308.909 228.928 309.267 228.928 309.704C228.928 310.131 229.098 310.477 229.44 310.744C229.781 311.011 230.218 311.144 230.752 311.144C231.306 311.144 231.754 311.011 232.096 310.744C232.437 310.477 232.608 310.131 232.608 309.704ZM247.663 310.024H239.391V308.568H247.663V310.024ZM246.975 313.048C246.975 313.805 246.655 314.429 246.015 314.92C245.386 315.4 244.586 315.64 243.615 315.64C242.634 315.64 241.823 315.4 241.183 314.92C240.543 314.429 240.223 313.805 240.223 313.048C240.223 312.291 240.543 311.667 241.183 311.176C241.823 310.675 242.634 310.424 243.615 310.424C244.575 310.424 245.375 310.675 246.015 311.176C246.655 311.677 246.975 312.301 246.975 313.048ZM241.503 307.896V306.472H245.743V307.896H241.503ZM250.655 306.008V310.616H252.639V312.168H250.655V316.6H248.783V306.008H250.655ZM250.991 319.928H241.247V316.168H243.135V318.44H250.991V319.928ZM242.079 313.048C242.079 313.357 242.229 313.619 242.527 313.832C242.826 314.035 243.189 314.136 243.615 314.136C244.031 314.136 244.389 314.035 244.687 313.832C244.997 313.619 245.151 313.357 245.151 313.048C245.151 312.717 244.997 312.445 244.687 312.232C244.389 312.019 244.031 311.912 243.615 311.912C243.189 311.912 242.826 312.019 242.527 312.232C242.229 312.445 242.079 312.717 242.079 313.048ZM137.139 344.264H135.267V330.008H137.139V344.264ZM130.883 339.144V332.808H127.875V339.144H130.883ZM132.771 331.32V340.632H126.003V331.32H132.771ZM150.931 341.384C150.931 342.259 150.483 342.957 149.587 343.48C148.702 344.003 147.491 344.264 145.955 344.264C144.419 344.264 143.208 344.003 142.323 343.48C141.438 342.957 140.995 342.259 140.995 341.384C140.995 340.499 141.438 339.8 142.323 339.288C143.208 338.765 144.419 338.504 145.955 338.504C147.502 338.504 148.718 338.765 149.603 339.288C150.488 339.8 150.931 340.499 150.931 341.384ZM150.819 338.568H149.043V335.032H147.875V338.008H146.147V330.264H147.875V333.528H149.043V330.008H150.819V338.568ZM145.859 336.328L144.915 337.736C144.424 337.523 143.918 337.171 143.395 336.68C142.872 336.179 142.52 335.704 142.339 335.256C142.136 335.821 141.774 336.381 141.251 336.936C140.739 337.491 140.184 337.907 139.587 338.184L138.563 336.856C139.448 336.365 140.136 335.731 140.627 334.952C141.128 334.173 141.379 333.293 141.379 332.312V330.904H143.187V332.264C143.187 333.203 143.432 334.024 143.923 334.728C144.424 335.421 145.07 335.955 145.859 336.328ZM148.195 342.392C148.75 342.147 149.027 341.811 149.027 341.384C149.027 340.957 148.75 340.621 148.195 340.376C147.651 340.131 146.904 340.008 145.955 340.008C145.027 340.008 144.291 340.131 143.747 340.376C143.203 340.621 142.931 340.957 142.931 341.384C142.931 341.811 143.203 342.147 143.747 342.392C144.291 342.637 145.027 342.76 145.955 342.76C146.904 342.76 147.651 342.637 148.195 342.392ZM163.715 344.2H153.683V340.552H161.347V339.72H153.587V338.248H157.507V337.176H152.035V335.768H164.915V337.176H159.379V338.248H163.219V341.864H155.539V342.68H163.715V344.2ZM163.203 334.824H153.747V330.28H163.203V334.824ZM161.299 333.352V331.72H155.619V333.352H161.299ZM167.858 334.328C167.858 334.872 168.04 335.32 168.402 335.672C168.776 336.024 169.277 336.2 169.906 336.2C170.536 336.2 171.037 336.024 171.41 335.672C171.784 335.32 171.97 334.872 171.97 334.328C171.97 333.805 171.784 333.373 171.41 333.032C171.037 332.68 170.536 332.504 169.906 332.504C169.288 332.504 168.792 332.68 168.418 333.032C168.045 333.373 167.858 333.805 167.858 334.328ZM177.41 330.008V344.264H175.554V330.008H177.41ZM165.938 334.344C165.938 333.331 166.301 332.509 167.026 331.88C167.752 331.24 168.712 330.92 169.906 330.92C171.101 330.92 172.056 331.24 172.77 331.88C173.496 332.509 173.858 333.331 173.858 334.344C173.858 335.347 173.496 336.168 172.77 336.808C172.056 337.448 171.101 337.768 169.906 337.768C168.722 337.768 167.762 337.448 167.026 336.808C166.301 336.168 165.938 335.347 165.938 334.344ZM174.962 340.616C173.554 340.797 171.949 340.936 170.146 341.032C168.013 341.117 166.52 341.155 165.666 341.144L165.394 339.544C167.144 339.544 168.69 339.517 170.034 339.464C171.89 339.4 173.48 339.283 174.802 339.112L174.962 340.616ZM194.921 336.776L193.977 338.232C192.911 337.987 191.887 337.544 190.905 336.904C189.924 336.253 189.241 335.485 188.857 334.6C188.516 335.496 187.844 336.269 186.841 336.92C185.849 337.56 184.809 338.003 183.721 338.248L182.825 336.728C183.604 336.621 184.351 336.397 185.065 336.056C185.791 335.704 186.42 335.219 186.953 334.6C187.487 333.981 187.791 333.304 187.865 332.568H183.529V331.096H194.201V332.568H189.865C189.94 333.293 190.255 333.971 190.809 334.6C191.375 335.229 192.015 335.72 192.729 336.072C193.455 336.424 194.185 336.659 194.921 336.776ZM195.305 342.472H182.425V341.016H187.881V337.832H189.769V341.016H195.305V342.472ZM207.657 341.416C207.657 342.291 207.214 342.979 206.329 343.48C205.454 343.981 204.233 344.232 202.665 344.232C201.097 344.232 199.87 343.981 198.985 343.48C198.11 342.979 197.673 342.291 197.673 341.416C197.673 340.52 198.11 339.821 198.985 339.32C199.87 338.808 201.097 338.552 202.665 338.552C204.233 338.552 205.454 338.808 206.329 339.32C207.214 339.821 207.657 340.52 207.657 341.416ZM196.265 332.552V331.016H203.769V332.552H201.065C201.129 333.491 201.454 334.296 202.041 334.968C202.638 335.629 203.358 336.099 204.201 336.376C204.073 336.568 203.886 336.84 203.641 337.192C203.406 337.533 203.257 337.752 203.193 337.848C202.606 337.624 202.014 337.256 201.417 336.744C200.83 336.232 200.393 335.672 200.105 335.064C199.892 335.736 199.46 336.376 198.809 336.984C198.169 337.592 197.497 338.019 196.793 338.264C196.718 338.168 196.548 337.949 196.281 337.608C196.025 337.256 195.822 336.989 195.673 336.808C196.686 336.445 197.497 335.896 198.105 335.16C198.713 334.424 199.044 333.555 199.097 332.552H196.265ZM203.545 334.92V333.416H205.689V330.008H207.561V338.488H205.689V334.92H203.545ZM202.665 340.056C201.694 340.056 200.937 340.179 200.393 340.424C199.86 340.659 199.593 340.989 199.593 341.416C199.593 341.832 199.86 342.157 200.393 342.392C200.937 342.627 201.694 342.744 202.665 342.744C203.646 342.744 204.404 342.627 204.937 342.392C205.481 342.157 205.753 341.832 205.753 341.416C205.753 340.979 205.481 340.643 204.937 340.408C204.404 340.173 203.646 340.056 202.665 340.056Z" fill="#186BE8"/>
<path d="M166.5 379C166.5 379.552 166.948 380 167.5 380C168.052 380 168.5 379.552 168.5 379L166.5 379ZM168.5 363C168.5 362.448 168.052 362 167.5 362C166.948 362 166.5 362.448 166.5 363L168.5 363ZM168.5 378.951C168.5 378.399 168.052 377.951 167.5 377.951C166.948 377.951 166.5 378.399 166.5 378.951L168.5 378.951ZM166.5 375.049C166.5 375.601 166.948 376.049 167.5 376.049C168.052 376.049 168.5 375.601 168.5 375.049L166.5 375.049ZM168.5 374.951C168.5 374.399 168.052 373.951 167.5 373.951C166.948 373.951 166.5 374.399 166.5 374.951L168.5 374.951ZM166.5 371.049C166.5 371.601 166.948 372.049 167.5 372.049C168.052 372.049 168.5 371.601 168.5 371.049L166.5 371.049ZM168.5 370.951C168.5 370.399 168.052 369.951 167.5 369.951C166.948 369.951 166.5 370.399 166.5 370.951L168.5 370.951ZM166.5 367.049C166.5 367.601 166.948 368.049 167.5 368.049C168.052 368.049 168.5 367.601 168.5 367.049L166.5 367.049ZM168.5 366.951C168.5 366.399 168.052 365.951 167.5 365.951C166.948 365.951 166.5 366.399 166.5 366.951L168.5 366.951ZM166.5 363.049C166.5 363.601 166.948 364.049 167.5 364.049C168.052 364.049 168.5 363.601 168.5 363.049L166.5 363.049ZM168.5 379L168.5 378.951L166.5 378.951L166.5 379L168.5 379ZM168.5 375.049L168.5 374.951L166.5 374.951L166.5 375.049L168.5 375.049ZM168.5 371.049L168.5 370.951L166.5 370.951L166.5 371.049L168.5 371.049ZM168.5 367.049L168.5 366.951L166.5 366.951L166.5 367.049L168.5 367.049ZM168.5 363.049L168.5 363L166.5 363L166.5 363.049L168.5 363.049Z" fill="#2E87EF"/>
<path d="M0.5 418C0.5 399.498 15.4985 384.5 34 384.5H301C319.502 384.5 334.5 399.498 334.5 418C334.5 436.502 319.502 451.5 301 451.5H34C15.4985 451.5 0.5 436.502 0.5 418Z" fill="white" stroke="#2E87EF"/>
<path d="M65.3658 410.344H63.4938V405.752H60.8698V404.216H63.4938V400.008H65.3658V410.344ZM65.6698 413.88H55.9738V409.384H57.8618V412.392H65.6698V413.88ZM60.8858 401.096C60.8431 403.069 60.2511 404.696 59.1098 405.976C57.9791 407.256 56.4378 408.179 54.4858 408.744L53.5578 407.256C54.8698 407.011 56.0271 406.483 57.0298 405.672C58.0324 404.861 58.6458 403.853 58.8698 402.648H54.2458V401.096H60.8858ZM80.1015 404.904H78.0695V408.328H76.1815V400.008H78.0695V403.368H80.1015V404.904ZM78.2455 411.368C78.2455 412.253 77.8135 412.957 76.9495 413.48C76.0962 414.003 74.8962 414.264 73.3495 414.264C71.8348 414.264 70.6508 414.003 69.7975 413.48C68.9442 412.957 68.5175 412.253 68.5175 411.368C68.5175 410.472 68.9442 409.768 69.7975 409.256C70.6508 408.733 71.8348 408.472 73.3495 408.472C74.8962 408.472 76.0962 408.733 76.9495 409.256C77.8135 409.768 78.2455 410.472 78.2455 411.368ZM75.5415 412.408C76.0642 412.152 76.3255 411.805 76.3255 411.368C76.3255 410.931 76.0642 410.589 75.5415 410.344C75.0188 410.099 74.2882 409.976 73.3495 409.976C72.4215 409.976 71.7015 410.099 71.1895 410.344C70.6775 410.589 70.4215 410.931 70.4215 411.368C70.4215 411.805 70.6775 412.152 71.1895 412.408C71.7015 412.653 72.4215 412.776 73.3495 412.776C74.2882 412.776 75.0188 412.653 75.5415 412.408ZM74.0855 400.984C74.0748 402.872 73.5042 404.44 72.3735 405.688C71.2428 406.925 69.6802 407.827 67.6855 408.392L66.7575 406.904C68.0588 406.627 69.2108 406.109 70.2135 405.352C71.2162 404.595 71.8135 403.656 72.0055 402.536H67.4455V400.984H74.0855ZM93.1413 407.512H80.2613V406.024H93.1413V407.512ZM91.9573 414.2H81.7973V410.568H89.5893V409.752H81.8133V408.296H91.4453V411.88H83.6693V412.664H91.9573V414.2ZM83.6213 402.776C83.6213 403.107 83.8986 403.384 84.4533 403.608C85.0079 403.821 85.7653 403.928 86.7253 403.928C87.6853 403.928 88.4426 403.821 88.9973 403.608C89.5626 403.384 89.8453 403.107 89.8453 402.776C89.8453 402.435 89.5679 402.163 89.0133 401.96C88.4586 401.747 87.6959 401.64 86.7253 401.64C85.7546 401.64 84.9919 401.747 84.4373 401.96C83.8933 402.163 83.6213 402.435 83.6213 402.776ZM81.6853 402.776C81.6853 401.987 82.1226 401.363 82.9973 400.904C83.8826 400.445 85.1253 400.216 86.7253 400.216C88.3146 400.216 89.5519 400.445 90.4373 400.904C91.3226 401.363 91.7653 401.987 91.7653 402.776C91.7653 403.555 91.3226 404.179 90.4373 404.648C89.5519 405.107 88.3146 405.336 86.7253 405.336C85.1359 405.336 83.8986 405.107 83.0133 404.648C82.1279 404.179 81.6853 403.555 81.6853 402.776ZM109.452 414.264H107.676V407.08H106.412V413.608H104.668V400.264H106.412V405.592H107.676V400.008H109.452V414.264ZM103.372 401.688C103.393 405.944 101.671 409.208 98.2041 411.48L96.9881 410.184C98.3641 409.363 99.4415 408.349 100.22 407.144C100.999 405.939 101.447 404.621 101.564 403.192H97.8521V401.688H103.372ZM119.132 406.904C119.025 407.053 118.849 407.293 118.604 407.624C118.369 407.944 118.193 408.189 118.076 408.36C117.511 408.147 116.908 407.752 116.268 407.176C115.639 406.6 115.175 405.992 114.876 405.352C114.663 406.067 114.225 406.755 113.564 407.416C112.913 408.077 112.247 408.52 111.564 408.744L110.46 407.256C111.505 406.872 112.337 406.253 112.956 405.4C113.575 404.536 113.884 403.571 113.884 402.504V400.824H115.836V402.408C115.836 403.443 116.161 404.381 116.812 405.224C117.473 406.056 118.247 406.616 119.132 406.904ZM122.444 410.344H120.572V404.792H118.124V403.288H120.572V400.008H122.444V410.344ZM122.748 413.88H113.052V409.4H114.908V412.392H122.748V413.88ZM132.204 404.888H123.932V403.4H132.204V404.888ZM125.932 402.408V400.936H130.332V402.408H125.932ZM135.148 400.008V405.784H137.132V407.336H135.148V414.264H133.26V400.008H135.148ZM124.636 408.456C124.636 407.571 124.956 406.84 125.596 406.264C126.236 405.677 127.062 405.384 128.076 405.384C129.1 405.384 129.926 405.672 130.556 406.248C131.196 406.824 131.516 407.56 131.516 408.456C131.516 409.341 131.196 410.077 130.556 410.664C129.916 411.24 129.089 411.528 128.076 411.528C127.052 411.528 126.22 411.245 125.58 410.68C124.95 410.104 124.636 409.363 124.636 408.456ZM126.46 408.456C126.46 408.915 126.609 409.288 126.908 409.576C127.217 409.864 127.606 410.008 128.076 410.008C128.588 410.008 128.982 409.869 129.26 409.592C129.548 409.304 129.692 408.925 129.692 408.456C129.692 407.987 129.537 407.608 129.228 407.32C128.929 407.032 128.545 406.888 128.076 406.888C127.606 406.888 127.217 407.032 126.908 407.32C126.609 407.608 126.46 407.987 126.46 408.456ZM150.219 412.264H137.339V410.776H141.963V405.976H143.835V410.776H150.219V412.264ZM148.747 401.256C148.811 404.851 148.609 407.544 148.139 409.336L146.347 409.112C146.753 407.608 146.923 405.491 146.859 402.76H138.715V401.256H148.747ZM166.61 414.152H156.802V410.344H164.306V409.432H156.706V407.944H166.162V411.72H158.69V412.648H166.61V414.152ZM155.026 402.264V400.776H162.546V402.264H159.858C159.976 403.117 160.317 403.827 160.882 404.392C161.458 404.947 162.152 405.352 162.962 405.608L161.938 407.064C161.384 406.861 160.808 406.504 160.21 405.992C159.624 405.48 159.176 404.925 158.866 404.328C158.653 405.011 158.232 405.64 157.602 406.216C156.973 406.792 156.301 407.208 155.586 407.464L154.466 406.04C156.514 405.283 157.645 404.024 157.858 402.264H155.026ZM166.162 407.224H164.306V400.008H166.162V407.224ZM179.506 400.008V408.328H177.65V406.392H175.618V404.936H177.65V403.4H175.618V401.944H177.65V400.008H179.506ZM174.898 407.528H168.194V400.824H170.066V402.824H173.042V400.792H174.898V407.528ZM173.042 406.056V404.28H170.066V406.056H173.042ZM179.618 411.384C179.618 412.259 179.186 412.952 178.322 413.464C177.458 413.987 176.253 414.248 174.706 414.248C173.191 414.248 172.002 413.987 171.138 413.464C170.285 412.952 169.858 412.259 169.858 411.384C169.858 410.488 170.285 409.784 171.138 409.272C171.991 408.749 173.181 408.488 174.706 408.488C176.253 408.488 177.458 408.749 178.322 409.272C179.186 409.784 179.618 410.488 179.618 411.384ZM174.706 409.992C173.789 409.992 173.069 410.115 172.546 410.36C172.023 410.605 171.762 410.947 171.762 411.384C171.762 411.811 172.023 412.147 172.546 412.392C173.069 412.627 173.789 412.744 174.706 412.744C175.655 412.744 176.386 412.627 176.898 412.392C177.421 412.147 177.682 411.811 177.682 411.384C177.682 410.947 177.421 410.605 176.898 410.36C176.386 410.115 175.655 409.992 174.706 409.992ZM193.954 407.512H181.074V406.024H193.954V407.512ZM192.77 414.2H182.61V410.568H190.402V409.752H182.626V408.296H192.258V411.88H184.482V412.664H192.77V414.2ZM184.434 402.776C184.434 403.107 184.711 403.384 185.266 403.608C185.82 403.821 186.578 403.928 187.538 403.928C188.498 403.928 189.255 403.821 189.81 403.608C190.375 403.384 190.658 403.107 190.658 402.776C190.658 402.435 190.38 402.163 189.826 401.96C189.271 401.747 188.508 401.64 187.538 401.64C186.567 401.64 185.804 401.747 185.25 401.96C184.706 402.163 184.434 402.435 184.434 402.776ZM182.498 402.776C182.498 401.987 182.935 401.363 183.81 400.904C184.695 400.445 185.938 400.216 187.538 400.216C189.127 400.216 190.364 400.445 191.25 400.904C192.135 401.363 192.578 401.987 192.578 402.776C192.578 403.555 192.135 404.179 191.25 404.648C190.364 405.107 189.127 405.336 187.538 405.336C185.948 405.336 184.711 405.107 183.826 404.648C182.94 404.179 182.498 403.555 182.498 402.776ZM205.657 409.128H203.977C203.454 410.579 202.574 411.304 201.337 411.304C200.633 411.304 200.041 411.053 199.561 410.552C199.091 410.04 198.755 409.416 198.553 408.68C198.361 407.933 198.265 407.096 198.265 406.168C198.265 405.251 198.361 404.424 198.553 403.688C198.755 402.952 199.091 402.333 199.561 401.832C200.041 401.331 200.633 401.08 201.337 401.08C202.542 401.08 203.411 401.773 203.945 403.16H205.657V400.28H207.401V413.608H205.657V409.128ZM210.249 414.264H208.473V400.008H210.249V414.264ZM202.361 408.68C202.585 408.04 202.697 407.208 202.697 406.184C202.697 405.16 202.585 404.328 202.361 403.688C202.147 403.037 201.811 402.712 201.353 402.712C200.915 402.712 200.585 403.037 200.361 403.688C200.137 404.328 200.025 405.16 200.025 406.184C200.025 407.197 200.137 408.029 200.361 408.68C200.585 409.32 200.915 409.64 201.353 409.64C201.811 409.64 202.147 409.32 202.361 408.68ZM204.441 406.184C204.441 406.707 204.403 407.187 204.329 407.624H205.657V404.664H204.329C204.403 405.123 204.441 405.629 204.441 406.184ZM224.632 404.936H222.616V408.344H220.712V400.008H222.616V403.4H224.632V404.936ZM218.568 407.368H211.816V400.808H213.672V402.744H216.68V400.776H218.568V407.368ZM216.68 405.88V404.2H213.672V405.88H216.68ZM222.776 411.384C222.776 412.269 222.344 412.968 221.48 413.48C220.616 414.003 219.416 414.264 217.88 414.264C216.355 414.264 215.16 414.003 214.296 413.48C213.432 412.968 213 412.269 213 411.384C213 410.488 213.432 409.784 214.296 409.272C215.16 408.749 216.355 408.488 217.88 408.488C219.427 408.488 220.627 408.744 221.48 409.256C222.344 409.768 222.776 410.477 222.776 411.384ZM217.88 409.976C216.952 409.976 216.227 410.104 215.704 410.36C215.192 410.605 214.936 410.947 214.936 411.384C214.936 411.811 215.192 412.147 215.704 412.392C216.227 412.637 216.952 412.76 217.88 412.76C218.819 412.76 219.55 412.637 220.072 412.392C220.595 412.147 220.856 411.811 220.856 411.384C220.856 410.947 220.595 410.605 220.072 410.36C219.55 410.104 218.819 409.976 217.88 409.976ZM233.016 404.888H224.744V403.4H233.016V404.888ZM226.744 402.408V400.936H231.144V402.408H226.744ZM235.96 400.008V405.784H237.944V407.336H235.96V414.264H234.072V400.008H235.96ZM225.448 408.456C225.448 407.571 225.768 406.84 226.408 406.264C227.048 405.677 227.875 405.384 228.888 405.384C229.912 405.384 230.739 405.672 231.368 406.248C232.008 406.824 232.328 407.56 232.328 408.456C232.328 409.341 232.008 410.077 231.368 410.664C230.728 411.24 229.901 411.528 228.888 411.528C227.864 411.528 227.032 411.245 226.392 410.68C225.763 410.104 225.448 409.363 225.448 408.456ZM227.272 408.456C227.272 408.915 227.421 409.288 227.72 409.576C228.029 409.864 228.419 410.008 228.888 410.008C229.4 410.008 229.795 409.869 230.072 409.592C230.36 409.304 230.504 408.925 230.504 408.456C230.504 407.987 230.349 407.608 230.04 407.32C229.741 407.032 229.357 406.888 228.888 406.888C228.419 406.888 228.029 407.032 227.72 407.32C227.421 407.608 227.272 407.987 227.272 408.456ZM249.944 414.264H248.072V400.008H249.944V414.264ZM245.56 401.496C245.443 406.04 243.32 409.437 239.192 411.688L238.04 410.28C239.576 409.576 240.845 408.557 241.848 407.224C242.851 405.88 243.416 404.488 243.544 403.048H238.904V401.496H245.56ZM263.519 403.72C263.519 404.573 263.167 405.283 262.463 405.848C261.769 406.403 260.879 406.68 259.791 406.68C258.692 406.68 257.801 406.403 257.119 405.848C256.436 405.293 256.095 404.584 256.095 403.72C256.095 402.835 256.436 402.109 257.119 401.544C257.801 400.968 258.692 400.68 259.791 400.68C260.9 400.68 261.796 400.968 262.479 401.544C263.172 402.109 263.519 402.835 263.519 403.72ZM267.071 400.008V414.264H265.215V400.008H267.071ZM260.783 413.848H258.879V409.128C257.524 409.192 256.351 409.224 255.359 409.224L255.087 407.688C258.543 407.688 261.668 407.544 264.463 407.256L264.623 408.696C263.673 408.824 262.393 408.936 260.783 409.032V413.848ZM261.647 403.704C261.647 403.267 261.471 402.909 261.119 402.632C260.777 402.344 260.335 402.2 259.791 402.2C259.268 402.2 258.831 402.344 258.479 402.632C258.137 402.909 257.967 403.267 257.967 403.704C257.967 404.131 258.137 404.477 258.479 404.744C258.82 405.011 259.257 405.144 259.791 405.144C260.345 405.144 260.793 405.011 261.135 404.744C261.476 404.477 261.647 404.131 261.647 403.704ZM276.703 404.024H268.431V402.568H276.703V404.024ZM276.015 407.048C276.015 407.805 275.695 408.429 275.055 408.92C274.425 409.4 273.625 409.64 272.655 409.64C271.673 409.64 270.863 409.4 270.223 408.92C269.583 408.429 269.263 407.805 269.263 407.048C269.263 406.291 269.583 405.667 270.223 405.176C270.863 404.675 271.673 404.424 272.655 404.424C273.615 404.424 274.415 404.675 275.055 405.176C275.695 405.677 276.015 406.301 276.015 407.048ZM270.543 401.896V400.472H274.783V401.896H270.543ZM279.695 400.008V404.616H281.679V406.168H279.695V410.6H277.823V400.008H279.695ZM280.031 413.928H270.287V410.168H272.174V412.44H280.031V413.928ZM271.119 407.048C271.119 407.357 271.268 407.619 271.567 407.832C271.865 408.035 272.228 408.136 272.655 408.136C273.071 408.136 273.428 408.035 273.727 407.832C274.036 407.619 274.191 407.357 274.191 407.048C274.191 406.717 274.036 406.445 273.727 406.232C273.428 406.019 273.071 405.912 272.655 405.912C272.228 405.912 271.865 406.019 271.567 406.232C271.268 406.445 271.119 406.717 271.119 407.048ZM110.792 432.392H100.344V430.904H102.44L102.04 427.608L103.912 427.384L104.2 430.904H107.048L107.56 427.416L109.368 427.704L108.776 430.904H110.792V432.392ZM112.04 436.392H99.1597V434.904H112.04V436.392ZM110.824 426.584H100.312V425.096H110.824V426.584ZM124.167 432.776H119.847V435H125.383V436.488H112.503V435H117.975V432.776H114.151V428.056H121.895V426.408H114.071V424.92H123.751V429.544H116.007V431.272H124.167V432.776ZM136.999 424.008V429.384H139.031V430.936H136.999V438.264H135.111V424.008H136.999ZM133.111 434.744H126.359V425.16H128.215V428.584H131.239V425.128H133.111V434.744ZM131.239 433.272V430.056H128.215V433.272H131.239ZM150.967 438.264H149.111V424.008H150.967V438.264ZM140.567 433.768C139.916 432.84 139.591 431.613 139.591 430.088C139.591 428.563 139.916 427.331 140.567 426.392C141.228 425.453 142.13 424.984 143.271 424.984C144.423 424.984 145.324 425.453 145.975 426.392C146.636 427.331 146.967 428.563 146.967 430.088C146.967 431.603 146.636 432.829 145.975 433.768C145.324 434.696 144.423 435.16 143.271 435.16C142.13 435.16 141.228 434.696 140.567 433.768ZM145.175 430.088C145.175 428.979 144.999 428.104 144.647 427.464C144.295 426.813 143.836 426.488 143.271 426.488C142.727 426.488 142.279 426.813 141.927 427.464C141.586 428.104 141.415 428.979 141.415 430.088C141.415 431.187 141.586 432.056 141.927 432.696C142.279 433.336 142.727 433.656 143.271 433.656C143.836 433.656 144.295 433.336 144.647 432.696C144.999 432.056 145.175 431.187 145.175 430.088ZM165.415 436.488H152.535V435H158.023V432.728C156.721 432.579 155.681 432.152 154.903 431.448C154.135 430.733 153.751 429.859 153.751 428.824C153.751 427.661 154.231 426.717 155.191 425.992C156.151 425.267 157.415 424.904 158.983 424.904C160.551 424.904 161.815 425.267 162.775 425.992C163.735 426.717 164.215 427.661 164.215 428.824C164.215 429.869 163.825 430.749 163.047 431.464C162.268 432.168 161.217 432.589 159.895 432.728V435H165.415V436.488ZM162.327 428.84C162.327 428.125 162.023 427.549 161.415 427.112C160.807 426.664 159.996 426.44 158.983 426.44C157.98 426.44 157.175 426.664 156.567 427.112C155.959 427.549 155.655 428.125 155.655 428.84C155.655 429.565 155.959 430.147 156.567 430.584C157.175 431.021 157.98 431.24 158.983 431.24C159.985 431.24 160.791 431.021 161.399 430.584C162.017 430.147 162.327 429.565 162.327 428.84ZM174.422 431.512C172.897 431.832 170.764 431.992 168.022 431.992H166.678V424.872H173.302V426.36H168.518V427.624H173.046V429.112H168.518V430.488C171.025 430.488 172.934 430.355 174.246 430.088C174.278 430.365 174.337 430.84 174.422 431.512ZM177.67 438.28H175.798V434.6H168.022V433.112H177.67V438.28ZM177.654 432.376H175.782V424.008H177.654V432.376ZM192.102 436.408H179.222V434.92H192.102V436.408ZM191.83 430.568L190.886 432.024C189.83 431.779 188.79 431.304 187.766 430.6C186.742 429.896 186.038 429.101 185.654 428.216C185.302 429.123 184.604 429.939 183.558 430.664C182.524 431.379 181.473 431.853 180.406 432.088L179.526 430.568C180.337 430.451 181.126 430.184 181.894 429.768C182.673 429.352 183.334 428.792 183.878 428.088C184.422 427.373 184.694 426.616 184.694 425.816V424.872H186.646V425.816C186.646 426.296 186.753 426.771 186.966 427.24C187.19 427.699 187.484 428.109 187.846 428.472C188.209 428.835 188.614 429.165 189.062 429.464C189.521 429.752 189.985 429.992 190.454 430.184C190.924 430.365 191.382 430.493 191.83 430.568ZM195.046 428.328C195.046 428.872 195.227 429.32 195.59 429.672C195.963 430.024 196.465 430.2 197.094 430.2C197.723 430.2 198.225 430.024 198.598 429.672C198.971 429.32 199.158 428.872 199.158 428.328C199.158 427.805 198.971 427.373 198.598 427.032C198.225 426.68 197.723 426.504 197.094 426.504C196.475 426.504 195.979 426.68 195.606 427.032C195.233 427.373 195.046 427.805 195.046 428.328ZM204.598 424.008V438.264H202.742V424.008H204.598ZM193.126 428.344C193.126 427.331 193.489 426.509 194.214 425.88C194.939 425.24 195.899 424.92 197.094 424.92C198.289 424.92 199.243 425.24 199.958 425.88C200.683 426.509 201.046 427.331 201.046 428.344C201.046 429.347 200.683 430.168 199.958 430.808C199.243 431.448 198.289 431.768 197.094 431.768C195.91 431.768 194.95 431.448 194.214 430.808C193.489 430.168 193.126 429.347 193.126 428.344ZM202.15 434.616C200.742 434.797 199.137 434.936 197.334 435.032C195.201 435.117 193.707 435.155 192.854 435.144L192.582 433.544C194.331 433.544 195.878 433.517 197.222 433.464C199.078 433.4 200.667 433.283 201.99 433.112L202.15 434.616ZM221.757 438.264H219.981V431.08H218.717V437.608H216.973V424.264H218.717V429.592H219.981V424.008H221.757V438.264ZM215.677 425.688C215.698 429.944 213.975 433.208 210.509 435.48L209.293 434.184C210.669 433.363 211.746 432.349 212.525 431.144C213.303 429.939 213.751 428.621 213.869 427.192H210.157V425.688H215.677ZM230.061 430.728H223.325V424.552H225.165V426.344H228.189V424.52H230.061V430.728ZM228.189 429.272V427.816H225.165V429.272H228.189ZM236.109 428.472H234.109V431.24H232.205V424.008H234.109V426.936H236.109V428.472ZM234.509 438.152H224.797V434.376H232.205V433.464H224.685V431.976H234.109V435.752H226.653V436.648H234.509V438.152Z" fill="#186BE8"/>
</svg>
