<svg width="1244" height="307" viewBox="0 0 1244 307" fill="none" xmlns="http://www.w3.org/2000/svg">
<circle opacity="0.18" cx="1022" cy="140" r="140" fill="url(#paint0_linear)"/>
<rect x="-0.5" y="0.5" width="179" height="179" rx="89.5" transform="matrix(-1 0 0 1 179 51.4746)" stroke="#2E87EF"/>
<path d="M52.828 119.668C52.828 122.638 54.196 125.878 57.526 125.878C60.856 125.878 62.224 122.638 62.224 119.668C62.224 116.698 60.856 113.476 57.526 113.476C54.196 113.476 52.828 116.698 52.828 119.668ZM60.388 119.668C60.388 122.008 59.65 124.276 57.526 124.276C55.402 124.276 54.664 122.008 54.664 119.668C54.664 117.328 55.402 115.078 57.526 115.078C59.65 115.078 60.388 117.328 60.388 119.668ZM68.1866 125.662V113.656H66.6026L63.3806 116.95L64.4426 118.048L66.3866 116.014V125.662H68.1866Z" fill="#2E87EF"/>
<path d="M65.4984 142.917V153.807H68.4244V142.917H65.4984ZM54.9604 154.687V162.937H68.4244V154.687H65.5424V156.579H57.8424V154.687H54.9604ZM57.8424 158.801H65.5424V160.627H57.8424V158.801ZM57.4024 143.753C54.2564 143.753 51.8804 145.755 51.8804 148.527C51.8804 151.321 54.2564 153.323 57.4024 153.323C60.5484 153.323 62.9024 151.321 62.9024 148.527C62.9024 145.755 60.5484 143.753 57.4024 143.753ZM57.4024 146.151C58.9424 146.151 60.0644 147.053 60.0644 148.527C60.0644 150.045 58.9424 150.925 57.4024 150.925C55.8624 150.925 54.7184 150.045 54.7184 148.527C54.7184 147.053 55.8624 146.151 57.4024 146.151ZM78.5407 144.479H75.6147V147.427C75.6147 151.189 74.0747 155.061 70.6647 156.667L72.4027 159.021C74.6907 157.899 76.2087 155.765 77.0887 153.191C77.9247 155.611 79.3547 157.569 81.4667 158.647L83.2267 156.359C79.9707 154.753 78.5407 151.079 78.5407 147.427V144.479ZM89.8927 150.705H86.9447V142.917H84.0407V163.179H86.9447V153.125H89.8927V150.705ZM98.403 147.251H102.583V144.853H91.231V147.251H95.455V148.373C95.455 151.827 93.805 155.545 90.417 157.063L92.067 159.373C94.443 158.295 96.071 156.073 96.973 153.433C97.875 155.875 99.481 157.855 101.835 158.867L103.419 156.579C100.031 155.171 98.403 151.673 98.403 148.373V147.251ZM104.453 142.917V163.179H107.357V142.917H104.453ZM120.399 154.687V156.667H124.205V158.273H127.109V142.917H124.205V154.687H120.399ZM116.505 145.711C117.847 145.711 118.793 146.239 118.793 147.229C118.793 148.219 117.847 148.725 116.505 148.725C115.141 148.725 114.195 148.219 114.195 147.229C114.195 146.239 115.141 145.711 116.505 145.711ZM116.505 150.837C119.453 150.837 121.543 149.385 121.543 147.229C121.543 145.073 119.453 143.599 116.505 143.599C113.535 143.599 111.467 145.073 111.467 147.229C111.467 149.385 113.535 150.837 116.505 150.837ZM115.427 160.517V157.745H118.221V153.917C119.849 153.785 121.477 153.609 123.061 153.345L122.863 151.277C118.595 151.827 113.667 151.871 109.971 151.893L110.345 154.203C111.863 154.203 113.557 154.181 115.339 154.093V156.799H112.523V162.827H127.549V160.517H115.427Z" fill="#2E87EF"/>
<rect x="800.5" y="51.9746" width="179" height="179" rx="89.5" stroke="#2E87EF"/>
<path d="M852.828 119.668C852.828 122.638 854.196 125.878 857.526 125.878C860.856 125.878 862.224 122.638 862.224 119.668C862.224 116.698 860.856 113.476 857.526 113.476C854.196 113.476 852.828 116.698 852.828 119.668ZM860.388 119.668C860.388 122.008 859.65 124.276 857.526 124.276C855.402 124.276 854.664 122.008 854.664 119.668C854.664 117.328 855.402 115.078 857.526 115.078C859.65 115.078 860.388 117.328 860.388 119.668ZM863.885 119.686C863.885 122.98 865.235 125.878 868.673 125.878C871.319 125.878 872.993 124.06 872.993 121.9C872.993 119.344 871.175 118.048 869.015 118.048C867.539 118.048 866.243 119.002 865.721 119.812C865.703 119.686 865.703 119.56 865.703 119.416C865.703 117.184 866.801 115.078 868.979 115.078C870.167 115.078 870.869 115.528 871.481 116.23L872.363 114.862C871.589 114.034 870.491 113.476 868.979 113.476C865.541 113.476 863.885 116.32 863.885 119.686ZM871.175 121.954C871.175 123.016 870.311 124.276 868.583 124.276C866.621 124.276 865.883 122.602 865.739 121.198C866.369 120.244 867.449 119.596 868.565 119.596C869.987 119.596 871.175 120.352 871.175 121.954Z" fill="#2E87EF"/>
<path d="M868.424 142.939H865.498V157.701H868.424V142.939ZM864.002 152.333C860.702 151.277 859.294 148.681 859.294 145.997V144.039H856.346V145.997C856.346 148.703 854.894 151.541 851.528 152.685L853.002 154.995C855.356 154.181 856.94 152.531 857.864 150.485C858.744 152.377 860.284 153.873 862.528 154.643L864.002 152.333ZM857.842 160.517V156.293H854.938V162.827H868.93V160.517H857.842ZM877.375 148.637H880.477V146.305H877.375V143.577H874.625V146.305H871.457V148.637H874.625V149.055C874.625 152.179 873.591 155.501 870.709 157.195L872.337 159.373C874.163 158.317 875.351 156.513 876.033 154.401C876.759 156.337 877.925 157.943 879.707 158.889L881.269 156.733C878.409 155.215 877.375 152.113 877.375 149.055V148.637ZM881.621 150.573H879.311V152.927H881.621V162.255H884.327V143.247H881.621V150.573ZM885.713 142.895V163.157H888.463V142.895H885.713ZM891.759 144.083V146.393H897.919C897.457 149.077 895.015 151.277 890.659 152.465L891.803 154.709C897.699 153.081 900.999 149.429 900.999 144.083H891.759ZM897.039 157.349H904.651V160.671H897.039V157.349ZM894.179 162.937H907.511V155.061H894.179V162.937ZM904.607 142.939V147.713H901.109V150.067H904.607V154.225H907.511V142.939H904.607ZM917.517 144.479H914.591V147.427C914.591 151.189 913.051 155.061 909.641 156.667L911.379 159.021C913.667 157.899 915.185 155.765 916.065 153.191C916.901 155.611 918.331 157.569 920.443 158.647L922.203 156.359C918.947 154.753 917.517 151.079 917.517 147.427V144.479ZM928.869 150.705H925.921V142.917H923.017V163.179H925.921V153.125H928.869V150.705Z" fill="#2E87EF"/>
<rect x="1064.5" y="51.9746" width="179" height="179" rx="89.5" fill="#2E87EF" stroke="#2E87EF"/>
<path d="M1124.71 136.355V138.409H1119.4V140.983H1124.71V142.777H1128.14V130.765H1124.71V133.781H1120.31C1120.42 133.105 1120.47 132.403 1120.47 131.675H1109.78V134.405H1116.7C1116.28 137.213 1113.84 139.501 1108.4 140.567L1109.55 143.323C1114.8 142.179 1118.18 139.917 1119.64 136.355H1124.71ZM1115.81 151.773V150.265H1128.14V143.661H1112.36V146.365H1124.71V147.717H1112.38V154.477H1128.63V151.773H1115.81ZM1143.97 144.259C1144.62 140.307 1144.62 137.395 1144.62 135.081V133.131H1132.3V135.861H1141.24C1141.24 137.993 1141.17 140.567 1140.62 143.973L1143.97 144.259ZM1138.75 139.995H1135.37V147.067C1133.86 147.093 1132.4 147.093 1131.08 147.093L1131.39 149.901C1135.55 149.875 1140.91 149.771 1145.77 148.939L1145.59 146.469C1143.4 146.729 1141.06 146.885 1138.75 146.963V139.995ZM1153.33 140.385H1150.11V130.739H1146.68V154.685H1150.11V143.245H1153.33V140.385ZM1163.24 139.631H1158.54V137.239H1163.24V139.631ZM1166.62 131.805H1163.24V134.665H1158.54V131.805H1155.16V142.309H1166.62V131.805ZM1160.93 150.369H1173.3V143.869H1157.5V146.469H1169.92V147.925H1157.52V154.529H1174.01V151.877H1160.93V150.369ZM1173.3 135.393V130.765H1169.87V142.933H1173.3V138.175H1176.45V135.393H1173.3ZM1186.36 144.831H1190.49V149.329H1186.36V144.831ZM1185.97 135.393H1190.86V142.127H1185.97V135.393ZM1193.9 149.329V144.831H1197.46V142.127H1194.26V135.393H1197.51V132.663H1179.31V135.393H1182.56V142.127H1179.44V144.831H1182.95V149.329H1177.6V152.085H1199.31V149.329H1193.9Z" fill="white"/>
<rect x="-0.5" y="0.5" width="179" height="179" rx="89.5" transform="matrix(-1 0 0 1 339 51.4746)" stroke="#2E87EF"/>
<path d="M212.828 119.668C212.828 122.638 214.196 125.878 217.526 125.878C220.856 125.878 222.224 122.638 222.224 119.668C222.224 116.698 220.856 113.476 217.526 113.476C214.196 113.476 212.828 116.698 212.828 119.668ZM220.388 119.668C220.388 122.008 219.65 124.276 217.526 124.276C215.402 124.276 214.664 122.008 214.664 119.668C214.664 117.328 215.402 115.078 217.526 115.078C219.65 115.078 220.388 117.328 220.388 119.668ZM232.453 125.662V124.078H226.855C230.149 121.54 232.399 119.434 232.399 117.094C232.399 114.7 230.365 113.476 228.205 113.476C226.531 113.476 224.893 114.142 223.903 115.384L224.965 116.554C225.703 115.672 226.801 115.078 228.223 115.078C229.393 115.078 230.563 115.69 230.563 117.094C230.563 118.984 228.493 120.784 223.993 124.24V125.662H232.453Z" fill="#2E87EF"/>
<path d="M219.206 144.479H216.28V147.405C216.28 151.255 214.74 155.193 211.308 156.777L213.112 159.109C215.378 157.965 216.896 155.853 217.776 153.257C218.612 155.699 220.086 157.679 222.308 158.757L224.024 156.447C220.68 154.951 219.206 151.233 219.206 147.405V144.479ZM225.696 142.895V149.253H221.802V151.585H225.696V163.223H228.6V142.895H225.696ZM244.371 147.317H233.217V153.367H247.803V151.057H236.187V149.451H247.319V143.533H233.195V145.843H244.371V147.317ZM249.431 154.797H231.083V157.107H235.307V163.201H238.233V157.107H242.303V163.201H245.229V157.107H249.431V154.797ZM261.439 148.153V150.507H264.607V157.701H267.511V142.917H264.607V148.153H261.439ZM262.781 152.817C259.591 151.739 258.205 149.253 258.205 146.855V146.591H262.143V144.281H251.253V146.591H255.235V146.877C255.235 149.429 253.783 152.091 250.461 153.169L251.935 155.479C254.289 154.687 255.873 153.081 256.775 151.079C257.655 152.905 259.151 154.357 261.373 155.083L262.781 152.817ZM257.061 160.517V156.469H254.157V162.827H267.973V160.517H257.061ZM284.095 155.809H286.999V142.917H284.095V147.361H281.499V149.671H284.095V151.409H281.455V153.719H284.095V155.809ZM281.235 144.743H277.275V142.763H274.371V144.743H270.125V147.031H281.235V144.743ZM273.777 151.519C273.777 150.463 274.591 149.891 275.823 149.891C277.033 149.891 277.869 150.463 277.869 151.519C277.869 152.575 277.033 153.147 275.823 153.147C274.591 153.147 273.777 152.575 273.777 151.519ZM280.553 151.519C280.553 149.275 278.595 147.735 275.823 147.735C273.029 147.735 271.071 149.275 271.071 151.519C271.071 153.763 273.029 155.303 275.823 155.303C278.595 155.303 280.553 153.763 280.553 151.519ZM280.157 160.979C277.649 160.979 276.285 160.561 276.285 159.637C276.285 158.691 277.649 158.295 280.157 158.295C282.643 158.295 284.029 158.691 284.029 159.637C284.029 160.561 282.643 160.979 280.157 160.979ZM280.157 156.073C275.889 156.073 273.205 157.393 273.205 159.637C273.205 161.859 275.889 163.179 280.157 163.179C284.425 163.179 287.087 161.859 287.087 159.637C287.087 157.393 284.425 156.073 280.157 156.073Z" fill="#2E87EF"/>
<rect x="-0.5" y="0.5" width="179" height="179" rx="89.5" transform="matrix(-1 0 0 1 499 51.4746)" stroke="#2E87EF"/>
<path d="M378.68 142.939H375.754V157.481H378.68V142.939ZM364.974 149.363C364.974 147.691 366.162 146.723 367.658 146.723C369.176 146.723 370.32 147.691 370.32 149.363C370.32 150.991 369.176 151.981 367.658 151.981C366.162 151.981 364.974 150.991 364.974 149.363ZM373.158 149.363C373.158 146.371 370.76 144.215 367.658 144.215C364.556 144.215 362.136 146.371 362.136 149.363C362.136 152.311 364.556 154.489 367.658 154.489C370.76 154.489 373.158 152.311 373.158 149.363ZM368.098 160.517V156.051H365.194V162.827H379.186V160.517H368.098ZM393.549 152.157C390.425 151.101 389.017 148.659 388.973 146.349H392.911V144.039H382.021V146.349H386.003C385.959 148.857 384.485 151.431 381.229 152.531L382.703 154.819C385.057 154.049 386.641 152.421 387.543 150.441C388.401 152.245 389.919 153.697 392.141 154.423L393.549 152.157ZM384.463 158.185H395.375V163.201H398.279V155.875H384.463V158.185ZM395.375 142.939V147.757H392.383V150.089H395.375V154.973H398.279V142.939H395.375ZM414.863 154.797H417.767V142.917H414.863V146.613H411.167V148.967H414.863V154.797ZM413.015 151.871C409.803 150.837 408.483 148.373 408.483 145.645V143.973H405.535V145.777C405.535 148.571 404.105 151.321 400.651 152.421L402.169 154.753C404.567 153.939 406.173 152.311 407.075 150.243C407.933 152.047 409.363 153.433 411.497 154.159L413.015 151.871ZM410.925 160.957C408.263 160.957 406.877 160.407 406.877 159.263C406.877 158.097 408.263 157.547 410.925 157.547C413.565 157.547 414.951 158.097 414.951 159.263C414.951 160.407 413.565 160.957 410.925 160.957ZM410.925 155.303C406.613 155.303 403.973 156.755 403.973 159.263C403.973 161.727 406.613 163.179 410.925 163.179C415.215 163.179 417.855 161.727 417.855 159.263C417.855 156.755 415.215 155.303 410.925 155.303ZM421.503 144.083V146.393H427.663C427.201 149.077 424.759 151.277 420.403 152.465L421.547 154.709C427.443 153.081 430.743 149.429 430.743 144.083H421.503ZM426.783 157.349H434.395V160.671H426.783V157.349ZM423.923 162.937H437.255V155.061H423.923V162.937ZM434.351 142.939V147.713H430.853V150.067H434.351V154.225H437.255V142.939H434.351ZM447.261 144.479H444.335V147.427C444.335 151.189 442.795 155.061 439.385 156.667L441.123 159.021C443.411 157.899 444.929 155.765 445.809 153.191C446.645 155.611 448.075 157.569 450.187 158.647L451.947 156.359C448.691 154.753 447.261 151.079 447.261 147.427V144.479ZM458.613 150.705H455.665V142.917H452.761V163.179H455.665V153.125H458.613V150.705Z" fill="#2E87EF"/>
<path d="M362.828 119.668C362.828 122.638 364.196 125.878 367.526 125.878C370.856 125.878 372.224 122.638 372.224 119.668C372.224 116.698 370.856 113.476 367.526 113.476C364.196 113.476 362.828 116.698 362.828 119.668ZM370.388 119.668C370.388 122.008 369.65 124.276 367.526 124.276C365.402 124.276 364.664 122.008 364.664 119.668C364.664 117.328 365.402 115.078 367.526 115.078C369.65 115.078 370.388 117.328 370.388 119.668ZM373.525 123.916C374.299 124.996 375.847 125.878 377.935 125.878C380.653 125.878 382.327 124.42 382.327 122.404C382.327 120.514 380.671 119.578 379.537 119.47C380.725 119.254 382.147 118.372 382.147 116.698C382.147 114.682 380.383 113.476 377.935 113.476C376.009 113.476 374.587 114.286 373.687 115.348L374.641 116.464C375.523 115.564 376.513 115.078 377.773 115.078C379.195 115.078 380.347 115.726 380.347 116.95C380.347 118.192 379.159 118.732 377.701 118.732C377.233 118.732 376.603 118.732 376.405 118.714V120.352C376.585 120.334 377.215 120.334 377.701 120.334C379.447 120.334 380.527 120.892 380.527 122.224C380.527 123.484 379.537 124.276 377.881 124.276C376.531 124.276 375.289 123.664 374.533 122.746L373.525 123.916Z" fill="#2E87EF"/>
<rect x="-0.5" y="0.5" width="179" height="179" rx="89.5" transform="matrix(-1 0 0 1 659 51.4746)" stroke="#2E87EF"/>
<path d="M532.828 119.668C532.828 122.638 534.196 125.878 537.526 125.878C540.856 125.878 542.224 122.638 542.224 119.668C542.224 116.698 540.856 113.476 537.526 113.476C534.196 113.476 532.828 116.698 532.828 119.668ZM540.388 119.668C540.388 122.008 539.65 124.276 537.526 124.276C535.402 124.276 534.664 122.008 534.664 119.668C534.664 117.328 535.402 115.078 537.526 115.078C539.65 115.078 540.388 117.328 540.388 119.668ZM551.103 125.662V122.782H552.759V121.198H551.103V113.656H548.637L543.597 121.306V122.782H549.303V125.662H551.103ZM549.303 121.198H545.379L549.303 115.294V121.198Z" fill="#2E87EF"/>
<path d="M548.402 142.939H545.498V153.147H548.402V142.939ZM544.024 150.639C540.746 149.671 539.294 147.317 539.294 144.919V143.401H536.346V144.919C536.346 147.383 534.872 149.935 531.506 150.969L532.914 153.235C535.29 152.509 536.94 150.969 537.864 149.055C538.766 150.815 540.328 152.223 542.638 152.905L544.024 150.639ZM537.82 160.781V159.527H548.424V154.049H534.916V156.271H545.542V157.459H534.938V163.025H548.93V160.781H537.82ZM564.393 149.803H556.055V146.195H564.393V149.803ZM567.231 143.907H553.195V152.091H567.231V143.907ZM569.431 154.247H551.083V156.557H558.739V163.179H561.643V156.557H569.431V154.247ZM578.117 152.157H574.267V146.811H578.117V152.157ZM584.607 148.417V150.463H580.955V148.417H584.607ZM580.955 152.773H584.607V157.679H587.511V142.917H584.607V146.107H580.955V144.545H571.407V154.445H580.955V152.773ZM577.039 160.517V156.293H574.135V162.827H587.951V160.517H577.039ZM602.269 151.717C599.255 150.705 597.847 148.395 597.715 146.151H601.631V143.841H590.741V146.151H594.701C594.569 148.593 593.095 151.035 589.949 152.091L591.423 154.379C593.777 153.587 595.361 151.981 596.263 150.001C597.121 151.805 598.639 153.257 600.861 153.983L602.269 151.717ZM604.117 160.627H596.439V158.889H604.117V160.627ZM604.117 156.667H596.439V154.819H593.579V162.937H606.999V154.819H604.117V156.667ZM604.095 142.917V147.449H601.037V149.803H604.095V154.005H606.999V142.917H604.095Z" fill="#2E87EF"/>
<rect x="-0.5" y="0.5" width="179" height="179" rx="89.5" transform="matrix(-1 0 0 1 819 51.4746)" stroke="#2E87EF"/>
<path d="M692.828 119.668C692.828 122.638 694.196 125.878 697.526 125.878C700.856 125.878 702.224 122.638 702.224 119.668C702.224 116.698 700.856 113.476 697.526 113.476C694.196 113.476 692.828 116.698 692.828 119.668ZM700.388 119.668C700.388 122.008 699.65 124.276 697.526 124.276C695.402 124.276 694.664 122.008 694.664 119.668C694.664 117.328 695.402 115.078 697.526 115.078C699.65 115.078 700.388 117.328 700.388 119.668ZM704.155 123.988C705.091 125.158 706.459 125.878 708.511 125.878C711.049 125.878 712.921 124.33 712.921 121.864C712.921 119.398 711.103 118.012 709.087 118.012C707.917 118.012 706.909 118.498 706.333 119.074V115.24H712.129V113.656H704.533V120.244L705.829 120.658C706.621 119.902 707.485 119.578 708.529 119.578C710.077 119.578 711.103 120.496 711.103 121.936C711.103 123.25 710.059 124.276 708.493 124.276C707.089 124.276 706.009 123.736 705.217 122.764L704.155 123.988Z" fill="#2E87EF"/>
<path d="M708.424 142.939H705.498V157.481H708.424V142.939ZM694.718 149.363C694.718 147.691 695.906 146.723 697.402 146.723C698.92 146.723 700.064 147.691 700.064 149.363C700.064 150.991 698.92 151.981 697.402 151.981C695.906 151.981 694.718 150.991 694.718 149.363ZM702.902 149.363C702.902 146.371 700.504 144.215 697.402 144.215C694.3 144.215 691.88 146.371 691.88 149.363C691.88 152.311 694.3 154.489 697.402 154.489C700.504 154.489 702.902 152.311 702.902 149.363ZM697.842 160.517V156.051H694.938V162.827H708.93V160.517H697.842ZM725.119 154.797H728.023V142.917H725.119V146.613H721.423V148.967H725.119V154.797ZM723.271 151.871C720.059 150.837 718.739 148.373 718.739 145.645V143.973H715.791V145.777C715.791 148.571 714.361 151.321 710.907 152.421L712.425 154.753C714.823 153.939 716.429 152.311 717.331 150.243C718.189 152.047 719.619 153.433 721.753 154.159L723.271 151.871ZM721.181 160.957C718.519 160.957 717.133 160.407 717.133 159.263C717.133 158.097 718.519 157.547 721.181 157.547C723.821 157.547 725.207 158.097 725.207 159.263C725.207 160.407 723.821 160.957 721.181 160.957ZM721.181 155.303C716.869 155.303 714.229 156.755 714.229 159.263C714.229 161.727 716.869 163.179 721.181 163.179C725.471 163.179 728.111 161.727 728.111 159.263C728.111 156.755 725.471 155.303 721.181 155.303ZM738.117 152.157H734.267V146.811H738.117V152.157ZM744.607 148.417V150.463H740.955V148.417H744.607ZM740.955 152.773H744.607V157.679H747.511V142.917H744.607V146.107H740.955V144.545H731.407V154.445H740.955V152.773ZM737.039 160.517V156.293H734.135V162.827H747.951V160.517H737.039ZM762.269 151.717C759.255 150.705 757.847 148.395 757.715 146.151H761.631V143.841H750.741V146.151H754.701C754.569 148.593 753.095 151.035 749.949 152.091L751.423 154.379C753.777 153.587 755.361 151.981 756.263 150.001C757.121 151.805 758.639 153.257 760.861 153.983L762.269 151.717ZM764.117 160.627H756.439V158.889H764.117V160.627ZM764.117 156.667H756.439V154.819H753.579V162.937H766.999V154.819H764.117V156.667ZM764.095 142.917V147.449H761.037V149.803H764.095V154.005H766.999V142.917H764.095Z" fill="#2E87EF"/>
<path d="M665.171 265.848H663.859V276.328H665.171V265.848ZM655.011 270.36C655.011 268.968 656.067 267.976 657.459 267.976C658.883 267.976 659.939 268.968 659.939 270.36C659.939 271.784 658.883 272.776 657.459 272.776C656.067 272.776 655.011 271.784 655.011 270.36ZM661.219 270.36C661.219 268.296 659.603 266.84 657.459 266.84C655.331 266.84 653.731 268.296 653.731 270.36C653.731 272.44 655.331 273.912 657.459 273.912C659.603 273.912 661.219 272.44 661.219 270.36ZM657.251 278.792V275.256H655.939V279.864H665.603V278.792H657.251ZM677.86 274.328H679.188V265.848H677.86V268.888H674.74V269.96H677.86V274.328ZM675.78 272.632C673.684 271.896 672.292 270.12 672.292 268.072V266.648H670.98V268.12C670.98 270.312 669.556 272.232 667.348 273.016L668.036 274.088C669.764 273.432 671.06 272.136 671.668 270.44C672.292 271.928 673.508 273.064 675.076 273.656L675.78 272.632ZM674.452 279.128C672.292 279.128 670.98 278.504 670.98 277.464C670.98 276.408 672.292 275.784 674.452 275.784C676.612 275.784 677.924 276.408 677.924 277.464C677.924 278.504 676.612 279.128 674.452 279.128ZM674.452 274.76C671.508 274.76 669.668 275.736 669.668 277.464C669.668 279.176 671.508 280.168 674.452 280.168C677.396 280.168 679.236 279.176 679.236 277.464C679.236 275.736 677.396 274.76 674.452 274.76ZM687.252 272.744H683.284V268.136H687.252V272.744ZM691.828 269.432V271.432H688.532V269.432H691.828ZM688.532 272.504H691.828V276.312H693.156V265.848H691.828V268.36H688.532V267.096H681.988V273.784H688.532V272.504ZM685.236 278.792V275.384H683.924V279.864H693.492V278.792H685.236ZM703.765 272.504C701.685 271.768 700.277 269.976 700.277 268.136V267.768H703.429V266.696H695.765V267.768H698.965V268.136C698.965 270.184 697.477 272.088 695.349 272.84L696.037 273.88C697.717 273.24 699.029 271.944 699.637 270.296C700.277 271.768 701.509 272.952 703.109 273.544L703.765 272.504ZM705.813 278.92H699.221V277.112H705.813V278.92ZM705.813 276.088H699.221V274.312H697.925V279.992H707.109V274.312H705.813V276.088ZM705.797 265.848V269.32H702.965V270.392H705.797V273.624H707.109V265.848H705.797ZM713.926 266.888C711.702 266.888 710.086 268.248 710.086 270.264C710.086 272.264 711.702 273.64 713.926 273.64C716.166 273.64 717.766 272.264 717.766 270.264C717.766 268.248 716.166 266.888 713.926 266.888ZM713.926 268.008C715.414 268.008 716.486 268.92 716.486 270.264C716.486 271.592 715.414 272.52 713.926 272.52C712.454 272.52 711.366 271.592 711.366 270.264C711.366 268.92 712.454 268.008 713.926 268.008ZM719.654 265.832V280.216H720.966V265.832H719.654ZM709.526 277.064C712.118 277.064 715.59 277.032 718.822 276.44L718.71 275.464C715.574 275.944 711.974 275.96 709.366 275.96L709.526 277.064ZM736.563 269.544V271.464H732.803V272.536H736.563V274.424H737.891V265.848H736.563V268.472H733.315C733.411 267.976 733.475 267.448 733.475 266.92H726.995V267.976H732.051C731.811 270.456 729.683 272.36 726.259 273.384L726.787 274.424C729.875 273.528 732.051 271.848 732.979 269.544H736.563ZM733.203 279.096C731.091 279.096 729.747 278.44 729.747 277.352C729.747 276.28 731.091 275.624 733.203 275.624C735.315 275.624 736.659 276.28 736.659 277.352C736.659 278.44 735.315 279.096 733.203 279.096ZM733.203 274.584C730.307 274.584 728.451 275.624 728.451 277.352C728.451 279.08 730.307 280.12 733.203 280.12C736.099 280.12 737.955 279.08 737.955 277.352C737.955 275.624 736.099 274.584 733.203 274.584ZM746.5 267.464C748.692 267.464 750.18 268.28 750.18 269.544C750.18 270.824 748.692 271.64 746.5 271.64C744.324 271.64 742.836 270.824 742.836 269.544C742.836 268.28 744.324 267.464 746.5 267.464ZM746.5 272.696C749.492 272.696 751.524 271.48 751.524 269.544C751.524 267.624 749.492 266.408 746.5 266.408C743.524 266.408 741.492 267.624 741.492 269.544C741.492 271.48 743.524 272.696 746.5 272.696ZM753.028 274.056H740.036V275.144H745.844V280.2H747.156V275.144H753.028V274.056ZM757.392 279H763.824V277.784H761.472V267.256H760.352C759.712 267.64 758.96 267.912 757.92 268.104V269.032H760V277.784H757.392V279ZM765.309 282.04C766.749 281.432 767.645 280.232 767.645 278.696C767.645 277.624 767.181 276.968 766.413 276.968C765.821 276.968 765.309 277.368 765.309 277.992C765.309 278.664 765.821 279.016 766.381 279.016C766.445 279.016 766.493 279.016 766.557 279C766.557 279.944 765.965 280.728 764.957 281.176L765.309 282.04ZM768.517 279H775.892V277.736H772.645C772.053 277.736 771.333 277.8 770.725 277.848C773.477 275.24 775.317 272.856 775.317 270.52C775.317 268.424 774.005 267.048 771.909 267.048C770.421 267.048 769.413 267.736 768.453 268.776L769.301 269.608C769.941 268.84 770.773 268.248 771.733 268.248C773.189 268.248 773.893 269.224 773.893 270.568C773.893 272.584 772.197 274.92 768.517 278.136V279ZM781.586 269.368H784.77V268.312H781.586V266.088H780.274V268.312H777.042V269.368H780.29V270.488C780.29 272.968 778.754 275.4 776.658 276.424L777.394 277.416C779.026 276.616 780.338 274.952 780.946 272.984C781.554 274.824 782.77 276.392 784.338 277.16L785.074 276.136C783.01 275.144 781.586 272.792 781.586 270.488V269.368ZM790.194 271.736H787.826V265.832H786.514V280.184H787.826V272.824H790.194V271.736ZM797.906 277.336V274.632H802.498V273.576H793.666V271.256H802.162V266.888H792.338V267.96H800.882V270.2H792.37V274.632H796.578V277.336H790.738V278.408H803.778V277.336H797.906ZM651.275 290.224H649.979V299.552H651.115C653.307 299.552 655.499 299.392 657.947 298.896L657.787 297.808C655.467 298.272 653.339 298.448 651.275 298.448V290.224ZM662.747 294.56H660.443V288.832H659.131V303.184H660.443V295.648H662.747V294.56ZM674.891 293.648H666.363V289.568H665.035V294.72H674.891V293.648ZM676.395 296.88H663.355V297.952H669.179V303.184H670.491V297.952H676.395V296.88ZM681.18 298.784C679.804 298.784 678.844 297.28 678.844 294.944C678.844 292.624 679.804 291.12 681.18 291.12C682.54 291.12 683.5 292.624 683.5 294.944C683.5 297.28 682.54 298.784 681.18 298.784ZM687.852 288.832V294.304H684.732C684.524 291.616 683.116 289.936 681.18 289.936C679.084 289.936 677.596 291.888 677.596 294.944C677.596 298 679.084 299.952 681.18 299.952C683.18 299.952 684.604 298.192 684.732 295.376H687.852V303.216H689.164V288.832H687.852ZM705.913 288.848H704.601V299.344H705.913V288.848ZM702.905 296.256C700.793 295.552 699.305 293.808 699.305 291.872V291.088H702.553V290.032H694.681V291.088H697.961V291.872C697.961 293.92 696.505 295.792 694.329 296.544L695.017 297.568C696.713 296.96 698.041 295.664 698.649 294.032C699.305 295.536 700.617 296.72 702.265 297.296L702.905 296.256ZM697.993 301.792V298.352H696.681V302.864H706.345V301.792H697.993ZM717.13 293.808H718.954V297.92H720.218V288.832H718.954V292.736H717.13V289.104H715.882V297.392H717.13V293.808ZM715.306 290.544H712.33V288.944H711.034V290.544H708.026V291.584H715.322L715.306 290.544ZM709.802 294.784C709.802 293.904 710.554 293.312 711.69 293.312C712.81 293.312 713.578 293.904 713.578 294.784C713.578 295.68 712.81 296.272 711.69 296.272C710.554 296.272 709.802 295.68 709.802 294.784ZM714.746 294.784C714.746 293.312 713.498 292.336 711.69 292.336C709.882 292.336 708.618 293.312 708.618 294.784C708.618 296.288 709.882 297.248 711.69 297.248C713.498 297.248 714.746 296.288 714.746 294.784ZM715.498 302.16C713.306 302.16 711.994 301.616 711.994 300.672C711.994 299.712 713.306 299.168 715.498 299.168C717.674 299.168 718.986 299.712 718.986 300.672C718.986 301.616 717.674 302.16 715.498 302.16ZM715.498 298.16C712.506 298.16 710.698 299.056 710.698 300.672C710.698 302.272 712.506 303.168 715.498 303.168C718.49 303.168 720.298 302.272 720.298 300.672C720.298 299.056 718.49 298.16 715.498 298.16ZM733.851 288.848H732.539V296.544H733.851V288.848ZM731.435 294.752C730.187 294.912 728.859 294.992 727.515 295.056V293.616H730.347V292.592H724.795V290.464H730.187V289.44H723.451V293.616H726.203V295.104C724.795 295.152 723.403 295.168 722.155 295.168L722.331 296.208C725.035 296.208 728.475 296.112 731.515 295.68L731.435 294.752ZM725.707 301.984V300.544H733.851V297.216H724.379V298.24H732.555V299.552H724.411V303.024H734.347V301.984H725.707ZM751.223 294.304C748.615 293.92 746.055 292.144 746.055 290.144V289.344H744.679V290.144C744.679 292.192 742.151 293.92 739.543 294.304L740.071 295.36C742.311 294.976 744.471 293.744 745.367 292C746.295 293.728 748.455 294.976 750.679 295.36L751.223 294.304ZM751.847 296.912H738.887V298H744.679V303.2H745.991V298H751.863L751.847 296.912ZM767.444 288.848H766.132V297.04H767.444V288.848ZM759.732 290.768C761.156 290.768 762.212 291.712 762.212 293.024C762.212 294.352 761.156 295.28 759.732 295.28C758.308 295.28 757.284 294.352 757.284 293.024C757.284 291.712 758.308 290.768 759.732 290.768ZM759.732 296.368C761.908 296.368 763.492 295.008 763.492 293.024C763.492 291.04 761.908 289.68 759.732 289.68C757.572 289.68 756.004 291.04 756.004 293.024C756.004 295.008 757.572 296.368 759.732 296.368ZM765.844 297.664H764.564V298.432C764.564 299.552 763.876 300.992 762.5 301.84C761.172 301.056 760.516 299.696 760.516 298.432V297.664H759.252V298.432C759.252 299.808 758.18 301.36 756.372 302L757.028 302.992C758.372 302.48 759.348 301.488 759.86 300.336C760.292 301.536 761.156 302.576 762.532 303.12C763.86 302.544 764.74 301.456 765.188 300.288C765.668 301.488 766.66 302.48 768.068 302.992L768.724 302C766.9 301.392 765.844 299.92 765.844 298.432V297.664ZM781.877 293.312C779.333 292.992 776.805 291.408 776.805 289.632V288.992H775.461V289.632C775.461 291.456 772.949 292.992 770.373 293.312L770.853 294.368C773.093 294.016 775.237 292.896 776.133 291.296C777.045 292.896 779.173 294.016 781.397 294.368L781.877 293.312ZM779.621 301.936H772.565V300.112H779.621V301.936ZM779.621 299.104H772.565V297.424H771.269V302.992H780.917V297.424H779.621V299.104ZM769.621 295.376V296.432H782.613V295.376H769.621ZM785.814 290.224H784.502V299.472H785.686C787.974 299.472 790.23 299.312 792.726 298.8L792.582 297.68C790.198 298.16 787.974 298.352 785.814 298.352V290.224ZM794.054 288.832V303.168H795.366V288.832H794.054ZM799.495 291.296H804.855V290.208H798.183V299.632H799.319C802.023 299.632 803.911 299.536 806.103 299.12L805.959 298.032C803.879 298.4 802.039 298.512 799.495 298.512V291.296ZM810.983 294.496H808.615V288.832H807.303V303.216H808.615V295.584H810.983V294.496Z" fill="#454545"/>
<path d="M730 211.475L730 251.475" stroke="#2E87EF" stroke-linecap="round"/>
<line x1="986.51" y1="140.975" x2="1061.5" y2="140.975" stroke="black" stroke-opacity="0.5" stroke-linecap="round" stroke-dasharray="0.01 4"/>
<circle cx="1064.5" cy="141.475" r="4" fill="white" stroke="#2E87EF"/>
<circle cx="979.683" cy="141.475" r="3.5" fill="#2E87EF"/>
<defs>
<linearGradient id="paint0_linear" x1="1172.59" y1="101.405" x2="886.541" y2="192.973" gradientUnits="userSpaceOnUse">
<stop stop-color="#3C8CEB" stop-opacity="0.65"/>
<stop offset="0.677083" stop-color="#0D51A2" stop-opacity="0.15"/>
</linearGradient>
</defs>
</svg>
