<svg width="1244" height="582" viewBox="0 0 1244 582" fill="none" xmlns="http://www.w3.org/2000/svg">
<rect width="1244" height="582" fill="white"/>
<path d="M954.03 191.466C935.059 190.01 915.996 192.621 898.116 199.125C880.235 205.629 863.95 215.876 850.348 229.18M1077.05 335.051C1078.52 316.086 1075.93 297.025 1069.44 279.143C1062.95 261.262 1052.72 244.971 1039.44 231.359M933.619 457.99C952.586 459.439 971.643 456.823 989.518 450.317C1007.39 443.81 1023.67 433.563 1037.27 420.26M810.525 314.738C809.103 333.707 811.747 352.761 818.28 370.627C824.812 388.492 835.083 404.757 848.406 418.335" stroke="#C9C9C9" stroke-width="2" stroke-linecap="round" stroke-dasharray="0.1 4"/>
<path d="M955.335 186.667L958.875 192.706L952.813 196.206" stroke="#C9C9C9" stroke-width="2"/>
<path d="M932.296 463.07L928.756 457.031L934.818 453.531" stroke="#C9C9C9" stroke-width="2"/>
<path d="M1082.14 336.267L1076.1 339.806L1072.6 333.744" stroke="#C9C9C9" stroke-width="2"/>
<path d="M805.954 313.226L811.993 309.686L815.493 315.748" stroke="#C9C9C9" stroke-width="2"/>
<circle cx="850.816" cy="417.747" r="82" fill="#2E87EF" stroke="#2E87EF" stroke-width="2"/>
<path d="M817.688 454.934V445.596H814.888L812.62 451.42L810.352 445.596H807.566V454.934H809.554V448.214L812.186 454.934H813.054L815.686 448.214V454.934H817.688ZM819.095 450.272C819.095 453.086 821.153 455.102 823.967 455.102C826.795 455.102 828.853 453.086 828.853 450.272C828.853 447.458 826.795 445.442 823.967 445.442C821.153 445.442 819.095 447.458 819.095 450.272ZM826.809 450.272C826.809 452.008 825.689 453.338 823.967 453.338C822.245 453.338 821.139 452.008 821.139 450.272C821.139 448.522 822.245 447.206 823.967 447.206C825.689 447.206 826.809 448.522 826.809 450.272ZM838.606 454.934V445.596H836.618V451.644L832.292 445.596H830.248V454.934H832.236V448.662L836.688 454.934H838.606ZM842.435 454.934V445.596H840.447V454.934H842.435ZM848.447 454.934V447.346H851.163V445.596H843.715V447.346H846.445V454.934H848.447ZM851.647 450.272C851.647 453.086 853.705 455.102 856.519 455.102C859.347 455.102 861.405 453.086 861.405 450.272C861.405 447.458 859.347 445.442 856.519 445.442C853.705 445.442 851.647 447.458 851.647 450.272ZM859.361 450.272C859.361 452.008 858.241 453.338 856.519 453.338C854.797 453.338 853.691 452.008 853.691 450.272C853.691 448.522 854.797 447.206 856.519 447.206C858.241 447.206 859.361 448.522 859.361 450.272ZM870.361 454.934L868.261 451.378C869.269 451.14 870.305 450.258 870.305 448.606C870.305 446.87 869.115 445.596 867.169 445.596H862.801V454.934H864.789V451.588H866.245L868.079 454.934H870.361ZM868.275 448.592C868.275 449.376 867.673 449.88 866.875 449.88H864.789V447.304H866.875C867.673 447.304 868.275 447.808 868.275 448.592ZM873.785 454.934V445.596H871.797V454.934H873.785ZM883.996 454.934V445.596H882.008V451.644L877.682 445.596H875.638V454.934H877.626V448.662L882.078 454.934H883.996ZM885.39 450.272C885.39 453.212 887.63 455.116 890.36 455.116C892.054 455.116 893.384 454.416 894.336 453.352V449.782H889.884V451.49H892.376V452.624C891.97 452.988 891.214 453.338 890.36 453.338C888.666 453.338 887.434 452.036 887.434 450.272C887.434 448.508 888.666 447.206 890.36 447.206C891.34 447.206 892.138 447.724 892.572 448.382L894.224 447.486C893.51 446.38 892.292 445.442 890.36 445.442C887.63 445.442 885.39 447.318 885.39 450.272Z" fill="white"/>
<rect x="824.73" y="383.548" width="52.1712" height="39.0761" rx="3.25" stroke="white" stroke-width="2.5" stroke-linejoin="round"/>
<path d="M846.753 422.969L844.404 431.353M854.879 422.969L857.228 431.353" stroke="white" stroke-width="2.5" stroke-linejoin="round"/>
<path d="M840.711 430.815H860.921" stroke="white" stroke-width="2.5" stroke-linecap="round"/>
<path d="M866.776 409.852C865.178 409.852 863.862 408.638 862.953 407.415C862.291 406.4 861.501 404.983 860.597 403.002C859.055 399.624 856.504 397.758 854.868 396.785C853.266 395.832 851.82 395.832 850.903 395.833H850.736C849.819 395.832 848.373 395.832 846.771 396.785C845.135 397.758 842.584 399.624 841.043 403.002C840.164 404.926 839.394 406.319 838.743 407.327C837.829 408.585 836.491 409.852 834.855 409.852" stroke="white" stroke-width="2.5" stroke-linecap="round" stroke-linejoin="round"/>
<path d="M866.776 396.322C865.178 396.321 863.862 397.535 862.953 398.758C862.291 399.773 861.501 401.191 860.597 403.171C859.055 406.549 856.504 408.415 854.868 409.389C853.266 410.342 851.82 410.341 850.903 410.341H850.736C849.819 410.341 848.373 410.342 846.771 409.389C845.135 408.415 842.584 406.549 841.043 403.171C840.164 401.247 839.394 399.855 838.743 398.846C837.829 397.589 836.491 396.321 834.855 396.321" stroke="white" stroke-width="2.5" stroke-linecap="round" stroke-linejoin="round"/>
<path d="M847.898 396.595V409.555M853.734 396.595V409.555" stroke="white" stroke-width="2.5" stroke-linecap="round"/>
<circle cx="1037.18" cy="418" r="83" fill="#F7F7F7"/>
<path d="M1001.96 455.187V447.599H1004.68V445.849H997.229V447.599H999.959V455.187H1001.96ZM1013.51 455.187L1011.41 451.631C1012.42 451.393 1013.46 450.511 1013.46 448.859C1013.46 447.123 1012.27 445.849 1010.32 445.849H1005.95V455.187H1007.94V451.841H1009.4L1011.23 455.187H1013.51ZM1011.43 448.845C1011.43 449.629 1010.82 450.133 1010.03 450.133H1007.94V447.557H1010.03C1010.82 447.557 1011.43 448.061 1011.43 448.845ZM1021.56 455.187V453.465H1016.94V451.295H1021.46V449.587H1016.94V447.557H1021.56V445.849H1014.95V455.187H1021.56ZM1031.82 455.187L1028.22 445.849H1025.73L1022.12 455.187H1024.3L1024.89 453.577H1029.06L1029.65 455.187H1031.82ZM1028.51 451.855H1025.42L1026.97 447.571L1028.51 451.855ZM1035.94 455.187V447.599H1038.65V445.849H1031.2V447.599H1033.93V455.187H1035.94ZM1050.05 455.187V445.849H1047.25L1044.98 451.673L1042.71 445.849H1039.93V455.187H1041.91V448.467L1044.55 455.187H1045.41L1048.05 448.467V455.187H1050.05ZM1058.51 455.187V453.465H1053.89V451.295H1058.41V449.587H1053.89V447.557H1058.51V445.849H1051.9V455.187H1058.51ZM1068.42 455.187V445.849H1066.43V451.897L1062.11 445.849H1060.06V455.187H1062.05V448.915L1066.5 455.187H1068.42ZM1074.42 455.187V447.599H1077.14V445.849H1069.69V447.599H1072.42V455.187H1074.42Z" fill="black"/>
<path d="M1049.64 385.578C1049.34 385.871 1049.34 386.346 1049.64 386.639L1055.34 392.34C1055.63 392.633 1056.11 392.633 1056.4 392.34L1063.16 385.58C1063.45 385.287 1063.45 384.812 1063.16 384.519L1057.46 378.818C1057.16 378.525 1056.69 378.525 1056.4 378.818L1049.64 385.578Z" fill="white" stroke="black" stroke-width="2.5"/>
<path d="M1066.19 387.585L1054.39 375.783" stroke="black" stroke-width="2.5" stroke-linecap="round"/>
<path d="M1014.23 427.771L1010.4 431.601" stroke="black" stroke-width="2.5" stroke-linecap="round"/>
<mask id="path-20-inside-1" fill="white">
<path fill-rule="evenodd" clip-rule="evenodd" d="M1038.21 387.272C1037.17 386.093 1037.21 384.293 1038.34 383.166L1041.31 380.198C1042.48 379.026 1044.38 379.026 1045.55 380.198L1061.78 396.428C1062.95 397.6 1062.95 399.499 1061.78 400.671L1058.81 403.639C1057.69 404.761 1055.9 404.809 1054.72 403.782L1030.28 428.232C1029.34 429.17 1028.07 429.697 1026.74 429.696L1014.3 429.696C1013.19 429.696 1012.3 428.8 1012.3 427.696L1012.3 415.256C1012.3 413.93 1012.83 412.659 1013.76 411.721L1038.21 387.272Z"/>
</mask>
<path fill-rule="evenodd" clip-rule="evenodd" d="M1038.21 387.272C1037.17 386.093 1037.21 384.293 1038.34 383.166L1041.31 380.198C1042.48 379.026 1044.38 379.026 1045.55 380.198L1061.78 396.428C1062.95 397.6 1062.95 399.499 1061.78 400.671L1058.81 403.639C1057.69 404.761 1055.9 404.809 1054.72 403.782L1030.28 428.232C1029.34 429.17 1028.07 429.697 1026.74 429.696L1014.3 429.696C1013.19 429.696 1012.3 428.8 1012.3 427.696L1012.3 415.256C1012.3 413.93 1012.83 412.659 1013.76 411.721L1038.21 387.272Z" fill="white"/>
<path d="M1038.21 387.272L1039.98 389.039L1041.64 387.377L1040.09 385.616L1038.21 387.272ZM1045.55 380.198L1047.32 378.43L1045.55 380.198ZM1061.78 396.428L1060.02 398.196L1061.78 396.428ZM1054.72 403.782L1056.37 401.897L1054.61 400.364L1052.96 402.014L1054.72 403.782ZM1030.28 428.232L1028.51 426.464L1028.51 426.464L1030.28 428.232ZM1026.74 429.696L1026.74 427.196L1026.74 429.696ZM1014.3 429.696L1014.3 432.196L1014.3 432.196L1014.3 429.696ZM1012.3 427.696L1014.8 427.696L1014.8 427.696L1012.3 427.696ZM1012.3 415.256L1009.8 415.256L1012.3 415.256ZM1013.76 411.721L1015.53 413.489L1013.76 411.721ZM1036.57 381.398C1034.51 383.465 1034.43 386.765 1036.34 388.927L1040.09 385.616C1039.91 385.422 1039.92 385.121 1040.11 384.934L1036.57 381.398ZM1039.54 378.43L1036.57 381.398L1040.11 384.934L1043.08 381.965L1039.54 378.43ZM1047.32 378.43C1045.17 376.282 1041.69 376.282 1039.54 378.43L1043.08 381.965C1043.27 381.77 1043.59 381.77 1043.78 381.965L1047.32 378.43ZM1063.55 394.66L1047.32 378.43L1043.78 381.965L1060.02 398.196L1063.55 394.66ZM1063.55 402.438C1065.7 400.291 1065.7 396.808 1063.55 394.66L1060.02 398.196C1060.21 398.391 1060.21 398.708 1060.02 398.903L1063.55 402.438ZM1060.58 405.407L1063.55 402.438L1060.02 398.903L1057.05 401.871L1060.58 405.407ZM1053.08 405.667C1055.24 407.551 1058.52 407.465 1060.58 405.407L1057.05 401.871C1056.86 402.058 1056.56 402.066 1056.37 401.897L1053.08 405.667ZM1052.96 402.014L1028.51 426.464L1032.04 430L1056.49 405.549L1052.96 402.014ZM1028.51 426.464C1028.04 426.933 1027.4 427.197 1026.74 427.196L1026.74 432.196C1028.73 432.197 1030.64 431.406 1032.04 430L1028.51 426.464ZM1026.74 427.196L1014.3 427.196L1014.3 432.196L1026.74 432.196L1026.74 427.196ZM1014.3 427.196C1014.58 427.196 1014.8 427.42 1014.8 427.696L1009.8 427.696C1009.8 430.181 1011.81 432.196 1014.3 432.196L1014.3 427.196ZM1014.8 427.696L1014.8 415.257L1009.8 415.256L1009.8 427.696L1014.8 427.696ZM1014.8 415.257C1014.8 414.594 1015.06 413.958 1015.53 413.489L1012 409.953C1010.59 411.36 1009.8 413.267 1009.8 415.256L1014.8 415.257ZM1015.53 413.489L1039.98 389.039L1036.44 385.504L1012 409.953L1015.53 413.489Z" fill="black" mask="url(#path-20-inside-1)"/>
<path d="M1030.7 405.678L1036.32 411.297L1025.5 422.112C1025.41 422.206 1025.28 422.259 1025.15 422.259L1019.74 422.259L1019.74 416.847C1019.74 416.714 1019.79 416.587 1019.88 416.493L1030.7 405.678Z" fill="#2E87EF" stroke="#2E87EF" stroke-width="3"/>
<circle cx="1037.18" cy="232" r="83" fill="#F7F7F7"/>
<path d="M998.643 267.871C999.525 268.753 1000.81 269.355 1002.6 269.355C1005.12 269.355 1006.34 268.067 1006.34 266.359C1006.34 264.287 1004.38 263.825 1002.84 263.475C1001.76 263.223 1000.98 263.027 1000.98 262.397C1000.98 261.837 1001.46 261.445 1002.35 261.445C1003.26 261.445 1004.27 261.767 1005.03 262.467L1006.13 261.011C1005.21 260.157 1003.98 259.709 1002.49 259.709C1000.29 259.709 998.951 260.969 998.951 262.523C998.951 264.609 1000.91 265.029 1002.44 265.379C1003.51 265.631 1004.33 265.869 1004.33 266.569C1004.33 267.101 1003.79 267.619 1002.7 267.619C1001.41 267.619 1000.39 267.045 999.735 266.359L998.643 267.871ZM1012.13 269.355C1014.26 269.355 1015.44 268.221 1016.11 267.059L1014.4 266.233C1014.01 267.003 1013.17 267.591 1012.13 267.591C1010.51 267.591 1009.28 266.289 1009.28 264.525C1009.28 262.761 1010.51 261.459 1012.13 261.459C1013.17 261.459 1014.01 262.061 1014.4 262.817L1016.11 261.977C1015.45 260.815 1014.26 259.695 1012.13 259.695C1009.4 259.695 1007.23 261.655 1007.23 264.525C1007.23 267.395 1009.4 269.355 1012.13 269.355ZM1024.85 269.187L1022.75 265.631C1023.76 265.393 1024.8 264.511 1024.8 262.859C1024.8 261.123 1023.61 259.849 1021.66 259.849H1017.29V269.187H1019.28V265.841H1020.74L1022.57 269.187H1024.85ZM1022.77 262.845C1022.77 263.629 1022.16 264.133 1021.37 264.133H1019.28V261.557H1021.37C1022.16 261.557 1022.77 262.061 1022.77 262.845ZM1032.9 269.187V267.465H1028.28V265.295H1032.8V263.587H1028.28V261.557H1032.9V259.849H1026.29V269.187H1032.9ZM1041.06 269.187V267.465H1036.44V265.295H1040.96V263.587H1036.44V261.557H1041.06V259.849H1034.45V269.187H1041.06ZM1050.97 269.187V259.849H1048.98V265.897L1044.66 259.849H1042.61V269.187H1044.6V262.915L1049.05 269.187H1050.97ZM1054.8 269.187V259.849H1052.81V269.187H1054.8ZM1065.01 269.187V259.849H1063.02V265.897L1058.7 259.849H1056.65V269.187H1058.64V262.915L1063.09 269.187H1065.01ZM1066.41 264.525C1066.41 267.465 1068.65 269.369 1071.38 269.369C1073.07 269.369 1074.4 268.669 1075.35 267.605V264.035H1070.9V265.743H1073.39V266.877C1072.99 267.241 1072.23 267.591 1071.38 267.591C1069.68 267.591 1068.45 266.289 1068.45 264.525C1068.45 262.761 1069.68 261.459 1071.38 261.459C1072.36 261.459 1073.15 261.977 1073.59 262.635L1075.24 261.739C1074.53 260.633 1073.31 259.695 1071.38 259.695C1068.65 259.695 1066.41 261.571 1066.41 264.525Z" fill="black"/>
<path d="M1044.67 194.75V194.75C1048.13 194.75 1050.72 197.928 1050.02 201.319L1046.36 219.041C1045.7 222.233 1042.89 224.523 1039.63 224.523H1024.39C1021.25 224.523 1018.55 222.303 1017.93 219.221L1014.29 200.922C1013.64 197.68 1016.25 194.75 1019.55 194.75V194.75" stroke="black" stroke-width="2.5"/>
<path d="M1046.46 236.41V238.81C1046.46 242.767 1043.26 245.975 1039.3 245.975C1035.34 245.975 1032.14 242.767 1032.14 238.81V224.525" stroke="black" stroke-width="2.5"/>
<path d="M1055.71 227.459C1050.6 227.459 1046.47 231.596 1046.47 236.699" stroke="black" stroke-width="2.5"/>
<circle cx="1023.27" cy="194.751" r="4.23262" fill="white" stroke="black" stroke-width="2.5"/>
<circle cx="1040.84" cy="194.751" r="4.23262" fill="white" stroke="black" stroke-width="2.5"/>
<circle cx="1061.77" cy="227.458" r="9.40343" fill="white" stroke="black" stroke-width="2.5"/>
<circle cx="1061.77" cy="227.46" r="4.18516" fill="#2E87EF"/>
<circle cx="851.184" cy="232" r="83" fill="#F7F7F7"/>
<path d="M810.736 269.187V265.841H813.116C815.132 265.841 816.252 264.483 816.252 262.859C816.252 261.221 815.146 259.849 813.116 259.849H808.748V269.187H810.736ZM814.222 262.845C814.222 263.629 813.634 264.133 812.85 264.133H810.736V261.557H812.85C813.634 261.557 814.222 262.075 814.222 262.845ZM825.044 269.187L822.944 265.631C823.952 265.393 824.988 264.511 824.988 262.859C824.988 261.123 823.798 259.849 821.852 259.849H817.484V269.187H819.472V265.841H820.928L822.762 269.187H825.044ZM822.958 262.845C822.958 263.629 822.356 264.133 821.558 264.133H819.472V261.557H821.558C822.356 261.557 822.958 262.061 822.958 262.845ZM833.088 269.187V267.465H828.468V265.295H832.99V263.587H828.468V261.557H833.088V259.849H826.48V269.187H833.088ZM839.752 269.187L843.35 259.849H841.082L838.506 267.031L835.916 259.849H833.648L837.26 269.187H839.752ZM850.82 269.187V267.465H846.2V265.295H850.722V263.587H846.2V261.557H850.82V259.849H844.212V269.187H850.82ZM860.733 269.187V259.849H858.745V265.897L854.419 259.849H852.375V269.187H854.363V262.915L858.815 269.187H860.733ZM866.732 269.187V261.599H869.448V259.849H862V261.599H864.73V269.187H866.732ZM872.71 269.187V259.849H870.722V269.187H872.71ZM874.116 264.525C874.116 267.339 876.174 269.355 878.988 269.355C881.816 269.355 883.874 267.339 883.874 264.525C883.874 261.711 881.816 259.695 878.988 259.695C876.174 259.695 874.116 261.711 874.116 264.525ZM881.83 264.525C881.83 266.261 880.71 267.591 878.988 267.591C877.266 267.591 876.16 266.261 876.16 264.525C876.16 262.775 877.266 261.459 878.988 261.459C880.71 261.459 881.83 262.775 881.83 264.525ZM893.627 269.187V259.849H891.639V265.897L887.313 259.849H885.269V269.187H887.257V262.915L891.709 269.187H893.627Z" fill="black"/>
<path d="M851.184 187.568L827.641 199.932V211.845C827.641 227.925 827.641 231.404 846.374 243.742C847.902 244.749 849.521 245.614 851.184 246.34C852.847 245.614 854.466 244.749 855.994 243.742C874.726 231.404 874.726 227.925 874.726 211.845V199.932L851.184 187.568Z" fill="white" stroke="black" stroke-width="2.5" stroke-linejoin="round"/>
<mask id="path-35-inside-2" fill="white">
<path fill-rule="evenodd" clip-rule="evenodd" d="M852.684 203.807C852.684 202.979 852.013 202.307 851.184 202.307C850.356 202.307 849.684 202.979 849.684 203.807V205.694C847.822 205.953 846.111 206.687 844.679 207.769L843.344 206.434C842.758 205.848 841.808 205.848 841.223 206.434C840.637 207.02 840.637 207.97 841.223 208.556L842.557 209.89C841.476 211.322 840.743 213.032 840.484 214.894H838.596C837.768 214.894 837.096 215.566 837.096 216.394C837.096 217.222 837.768 217.894 838.596 217.894H840.484C840.742 219.757 841.476 221.467 842.558 222.9L841.223 224.235C840.637 224.821 840.637 225.771 841.223 226.357C841.808 226.943 842.758 226.943 843.344 226.357L844.679 225.021C846.112 226.103 847.822 226.836 849.684 227.095V228.983C849.684 229.811 850.356 230.483 851.184 230.483C852.013 230.483 852.684 229.811 852.684 228.983V227.095C854.546 226.836 856.256 226.103 857.689 225.022L859.025 226.358C859.611 226.943 860.56 226.943 861.146 226.358C861.732 225.772 861.732 224.822 861.146 224.236L859.81 222.9C860.892 221.468 861.626 219.757 861.884 217.894H863.772C864.6 217.894 865.272 217.222 865.272 216.394C865.272 215.566 864.6 214.894 863.772 214.894H861.884C861.626 213.032 860.892 211.322 859.811 209.89L861.146 208.555C861.732 207.969 861.732 207.019 861.146 206.433C860.56 205.848 859.611 205.848 859.025 206.433L857.689 207.769C856.257 206.687 854.547 205.953 852.684 205.695V203.807Z"/>
</mask>
<path fill-rule="evenodd" clip-rule="evenodd" d="M852.684 203.807C852.684 202.979 852.013 202.307 851.184 202.307C850.356 202.307 849.684 202.979 849.684 203.807V205.694C847.822 205.953 846.111 206.687 844.679 207.769L843.344 206.434C842.758 205.848 841.808 205.848 841.223 206.434C840.637 207.02 840.637 207.97 841.223 208.556L842.557 209.89C841.476 211.322 840.743 213.032 840.484 214.894H838.596C837.768 214.894 837.096 215.566 837.096 216.394C837.096 217.222 837.768 217.894 838.596 217.894H840.484C840.742 219.757 841.476 221.467 842.558 222.9L841.223 224.235C840.637 224.821 840.637 225.771 841.223 226.357C841.808 226.943 842.758 226.943 843.344 226.357L844.679 225.021C846.112 226.103 847.822 226.836 849.684 227.095V228.983C849.684 229.811 850.356 230.483 851.184 230.483C852.013 230.483 852.684 229.811 852.684 228.983V227.095C854.546 226.836 856.256 226.103 857.689 225.022L859.025 226.358C859.611 226.943 860.56 226.943 861.146 226.358C861.732 225.772 861.732 224.822 861.146 224.236L859.81 222.9C860.892 221.468 861.626 219.757 861.884 217.894H863.772C864.6 217.894 865.272 217.222 865.272 216.394C865.272 215.566 864.6 214.894 863.772 214.894H861.884C861.626 213.032 860.892 211.322 859.811 209.89L861.146 208.555C861.732 207.969 861.732 207.019 861.146 206.433C860.56 205.848 859.611 205.848 859.025 206.433L857.689 207.769C856.257 206.687 854.547 205.953 852.684 205.695V203.807Z" fill="#2E87EF"/>
<path d="M849.684 205.694L850.097 208.666L852.684 208.307V205.694H849.684ZM844.679 207.769L842.557 209.89L844.403 211.736L846.487 210.163L844.679 207.769ZM843.344 206.434L841.223 208.556L841.223 208.556L843.344 206.434ZM841.223 206.434L843.344 208.556L843.344 208.556L841.223 206.434ZM841.223 208.556L843.344 206.434L843.344 206.434L841.223 208.556ZM842.557 209.89L844.951 211.698L846.525 209.615L844.679 207.769L842.557 209.89ZM840.484 214.894V217.894H843.096L843.455 215.307L840.484 214.894ZM840.484 217.894L843.455 217.481L843.096 214.894H840.484V217.894ZM842.558 222.9L844.679 225.021L846.525 223.175L844.952 221.092L842.558 222.9ZM841.223 224.235L843.344 226.357L843.344 226.357L841.223 224.235ZM841.223 226.357L843.344 224.235L843.344 224.235L841.223 226.357ZM843.344 226.357L841.223 224.235L841.223 224.235L843.344 226.357ZM844.679 225.021L846.487 222.627L844.404 221.054L842.558 222.9L844.679 225.021ZM849.684 227.095H852.684V224.483L850.097 224.124L849.684 227.095ZM852.684 227.095L852.272 224.124L849.684 224.483V227.095H852.684ZM857.689 225.022L859.81 222.9L857.964 221.054L855.881 222.627L857.689 225.022ZM859.025 226.358L861.146 224.236L861.146 224.236L859.025 226.358ZM861.146 226.358L859.025 224.236L859.025 224.236L861.146 226.358ZM861.146 224.236L859.025 226.358L859.025 226.358L861.146 224.236ZM859.81 222.9L857.416 221.092L855.843 223.175L857.689 225.022L859.81 222.9ZM861.884 217.894V214.894H859.272L858.913 217.481L861.884 217.894ZM861.884 214.894L858.913 215.307L859.272 217.894H861.884V214.894ZM859.811 209.89L857.689 207.769L855.843 209.615L857.417 211.698L859.811 209.89ZM861.146 208.555L859.025 206.433L859.025 206.433L861.146 208.555ZM861.146 206.433L859.025 208.555L859.025 208.555L861.146 206.433ZM859.025 206.433L861.146 208.555L861.146 208.555L859.025 206.433ZM857.689 207.769L855.881 210.162L857.965 211.736L859.811 209.89L857.689 207.769ZM852.684 205.695H849.684V208.307L852.272 208.666L852.684 205.695ZM851.184 205.307C850.356 205.307 849.684 204.635 849.684 203.807H855.684C855.684 201.322 853.67 199.307 851.184 199.307V205.307ZM852.684 203.807C852.684 204.635 852.013 205.307 851.184 205.307V199.307C848.699 199.307 846.684 201.322 846.684 203.807H852.684ZM852.684 205.694V203.807H846.684V205.694H852.684ZM846.487 210.163C847.523 209.38 848.756 208.852 850.097 208.666L849.272 202.723C846.888 203.054 844.7 203.993 842.87 205.375L846.487 210.163ZM841.223 208.556L842.557 209.89L846.8 205.647L845.465 204.313L841.223 208.556ZM843.344 208.556C842.758 209.141 841.808 209.141 841.223 208.556L845.465 204.313C843.708 202.556 840.859 202.556 839.101 204.313L843.344 208.556ZM843.344 206.434C843.93 207.02 843.93 207.97 843.344 208.556L839.101 204.313C837.344 206.07 837.344 208.919 839.101 210.677L843.344 206.434ZM844.679 207.769L843.344 206.434L839.101 210.677L840.436 212.011L844.679 207.769ZM843.455 215.307C843.642 213.966 844.169 212.734 844.951 211.698L840.163 208.082C838.782 209.911 837.844 212.098 837.512 214.481L843.455 215.307ZM838.596 217.894H840.484V211.894H838.596V217.894ZM840.096 216.394C840.096 217.222 839.424 217.894 838.596 217.894V211.894C836.111 211.894 834.096 213.909 834.096 216.394H840.096ZM838.596 214.894C839.424 214.894 840.096 215.566 840.096 216.394H834.096C834.096 218.879 836.111 220.894 838.596 220.894V214.894ZM840.484 214.894H838.596V220.894H840.484V214.894ZM844.952 221.092C844.169 220.056 843.641 218.823 843.455 217.481L837.512 218.307C837.843 220.69 838.782 222.879 840.164 224.708L844.952 221.092ZM843.344 226.357L844.679 225.021L840.437 220.779L839.101 222.114L843.344 226.357ZM843.344 224.235C843.93 224.821 843.93 225.771 843.344 226.357L839.101 222.114C837.344 223.871 837.344 226.721 839.101 228.478L843.344 224.235ZM841.223 224.235C841.808 223.65 842.758 223.65 843.344 224.235L839.101 228.478C840.859 230.235 843.708 230.235 845.465 228.478L841.223 224.235ZM842.558 222.9L841.223 224.235L845.465 228.478L846.801 227.143L842.558 222.9ZM850.097 224.124C848.756 223.937 847.523 223.41 846.487 222.627L842.871 227.415C844.7 228.797 846.889 229.736 849.272 230.067L850.097 224.124ZM852.684 228.983V227.095H846.684V228.983H852.684ZM851.184 227.483C852.013 227.483 852.684 228.154 852.684 228.983H846.684C846.684 231.468 848.699 233.483 851.184 233.483V227.483ZM849.684 228.983C849.684 228.154 850.356 227.483 851.184 227.483V233.483C853.67 233.483 855.684 231.468 855.684 228.983H849.684ZM849.684 227.095V228.983H855.684V227.095H849.684ZM855.881 222.627C854.845 223.41 853.613 223.937 852.272 224.124L853.097 230.066C855.48 229.735 857.668 228.797 859.497 227.416L855.881 222.627ZM861.146 224.236L859.81 222.9L855.567 227.143L856.903 228.479L861.146 224.236ZM859.025 224.236C859.611 223.65 860.56 223.65 861.146 224.236L856.903 228.479C858.661 230.236 861.51 230.236 863.267 228.479L859.025 224.236ZM859.025 226.358C858.439 225.772 858.439 224.822 859.025 224.236L863.267 228.479C865.025 226.722 865.025 223.872 863.267 222.115L859.025 226.358ZM857.689 225.022L859.025 226.358L863.267 222.115L861.931 220.779L857.689 225.022ZM858.913 217.481C858.727 218.823 858.199 220.056 857.416 221.092L862.204 224.709C863.586 222.879 864.525 220.69 864.856 218.307L858.913 217.481ZM863.772 214.894H861.884V220.894H863.772V214.894ZM862.272 216.394C862.272 215.566 862.944 214.894 863.772 214.894V220.894C866.257 220.894 868.272 218.879 868.272 216.394H862.272ZM863.772 217.894C862.944 217.894 862.272 217.222 862.272 216.394H868.272C868.272 213.909 866.257 211.894 863.772 211.894V217.894ZM861.884 217.894H863.772V211.894H861.884V217.894ZM857.417 211.698C858.199 212.734 858.726 213.966 858.913 215.307L864.856 214.481C864.525 212.098 863.586 209.911 862.205 208.082L857.417 211.698ZM859.025 206.433L857.689 207.769L861.932 212.011L863.267 210.676L859.025 206.433ZM859.025 208.555C858.439 207.969 858.439 207.019 859.025 206.433L863.267 210.676C865.025 208.919 865.025 206.069 863.267 204.312L859.025 208.555ZM861.146 208.555C860.56 209.141 859.611 209.141 859.025 208.555L863.267 204.312C861.51 202.555 858.661 202.555 856.903 204.312L861.146 208.555ZM859.811 209.89L861.146 208.555L856.903 204.312L855.568 205.647L859.811 209.89ZM852.272 208.666C853.613 208.852 854.846 209.38 855.881 210.162L859.498 205.375C857.669 203.993 855.481 203.054 853.097 202.723L852.272 208.666ZM849.684 203.807V205.695H855.684V203.807H849.684Z" fill="#2E87EF" mask="url(#path-35-inside-2)"/>
<path fill-rule="evenodd" clip-rule="evenodd" d="M853.945 216.666C855.321 216.666 856.437 215.55 856.437 214.174C856.437 212.798 855.321 211.682 853.945 211.682C852.568 211.682 851.453 212.798 851.453 214.174C851.453 215.55 852.568 216.666 853.945 216.666ZM848.424 221.65C849.8 221.65 850.916 220.534 850.916 219.158C850.916 217.781 849.8 216.665 848.424 216.665C847.047 216.665 845.932 217.781 845.932 219.158C845.932 220.534 847.047 221.65 848.424 221.65Z" fill="black"/>
<path d="M822.661 102.264C826.005 102.264 827.853 100.482 828.909 98.656L826.225 97.358C825.609 98.568 824.289 99.492 822.661 99.492C820.109 99.492 818.173 97.446 818.173 94.674C818.173 91.902 820.109 89.856 822.661 89.856C824.289 89.856 825.609 90.802 826.225 91.99L828.909 90.67C827.875 88.844 826.005 87.084 822.661 87.084C818.371 87.084 814.961 90.164 814.961 94.674C814.961 99.184 818.371 102.264 822.661 102.264ZM833.892 102V87.326H830.768V102H833.892ZM848.686 102L845.386 96.412C846.97 96.038 848.598 94.652 848.598 92.056C848.598 89.328 846.728 87.326 843.67 87.326H836.806V102H839.93V96.742H842.218L845.1 102H848.686ZM845.408 92.034C845.408 93.266 844.462 94.058 843.208 94.058H839.93V90.01H843.208C844.462 90.01 845.408 90.802 845.408 92.034ZM857.938 102.264C861.282 102.264 863.13 100.482 864.186 98.656L861.502 97.358C860.886 98.568 859.566 99.492 857.938 99.492C855.386 99.492 853.45 97.446 853.45 94.674C853.45 91.902 855.386 89.856 857.938 89.856C859.566 89.856 860.886 90.802 861.502 91.99L864.186 90.67C863.152 88.844 861.282 87.084 857.938 87.084C853.648 87.084 850.238 90.164 850.238 94.674C850.238 99.184 853.648 102.264 857.938 102.264ZM866.046 96.148C866.046 99.756 868.136 102.264 872.624 102.264C877.068 102.264 879.158 99.778 879.158 96.126V87.326H875.99V96.038C875.99 98.084 874.868 99.492 872.624 99.492C870.336 99.492 869.214 98.084 869.214 96.038V87.326H866.046V96.148ZM891.38 102V99.25H885.176V87.326H882.052V102H891.38ZM907.251 102L901.597 87.326H897.681L892.005 102H895.437L896.361 99.47H902.917L903.841 102H907.251ZM902.059 96.764H897.197L899.639 90.032L902.059 96.764ZM920.486 102L917.186 96.412C918.77 96.038 920.398 94.652 920.398 92.056C920.398 89.328 918.528 87.326 915.47 87.326H908.606V102H911.73V96.742H914.018L916.9 102H920.486ZM917.208 92.034C917.208 93.266 916.262 94.058 915.008 94.058H911.73V90.01H915.008C916.262 90.01 917.208 90.802 917.208 92.034ZM935.368 102.264C938.712 102.264 940.56 100.482 941.616 98.656L938.932 97.358C938.316 98.568 936.996 99.492 935.368 99.492C932.816 99.492 930.88 97.446 930.88 94.674C930.88 91.902 932.816 89.856 935.368 89.856C936.996 89.856 938.316 90.802 938.932 91.99L941.616 90.67C940.582 88.844 938.712 87.084 935.368 87.084C931.078 87.084 927.668 90.164 927.668 94.674C927.668 99.184 931.078 102.264 935.368 102.264ZM957.009 102L951.355 87.326H947.439L941.763 102H945.195L946.119 99.47H952.675L953.599 102H957.009ZM951.817 96.764H946.955L949.397 90.032L951.817 96.764ZM970.244 102L966.944 96.412C968.528 96.038 970.156 94.652 970.156 92.056C970.156 89.328 968.286 87.326 965.228 87.326H958.364V102H961.488V96.742H963.776L966.658 102H970.244ZM966.966 92.034C966.966 93.266 966.02 94.058 964.766 94.058H961.488V90.01H964.766C966.02 90.01 966.966 90.802 966.966 92.034ZM982.885 102V99.294H975.625V95.884H982.731V93.2H975.625V90.01H982.885V87.326H972.501V102H982.885ZM989.944 99.932C991.33 101.318 993.354 102.264 996.17 102.264C1000.13 102.264 1002.04 100.24 1002.04 97.556C1002.04 94.3 998.964 93.574 996.544 93.024C994.85 92.628 993.618 92.32 993.618 91.33C993.618 90.45 994.366 89.834 995.774 89.834C997.204 89.834 998.788 90.34 999.976 91.44L1001.71 89.152C1000.26 87.81 998.326 87.106 995.994 87.106C992.54 87.106 990.428 89.086 990.428 91.528C990.428 94.806 993.508 95.466 995.906 96.016C997.6 96.412 998.876 96.786 998.876 97.886C998.876 98.722 998.04 99.536 996.324 99.536C994.3 99.536 992.694 98.634 991.66 97.556L989.944 99.932ZM1011.21 102V95.994L1016.82 87.326H1013.26L1009.65 93.222L1006 87.326H1002.43L1008.09 95.994V102H1011.21ZM1016.73 99.932C1018.12 101.318 1020.14 102.264 1022.96 102.264C1026.92 102.264 1028.83 100.24 1028.83 97.556C1028.83 94.3 1025.75 93.574 1023.33 93.024C1021.64 92.628 1020.41 92.32 1020.41 91.33C1020.41 90.45 1021.16 89.834 1022.56 89.834C1023.99 89.834 1025.58 90.34 1026.77 91.44L1028.5 89.152C1027.05 87.81 1025.12 87.106 1022.78 87.106C1019.33 87.106 1017.22 89.086 1017.22 91.528C1017.22 94.806 1020.3 95.466 1022.7 96.016C1024.39 96.412 1025.67 96.786 1025.67 97.886C1025.67 98.722 1024.83 99.536 1023.11 99.536C1021.09 99.536 1019.48 98.634 1018.45 97.556L1016.73 99.932ZM1037.32 102V90.076H1041.59V87.326H1029.89V90.076H1034.18V102H1037.32ZM1053.98 102V99.294H1046.72V95.884H1053.82V93.2H1046.72V90.01H1053.98V87.326H1043.59V102H1053.98ZM1072.32 102V87.326H1067.92L1064.36 96.478L1060.8 87.326H1056.42V102H1059.54V91.44L1063.68 102H1065.04L1069.18 91.44V102H1072.32Z" fill="black"/>
<path d="M303.71 320.066L308.692 324.984L303.742 329.933" stroke="#C9C9C9" stroke-width="2"/>
<path d="M292.212 324C291.66 324 291.212 324.447 291.212 325C291.212 325.552 291.66 326 292.212 326L292.212 324ZM303.386 326C303.938 326 304.386 325.552 304.386 325C304.386 324.447 303.938 324 303.386 324L303.386 326ZM292.258 326C292.81 326 293.258 325.552 293.258 325C293.258 324.447 292.81 324 292.258 324L292.258 326ZM295.891 324C295.339 324 294.891 324.447 294.891 325C294.891 325.552 295.339 326 295.891 326L295.891 324ZM295.982 326C296.534 326 296.982 325.552 296.982 325C296.982 324.447 296.534 324 295.982 324L295.982 326ZM299.616 324C299.063 324 298.616 324.447 298.616 325C298.616 325.552 299.063 326 299.616 326L299.616 324ZM299.707 326C300.259 326 300.707 325.552 300.707 325C300.707 324.447 300.259 324 299.707 324L299.707 326ZM303.34 324C302.788 324 302.34 324.447 302.34 325C302.34 325.552 302.788 326 303.34 326L303.34 324ZM292.212 326L292.258 326L292.258 324L292.212 324L292.212 326ZM295.891 326L295.982 326L295.982 324L295.891 324L295.891 326ZM299.616 326L299.707 326L299.707 324L299.616 324L299.616 326ZM303.34 326L303.386 326L303.386 324L303.34 324L303.34 326Z" fill="#C9C9C9"/>
<path d="M492.756 320.066L497.738 324.984L492.788 329.933" stroke="#C9C9C9" stroke-width="2"/>
<path d="M481.259 324C480.707 324 480.259 324.447 480.259 325C480.259 325.552 480.707 326 481.259 326L481.259 324ZM492.432 326C492.984 326 493.432 325.552 493.432 325C493.432 324.447 492.984 324 492.432 324L492.432 326ZM481.304 326C481.856 326 482.304 325.552 482.304 325C482.304 324.447 481.856 324 481.304 324L481.304 326ZM484.938 324C484.385 324 483.938 324.447 483.938 325C483.938 325.552 484.385 326 484.938 326L484.938 324ZM485.029 326C485.581 326 486.029 325.552 486.029 325C486.029 324.447 485.581 324 485.029 324L485.029 326ZM488.662 324C488.11 324 487.662 324.447 487.662 325C487.662 325.552 488.11 326 488.662 326L488.662 324ZM488.753 326C489.305 326 489.753 325.552 489.753 325C489.753 324.447 489.305 324 488.753 324L488.753 326ZM492.387 324C491.834 324 491.387 324.447 491.387 325C491.387 325.552 491.834 326 492.387 326L492.387 324ZM481.259 326L481.304 326L481.304 324L481.259 324L481.259 326ZM484.938 326L485.029 326L485.029 324L484.938 324L484.938 326ZM488.662 326L488.753 326L488.753 324L488.662 324L488.662 326ZM492.387 326L492.432 326L492.432 324L492.387 324L492.387 326Z" fill="#C9C9C9"/>
<circle cx="584.816" cy="325" r="83" fill="#F7F7F7"/>
<path d="M549.593 362.187V354.599H552.309V352.849H544.861V354.599H547.591V362.187H549.593ZM561.143 362.187L559.043 358.631C560.051 358.393 561.087 357.511 561.087 355.859C561.087 354.123 559.897 352.849 557.951 352.849H553.583V362.187H555.571V358.841H557.027L558.861 362.187H561.143ZM559.057 355.845C559.057 356.629 558.455 357.133 557.657 357.133H555.571V354.557H557.657C558.455 354.557 559.057 355.061 559.057 355.845ZM569.187 362.187V360.465H564.567V358.295H569.089V356.587H564.567V354.557H569.187V352.849H562.579V362.187H569.187ZM579.45 362.187L575.852 352.849H573.36L569.748 362.187H571.932L572.52 360.577H576.692L577.28 362.187H579.45ZM576.146 358.855H573.052L574.606 354.571L576.146 358.855ZM583.568 362.187V354.599H586.284V352.849H578.836V354.599H581.566V362.187H583.568ZM597.68 362.187V352.849H594.88L592.612 358.673L590.344 352.849H587.558V362.187H589.546V355.467L592.178 362.187H593.046L595.678 355.467V362.187H597.68ZM606.143 362.187V360.465H601.523V358.295H606.045V356.587H601.523V354.557H606.143V352.849H599.535V362.187H606.143ZM616.055 362.187V352.849H614.067V358.897L609.741 352.849H607.697V362.187H609.685V355.915L614.137 362.187H616.055ZM622.054 362.187V354.599H624.77V352.849H617.322V354.599H620.052V362.187H622.054Z" fill="black"/>
<path d="M597.269 292.578C596.976 292.871 596.976 293.346 597.269 293.639L602.97 299.34C603.263 299.633 603.738 299.633 604.031 299.34L610.791 292.58C611.084 292.287 611.084 291.812 610.791 291.519L605.089 285.818C604.797 285.525 604.322 285.525 604.029 285.818L597.269 292.578Z" fill="white" stroke="black" stroke-width="2.5"/>
<path d="M613.826 294.585L602.024 282.783" stroke="black" stroke-width="2.5" stroke-linecap="round"/>
<path d="M561.859 334.771L558.029 338.601" stroke="black" stroke-width="2.5" stroke-linecap="round"/>
<mask id="path-48-inside-3" fill="white">
<path fill-rule="evenodd" clip-rule="evenodd" d="M585.845 294.272C584.804 293.093 584.847 291.293 585.974 290.166L588.942 287.198C590.114 286.026 592.013 286.026 593.185 287.198L609.415 303.428C610.587 304.6 610.587 306.499 609.415 307.671L606.447 310.639C605.325 311.761 603.535 311.809 602.357 310.782L577.908 335.232C576.97 336.17 575.698 336.697 574.372 336.696L561.931 336.696C560.827 336.696 559.931 335.8 559.931 334.696L559.932 322.256C559.932 320.93 560.459 319.659 561.396 318.721L585.845 294.272Z"/>
</mask>
<path fill-rule="evenodd" clip-rule="evenodd" d="M585.845 294.272C584.804 293.093 584.847 291.293 585.974 290.166L588.942 287.198C590.114 286.026 592.013 286.026 593.185 287.198L609.415 303.428C610.587 304.6 610.587 306.499 609.415 307.671L606.447 310.639C605.325 311.761 603.535 311.809 602.357 310.782L577.908 335.232C576.97 336.17 575.698 336.697 574.372 336.696L561.931 336.696C560.827 336.696 559.931 335.8 559.931 334.696L559.932 322.256C559.932 320.93 560.459 319.659 561.396 318.721L585.845 294.272Z" fill="white"/>
<path d="M585.845 294.272L587.613 296.039L589.274 294.377L587.718 292.616L585.845 294.272ZM593.185 287.198L591.417 288.965L593.185 287.198ZM609.415 303.428L611.183 301.66L609.415 303.428ZM602.357 310.782L603.999 308.897L602.239 307.364L600.589 309.014L602.357 310.782ZM577.908 335.232L576.14 333.464L576.14 333.464L577.908 335.232ZM574.372 336.696L574.372 334.196L574.372 336.696ZM561.931 336.696L561.931 339.196L561.931 339.196L561.931 336.696ZM559.931 334.696L562.431 334.696L562.431 334.696L559.931 334.696ZM559.932 322.256L557.432 322.256L559.932 322.256ZM561.396 318.721L563.164 320.489L561.396 318.721ZM584.206 288.398C582.139 290.465 582.061 293.765 583.971 295.927L587.718 292.616C587.546 292.422 587.554 292.121 587.741 291.934L584.206 288.398ZM587.174 285.43L584.206 288.398L587.741 291.934L590.71 288.965L587.174 285.43ZM594.952 285.43C592.805 283.282 589.322 283.282 587.174 285.43L590.71 288.965C590.905 288.77 591.222 288.77 591.417 288.965L594.952 285.43ZM611.183 301.66L594.952 285.43L591.417 288.965L607.647 305.196L611.183 301.66ZM611.183 309.438C613.331 307.291 613.331 303.808 611.183 301.66L607.647 305.196C607.843 305.391 607.843 305.708 607.647 305.903L611.183 309.438ZM608.215 312.407L611.183 309.438L607.647 305.903L604.679 308.871L608.215 312.407ZM600.715 312.667C602.877 314.551 606.157 314.465 608.215 312.407L604.679 308.871C604.493 309.058 604.194 309.066 603.999 308.897L600.715 312.667ZM600.589 309.014L576.14 333.464L579.675 337L604.125 312.549L600.589 309.014ZM576.14 333.464C575.671 333.933 575.035 334.197 574.372 334.196L574.371 339.196C576.361 339.197 578.269 338.406 579.675 337L576.14 333.464ZM574.372 334.196L561.932 334.196L561.931 339.196L574.371 339.196L574.372 334.196ZM561.932 334.196C562.208 334.196 562.431 334.42 562.431 334.696L557.431 334.696C557.431 337.181 559.446 339.196 561.931 339.196L561.932 334.196ZM562.431 334.696L562.432 322.257L557.432 322.256L557.431 334.696L562.431 334.696ZM562.432 322.257C562.432 321.594 562.695 320.958 563.164 320.489L559.628 316.953C558.222 318.36 557.432 320.267 557.432 322.256L562.432 322.257ZM563.164 320.489L587.613 296.039L584.077 292.504L559.628 316.953L563.164 320.489Z" fill="black" mask="url(#path-48-inside-3)"/>
<path d="M578.332 312.678L583.951 318.297L573.136 329.112C573.042 329.206 572.915 329.259 572.783 329.259L567.37 329.259L567.371 323.847C567.371 323.714 567.423 323.587 567.517 323.493L578.332 312.678Z" fill="#2E87EF" stroke="#2E87EF" stroke-width="3"/>
<circle cx="395.816" cy="325" r="83" fill="#F7F7F7"/>
<path d="M357.275 360.871C358.157 361.753 359.445 362.355 361.237 362.355C363.757 362.355 364.975 361.067 364.975 359.359C364.975 357.287 363.015 356.825 361.475 356.475C360.397 356.223 359.613 356.027 359.613 355.397C359.613 354.837 360.089 354.445 360.985 354.445C361.895 354.445 362.903 354.767 363.659 355.467L364.765 354.011C363.841 353.157 362.609 352.709 361.125 352.709C358.927 352.709 357.583 353.969 357.583 355.523C357.583 357.609 359.543 358.029 361.069 358.379C362.147 358.631 362.959 358.869 362.959 359.569C362.959 360.101 362.427 360.619 361.335 360.619C360.047 360.619 359.025 360.045 358.367 359.359L357.275 360.871ZM370.765 362.355C372.893 362.355 374.069 361.221 374.741 360.059L373.033 359.233C372.641 360.003 371.801 360.591 370.765 360.591C369.141 360.591 367.909 359.289 367.909 357.525C367.909 355.761 369.141 354.459 370.765 354.459C371.801 354.459 372.641 355.061 373.033 355.817L374.741 354.977C374.083 353.815 372.893 352.695 370.765 352.695C368.035 352.695 365.865 354.655 365.865 357.525C365.865 360.395 368.035 362.355 370.765 362.355ZM383.485 362.187L381.385 358.631C382.393 358.393 383.429 357.511 383.429 355.859C383.429 354.123 382.239 352.849 380.293 352.849H375.925V362.187H377.913V358.841H379.369L381.203 362.187H383.485ZM381.399 355.845C381.399 356.629 380.797 357.133 379.999 357.133H377.913V354.557H379.999C380.797 354.557 381.399 355.061 381.399 355.845ZM391.529 362.187V360.465H386.909V358.295H391.431V356.587H386.909V354.557H391.529V352.849H384.921V362.187H391.529ZM399.691 362.187V360.465H395.071V358.295H399.593V356.587H395.071V354.557H399.691V352.849H393.083V362.187H399.691ZM409.603 362.187V352.849H407.615V358.897L403.289 352.849H401.245V362.187H403.233V355.915L407.685 362.187H409.603ZM413.432 362.187V352.849H411.444V362.187H413.432ZM423.644 362.187V352.849H421.656V358.897L417.33 352.849H415.286V362.187H417.274V355.915L421.726 362.187H423.644ZM425.037 357.525C425.037 360.465 427.277 362.369 430.007 362.369C431.701 362.369 433.031 361.669 433.983 360.605V357.035H429.531V358.743H432.023V359.877C431.617 360.241 430.861 360.591 430.007 360.591C428.313 360.591 427.081 359.289 427.081 357.525C427.081 355.761 428.313 354.459 430.007 354.459C430.987 354.459 431.785 354.977 432.219 355.635L433.871 354.739C433.157 353.633 431.939 352.695 430.007 352.695C427.277 352.695 425.037 354.571 425.037 357.525Z" fill="black"/>
<path d="M403.299 287.75V287.75C406.761 287.75 409.35 290.928 408.651 294.319L404.994 312.041C404.335 315.233 401.524 317.523 398.265 317.523H383.025C379.883 317.523 377.177 315.303 376.564 312.221L372.92 293.922C372.275 290.68 374.878 287.75 378.183 287.75V287.75" stroke="black" stroke-width="2.5"/>
<path d="M405.097 329.41V331.81C405.097 335.767 401.889 338.975 397.932 338.975C393.975 338.975 390.768 335.767 390.768 331.81V317.525" stroke="black" stroke-width="2.5"/>
<path d="M414.338 320.459C409.234 320.459 405.097 324.596 405.097 329.699" stroke="black" stroke-width="2.5"/>
<circle cx="381.905" cy="287.751" r="4.23262" fill="white" stroke="black" stroke-width="2.5"/>
<circle cx="399.469" cy="287.751" r="4.23262" fill="white" stroke="black" stroke-width="2.5"/>
<circle cx="420.403" cy="320.458" r="9.40343" fill="white" stroke="black" stroke-width="2.5"/>
<circle cx="420.403" cy="320.46" r="4.18516" fill="#2E87EF"/>
<circle cx="206.816" cy="325" r="83" fill="#F7F7F7"/>
<path d="M166.368 362.187V358.841H168.748C170.764 358.841 171.884 357.483 171.884 355.859C171.884 354.221 170.778 352.849 168.748 352.849H164.38V362.187H166.368ZM169.854 355.845C169.854 356.629 169.266 357.133 168.482 357.133H166.368V354.557H168.482C169.266 354.557 169.854 355.075 169.854 355.845ZM180.676 362.187L178.576 358.631C179.584 358.393 180.62 357.511 180.62 355.859C180.62 354.123 179.43 352.849 177.484 352.849H173.116V362.187H175.104V358.841H176.56L178.394 362.187H180.676ZM178.59 355.845C178.59 356.629 177.988 357.133 177.19 357.133H175.104V354.557H177.19C177.988 354.557 178.59 355.061 178.59 355.845ZM188.72 362.187V360.465H184.1V358.295H188.622V356.587H184.1V354.557H188.72V352.849H182.112V362.187H188.72ZM195.384 362.187L198.982 352.849H196.714L194.138 360.031L191.548 352.849H189.28L192.892 362.187H195.384ZM206.453 362.187V360.465H201.833V358.295H206.355V356.587H201.833V354.557H206.453V352.849H199.845V362.187H206.453ZM216.365 362.187V352.849H214.377V358.897L210.051 352.849H208.007V362.187H209.995V355.915L214.447 362.187H216.365ZM222.364 362.187V354.599H225.08V352.849H217.632V354.599H220.362V362.187H222.364ZM228.342 362.187V352.849H226.354V362.187H228.342ZM229.748 357.525C229.748 360.339 231.806 362.355 234.62 362.355C237.448 362.355 239.506 360.339 239.506 357.525C239.506 354.711 237.448 352.695 234.62 352.695C231.806 352.695 229.748 354.711 229.748 357.525ZM237.462 357.525C237.462 359.261 236.342 360.591 234.62 360.591C232.898 360.591 231.792 359.261 231.792 357.525C231.792 355.775 232.898 354.459 234.62 354.459C236.342 354.459 237.462 355.775 237.462 357.525ZM249.259 362.187V352.849H247.271V358.897L242.945 352.849H240.901V362.187H242.889V355.915L247.341 362.187H249.259Z" fill="black"/>
<path d="M206.816 280.568L183.274 292.932V304.845C183.274 320.925 183.274 324.404 202.006 336.742C203.534 337.749 205.153 338.614 206.816 339.34C208.479 338.614 210.098 337.749 211.626 336.742C230.358 324.404 230.358 320.925 230.358 304.845V292.932L206.816 280.568Z" fill="white" stroke="black" stroke-width="2.5" stroke-linejoin="round"/>
<mask id="path-63-inside-4" fill="white">
<path fill-rule="evenodd" clip-rule="evenodd" d="M208.317 296.807C208.317 295.979 207.645 295.307 206.817 295.307C205.988 295.307 205.317 295.979 205.317 296.807V298.694C203.454 298.953 201.743 299.687 200.311 300.769L198.976 299.434C198.39 298.848 197.441 298.848 196.855 299.434C196.269 300.02 196.269 300.97 196.855 301.556L198.19 302.89C197.108 304.322 196.375 306.032 196.116 307.894H194.228C193.4 307.894 192.728 308.566 192.728 309.394C192.728 310.222 193.4 310.894 194.228 310.894H196.116C196.374 312.757 197.108 314.467 198.19 315.9L196.855 317.235C196.269 317.821 196.269 318.771 196.855 319.357C197.441 319.943 198.39 319.943 198.976 319.357L200.312 318.021C201.744 319.103 203.454 319.836 205.317 320.095V321.983C205.317 322.811 205.988 323.483 206.817 323.483C207.645 323.483 208.317 322.811 208.317 321.983V320.095C210.179 319.836 211.889 319.103 213.321 318.022L214.657 319.358C215.243 319.943 216.192 319.943 216.778 319.358C217.364 318.772 217.364 317.822 216.778 317.236L215.442 315.9C216.525 314.468 217.258 312.757 217.517 310.894H219.404C220.233 310.894 220.904 310.222 220.904 309.394C220.904 308.566 220.233 307.894 219.404 307.894H217.516C217.258 306.032 216.525 304.322 215.443 302.89L216.778 301.555C217.364 300.969 217.364 300.019 216.778 299.433C216.192 298.848 215.243 298.848 214.657 299.433L213.322 300.769C211.889 299.687 210.179 298.953 208.317 298.695V296.807Z"/>
</mask>
<path fill-rule="evenodd" clip-rule="evenodd" d="M208.317 296.807C208.317 295.979 207.645 295.307 206.817 295.307C205.988 295.307 205.317 295.979 205.317 296.807V298.694C203.454 298.953 201.743 299.687 200.311 300.769L198.976 299.434C198.39 298.848 197.441 298.848 196.855 299.434C196.269 300.02 196.269 300.97 196.855 301.556L198.19 302.89C197.108 304.322 196.375 306.032 196.116 307.894H194.228C193.4 307.894 192.728 308.566 192.728 309.394C192.728 310.222 193.4 310.894 194.228 310.894H196.116C196.374 312.757 197.108 314.467 198.19 315.9L196.855 317.235C196.269 317.821 196.269 318.771 196.855 319.357C197.441 319.943 198.39 319.943 198.976 319.357L200.312 318.021C201.744 319.103 203.454 319.836 205.317 320.095V321.983C205.317 322.811 205.988 323.483 206.817 323.483C207.645 323.483 208.317 322.811 208.317 321.983V320.095C210.179 319.836 211.889 319.103 213.321 318.022L214.657 319.358C215.243 319.943 216.192 319.943 216.778 319.358C217.364 318.772 217.364 317.822 216.778 317.236L215.442 315.9C216.525 314.468 217.258 312.757 217.517 310.894H219.404C220.233 310.894 220.904 310.222 220.904 309.394C220.904 308.566 220.233 307.894 219.404 307.894H217.516C217.258 306.032 216.525 304.322 215.443 302.89L216.778 301.555C217.364 300.969 217.364 300.019 216.778 299.433C216.192 298.848 215.243 298.848 214.657 299.433L213.322 300.769C211.889 299.687 210.179 298.953 208.317 298.695V296.807Z" fill="#2E87EF"/>
<path d="M205.317 298.694L205.729 301.666L208.317 301.307V298.694H205.317ZM200.311 300.769L198.189 302.89L200.036 304.736L202.119 303.163L200.311 300.769ZM198.976 299.434L196.855 301.556L196.855 301.556L198.976 299.434ZM196.855 299.434L198.976 301.556L198.976 301.556L196.855 299.434ZM196.855 301.556L198.976 299.434L198.976 299.434L196.855 301.556ZM198.19 302.89L200.584 304.698L202.157 302.615L200.311 300.769L198.19 302.89ZM196.116 307.894V310.894H198.728L199.088 308.307L196.116 307.894ZM196.116 310.894L199.087 310.481L198.728 307.894H196.116V310.894ZM198.19 315.9L200.311 318.021L202.158 316.175L200.584 314.092L198.19 315.9ZM196.855 317.235L198.976 319.357L198.976 319.357L196.855 317.235ZM196.855 319.357L198.976 317.235L198.976 317.235L196.855 319.357ZM198.976 319.357L196.855 317.235L196.855 317.235L198.976 319.357ZM200.312 318.021L202.12 315.627L200.036 314.054L198.19 315.9L200.312 318.021ZM205.317 320.095H208.317V317.483L205.729 317.124L205.317 320.095ZM208.317 320.095L207.904 317.124L205.317 317.483V320.095H208.317ZM213.321 318.022L215.442 315.9L213.596 314.054L211.513 315.627L213.321 318.022ZM214.657 319.358L216.778 317.236L216.778 317.236L214.657 319.358ZM216.778 319.358L214.657 317.236L214.657 317.236L216.778 319.358ZM216.778 317.236L214.657 319.358L214.657 319.358L216.778 317.236ZM215.442 315.9L213.048 314.092L211.475 316.175L213.321 318.022L215.442 315.9ZM217.517 310.894V307.894H214.904L214.545 310.481L217.517 310.894ZM217.516 307.894L214.545 308.307L214.905 310.894H217.516V307.894ZM215.443 302.89L213.322 300.769L211.476 302.615L213.049 304.698L215.443 302.89ZM216.778 301.555L214.657 299.433L214.657 299.433L216.778 301.555ZM216.778 299.433L214.657 301.555L214.657 301.555L216.778 299.433ZM214.657 299.433L216.778 301.555L216.778 301.555L214.657 299.433ZM213.322 300.769L211.514 303.162L213.597 304.736L215.443 302.89L213.322 300.769ZM208.317 298.695H205.317V301.307L207.904 301.666L208.317 298.695ZM206.817 298.307C205.988 298.307 205.317 297.635 205.317 296.807H211.317C211.317 294.322 209.302 292.307 206.817 292.307V298.307ZM208.317 296.807C208.317 297.635 207.645 298.307 206.817 298.307V292.307C204.331 292.307 202.317 294.322 202.317 296.807H208.317ZM208.317 298.694V296.807H202.317V298.694H208.317ZM202.119 303.163C203.155 302.38 204.388 301.852 205.729 301.666L204.904 295.723C202.52 296.054 200.332 296.993 198.503 298.375L202.119 303.163ZM196.855 301.556L198.189 302.89L202.432 298.647L201.098 297.313L196.855 301.556ZM198.976 301.556C198.39 302.141 197.441 302.141 196.855 301.556L201.098 297.313C199.34 295.556 196.491 295.556 194.734 297.313L198.976 301.556ZM198.976 299.434C199.562 300.02 199.562 300.97 198.976 301.556L194.734 297.313C192.976 299.07 192.976 301.919 194.734 303.677L198.976 299.434ZM200.311 300.769L198.976 299.434L194.734 303.677L196.068 305.011L200.311 300.769ZM199.088 308.307C199.274 306.966 199.801 305.734 200.584 304.698L195.796 301.082C194.414 302.911 193.476 305.098 193.145 307.481L199.088 308.307ZM194.228 310.894H196.116V304.894H194.228V310.894ZM195.728 309.394C195.728 310.222 195.057 310.894 194.228 310.894V304.894C191.743 304.894 189.728 306.909 189.728 309.394H195.728ZM194.228 307.894C195.057 307.894 195.728 308.566 195.728 309.394H189.728C189.728 311.879 191.743 313.894 194.228 313.894V307.894ZM196.116 307.894H194.228V313.894H196.116V307.894ZM200.584 314.092C199.801 313.056 199.274 311.823 199.087 310.481L193.144 311.307C193.475 313.69 194.414 315.879 195.796 317.708L200.584 314.092ZM198.976 319.357L200.311 318.021L196.069 313.779L194.734 315.114L198.976 319.357ZM198.976 317.235C199.562 317.821 199.562 318.771 198.976 319.357L194.734 315.114C192.976 316.871 192.976 319.721 194.734 321.478L198.976 317.235ZM196.855 317.235C197.441 316.65 198.39 316.65 198.976 317.235L194.734 321.478C196.491 323.235 199.34 323.235 201.098 321.478L196.855 317.235ZM198.19 315.9L196.855 317.235L201.098 321.478L202.433 320.143L198.19 315.9ZM205.729 317.124C204.388 316.937 203.155 316.41 202.12 315.627L198.504 320.415C200.333 321.797 202.521 322.736 204.904 323.067L205.729 317.124ZM208.317 321.983V320.095H202.317V321.983H208.317ZM206.817 320.483C207.645 320.483 208.317 321.154 208.317 321.983H202.317C202.317 324.468 204.331 326.483 206.817 326.483V320.483ZM205.317 321.983C205.317 321.154 205.988 320.483 206.817 320.483V326.483C209.302 326.483 211.317 324.468 211.317 321.983H205.317ZM205.317 320.095V321.983H211.317V320.095H205.317ZM211.513 315.627C210.477 316.41 209.245 316.937 207.904 317.124L208.729 323.066C211.112 322.735 213.3 321.797 215.129 320.416L211.513 315.627ZM216.778 317.236L215.442 315.9L211.2 320.143L212.536 321.479L216.778 317.236ZM214.657 317.236C215.243 316.65 216.192 316.65 216.778 317.236L212.536 321.479C214.293 323.236 217.142 323.236 218.9 321.479L214.657 317.236ZM214.657 319.358C214.071 318.772 214.071 317.822 214.657 317.236L218.9 321.479C220.657 319.722 220.657 316.872 218.9 315.115L214.657 319.358ZM213.321 318.022L214.657 319.358L218.9 315.115L217.564 313.779L213.321 318.022ZM214.545 310.481C214.359 311.823 213.831 313.056 213.048 314.092L217.836 317.709C219.218 315.879 220.157 313.69 220.488 311.307L214.545 310.481ZM219.404 307.894H217.517V313.894H219.404V307.894ZM217.904 309.394C217.904 308.566 218.576 307.894 219.404 307.894V313.894C221.889 313.894 223.904 311.879 223.904 309.394H217.904ZM219.404 310.894C218.576 310.894 217.904 310.222 217.904 309.394H223.904C223.904 306.909 221.889 304.894 219.404 304.894V310.894ZM217.516 310.894H219.404V304.894H217.516V310.894ZM213.049 304.698C213.831 305.734 214.359 306.966 214.545 308.307L220.488 307.481C220.157 305.098 219.218 302.911 217.837 301.082L213.049 304.698ZM214.657 299.433L213.322 300.769L217.564 305.011L218.9 303.676L214.657 299.433ZM214.657 301.555C214.071 300.969 214.071 300.019 214.657 299.433L218.9 303.676C220.657 301.919 220.657 299.069 218.9 297.312L214.657 301.555ZM216.778 301.555C216.192 302.141 215.243 302.141 214.657 301.555L218.9 297.312C217.142 295.555 214.293 295.555 212.536 297.312L216.778 301.555ZM215.443 302.89L216.778 301.555L212.536 297.312L211.2 298.647L215.443 302.89ZM207.904 301.666C209.245 301.852 210.478 302.38 211.514 303.162L215.13 298.375C213.301 296.993 211.113 296.054 208.729 295.723L207.904 301.666ZM205.317 296.807V298.695H211.317V296.807H205.317Z" fill="#2E87EF" mask="url(#path-63-inside-4)"/>
<path fill-rule="evenodd" clip-rule="evenodd" d="M209.577 309.666C210.953 309.666 212.069 308.55 212.069 307.174C212.069 305.798 210.953 304.682 209.577 304.682C208.2 304.682 207.085 305.798 207.085 307.174C207.085 308.55 208.2 309.666 209.577 309.666ZM204.056 314.65C205.432 314.65 206.548 313.534 206.548 312.158C206.548 310.781 205.432 309.665 204.056 309.665C202.679 309.665 201.564 310.781 201.564 312.158C201.564 313.534 202.679 314.65 204.056 314.65Z" fill="black"/>
<path d="M292.557 102V99.25H286.353V87.326H283.229V102H292.557ZM297.868 102V87.326H294.744V102H297.868ZM313.916 102V87.326H310.792V96.83L303.994 87.326H300.782V102H303.906V92.144L310.902 102H313.916ZM327.193 102V99.294H319.933V95.884H327.039V93.2H319.933V90.01H327.193V87.326H316.809V102H327.193ZM343.319 102L337.665 87.326H333.749L328.073 102H331.505L332.429 99.47H338.985L339.909 102H343.319ZM338.127 96.764H333.265L335.707 90.032L338.127 96.764ZM356.554 102L353.254 96.412C354.838 96.038 356.466 94.652 356.466 92.056C356.466 89.328 354.596 87.326 351.538 87.326H344.674V102H347.798V96.742H350.086L352.968 102H356.554ZM353.276 92.034C353.276 93.266 352.33 94.058 351.076 94.058H347.798V90.01H351.076C352.33 90.01 353.276 90.802 353.276 92.034ZM371.436 102.264C374.78 102.264 376.628 100.482 377.684 98.656L375 97.358C374.384 98.568 373.064 99.492 371.436 99.492C368.884 99.492 366.948 97.446 366.948 94.674C366.948 91.902 368.884 89.856 371.436 89.856C373.064 89.856 374.384 90.802 375 91.99L377.684 90.67C376.65 88.844 374.78 87.084 371.436 87.084C367.146 87.084 363.736 90.164 363.736 94.674C363.736 99.184 367.146 102.264 371.436 102.264ZM393.077 102L387.423 87.326H383.507L377.831 102H381.263L382.187 99.47H388.743L389.667 102H393.077ZM387.885 96.764H383.023L385.465 90.032L387.885 96.764ZM406.312 102L403.012 96.412C404.596 96.038 406.224 94.652 406.224 92.056C406.224 89.328 404.354 87.326 401.296 87.326H394.432V102H397.556V96.742H399.844L402.726 102H406.312ZM403.034 92.034C403.034 93.266 402.088 94.058 400.834 94.058H397.556V90.01H400.834C402.088 90.01 403.034 90.802 403.034 92.034ZM418.953 102V99.294H411.693V95.884H418.799V93.2H411.693V90.01H418.953V87.326H408.569V102H418.953ZM426.012 99.932C427.398 101.318 429.422 102.264 432.238 102.264C436.198 102.264 438.112 100.24 438.112 97.556C438.112 94.3 435.032 93.574 432.612 93.024C430.918 92.628 429.686 92.32 429.686 91.33C429.686 90.45 430.434 89.834 431.842 89.834C433.272 89.834 434.856 90.34 436.044 91.44L437.782 89.152C436.33 87.81 434.394 87.106 432.062 87.106C428.608 87.106 426.496 89.086 426.496 91.528C426.496 94.806 429.576 95.466 431.974 96.016C433.668 96.412 434.944 96.786 434.944 97.886C434.944 98.722 434.108 99.536 432.392 99.536C430.368 99.536 428.762 98.634 427.728 97.556L426.012 99.932ZM447.281 102V95.994L452.891 87.326H449.327L445.719 93.222L442.067 87.326H438.503L444.157 95.994V102H447.281ZM452.803 99.932C454.189 101.318 456.213 102.264 459.029 102.264C462.989 102.264 464.903 100.24 464.903 97.556C464.903 94.3 461.823 93.574 459.403 93.024C457.709 92.628 456.477 92.32 456.477 91.33C456.477 90.45 457.225 89.834 458.633 89.834C460.063 89.834 461.647 90.34 462.835 91.44L464.573 89.152C463.121 87.81 461.185 87.106 458.853 87.106C455.399 87.106 453.287 89.086 453.287 91.528C453.287 94.806 456.367 95.466 458.765 96.016C460.459 96.412 461.735 96.786 461.735 97.886C461.735 98.722 460.899 99.536 459.183 99.536C457.159 99.536 455.553 98.634 454.519 97.556L452.803 99.932ZM473.39 102V90.076H477.658V87.326H465.954V90.076H470.244V102H473.39ZM490.044 102V99.294H482.784V95.884H489.89V93.2H482.784V90.01H490.044V87.326H479.66V102H490.044ZM508.393 102V87.326H503.993L500.429 96.478L496.865 87.326H492.487V102H495.611V91.44L499.747 102H501.111L505.247 91.44V102H508.393Z" fill="black"/>
</svg>
