<svg width="1244" height="222" viewBox="0 0 1244 222" fill="none" xmlns="http://www.w3.org/2000/svg">
<path d="M136 79.0009L130 79.0009L130 91.0009L136 91.0009L136 79.0009ZM136 91.0009L1113 91.0008L1113 79.0008L136 79.0009L136 91.0009Z" fill="#F3F3F3"/>
<path d="M223 85L207 74V96L223 85Z" fill="#F3F3F3"/>
<path d="M437 85L421 74V96L437 85Z" fill="#F3F3F3"/>
<path d="M651 85L635 74V96L651 85Z" fill="#F3F3F3"/>
<path d="M865 85L849 74V96L865 85Z" fill="#F3F3F3"/>
<path d="M1079 85L1063 74V96L1079 85Z" fill="#F3F3F3"/>
<circle cx="87" cy="87" r="86.5" fill="white" stroke="#2E87EF"/>
<g clip-path="url(#clip0)">
<rect x="106.79" y="63.1524" width="5.33575" height="10.1125" rx="2.66787" transform="rotate(45 106.79 63.1524)" fill="white" stroke="#2E87EF" stroke-width="2.5"/>
<path d="M97.771 67.7389C98.845 66.665 100.586 66.665 101.66 67.7389L106.346 72.4247C107.42 73.4987 107.42 75.2399 106.346 76.3138L79.2511 103.409L68.1498 109.444C67.2078 109.956 66.0412 109.787 65.2831 109.029C64.54 108.286 64.3615 107.148 64.8413 106.213L70.687 94.823L97.771 67.7389Z" fill="white" stroke="#2E87EF" stroke-width="2.5"/>
<path d="M98.6465 91.7508L106.556 83.8415C107.727 82.67 107.727 80.7705 106.556 79.5989L105.181 78.2244" stroke="#2E87EF" stroke-width="2.5" stroke-linecap="round"/>
<path d="M79.0483 101.722L71.8044 94.4781" stroke="#2E87EF" stroke-width="2.5" stroke-linecap="round"/>
<path d="M70.0965 107.228L66.9622 104.093" stroke="#2E87EF" stroke-width="2.5" stroke-linecap="round"/>
</g>
<path d="M60.7395 199.488V201.168H65.2195C64.8835 203.12 63.1075 204.72 59.9395 205.584L60.7715 207.216C65.0595 206.032 67.4595 203.376 67.4595 199.488H60.7395ZM64.5795 209.136H70.1155V211.552H64.5795V209.136ZM62.4995 213.2H72.1955V207.472H62.4995V213.2ZM70.0835 198.656V202.128H67.5395V203.84H70.0835V206.864H72.1955V198.656H70.0835ZM79.2683 199.776H77.1403V201.92C77.1403 204.656 76.0203 207.472 73.5403 208.64L74.8043 210.352C76.4683 209.536 77.5723 207.984 78.2123 206.112C78.8203 207.872 79.8603 209.296 81.3963 210.08L82.6763 208.416C80.3083 207.248 79.2683 204.576 79.2683 201.92V199.776ZM87.5243 204.304H85.3803V198.64H83.2683V213.376H85.3803V206.064H87.5243V204.304ZM100.053 198.656H97.925V209.392H100.053V198.656ZM96.837 205.488C94.437 204.72 93.413 202.832 93.413 200.88V199.456H91.269V200.88C91.269 202.848 90.213 204.912 87.765 205.744L88.837 207.424C90.549 206.832 91.701 205.632 92.373 204.144C93.013 205.52 94.133 206.608 95.765 207.168L96.837 205.488ZM92.357 211.44V208.368H90.245V213.12H100.421V211.44H92.357ZM109.702 202.576V204.272H111.99V207.536H114.102V198.64H111.99V202.576H109.702ZM110.63 205.456C108.278 204.832 107.222 203.344 107.19 201.824H110.102V200.16H107.19V198.592H105.078V200.16H102.198V201.824H105.078C105.046 203.472 104.022 205.136 101.686 205.808L102.678 207.44C104.39 206.944 105.542 205.904 106.198 204.56C106.87 205.728 108.022 206.64 109.67 207.072L110.63 205.456ZM109.126 211.76C107.174 211.76 106.182 211.392 106.182 210.592C106.182 209.792 107.174 209.408 109.126 209.408C111.046 209.408 112.054 209.792 112.054 210.592C112.054 211.392 111.046 211.76 109.126 211.76ZM109.126 207.792C105.99 207.792 104.07 208.816 104.07 210.592C104.07 212.352 105.99 213.376 109.126 213.376C112.246 213.376 114.166 212.352 114.166 210.592C114.166 208.816 112.246 207.792 109.126 207.792Z" fill="#454545"/>
<circle cx="301" cy="87" r="86.5" fill="white" stroke="#2E87EF"/>
<g clip-path="url(#clip1)">
<path d="M285.5 108.75C283.982 108.75 282.75 107.519 282.75 106L282.75 65.25L319.25 65.25L319.25 106C319.25 107.519 318.019 108.75 316.5 108.75L285.5 108.75Z" fill="white" stroke="#2E87EF" stroke-width="2.5"/>
<rect x="302.25" y="100.471" width="9.46" height="8.64286" rx="1.75" transform="rotate(-90 302.25 100.471)" fill="white" stroke="#2E87EF" stroke-width="2.5"/>
<path d="M290.858 66.0762L290.858 108.03" stroke="#2E87EF" stroke-width="2.5" stroke-linecap="round"/>
<path fill-rule="evenodd" clip-rule="evenodd" d="M277.004 65.248C277.004 64.5577 277.563 63.998 278.254 63.998L323.753 63.9981C324.444 63.9981 325.004 64.5577 325.004 65.2481C325.004 65.9384 324.444 66.4981 323.753 66.4981L278.254 66.498C277.563 66.498 277.004 65.9384 277.004 65.248Z" fill="#2E87EF"/>
</g>
<path d="M298.052 202.08V203.344H294.788V204.928H298.052V206.032H300.164V198.64H298.052V200.496H295.348C295.412 200.08 295.444 199.648 295.444 199.2H288.868V200.88H293.124C292.868 202.608 291.364 204.016 288.02 204.672L288.724 206.368C291.956 205.664 294.036 204.272 294.932 202.08H298.052ZM292.58 211.568V210.64H300.164V206.576H290.452V208.24H298.052V209.072H290.468V213.232H300.468V211.568H292.58ZM306.485 201.824H308.629V200.112H302.069V201.824H304.437V202.544C304.437 205.072 303.669 207.712 301.525 209.072L302.773 210.624C304.101 209.792 304.965 208.352 305.477 206.672C305.957 208.224 306.805 209.488 308.101 210.272L309.333 208.736C307.205 207.488 306.485 205.008 306.485 202.544V201.824ZM309.477 203.664H307.605V205.376H309.477V212.704H311.445V198.88H309.477V203.664ZM312.453 198.624V213.36H314.453V198.624H312.453Z" fill="#454545"/>
<circle cx="515" cy="88" r="86.5" fill="white" stroke="#2E87EF"/>
<g clip-path="url(#clip2)">
<mask id="path-21-inside-1" fill="white">
<path fill-rule="evenodd" clip-rule="evenodd" d="M522.592 80.4167C519.783 77.6084 515.23 77.6084 512.422 80.4167L497.624 95.2144C496.381 96.4574 495.688 98.0423 495.546 99.6664C495.523 99.9192 495.422 100.16 495.243 100.34L492.551 103.032C490.5 105.083 490.5 108.408 492.551 110.459C494.602 112.51 497.927 112.51 499.978 110.459L502.671 107.766C502.85 107.586 503.091 107.485 503.344 107.463C504.967 107.32 506.552 106.627 507.794 105.384L522.592 90.5867C525.4 87.7783 525.4 83.2251 522.592 80.4167Z"/>
</mask>
<path fill-rule="evenodd" clip-rule="evenodd" d="M522.592 80.4167C519.783 77.6084 515.23 77.6084 512.422 80.4167L497.624 95.2144C496.381 96.4574 495.688 98.0423 495.546 99.6664C495.523 99.9192 495.422 100.16 495.243 100.34L492.551 103.032C490.5 105.083 490.5 108.408 492.551 110.459C494.602 112.51 497.927 112.51 499.978 110.459L502.671 107.766C502.85 107.586 503.091 107.485 503.344 107.463C504.967 107.32 506.552 106.627 507.794 105.384L522.592 90.5867C525.4 87.7783 525.4 83.2251 522.592 80.4167Z" fill="white"/>
<path d="M512.422 80.4167L510.654 78.649L512.422 80.4167ZM497.624 95.2144L499.392 96.9822L497.624 95.2144ZM507.794 105.384L509.562 107.152L507.794 105.384ZM522.592 90.5867L520.824 88.8189L522.592 90.5867ZM503.344 107.463L503.125 104.972L503.344 107.463ZM495.546 99.6664L493.055 99.4476L495.546 99.6664ZM514.19 82.1845C516.022 80.3525 518.992 80.3525 520.824 82.1845L524.359 78.649C520.575 74.8643 514.439 74.8643 510.654 78.649L514.19 82.1845ZM499.392 96.9822L514.19 82.1845L510.654 78.649L495.856 93.4467L499.392 96.9822ZM498.036 99.8851C498.129 98.8244 498.58 97.7946 499.392 96.9822L495.856 93.4467C494.183 95.1203 493.247 97.2602 493.055 99.4476L498.036 99.8851ZM494.319 104.799L497.01 102.108L493.475 98.5722L490.783 101.264L494.319 104.799ZM494.319 108.691C493.244 107.616 493.244 105.874 494.319 104.799L490.783 101.264C487.756 104.291 487.756 109.199 490.783 112.226L494.319 108.691ZM498.21 108.691C497.135 109.765 495.393 109.765 494.319 108.691L490.783 112.226C493.81 115.254 498.718 115.254 501.746 112.226L498.21 108.691ZM500.903 105.998L498.21 108.691L501.746 112.226L504.438 109.534L500.903 105.998ZM506.026 103.617C505.214 104.429 504.185 104.879 503.125 104.972L503.563 109.953C505.75 109.76 507.889 108.825 509.562 107.152L506.026 103.617ZM520.824 88.8189L506.026 103.617L509.562 107.152L524.359 92.3544L520.824 88.8189ZM520.824 82.1845C522.656 84.0165 522.656 86.9869 520.824 88.8189L524.359 92.3544C528.144 88.5698 528.144 82.4336 524.359 78.649L520.824 82.1845ZM504.438 109.534C504.154 109.818 503.823 109.93 503.563 109.953L503.125 104.972C502.36 105.04 501.547 105.354 500.903 105.998L504.438 109.534ZM493.055 99.4476C493.078 99.1884 493.19 98.8572 493.475 98.5722L497.01 102.108C497.654 101.464 497.969 100.65 498.036 99.8851L493.055 99.4476Z" fill="#2E87EF" mask="url(#path-21-inside-1)"/>
<path d="M501.861 93.2562L517.641 93.2557" stroke="#2E87EF" stroke-width="2.5" stroke-linecap="round"/>
<mask id="path-24-inside-2" fill="white">
<path fill-rule="evenodd" clip-rule="evenodd" d="M536.712 66.2947C533.666 63.2489 528.727 63.2489 525.682 66.2947L525.226 66.7503C523.493 68.483 522.746 70.828 522.985 73.0887C523.001 73.2443 522.95 73.4003 522.839 73.511L520.943 75.4075C520.747 75.6028 520.431 75.6028 520.236 75.4075L519.425 74.5971C518.254 73.4255 516.354 73.4255 515.182 74.5971L513.527 76.2523C512.356 77.4238 512.356 79.3233 513.527 80.4949L522.513 89.4806C523.685 90.6522 525.584 90.6522 526.756 89.4806L528.411 87.8255C529.582 86.6539 529.582 84.7544 528.411 83.5829L527.599 82.7707C527.403 82.5754 527.403 82.2588 527.599 82.0636L529.495 80.167C529.606 80.0564 529.762 80.0049 529.918 80.0213C532.178 80.26 534.523 79.5129 536.256 77.7803L536.712 77.3247C539.757 74.2788 539.757 69.3406 536.712 66.2947Z"/>
</mask>
<path fill-rule="evenodd" clip-rule="evenodd" d="M536.712 66.2947C533.666 63.2489 528.727 63.2489 525.682 66.2947L525.226 66.7503C523.493 68.483 522.746 70.828 522.985 73.0887C523.001 73.2443 522.95 73.4003 522.839 73.511L520.943 75.4075C520.747 75.6028 520.431 75.6028 520.236 75.4075L519.425 74.5971C518.254 73.4255 516.354 73.4255 515.182 74.5971L513.527 76.2523C512.356 77.4238 512.356 79.3233 513.527 80.4949L522.513 89.4806C523.685 90.6522 525.584 90.6522 526.756 89.4806L528.411 87.8255C529.582 86.6539 529.582 84.7544 528.411 83.5829L527.599 82.7707C527.403 82.5754 527.403 82.2588 527.599 82.0636L529.495 80.167C529.606 80.0564 529.762 80.0049 529.918 80.0213C532.178 80.26 534.523 79.5129 536.256 77.7803L536.712 77.3247C539.757 74.2788 539.757 69.3406 536.712 66.2947Z" fill="white"/>
<path d="M525.682 66.2947L523.914 64.527L525.682 66.2947ZM525.226 66.7503L526.994 68.5181L525.226 66.7503ZM513.527 80.4949L515.295 78.7271L513.527 80.4949ZM522.513 89.4806L520.745 91.2484L522.513 89.4806ZM526.756 89.4806L524.988 87.7129L526.756 89.4806ZM528.411 87.8255L530.179 89.5933L528.411 87.8255ZM528.411 83.5829L530.179 81.8151L528.411 83.5829ZM529.918 80.0213L529.655 82.5075L529.918 80.0213ZM520.943 75.4075L522.71 77.1753L520.943 75.4075ZM527.599 82.7707L529.366 81.0029L527.599 82.7707ZM522.985 73.0887L525.471 72.8263L522.985 73.0887ZM522.839 73.511L521.071 71.7432L522.839 73.511ZM527.449 68.0625C529.519 65.993 532.874 65.993 534.944 68.0625L538.479 64.527C534.457 60.5048 527.936 60.5048 523.914 64.527L527.449 68.0625ZM526.994 68.5181L527.449 68.0625L523.914 64.527L523.458 64.9826L526.994 68.5181ZM525.471 72.8263C525.308 71.2838 525.817 69.6946 526.994 68.5181L523.458 64.9826C521.169 67.2713 520.184 70.3722 520.499 73.3511L525.471 72.8263ZM521.071 71.7432L519.175 73.6398L522.71 77.1753L524.607 75.2787L521.071 71.7432ZM522.003 73.6398L521.193 72.8293L517.657 76.3649L518.468 77.1753L522.003 73.6398ZM521.193 72.8293C519.045 70.6815 515.563 70.6815 513.415 72.8294L516.95 76.3649C517.146 76.1696 517.462 76.1696 517.657 76.3649L521.193 72.8293ZM513.415 72.8294L511.76 74.4845L515.295 78.02L516.95 76.3649L513.415 72.8294ZM511.76 74.4845C509.612 76.6324 509.612 80.1148 511.76 82.2627L515.295 78.7271C515.1 78.5319 515.1 78.2153 515.295 78.02L511.76 74.4845ZM511.76 82.2627L520.745 91.2484L524.281 87.7129L515.295 78.7271L511.76 82.2627ZM520.745 91.2484C522.893 93.3963 526.376 93.3963 528.524 91.2484L524.988 87.7129C524.793 87.9081 524.476 87.9081 524.281 87.7129L520.745 91.2484ZM528.524 91.2484L530.179 89.5933L526.643 86.0577L524.988 87.7129L528.524 91.2484ZM530.179 89.5933C532.327 87.4454 532.327 83.963 530.179 81.8151L526.643 85.3506C526.838 85.5459 526.838 85.8625 526.643 86.0577L530.179 89.5933ZM530.179 81.8151L529.366 81.0029L525.831 84.5384L526.643 85.3506L530.179 81.8151ZM529.366 83.8313L531.263 81.9348L527.727 78.3993L525.831 80.2958L529.366 83.8313ZM534.488 76.0125C533.312 77.189 531.722 77.698 530.18 77.5352L529.655 82.5075C532.634 82.822 535.735 81.8368 538.024 79.5481L534.488 76.0125ZM534.944 75.5569L534.488 76.0125L538.024 79.5481L538.479 79.0924L534.944 75.5569ZM534.944 68.0625C537.013 70.132 537.013 73.4874 534.944 75.5569L538.479 79.0924C542.501 75.0703 542.501 68.5491 538.479 64.527L534.944 68.0625ZM531.263 81.9348C530.81 82.3877 530.207 82.5658 529.655 82.5075L530.18 77.5352C529.317 77.4441 528.402 77.7251 527.727 78.3993L531.263 81.9348ZM519.175 73.6398C519.956 72.8587 521.222 72.8587 522.003 73.6398L518.468 77.1753C519.639 78.3469 521.539 78.3469 522.71 77.1753L519.175 73.6398ZM529.366 81.0029C530.148 81.784 530.148 83.0503 529.366 83.8313L525.831 80.2958C524.659 81.4674 524.659 83.3669 525.831 84.5384L529.366 81.0029ZM520.499 73.3511C520.44 72.7994 520.619 72.1961 521.071 71.7432L524.607 75.2787C525.281 74.6045 525.562 73.6893 525.471 72.8263L520.499 73.3511Z" fill="#2E87EF" mask="url(#path-24-inside-2)"/>
</g>
<path d="M495.3 206.072C493.364 205.304 492.564 203.736 492.564 202.136V200.472H490.532V202.104C490.532 203.784 489.732 205.576 487.668 206.504L488.788 208.12C490.148 207.56 491.044 206.52 491.588 205.256C492.116 206.328 492.948 207.192 494.18 207.672L495.3 206.072ZM492.532 210.504H498.372V212.552H492.532V210.504ZM490.452 214.2H500.436V208.84H490.452V214.2ZM498.436 199.656V203.096H497.284V199.896H495.316V208.088H497.284V204.792H498.436V208.248H500.436V199.656H498.436ZM510.004 203.496H506.98V201.608H510.004V203.496ZM504.884 203.496H503.108V205.064H513.86V203.496H512.1V201.608H513.972V200.04H503.012V201.608H504.884V203.496ZM505.476 211.944H513.54V208.296H503.364V209.816H511.46V210.536H503.38V214.264H513.924V212.744H505.476V211.944ZM501.844 205.816V207.48H515.156V205.816H501.844ZM520.389 203.832H522.725V202.12H520.389V200.12H518.389V202.12H516.037V203.832H518.389V204.072C518.389 206.344 517.637 208.76 515.541 209.976L516.725 211.56C518.053 210.808 518.917 209.512 519.413 207.976C519.941 209.368 520.789 210.536 522.101 211.224L523.221 209.656C521.141 208.552 520.389 206.296 520.389 204.072V203.832ZM526.565 199.624V205.272H525.365V199.864H523.397V213.704H525.365V207H526.565V214.36H528.565V199.624H526.565ZM531.158 207.16C532.87 206.808 534.038 205.992 534.694 204.92C535.35 205.88 536.454 206.616 538.102 206.936L538.918 205.304C536.774 204.92 535.766 203.896 535.702 202.728H538.582V201.096H535.702V199.656H533.59V201.096H530.71V202.728H533.59C533.526 203.976 532.518 205.112 530.31 205.528L531.158 207.16ZM539.174 207.352C536.086 207.768 532.518 207.784 529.83 207.784L530.086 209.496C531.142 209.496 532.326 209.496 533.574 209.448V213.928H535.686V209.32C536.886 209.224 538.118 209.08 539.302 208.872L539.174 207.352ZM540.006 199.64V214.36H542.118V199.64H540.006Z" fill="#454545"/>
<circle cx="729" cy="88" r="86.5" fill="white" stroke="#2E87EF"/>
<g clip-path="url(#clip3)">
<path d="M722.255 75.283V65.2501L735.751 65.25V75.2841C735.751 77.0178 736.152 78.7281 736.922 80.2815L748.627 103.89C750.193 107.047 747.896 110.75 744.372 110.75H713.63C710.106 110.75 707.809 107.047 709.375 103.889L721.084 80.2817C721.854 78.7281 722.255 77.0173 722.255 75.283Z" fill="white" stroke="#2E87EF" stroke-width="2.5"/>
<path d="M717.522 89.0436L740.478 89.0436" stroke="#2E87EF" stroke-width="2.5" stroke-linecap="round"/>
<path fill-rule="evenodd" clip-rule="evenodd" d="M718.5 65.2501C718.5 64.5598 719.052 64.0001 719.733 64.0001H738.267C738.948 64.0001 739.5 64.5598 739.5 65.2501C739.5 65.9405 738.948 66.5001 738.267 66.5001H719.733C719.052 66.5001 718.5 65.9405 718.5 65.2501Z" fill="#2E87EF"/>
<circle cx="724.826" cy="97.3914" r="2.08696" fill="#2E87EF"/>
<circle cx="733.696" cy="101.044" r="2.40217" fill="white" stroke="#2E87EF" stroke-width="2.5"/>
</g>
<path d="M709.3 206.072C707.364 205.304 706.564 203.736 706.564 202.136V200.472H704.532V202.104C704.532 203.784 703.732 205.576 701.668 206.504L702.788 208.12C704.148 207.56 705.044 206.52 705.588 205.256C706.116 206.328 706.948 207.192 708.18 207.672L709.3 206.072ZM706.532 210.504H712.372V212.552H706.532V210.504ZM704.452 214.2H714.436V208.84H704.452V214.2ZM712.436 199.656V203.096H711.284V199.896H709.316V208.088H711.284V204.792H712.436V208.248H714.436V199.656H712.436ZM724.004 203.496H720.98V201.608H724.004V203.496ZM718.884 203.496H717.108V205.064H727.86V203.496H726.1V201.608H727.972V200.04H717.012V201.608H718.884V203.496ZM719.476 211.944H727.54V208.296H717.364V209.816H725.46V210.536H717.38V214.264H727.924V212.744H719.476V211.944ZM715.844 205.816V207.48H729.156V205.816H715.844ZM738.693 206.04C736.501 205.304 735.477 203.624 735.381 201.992H738.229V200.312H730.309V201.992H733.189C733.093 203.768 732.021 205.544 729.733 206.312L730.805 207.976C732.517 207.4 733.669 206.232 734.325 204.792C734.949 206.104 736.053 207.16 737.669 207.688L738.693 206.04ZM740.037 212.52H734.453V211.256H740.037V212.52ZM740.037 209.64H734.453V208.296H732.373V214.2H742.133V208.296H740.037V209.64ZM740.021 199.64V202.936H737.797V204.648H740.021V207.704H742.133V199.64H740.021ZM756.63 204.872C753.286 204.408 751.59 202.488 751.59 200.776V200.072H749.334V200.776C749.334 202.504 747.654 204.408 744.294 204.872L745.094 206.568C747.67 206.184 749.526 204.984 750.47 203.4C751.414 204.984 753.254 206.184 755.83 206.568L756.63 204.872ZM757.11 207.656H743.798V209.368H749.35V214.392H751.462V209.368H757.11V207.656Z" fill="#454545"/>
<circle cx="943" cy="88" r="86.5" fill="white" stroke="#2E87EF"/>
<g clip-path="url(#clip4)">
<path d="M952.151 81.4447C957.981 81.4447 962.708 86.1714 962.708 92.0021C962.708 97.8327 957.981 102.559 952.151 102.559H923.25" stroke="#2E87EF" stroke-width="2.5" stroke-linecap="round"/>
<path d="M933.05 93.1838C931.976 94.2577 930.235 94.2577 929.161 93.1838L928.884 92.9071C927.81 91.8331 927.81 90.0919 928.884 89.018L944.964 72.9383C946.114 71.7879 947.979 71.7879 949.13 72.9383C950.28 74.0886 950.28 75.9538 949.13 77.1041L933.05 93.1838Z" fill="white" stroke="#2E87EF" stroke-width="2.5"/>
<path d="M939.211 92.4217C938.137 93.4957 936.396 93.4957 935.322 92.4217L929.649 86.7486C928.575 85.6746 928.575 83.9334 929.649 82.8595L945.45 67.0585C946.524 65.9845 948.265 65.9845 949.339 67.0585L955.012 72.7316C956.086 73.8056 956.086 75.5468 955.012 76.6207L939.211 92.4217Z" fill="white" stroke="#2E87EF" stroke-width="2.5"/>
<mask id="path-38-inside-3" fill="white">
<path d="M928.852 110.016C928.852 102.423 935.007 96.2677 942.6 96.2677C950.193 96.2677 956.349 102.423 956.349 110.016V110.3C956.349 110.688 956.035 111.002 955.647 111.002H929.553C929.166 111.002 928.852 110.688 928.852 110.3V110.016Z"/>
</mask>
<path d="M928.852 110.016C928.852 102.423 935.007 96.2677 942.6 96.2677C950.193 96.2677 956.349 102.423 956.349 110.016V110.3C956.349 110.688 956.035 111.002 955.647 111.002H929.553C929.166 111.002 928.852 110.688 928.852 110.3V110.016Z" fill="white"/>
<path d="M953.849 110.016V110.3H958.849V110.016H953.849ZM955.647 108.502H929.553V113.502H955.647V108.502ZM931.352 110.3V110.016H926.352V110.3H931.352ZM929.553 108.502C930.547 108.502 931.352 109.307 931.352 110.3H926.352C926.352 112.069 927.785 113.502 929.553 113.502V108.502ZM953.849 110.3C953.849 109.307 954.654 108.502 955.647 108.502V113.502C957.415 113.502 958.849 112.069 958.849 110.3H953.849ZM942.6 98.7677C948.813 98.7677 953.849 103.804 953.849 110.016H958.849C958.849 101.042 951.574 93.7677 942.6 93.7677V98.7677ZM942.6 93.7677C933.627 93.7677 926.352 101.042 926.352 110.016H931.352C931.352 103.804 936.388 98.7677 942.6 98.7677V93.7677Z" fill="#2E87EF" mask="url(#path-38-inside-3)"/>
<path fill-rule="evenodd" clip-rule="evenodd" d="M920.008 109.752C920.008 109.062 920.568 108.502 921.258 108.502H964.744C965.435 108.502 965.994 109.062 965.994 109.752C965.994 110.443 965.435 111.002 964.744 111.002H921.258C920.568 111.002 920.008 110.443 920.008 109.752Z" fill="#2E87EF"/>
<circle cx="950.468" cy="80.483" r="3.99461" fill="white" stroke="#2E87EF" stroke-width="2.5"/>
</g>
<path d="M916.74 200.488V202.168H921.22C920.884 204.12 919.108 205.72 915.94 206.584L916.772 208.216C921.06 207.032 923.46 204.376 923.46 200.488H916.74ZM920.58 210.136H926.116V212.552H920.58V210.136ZM918.5 214.2H928.196V208.472H918.5V214.2ZM926.084 199.656V203.128H923.54V204.84H926.084V207.864H928.196V199.656H926.084ZM935.268 200.776H933.14V202.92C933.14 205.656 932.02 208.472 929.54 209.64L930.804 211.352C932.468 210.536 933.572 208.984 934.212 207.112C934.82 208.872 935.86 210.296 937.396 211.08L938.676 209.416C936.308 208.248 935.268 205.576 935.268 202.92V200.776ZM943.524 205.304H941.38V199.64H939.268V214.376H941.38V207.064H943.524V205.304ZM956.053 199.64H953.925V210.296H956.053V199.64ZM952.997 206.856C950.613 206.072 949.541 204.264 949.541 202.536V202.36H952.453V200.696H944.437V202.36H947.397V202.536C947.397 204.376 946.325 206.312 943.877 207.08L944.949 208.728C946.661 208.168 947.845 207.032 948.501 205.592C949.173 206.904 950.293 207.96 951.925 208.472L952.997 206.856ZM948.357 212.44V209.336H946.245V214.12H956.421V212.44H948.357ZM967.254 204.984H968.342V208.856H970.342V199.64H968.342V203.272H967.254V199.912H965.286V208.392H967.254V204.984ZM964.87 201.144H962.326V199.8H960.246V201.144H957.702V202.776H964.87V201.144ZM960.006 205.816C960.006 205.128 960.534 204.76 961.318 204.76C962.102 204.76 962.614 205.128 962.614 205.816C962.614 206.504 962.102 206.888 961.318 206.888C960.534 206.888 960.006 206.504 960.006 205.816ZM964.486 205.816C964.486 204.296 963.174 203.256 961.318 203.256C959.446 203.256 958.134 204.296 958.134 205.816C958.134 207.336 959.446 208.392 961.318 208.392C963.174 208.392 964.486 207.336 964.486 205.816ZM965.35 212.808C963.382 212.808 962.39 212.472 962.39 211.704C962.39 210.936 963.382 210.6 965.35 210.6C967.318 210.6 968.31 210.936 968.31 211.704C968.31 212.472 967.318 212.808 965.35 212.808ZM965.35 209.016C962.182 209.016 960.278 209.992 960.278 211.704C960.278 213.416 962.182 214.376 965.35 214.376C968.518 214.376 970.422 213.416 970.422 211.704C970.422 209.992 968.518 209.016 965.35 209.016Z" fill="#454545"/>
<circle cx="1157" cy="89" r="86.5" fill="white" stroke="#2E87EF"/>
<g clip-path="url(#clip5)">
<path d="M1142.1 104.059L1153.38 84.5196L1166.59 92.1457L1177.04 74.0538" stroke="#2E87EF" stroke-width="2.5" stroke-linecap="round"/>
<circle cx="1143.5" cy="102.06" r="2.75" transform="rotate(30 1143.5 102.06)" fill="white" stroke="#2E87EF" stroke-width="2.5"/>
<circle cx="1153.56" cy="84.6969" r="2.75" transform="rotate(30 1153.56 84.6969)" fill="white" stroke="#2E87EF" stroke-width="2.5"/>
<circle cx="1166.47" cy="92.1482" r="2.75" transform="rotate(30 1166.47 92.1482)" fill="white" stroke="#2E87EF" stroke-width="2.5"/>
<circle cx="1175.99" cy="75.6544" r="2.75" transform="rotate(30 1175.99 75.6544)" fill="white" stroke="#2E87EF" stroke-width="2.5"/>
<path fill-rule="evenodd" clip-rule="evenodd" d="M1135.25 66C1135.94 66 1136.5 66.5599 1136.5 67.2506V109.499H1178.75C1179.44 109.499 1180 110.059 1180 110.749C1180 111.44 1179.44 112 1178.75 112H1135.25C1134.56 112 1134 111.44 1134 110.749V67.2506C1134 66.5599 1134.56 66 1135.25 66Z" fill="#2E87EF"/>
</g>
<path d="M1140.08 204.08V205.344H1136.82V206.928H1140.08V208.032H1142.2V200.64H1140.08V202.496H1137.38C1137.44 202.08 1137.48 201.648 1137.48 201.2H1130.9V202.88H1135.16C1134.9 204.608 1133.4 206.016 1130.05 206.672L1130.76 208.368C1133.99 207.664 1136.07 206.272 1136.96 204.08H1140.08ZM1134.61 213.568V212.64H1142.2V208.576H1132.48V210.24H1140.08V211.072H1132.5V215.232H1142.5V213.568H1134.61ZM1151.65 208.944C1152.05 206.512 1152.05 204.72 1152.05 203.296V202.096H1144.47V203.776H1149.97C1149.97 205.088 1149.92 206.672 1149.59 208.768L1151.65 208.944ZM1148.44 206.32H1146.36V210.672C1145.43 210.688 1144.53 210.688 1143.72 210.688L1143.91 212.416C1146.47 212.4 1149.76 212.336 1152.76 211.824L1152.64 210.304C1151.3 210.464 1149.86 210.56 1148.44 210.608V206.32ZM1157.41 206.56H1155.43V200.624H1153.32V215.36H1155.43V208.32H1157.41V206.56ZM1166.37 201.728H1163.25V200.512H1161.14V201.728H1158.01V203.232H1166.37V201.728ZM1160.6 205.776C1160.6 205.232 1161.21 204.96 1162.2 204.96C1163.19 204.96 1163.78 205.232 1163.78 205.776C1163.78 206.32 1163.19 206.608 1162.2 206.608C1161.21 206.608 1160.6 206.32 1160.6 205.776ZM1166.74 208.384C1165.62 208.512 1164.45 208.608 1163.25 208.656V207.904C1164.82 207.664 1165.78 206.896 1165.78 205.776C1165.78 204.432 1164.37 203.6 1162.2 203.6C1160.02 203.6 1158.6 204.432 1158.6 205.776C1158.6 206.896 1159.57 207.664 1161.14 207.904V208.736C1159.89 208.768 1158.69 208.768 1157.64 208.768L1157.86 210.384C1160.45 210.384 1163.81 210.352 1166.9 209.808L1166.74 208.384ZM1159.51 212.896H1167.38V215.392H1169.49V211.264H1159.51V212.896ZM1171.35 204.864H1169.49V200.64H1167.38V210.688H1169.49V206.592H1171.35V204.864ZM1184.02 200.656H1181.89V211.232H1184.02V200.656ZM1174.05 205.328C1174.05 204.112 1174.92 203.408 1176.01 203.408C1177.11 203.408 1177.94 204.112 1177.94 205.328C1177.94 206.512 1177.11 207.232 1176.01 207.232C1174.92 207.232 1174.05 206.512 1174.05 205.328ZM1180.01 205.328C1180.01 203.152 1178.26 201.584 1176.01 201.584C1173.75 201.584 1171.99 203.152 1171.99 205.328C1171.99 207.472 1173.75 209.056 1176.01 209.056C1178.26 209.056 1180.01 207.472 1180.01 205.328ZM1176.33 213.44V210.192H1174.21V215.12H1184.39V213.44H1176.33Z" fill="#454545"/>
<defs>
<clipPath id="clip0">
<rect width="48" height="48" fill="white" transform="translate(63 63)"/>
</clipPath>
<clipPath id="clip1">
<rect width="48" height="48" fill="white" transform="translate(277 63)"/>
</clipPath>
<clipPath id="clip2">
<rect width="48" height="48" fill="white" transform="translate(491 64)"/>
</clipPath>
<clipPath id="clip3">
<rect width="48" height="48" fill="white" transform="translate(705 64)"/>
</clipPath>
<clipPath id="clip4">
<rect width="48" height="48" fill="white" transform="translate(919 64)"/>
</clipPath>
<clipPath id="clip5">
<rect width="48" height="48" fill="white" transform="translate(1133 65)"/>
</clipPath>
</defs>
</svg>
