<svg width="1245" height="263" viewBox="0 0 1245 263" fill="none" xmlns="http://www.w3.org/2000/svg">
<path d="M134.869 89.3496L128.869 89.3496L128.869 101.35L134.869 101.35L134.869 89.3496ZM134.869 101.35L1111.87 101.35L1111.87 89.3495L134.869 89.3496L134.869 101.35Z" fill="#F3F3F3"/>
<path d="M272.869 95.3496L256.869 84.3496V106.35L272.869 95.3496Z" fill="#F3F3F3"/>
<path d="M536.869 95.3496L520.869 84.3496V106.35L536.869 95.3496Z" fill="#F3F3F3"/>
<path d="M799.869 95.3496L783.869 84.3496V106.35L799.869 95.3496Z" fill="#F3F3F3"/>
<path d="M1063.87 95.3496L1047.87 84.3496V106.35L1063.87 95.3496Z" fill="#F3F3F3"/>
<circle cx="95.8689" cy="95.3496" r="94.5" fill="white" stroke="#2E87EF"/>
<g clip-path="url(#clip0)">
<path d="M102.413 78.7445L112.474 88.8055L85.276 116.004C82.4977 118.782 77.9933 118.782 75.215 116.004C72.4367 113.225 72.4367 108.721 75.215 105.943L102.413 78.7445Z" fill="white" stroke="#2E87EF" stroke-width="2.5"/>
<path d="M84.1837 96.5887L104.392 96.5894" stroke="#2E87EF" stroke-width="2.5"/>
<rect x="106.749" y="71.8832" width="17.8002" height="8.73364" rx="1.75" transform="rotate(45 106.749 71.8832)" fill="white" stroke="#2E87EF" stroke-width="2.5"/>
<mask id="path-10-inside-1" fill="white">
<rect x="99.3801" y="88.3581" width="10.8243" height="24.5098" rx="2" transform="rotate(45 99.3801 88.3581)"/>
</mask>
<rect x="99.3801" y="88.3581" width="10.8243" height="24.5098" rx="2" transform="rotate(45 99.3801 88.3581)" fill="white" stroke="#2E87EF" stroke-width="5" mask="url(#path-10-inside-1)"/>
</g>
<path d="M23.3608 220.846C24.3688 221.854 25.8408 222.542 27.8888 222.542C30.7688 222.542 32.1608 221.07 32.1608 219.118C32.1608 216.75 29.9208 216.222 28.1608 215.822C26.9288 215.534 26.0328 215.31 26.0328 214.59C26.0328 213.95 26.5768 213.502 27.6008 213.502C28.6408 213.502 29.7928 213.87 30.6568 214.67L31.9208 213.006C30.8648 212.03 29.4568 211.518 27.7608 211.518C25.2488 211.518 23.7128 212.958 23.7128 214.734C23.7128 217.118 25.9528 217.598 27.6968 217.998C28.9288 218.286 29.8568 218.558 29.8568 219.358C29.8568 219.966 29.2488 220.558 28.0008 220.558C26.5288 220.558 25.3608 219.902 24.6088 219.118L23.3608 220.846ZM35.6745 225.294V221.358C36.2985 222.158 37.1465 222.542 38.0585 222.542C40.0425 222.542 41.4825 221.054 41.4825 218.478C41.4825 215.902 40.0425 214.43 38.0585 214.43C37.1145 214.43 36.2665 214.846 35.6745 215.598V214.622H33.6425V225.294H35.6745ZM39.3705 218.478C39.3705 219.822 38.5865 220.734 37.4185 220.734C36.7625 220.734 36.0105 220.334 35.6745 219.854V217.118C36.0105 216.622 36.7625 216.238 37.4185 216.238C38.5865 216.238 39.3705 217.15 39.3705 218.478ZM42.5059 218.478C42.5059 220.958 44.2819 222.542 46.6339 222.542C47.8339 222.542 49.0339 222.19 49.8179 221.47L48.9219 220.158C48.4259 220.638 47.5779 220.926 46.8579 220.926C45.5459 220.926 44.7619 220.11 44.6339 219.134H50.3779V218.686C50.3779 216.158 48.8099 214.43 46.5059 214.43C44.1539 214.43 42.5059 216.238 42.5059 218.478ZM46.5059 216.046C47.8499 216.046 48.3619 217.022 48.4099 217.758H44.6019C44.6979 216.99 45.2419 216.046 46.5059 216.046ZM51.3496 218.478C51.3496 220.862 53.0616 222.542 55.4456 222.542C57.0296 222.542 57.9896 221.854 58.5016 221.134L57.1736 219.902C56.8056 220.414 56.2456 220.734 55.5416 220.734C54.3096 220.734 53.4456 219.822 53.4456 218.478C53.4456 217.134 54.3096 216.238 55.5416 216.238C56.2456 216.238 56.8056 216.542 57.1736 217.07L58.5016 215.838C57.9896 215.118 57.0296 214.43 55.4456 214.43C53.0616 214.43 51.3496 216.11 51.3496 218.478ZM60.838 213.486C61.51 213.486 62.054 212.942 62.054 212.27C62.054 211.598 61.51 211.054 60.838 211.054C60.182 211.054 59.622 211.598 59.622 212.27C59.622 212.942 60.182 213.486 60.838 213.486ZM59.83 222.35H61.862V214.622H59.83V222.35ZM73.4609 222.35H75.5089V216.766C75.5089 215.182 74.6609 214.43 73.2369 214.43C72.0529 214.43 71.0289 215.134 70.5809 215.838C70.2929 214.958 69.5729 214.43 68.4369 214.43C67.2529 214.43 66.2289 215.166 65.9089 215.63V214.622H63.8769V222.35H65.9089V217.15C66.2129 216.718 66.8049 216.238 67.5089 216.238C68.3409 216.238 68.6609 216.75 68.6609 217.47V222.35H70.7089V217.134C70.9969 216.718 71.5889 216.238 72.3089 216.238C73.1409 216.238 73.4609 216.75 73.4609 217.47V222.35ZM77.0059 218.478C77.0059 220.958 78.7819 222.542 81.1339 222.542C82.3339 222.542 83.5339 222.19 84.3179 221.47L83.4219 220.158C82.9259 220.638 82.0779 220.926 81.3579 220.926C80.0459 220.926 79.2619 220.11 79.1339 219.134H84.8779V218.686C84.8779 216.158 83.3099 214.43 81.0059 214.43C78.6539 214.43 77.0059 216.238 77.0059 218.478ZM81.0059 216.046C82.3499 216.046 82.8619 217.022 82.9099 217.758H79.1019C79.1979 216.99 79.7419 216.046 81.0059 216.046ZM91.5616 222.35H93.5936V216.894C93.5936 215.39 92.7776 214.43 91.0816 214.43C89.8176 214.43 88.8736 215.038 88.3776 215.63V214.622H86.3456V222.35H88.3776V217.15C88.7136 216.686 89.3376 216.238 90.1376 216.238C91.0016 216.238 91.5616 216.606 91.5616 217.678V222.35ZM99.209 218.478C99.209 220.862 100.921 222.542 103.305 222.542C104.889 222.542 105.849 221.854 106.361 221.134L105.033 219.902C104.665 220.414 104.105 220.734 103.401 220.734C102.169 220.734 101.305 219.822 101.305 218.478C101.305 217.134 102.169 216.238 103.401 216.238C104.105 216.238 104.665 216.542 105.033 217.07L106.361 215.838C105.849 215.118 104.889 214.43 103.305 214.43C100.921 214.43 99.209 216.11 99.209 218.478ZM111.273 222.542C113.833 222.542 115.369 220.686 115.369 218.478C115.369 216.286 113.833 214.43 111.273 214.43C108.729 214.43 107.193 216.286 107.193 218.478C107.193 220.686 108.729 222.542 111.273 222.542ZM111.273 220.734C110.009 220.734 109.305 219.694 109.305 218.478C109.305 217.278 110.009 216.238 111.273 216.238C112.537 216.238 113.257 217.278 113.257 218.478C113.257 219.694 112.537 220.734 111.273 220.734ZM116.877 222.35H118.909V211.678H116.877V222.35ZM120.924 222.35H122.956V211.678H120.924V222.35ZM124.475 218.478C124.475 220.958 126.251 222.542 128.603 222.542C129.803 222.542 131.003 222.19 131.787 221.47L130.891 220.158C130.395 220.638 129.547 220.926 128.827 220.926C127.515 220.926 126.731 220.11 126.603 219.134H132.347V218.686C132.347 216.158 130.779 214.43 128.475 214.43C126.123 214.43 124.475 216.238 124.475 218.478ZM128.475 216.046C129.819 216.046 130.331 217.022 130.379 217.758H126.571C126.667 216.99 127.211 216.046 128.475 216.046ZM133.318 218.478C133.318 220.862 135.03 222.542 137.414 222.542C138.998 222.542 139.958 221.854 140.47 221.134L139.142 219.902C138.774 220.414 138.214 220.734 137.51 220.734C136.278 220.734 135.414 219.822 135.414 218.478C135.414 217.134 136.278 216.238 137.51 216.238C138.214 216.238 138.774 216.542 139.142 217.07L140.47 215.838C139.958 215.118 138.998 214.43 137.414 214.43C135.03 214.43 133.318 216.11 133.318 218.478ZM144.391 222.542C145.239 222.542 145.783 222.318 146.087 222.046L145.655 220.51C145.543 220.622 145.255 220.734 144.951 220.734C144.503 220.734 144.247 220.366 144.247 219.886V216.398H145.815V214.622H144.247V212.51H142.199V214.622H140.919V216.398H142.199V220.43C142.199 221.806 142.967 222.542 144.391 222.542ZM148.213 213.486C148.885 213.486 149.429 212.942 149.429 212.27C149.429 211.598 148.885 211.054 148.213 211.054C147.557 211.054 146.997 211.598 146.997 212.27C146.997 212.942 147.557 213.486 148.213 213.486ZM147.205 222.35H149.237V214.622H147.205V222.35ZM154.836 222.542C157.396 222.542 158.932 220.686 158.932 218.478C158.932 216.286 157.396 214.43 154.836 214.43C152.292 214.43 150.756 216.286 150.756 218.478C150.756 220.686 152.292 222.542 154.836 222.542ZM154.836 220.734C153.572 220.734 152.868 219.694 152.868 218.478C152.868 217.278 153.572 216.238 154.836 216.238C156.1 216.238 156.82 217.278 156.82 218.478C156.82 219.694 156.1 220.734 154.836 220.734ZM165.655 222.35H167.687V216.894C167.687 215.39 166.871 214.43 165.175 214.43C163.911 214.43 162.967 215.038 162.471 215.63V214.622H160.439V222.35H162.471V217.15C162.807 216.686 163.431 216.238 164.231 216.238C165.095 216.238 165.655 216.606 165.655 217.678V222.35Z" fill="#454545"/>
<circle cx="358.869" cy="95.3496" r="94.5" fill="white" stroke="#2E87EF"/>
<g clip-path="url(#clip1)">
<path d="M343.592 78.9419H374.146" stroke="#2E87EF" stroke-width="2.5" stroke-linecap="round"/>
<path d="M343.592 111.758H374.146" stroke="#2E87EF" stroke-width="2.5" stroke-linecap="round"/>
<path d="M347.125 85.0875H370.614" stroke="#2E87EF" stroke-width="2.5" stroke-linecap="round"/>
<path d="M347.125 105.613H370.614" stroke="#2E87EF" stroke-width="2.5" stroke-linecap="round"/>
<path d="M374.825 73.6092V73.8058C374.825 95.9697 342.914 95.5247 342.914 116.876V117.09" stroke="#2E87EF" stroke-width="2.5" stroke-linecap="round"/>
<path d="M355.91 98.8456L355.293 99.829L355.91 98.8456C352.589 96.7631 348.703 94.3186 345.694 91.1918C342.369 87.7354 339.935 83.2831 339.935 77.3496C339.935 74.7263 342.061 72.5996 344.685 72.5996C347.308 72.5996 349.435 74.7263 349.435 77.3496C349.435 80.3362 350.544 82.5302 352.54 84.6051C354.717 86.8671 357.717 88.7624 361.395 91.0723L362.06 90.0137L361.395 91.0723C361.578 91.1868 361.763 91.3028 361.95 91.4201C368.58 95.5726 377.804 101.43 377.804 113.35C377.804 115.973 375.677 118.1 373.054 118.1C370.431 118.1 368.304 115.973 368.304 113.35C368.304 110.261 367.226 107.871 365.146 105.657C363.132 103.513 360.151 101.508 356.343 99.1176L355.91 98.8456Z" fill="white" stroke="#2E87EF" stroke-width="2.5" stroke-linecap="round"/>
</g>
<path d="M299.902 222.35H302.094V211.678H299.822V218.59L294.878 211.678H292.542V222.35H294.814V215.182L299.902 222.35ZM309.367 222.35H311.399V214.622H309.367V219.854C309.015 220.302 308.391 220.734 307.607 220.734C306.743 220.734 306.183 220.382 306.183 219.31V214.622H304.151V220.11C304.151 221.614 304.951 222.542 306.647 222.542C307.911 222.542 308.839 221.966 309.367 221.374V222.35ZM312.92 218.478C312.92 220.862 314.632 222.542 317.016 222.542C318.6 222.542 319.56 221.854 320.072 221.134L318.744 219.902C318.376 220.414 317.816 220.734 317.112 220.734C315.88 220.734 315.016 219.822 315.016 218.478C315.016 217.134 315.88 216.238 317.112 216.238C317.816 216.238 318.376 216.542 318.744 217.07L320.072 215.838C319.56 215.118 318.6 214.43 317.016 214.43C314.632 214.43 312.92 216.11 312.92 218.478ZM321.401 222.35H323.433V211.678H321.401V222.35ZM324.951 218.478C324.951 220.958 326.727 222.542 329.079 222.542C330.279 222.542 331.479 222.19 332.263 221.47L331.367 220.158C330.871 220.638 330.023 220.926 329.303 220.926C327.991 220.926 327.207 220.11 327.079 219.134H332.823V218.686C332.823 216.158 331.255 214.43 328.951 214.43C326.599 214.43 324.951 216.238 324.951 218.478ZM328.951 216.046C330.295 216.046 330.807 217.022 330.855 217.758H327.047C327.143 216.99 327.687 216.046 328.951 216.046ZM335.299 213.486C335.971 213.486 336.515 212.942 336.515 212.27C336.515 211.598 335.971 211.054 335.299 211.054C334.643 211.054 334.083 211.598 334.083 212.27C334.083 212.942 334.643 213.486 335.299 213.486ZM334.291 222.35H336.323V214.622H334.291V222.35ZM343.554 222.35H345.586V216.894C345.586 215.39 344.77 214.43 343.074 214.43C341.81 214.43 340.866 215.038 340.37 215.63V214.622H338.338V222.35H340.37V217.15C340.706 216.686 341.33 216.238 342.13 216.238C342.994 216.238 343.554 216.606 343.554 217.678V222.35ZM356.337 222.35H358.369V217.358C358.369 215.134 356.753 214.43 354.993 214.43C353.777 214.43 352.561 214.814 351.617 215.646L352.385 217.006C353.041 216.398 353.809 216.094 354.641 216.094C355.665 216.094 356.337 216.606 356.337 217.39V218.462C355.825 217.838 354.913 217.518 353.889 217.518C352.657 217.518 351.201 218.174 351.201 219.982C351.201 221.71 352.657 222.542 353.889 222.542C354.897 222.542 355.809 222.174 356.337 221.55V222.35ZM356.337 220.494C356.001 220.942 355.361 221.166 354.705 221.166C353.905 221.166 353.249 220.75 353.249 220.03C353.249 219.294 353.905 218.862 354.705 218.862C355.361 218.862 356.001 219.086 356.337 219.534V220.494ZM359.889 218.478C359.889 220.862 361.601 222.542 363.985 222.542C365.569 222.542 366.529 221.854 367.041 221.134L365.713 219.902C365.345 220.414 364.785 220.734 364.081 220.734C362.849 220.734 361.985 219.822 361.985 218.478C361.985 217.134 362.849 216.238 364.081 216.238C364.785 216.238 365.345 216.542 365.713 217.07L367.041 215.838C366.529 215.118 365.569 214.43 363.985 214.43C361.601 214.43 359.889 216.11 359.889 218.478ZM369.377 213.486C370.049 213.486 370.593 212.942 370.593 212.27C370.593 211.598 370.049 211.054 369.377 211.054C368.721 211.054 368.161 211.598 368.161 212.27C368.161 212.942 368.721 213.486 369.377 213.486ZM368.369 222.35H370.401V214.622H368.369V222.35ZM377.728 222.35H379.776V211.678H377.728V215.614C377.12 214.83 376.256 214.43 375.344 214.43C373.376 214.43 371.92 215.966 371.92 218.494C371.92 221.07 373.392 222.542 375.344 222.542C376.272 222.542 377.12 222.126 377.728 221.374V222.35ZM377.728 219.854C377.376 220.366 376.656 220.734 375.968 220.734C374.816 220.734 374.016 219.822 374.016 218.494C374.016 217.15 374.816 216.238 375.968 216.238C376.656 216.238 377.376 216.606 377.728 217.118V219.854ZM388.061 225.534L389.341 224.542C388.253 222.622 387.725 220.862 387.725 218.462C387.725 216.062 388.253 214.302 389.341 212.35L388.061 211.39C386.509 213.15 385.533 215.886 385.533 218.462C385.533 221.038 386.509 223.79 388.061 225.534ZM396.715 222.35H399.323L396.923 218.286C398.075 218.014 399.259 217.006 399.259 215.118C399.259 213.134 397.899 211.678 395.675 211.678H390.683V222.35H392.955V218.526H394.619L396.715 222.35ZM396.939 215.102C396.939 215.998 396.251 216.574 395.339 216.574H392.955V213.63H395.339C396.251 213.63 396.939 214.206 396.939 215.102ZM408.324 222.35H410.516V211.678H408.244V218.59L403.3 211.678H400.964V222.35H403.236V215.182L408.324 222.35ZM420.092 222.35H422.572L418.46 211.678H415.612L411.484 222.35H413.98L414.652 220.51H419.42L420.092 222.35ZM417.036 213.646L418.796 218.542H415.26L417.036 213.646ZM424.406 218.462C424.406 220.862 423.878 222.622 422.774 224.542L424.054 225.534C425.622 223.79 426.614 221.038 426.614 218.462C426.614 215.886 425.622 213.15 424.054 211.39L422.774 212.35C423.878 214.302 424.406 216.062 424.406 218.462ZM330.635 243.486C331.307 243.486 331.851 242.942 331.851 242.27C331.851 241.598 331.307 241.054 330.635 241.054C329.979 241.054 329.419 241.598 329.419 242.27C329.419 242.942 329.979 243.486 330.635 243.486ZM329.627 252.35H331.659V244.622H329.627V252.35ZM333.002 251.342C333.818 252.094 335.114 252.542 336.458 252.542C338.602 252.542 339.802 251.486 339.802 250.062C339.802 248.142 338.026 247.79 336.698 247.534C335.834 247.358 335.226 247.182 335.226 246.702C335.226 246.254 335.706 245.982 336.442 245.982C337.386 245.982 338.266 246.382 338.73 246.878L339.53 245.486C338.778 244.878 337.738 244.43 336.426 244.43C334.394 244.43 333.258 245.566 333.258 246.862C333.258 248.702 334.97 249.022 336.298 249.278C337.178 249.454 337.85 249.646 337.85 250.19C337.85 250.67 337.434 250.974 336.554 250.974C335.594 250.974 334.442 250.446 333.882 249.918L333.002 251.342ZM344.883 252.542C347.443 252.542 348.979 250.686 348.979 248.478C348.979 246.286 347.443 244.43 344.883 244.43C342.339 244.43 340.803 246.286 340.803 248.478C340.803 250.686 342.339 252.542 344.883 252.542ZM344.883 250.734C343.619 250.734 342.915 249.694 342.915 248.478C342.915 247.278 343.619 246.238 344.883 246.238C346.147 246.238 346.867 247.278 346.867 248.478C346.867 249.694 346.147 250.734 344.883 250.734ZM350.487 252.35H352.519V241.678H350.487V252.35ZM359.173 252.35H361.205V247.358C361.205 245.134 359.589 244.43 357.829 244.43C356.613 244.43 355.397 244.814 354.453 245.646L355.221 247.006C355.877 246.398 356.645 246.094 357.477 246.094C358.501 246.094 359.173 246.606 359.173 247.39V248.462C358.661 247.838 357.749 247.518 356.725 247.518C355.493 247.518 354.037 248.174 354.037 249.982C354.037 251.71 355.493 252.542 356.725 252.542C357.733 252.542 358.645 252.174 359.173 251.55V252.35ZM359.173 250.494C358.837 250.942 358.197 251.166 357.541 251.166C356.741 251.166 356.085 250.75 356.085 250.03C356.085 249.294 356.741 248.862 357.541 248.862C358.197 248.862 358.837 249.086 359.173 249.534V250.494ZM365.813 252.542C366.661 252.542 367.205 252.318 367.509 252.046L367.077 250.51C366.965 250.622 366.677 250.734 366.373 250.734C365.925 250.734 365.669 250.366 365.669 249.886V246.398H367.237V244.622H365.669V242.51H363.621V244.622H362.341V246.398H363.621V250.43C363.621 251.806 364.389 252.542 365.813 252.542ZM369.635 243.486C370.307 243.486 370.851 242.942 370.851 242.27C370.851 241.598 370.307 241.054 369.635 241.054C368.979 241.054 368.419 241.598 368.419 242.27C368.419 242.942 368.979 243.486 369.635 243.486ZM368.627 252.35H370.659V244.622H368.627V252.35ZM376.258 252.542C378.818 252.542 380.354 250.686 380.354 248.478C380.354 246.286 378.818 244.43 376.258 244.43C373.714 244.43 372.178 246.286 372.178 248.478C372.178 250.686 373.714 252.542 376.258 252.542ZM376.258 250.734C374.994 250.734 374.29 249.694 374.29 248.478C374.29 247.278 374.994 246.238 376.258 246.238C377.522 246.238 378.242 247.278 378.242 248.478C378.242 249.694 377.522 250.734 376.258 250.734ZM387.078 252.35H389.11V246.894C389.11 245.39 388.294 244.43 386.598 244.43C385.334 244.43 384.39 245.038 383.894 245.63V244.622H381.862V252.35H383.894V247.15C384.23 246.686 384.854 246.238 385.654 246.238C386.518 246.238 387.078 246.606 387.078 247.678V252.35Z" fill="#454545"/>
<circle cx="622.869" cy="95.3496" r="94.5" fill="white" stroke="#2E87EF"/>
<rect x="601.119" y="76.5996" width="43.5" height="37.5" rx="2.75" fill="white" stroke="#2E87EF" stroke-width="2.5"/>
<path d="M615.007 99.4023L611.983 91.3983H609.391L606.379 99.4023H608.623L609.031 98.1903H612.355L612.763 99.4023H615.007ZM611.815 96.4503H609.571L610.687 93.1983L611.815 96.4503ZM621.094 99.4023L619.114 96.4263L620.962 93.6063H618.934L617.95 95.1783L616.954 93.6063H614.926L616.786 96.4263L614.806 99.4023H616.822L617.95 97.6503L619.066 99.4023H621.094ZM621.246 96.4983C621.246 98.3823 622.626 99.5463 624.414 99.5463C625.302 99.5463 626.262 99.2943 626.838 98.7783L626.058 97.6263C625.734 97.9143 625.158 98.1183 624.642 98.1183C623.778 98.1183 623.274 97.6263 623.166 97.0863H627.294V96.6903C627.294 94.7223 626.046 93.4623 624.33 93.4623C622.518 93.4623 621.246 94.8183 621.246 96.4983ZM624.33 94.8903C625.182 94.8903 625.482 95.4783 625.53 95.8863H623.142C623.214 95.4663 623.526 94.8903 624.33 94.8903ZM633.797 99.4023V95.2983C633.797 94.2303 633.197 93.4623 631.877 93.4623C630.905 93.4623 630.221 93.9063 629.873 94.3143V93.6063H628.025V99.4023H629.873V95.6583C630.089 95.3943 630.449 95.0943 631.001 95.0943C631.577 95.0943 631.949 95.3463 631.949 96.0543V99.4023H633.797Z" fill="#2E87EF"/>
<path d="M634.466 91.6483H634.018V90.1993H634.006L633.528 91.6483H633.125L632.692 90.1993H632.675V91.6483H632.233V89.4927H632.881L633.346 90.9678H633.358L633.86 89.4927H634.466V91.6483ZM632.039 89.8932H631.504V91.6483H631.042V89.8932H630.528V89.4927H632.039V89.8932Z" fill="#2E87EF"/>
<path d="M635.94 77.8751H639.44V105.826H635.94V77.8751Z" fill="#01BDB9"/>
<path d="M562.827 222.35H565.307L561.195 211.678H558.347L554.219 222.35H556.715L557.387 220.51H562.155L562.827 222.35ZM559.771 213.646L561.531 218.542H557.995L559.771 213.646ZM571.028 222.35H573.3L570.532 218.382L573.124 214.622H570.852L569.268 217.006L567.668 214.622H565.396L567.972 218.382L565.236 222.35H567.492L569.268 219.742L571.028 222.35ZM573.42 218.478C573.42 220.958 575.196 222.542 577.548 222.542C578.748 222.542 579.948 222.19 580.732 221.47L579.836 220.158C579.34 220.638 578.492 220.926 577.772 220.926C576.46 220.926 575.676 220.11 575.548 219.134H581.292V218.686C581.292 216.158 579.724 214.43 577.42 214.43C575.068 214.43 573.42 216.238 573.42 218.478ZM577.42 216.046C578.764 216.046 579.276 217.022 579.324 217.758H575.516C575.612 216.99 576.156 216.046 577.42 216.046ZM587.976 222.35H590.008V216.894C590.008 215.39 589.192 214.43 587.496 214.43C586.232 214.43 585.288 215.038 584.792 215.63V214.622H582.76V222.35H584.792V217.15C585.128 216.686 585.752 216.238 586.552 216.238C587.416 216.238 587.976 216.606 587.976 217.678V222.35ZM592.526 212.094H593.518V211.678H591.086V212.094H592.078V215.198H592.526V212.094ZM597.07 215.198H597.518V211.678H596.83L595.806 214.238L594.782 211.678H594.094V215.198H594.542V212.286L595.742 215.198H595.87L597.07 212.286V215.198ZM604.224 222.542C606.656 222.542 608 221.246 608.768 219.918L606.816 218.974C606.368 219.854 605.408 220.526 604.224 220.526C602.368 220.526 600.96 219.038 600.96 217.022C600.96 215.006 602.368 213.518 604.224 213.518C605.408 213.518 606.368 214.206 606.816 215.07L608.768 214.11C608.016 212.782 606.656 211.502 604.224 211.502C601.104 211.502 598.624 213.742 598.624 217.022C598.624 220.302 601.104 222.542 604.224 222.542ZM609.608 217.022C609.608 220.238 611.96 222.542 615.176 222.542C618.408 222.542 620.76 220.238 620.76 217.022C620.76 213.806 618.408 211.502 615.176 211.502C611.96 211.502 609.608 213.806 609.608 217.022ZM618.424 217.022C618.424 219.006 617.144 220.526 615.176 220.526C613.208 220.526 611.944 219.006 611.944 217.022C611.944 215.022 613.208 213.518 615.176 213.518C617.144 213.518 618.424 215.022 618.424 217.022ZM625.034 222.35H627.882L631.994 211.678H629.402L626.458 219.886L623.498 211.678H620.906L625.034 222.35ZM632.98 222.35H635.252V211.678H632.98V222.35ZM637.37 222.35H641.578C644.922 222.35 647.242 220.238 647.242 217.022C647.242 213.806 644.922 211.678 641.578 211.678H637.37V222.35ZM639.642 220.35V213.678H641.578C643.77 213.678 644.922 215.134 644.922 217.022C644.922 218.83 643.69 220.35 641.578 220.35H639.642ZM648.279 219.342H652.119V217.614H648.279V219.342ZM655.828 222.35H658.116V211.678H656.132L652.772 215.054L654.068 216.414L655.828 214.606V222.35ZM660.246 221.422C660.998 222.094 662.086 222.526 663.382 222.526C666.534 222.526 668.342 220.238 668.342 217.022C668.342 213.998 666.982 211.502 663.75 211.502C661.318 211.502 659.654 213.086 659.654 215.166C659.654 217.438 661.382 218.622 663.302 218.622C664.47 218.622 665.542 217.966 666.054 217.246V217.47C666.054 219.086 665.094 220.542 663.382 220.542C662.438 220.542 661.83 220.254 661.254 219.726L660.246 221.422ZM666.022 215.71C665.526 216.334 664.742 216.702 663.942 216.702C662.918 216.702 661.974 216.206 661.974 215.07C661.974 214.318 662.63 213.47 663.846 213.47C665.366 213.47 665.942 214.686 666.022 215.71ZM680.09 222.35H682.698L680.298 218.286C681.45 218.014 682.634 217.006 682.634 215.118C682.634 213.134 681.274 211.678 679.05 211.678H674.058V222.35H676.33V218.526H677.994L680.09 222.35ZM680.314 215.102C680.314 215.998 679.626 216.574 678.714 216.574H676.33V213.63H678.714C679.626 213.63 680.314 214.206 680.314 215.102ZM686.647 222.35H688.935V213.678H692.039V211.678H683.527V213.678H686.647V222.35Z" fill="#454545"/>
<circle cx="885.869" cy="95.3496" r="94.5" fill="white" stroke="#2E87EF"/>
<path d="M878.948 117.1L882.13 103.6H889.609L892.79 117.1H878.948Z" fill="white" stroke="#2E87EF" stroke-width="2.5"/>
<path fill-rule="evenodd" clip-rule="evenodd" d="M875.369 117.17C875.369 116.48 875.916 115.92 876.59 115.92L895.148 115.92C895.823 115.92 896.369 116.48 896.369 117.17C896.369 117.86 895.823 118.42 895.148 118.42L876.59 118.42C875.916 118.42 875.369 117.86 875.369 117.17Z" fill="#2E87EF"/>
<path d="M864.119 76.3496C864.119 74.8308 865.35 73.5996 866.869 73.5996H904.869C906.388 73.5996 907.619 74.8308 907.619 76.3496V105.35C907.619 106.868 906.388 108.1 904.869 108.1H866.869C865.35 108.1 864.119 106.868 864.119 105.35V76.3496Z" fill="white" stroke="#2E87EF" stroke-width="2.5"/>
<path d="M872.869 90.9996H879.454L882.946 84.3496L889.032 98.3496L892.324 90.9996H898.869" stroke="#2E87EF" stroke-width="2.5" stroke-linecap="round" stroke-linejoin="round"/>
<path d="M811.991 222.35H814.471L810.359 211.678H807.511L803.383 222.35H805.879L806.551 220.51H811.319L811.991 222.35ZM808.935 213.646L810.695 218.542H807.159L808.935 213.646ZM824.992 222.35H827.04V216.766C827.04 215.182 826.192 214.43 824.768 214.43C823.584 214.43 822.56 215.134 822.112 215.838C821.824 214.958 821.104 214.43 819.968 214.43C818.784 214.43 817.76 215.166 817.44 215.63V214.622H815.408V222.35H817.44V217.15C817.744 216.718 818.336 216.238 819.04 216.238C819.872 216.238 820.192 216.75 820.192 217.47V222.35H822.24V217.134C822.528 216.718 823.12 216.238 823.84 216.238C824.672 216.238 824.992 216.75 824.992 217.47V222.35ZM831.065 225.294V221.358C831.689 222.158 832.537 222.542 833.449 222.542C835.433 222.542 836.873 221.054 836.873 218.478C836.873 215.902 835.433 214.43 833.449 214.43C832.505 214.43 831.657 214.846 831.065 215.598V214.622H829.033V225.294H831.065ZM834.761 218.478C834.761 219.822 833.977 220.734 832.809 220.734C832.153 220.734 831.401 220.334 831.065 219.854V217.118C831.401 216.622 832.153 216.238 832.809 216.238C833.977 216.238 834.761 217.15 834.761 218.478ZM838.393 222.35H840.425V211.678H838.393V222.35ZM843.448 213.486C844.12 213.486 844.664 212.942 844.664 212.27C844.664 211.598 844.12 211.054 843.448 211.054C842.792 211.054 842.232 211.598 842.232 212.27C842.232 212.942 842.792 213.486 843.448 213.486ZM842.44 222.35H844.472V214.622H842.44V222.35ZM852.727 213.486C853.399 213.486 853.943 212.942 853.943 212.27C853.943 211.598 853.399 211.054 852.727 211.054C852.071 211.054 851.511 211.598 851.511 212.27C851.511 212.942 852.071 213.486 852.727 213.486ZM846.935 222.35H848.983V216.398H850.551V214.622H848.983V214.206C848.983 213.502 849.367 213.118 849.943 213.118C850.215 213.118 850.439 213.198 850.599 213.31L851.015 211.838C850.647 211.646 850.119 211.518 849.543 211.518C848.023 211.518 846.935 212.526 846.935 214.206V214.622H845.655V216.398H846.935V222.35ZM851.719 222.35H853.751V214.622H851.719V222.35ZM855.272 218.478C855.272 220.862 856.984 222.542 859.368 222.542C860.952 222.542 861.912 221.854 862.424 221.134L861.096 219.902C860.728 220.414 860.168 220.734 859.464 220.734C858.232 220.734 857.368 219.822 857.368 218.478C857.368 217.134 858.232 216.238 859.464 216.238C860.168 216.238 860.728 216.542 861.096 217.07L862.424 215.838C861.912 215.118 860.952 214.43 859.368 214.43C856.984 214.43 855.272 216.11 855.272 218.478ZM866.344 222.542C867.192 222.542 867.736 222.318 868.04 222.046L867.608 220.51C867.496 220.622 867.208 220.734 866.904 220.734C866.456 220.734 866.2 220.366 866.2 219.886V216.398H867.768V214.622H866.2V212.51H864.152V214.622H862.872V216.398H864.152V220.43C864.152 221.806 864.92 222.542 866.344 222.542ZM873.798 222.35H875.83V217.358C875.83 215.134 874.214 214.43 872.454 214.43C871.238 214.43 870.022 214.814 869.078 215.646L869.846 217.006C870.502 216.398 871.27 216.094 872.102 216.094C873.126 216.094 873.798 216.606 873.798 217.39V218.462C873.286 217.838 872.374 217.518 871.35 217.518C870.118 217.518 868.662 218.174 868.662 219.982C868.662 221.71 870.118 222.542 871.35 222.542C872.358 222.542 873.27 222.174 873.798 221.55V222.35ZM873.798 220.494C873.462 220.942 872.822 221.166 872.166 221.166C871.366 221.166 870.71 220.75 870.71 220.03C870.71 219.294 871.366 218.862 872.166 218.862C872.822 218.862 873.462 219.086 873.798 219.534V220.494ZM880.438 222.542C881.286 222.542 881.83 222.318 882.134 222.046L881.702 220.51C881.59 220.622 881.302 220.734 880.998 220.734C880.55 220.734 880.294 220.366 880.294 219.886V216.398H881.862V214.622H880.294V212.51H878.246V214.622H876.966V216.398H878.246V220.43C878.246 221.806 879.014 222.542 880.438 222.542ZM884.26 213.486C884.932 213.486 885.476 212.942 885.476 212.27C885.476 211.598 884.932 211.054 884.26 211.054C883.604 211.054 883.044 211.598 883.044 212.27C883.044 212.942 883.604 213.486 884.26 213.486ZM883.252 222.35H885.284V214.622H883.252V222.35ZM890.883 222.542C893.443 222.542 894.979 220.686 894.979 218.478C894.979 216.286 893.443 214.43 890.883 214.43C888.339 214.43 886.803 216.286 886.803 218.478C886.803 220.686 888.339 222.542 890.883 222.542ZM890.883 220.734C889.619 220.734 888.915 219.694 888.915 218.478C888.915 217.278 889.619 216.238 890.883 216.238C892.147 216.238 892.867 217.278 892.867 218.478C892.867 219.694 892.147 220.734 890.883 220.734ZM901.703 222.35H903.735V216.894C903.735 215.39 902.919 214.43 901.223 214.43C899.959 214.43 899.015 215.038 898.519 215.63V214.622H896.487V222.35H898.519V217.15C898.855 216.686 899.479 216.238 900.279 216.238C901.143 216.238 901.703 216.606 901.703 217.678V222.35ZM917.366 222.35H919.846L915.734 211.678H912.886L908.758 222.35H911.254L911.926 220.51H916.694L917.366 222.35ZM914.31 213.646L916.07 218.542H912.534L914.31 213.646ZM925.999 222.35H928.031V216.894C928.031 215.39 927.215 214.43 925.519 214.43C924.255 214.43 923.311 215.038 922.815 215.63V214.622H920.783V222.35H922.815V217.15C923.151 216.686 923.775 216.238 924.575 216.238C925.439 216.238 925.999 216.606 925.999 217.678V222.35ZM934.689 222.35H936.721V217.358C936.721 215.134 935.105 214.43 933.345 214.43C932.129 214.43 930.913 214.814 929.969 215.646L930.737 217.006C931.393 216.398 932.161 216.094 932.993 216.094C934.017 216.094 934.689 216.606 934.689 217.39V218.462C934.177 217.838 933.265 217.518 932.241 217.518C931.009 217.518 929.553 218.174 929.553 219.982C929.553 221.71 931.009 222.542 932.241 222.542C933.249 222.542 934.161 222.174 934.689 221.55V222.35ZM934.689 220.494C934.353 220.942 933.713 221.166 933.057 221.166C932.257 221.166 931.601 220.75 931.601 220.03C931.601 219.294 932.257 218.862 933.057 218.862C933.713 218.862 934.353 219.086 934.689 219.534V220.494ZM938.737 222.35H940.769V211.678H938.737V222.35ZM942.815 223.55L942.511 225.374C942.767 225.438 943.279 225.486 943.519 225.486C944.847 225.454 945.871 225.07 946.447 223.614L950.079 214.622H947.887L945.871 219.998L943.855 214.622H941.679L944.815 222.462L944.527 223.118C944.335 223.534 943.983 223.678 943.455 223.678C943.263 223.678 942.991 223.63 942.815 223.55ZM950.315 221.342C951.131 222.094 952.427 222.542 953.771 222.542C955.915 222.542 957.115 221.486 957.115 220.062C957.115 218.142 955.339 217.79 954.011 217.534C953.147 217.358 952.539 217.182 952.539 216.702C952.539 216.254 953.019 215.982 953.755 215.982C954.699 215.982 955.579 216.382 956.043 216.878L956.843 215.486C956.091 214.878 955.051 214.43 953.739 214.43C951.707 214.43 950.571 215.566 950.571 216.862C950.571 218.702 952.283 219.022 953.611 219.278C954.491 219.454 955.163 219.646 955.163 220.19C955.163 220.67 954.747 220.974 953.867 220.974C952.907 220.974 951.755 220.446 951.195 219.918L950.315 221.342ZM959.62 213.486C960.292 213.486 960.836 212.942 960.836 212.27C960.836 211.598 960.292 211.054 959.62 211.054C958.964 211.054 958.404 211.598 958.404 212.27C958.404 212.942 958.964 213.486 959.62 213.486ZM958.612 222.35H960.644V214.622H958.612V222.35ZM961.986 221.342C962.802 222.094 964.098 222.542 965.442 222.542C967.586 222.542 968.786 221.486 968.786 220.062C968.786 218.142 967.01 217.79 965.682 217.534C964.818 217.358 964.21 217.182 964.21 216.702C964.21 216.254 964.69 215.982 965.426 215.982C966.37 215.982 967.25 216.382 967.714 216.878L968.514 215.486C967.762 214.878 966.722 214.43 965.41 214.43C963.378 214.43 962.242 215.566 962.242 216.862C962.242 218.702 963.954 219.022 965.282 219.278C966.162 219.454 966.834 219.646 966.834 220.19C966.834 220.67 966.418 220.974 965.538 220.974C964.578 220.974 963.426 220.446 962.866 219.918L961.986 221.342Z" fill="#454545"/>
<circle cx="1149.87" cy="95.3496" r="94.5" fill="white" stroke="#2E87EF"/>
<g clip-path="url(#clip2)">
<path d="M1134.97 110.409L1146.25 90.8692L1159.46 98.4953L1169.91 80.4035" stroke="#2E87EF" stroke-width="2.5" stroke-linecap="round"/>
<circle cx="1136.37" cy="108.41" r="2.75" transform="rotate(30 1136.37 108.41)" fill="white" stroke="#2E87EF" stroke-width="2.5"/>
<circle cx="1146.43" cy="91.0465" r="2.75" transform="rotate(30 1146.43 91.0465)" fill="white" stroke="#2E87EF" stroke-width="2.5"/>
<circle cx="1159.34" cy="98.4979" r="2.75" transform="rotate(30 1159.34 98.4979)" fill="white" stroke="#2E87EF" stroke-width="2.5"/>
<circle cx="1168.86" cy="82.0041" r="2.75" transform="rotate(30 1168.86 82.0041)" fill="white" stroke="#2E87EF" stroke-width="2.5"/>
<path d="M1128.13 73.6225V117.1H1171.64" stroke="#2E87EF" stroke-width="2.5" stroke-linecap="round" stroke-linejoin="round"/>
</g>
<path d="M1102.03 222.35H1106.23C1109.58 222.35 1111.9 220.238 1111.9 217.022C1111.9 213.806 1109.58 211.678 1106.23 211.678H1102.03V222.35ZM1104.3 220.35V213.678H1106.23C1108.43 213.678 1109.58 215.134 1109.58 217.022C1109.58 218.83 1108.35 220.35 1106.23 220.35H1104.3ZM1118.1 222.35H1120.14V217.358C1120.14 215.134 1118.52 214.43 1116.76 214.43C1115.54 214.43 1114.33 214.814 1113.38 215.646L1114.15 217.006C1114.81 216.398 1115.58 216.094 1116.41 216.094C1117.43 216.094 1118.1 216.606 1118.1 217.39V218.462C1117.59 217.838 1116.68 217.518 1115.66 217.518C1114.42 217.518 1112.97 218.174 1112.97 219.982C1112.97 221.71 1114.42 222.542 1115.66 222.542C1116.66 222.542 1117.58 222.174 1118.1 221.55V222.35ZM1118.1 220.494C1117.77 220.942 1117.13 221.166 1116.47 221.166C1115.67 221.166 1115.02 220.75 1115.02 220.03C1115.02 219.294 1115.67 218.862 1116.47 218.862C1117.13 218.862 1117.77 219.086 1118.1 219.534V220.494ZM1124.74 222.542C1125.59 222.542 1126.13 222.318 1126.44 222.046L1126.01 220.51C1125.89 220.622 1125.61 220.734 1125.3 220.734C1124.85 220.734 1124.6 220.366 1124.6 219.886V216.398H1126.17V214.622H1124.6V212.51H1122.55V214.622H1121.27V216.398H1122.55V220.43C1122.55 221.806 1123.32 222.542 1124.74 222.542ZM1132.2 222.35H1134.23V217.358C1134.23 215.134 1132.61 214.43 1130.85 214.43C1129.64 214.43 1128.42 214.814 1127.48 215.646L1128.24 217.006C1128.9 216.398 1129.67 216.094 1130.5 216.094C1131.52 216.094 1132.2 216.606 1132.2 217.39V218.462C1131.68 217.838 1130.77 217.518 1129.75 217.518C1128.52 217.518 1127.06 218.174 1127.06 219.982C1127.06 221.71 1128.52 222.542 1129.75 222.542C1130.76 222.542 1131.67 222.174 1132.2 221.55V222.35ZM1132.2 220.494C1131.86 220.942 1131.22 221.166 1130.56 221.166C1129.76 221.166 1129.11 220.75 1129.11 220.03C1129.11 219.294 1129.76 218.862 1130.56 218.862C1131.22 218.862 1131.86 219.086 1132.2 219.534V220.494ZM1147.86 222.35H1150.34L1146.23 211.678H1143.38L1139.25 222.35H1141.75L1142.42 220.51H1147.19L1147.86 222.35ZM1144.8 213.646L1146.56 218.542H1143.03L1144.8 213.646ZM1156.49 222.35H1158.52V216.894C1158.52 215.39 1157.71 214.43 1156.01 214.43C1154.75 214.43 1153.8 215.038 1153.31 215.63V214.622H1151.28V222.35H1153.31V217.15C1153.64 216.686 1154.27 216.238 1155.07 216.238C1155.93 216.238 1156.49 216.606 1156.49 217.678V222.35ZM1165.18 222.35H1167.21V217.358C1167.21 215.134 1165.6 214.43 1163.84 214.43C1162.62 214.43 1161.41 214.814 1160.46 215.646L1161.23 217.006C1161.89 216.398 1162.65 216.094 1163.49 216.094C1164.51 216.094 1165.18 216.606 1165.18 217.39V218.462C1164.67 217.838 1163.76 217.518 1162.73 217.518C1161.5 217.518 1160.05 218.174 1160.05 219.982C1160.05 221.71 1161.5 222.542 1162.73 222.542C1163.74 222.542 1164.65 222.174 1165.18 221.55V222.35ZM1165.18 220.494C1164.85 220.942 1164.21 221.166 1163.55 221.166C1162.75 221.166 1162.09 220.75 1162.09 220.03C1162.09 219.294 1162.75 218.862 1163.55 218.862C1164.21 218.862 1164.85 219.086 1165.18 219.534V220.494ZM1169.23 222.35H1171.26V211.678H1169.23V222.35ZM1173.31 223.55L1173 225.374C1173.26 225.438 1173.77 225.486 1174.01 225.486C1175.34 225.454 1176.36 225.07 1176.94 223.614L1180.57 214.622H1178.38L1176.36 219.998L1174.35 214.622H1172.17L1175.31 222.462L1175.02 223.118C1174.83 223.534 1174.48 223.678 1173.95 223.678C1173.76 223.678 1173.48 223.63 1173.31 223.55ZM1180.81 221.342C1181.62 222.094 1182.92 222.542 1184.26 222.542C1186.41 222.542 1187.61 221.486 1187.61 220.062C1187.61 218.142 1185.83 217.79 1184.5 217.534C1183.64 217.358 1183.03 217.182 1183.03 216.702C1183.03 216.254 1183.51 215.982 1184.25 215.982C1185.19 215.982 1186.07 216.382 1186.53 216.878L1187.33 215.486C1186.58 214.878 1185.54 214.43 1184.23 214.43C1182.2 214.43 1181.06 215.566 1181.06 216.862C1181.06 218.702 1182.77 219.022 1184.1 219.278C1184.98 219.454 1185.65 219.646 1185.65 220.19C1185.65 220.67 1185.24 220.974 1184.36 220.974C1183.4 220.974 1182.25 220.446 1181.69 219.918L1180.81 221.342ZM1190.11 213.486C1190.78 213.486 1191.33 212.942 1191.33 212.27C1191.33 211.598 1190.78 211.054 1190.11 211.054C1189.46 211.054 1188.9 211.598 1188.9 212.27C1188.9 212.942 1189.46 213.486 1190.11 213.486ZM1189.1 222.35H1191.14V214.622H1189.1V222.35ZM1192.48 221.342C1193.29 222.094 1194.59 222.542 1195.93 222.542C1198.08 222.542 1199.28 221.486 1199.28 220.062C1199.28 218.142 1197.5 217.79 1196.17 217.534C1195.31 217.358 1194.7 217.182 1194.7 216.702C1194.7 216.254 1195.18 215.982 1195.92 215.982C1196.86 215.982 1197.74 216.382 1198.21 216.878L1199.01 215.486C1198.25 214.878 1197.21 214.43 1195.9 214.43C1193.87 214.43 1192.73 215.566 1192.73 216.862C1192.73 218.702 1194.45 219.022 1195.77 219.278C1196.65 219.454 1197.33 219.646 1197.33 220.19C1197.33 220.67 1196.91 220.974 1196.03 220.974C1195.07 220.974 1193.92 220.446 1193.36 219.918L1192.48 221.342Z" fill="#454545"/>
<defs>
<clipPath id="clip0">
<rect width="48" height="48" fill="white" transform="translate(71.8689 71.3496)"/>
</clipPath>
<clipPath id="clip1">
<rect width="48" height="48" fill="white" transform="translate(334.869 71.3496)"/>
</clipPath>
<clipPath id="clip2">
<rect width="48" height="48" fill="white" transform="translate(1125.87 71.3496)"/>
</clipPath>
</defs>
</svg>
