<svg width="1244" height="500" viewBox="0 0 1244 500" fill="none" xmlns="http://www.w3.org/2000/svg">
<rect width="1244" height="500" fill="white"/>
<path d="M370.819 224.236C392.015 223.369 403.091 224.968 411.228 210.371C420.773 193.247 425.12 161.919 425.816 156.492C425.887 155.943 425.941 155.433 426.001 154.882C426.656 148.865 431.275 110.864 443.342 110.864" stroke="#D9D9D9" stroke-dasharray="2 2"/>
<path d="M370.819 224.513C392.015 225.38 403.09 223.781 411.227 238.378C420.773 255.501 425.119 286.83 425.816 292.257C425.886 292.806 425.94 293.316 426 293.866C426.656 299.883 431.274 337.884 443.342 337.884" stroke="#D9D9D9" stroke-dasharray="2 2"/>
<path d="M367.094 224.235C394.972 224.808 409.318 224.574 418.632 209.869C432.458 188.04 434.074 148.645 443.342 148.645" stroke="#D9D9D9" stroke-dasharray="2 2"/>
<path d="M367.094 224.513C394.972 223.94 409.318 224.175 418.632 238.879C432.458 260.708 434.074 300.103 443.342 300.103" stroke="#D9D9D9" stroke-dasharray="2 2"/>
<path d="M370.819 224.27C384.877 224.27 403.993 227.418 420.427 217.137C431.8 210.021 435.684 186.536 443.342 186.536" stroke="#D9D9D9" stroke-dasharray="2 2"/>
<path d="M370.819 224.478C384.876 224.478 403.992 221.33 420.426 231.612C431.8 238.727 435.683 262.212 443.342 262.212" stroke="#D9D9D9" stroke-dasharray="2 2"/>
<path d="M362.674 224.304H443.342" stroke="#D9D9D9" stroke-dasharray="2 2"/>
<path d="M901.865 224.236C880.669 223.369 869.594 224.968 861.457 210.371C851.911 193.247 847.565 161.919 846.869 156.492C846.798 155.943 846.744 155.433 846.684 154.882C846.028 148.865 841.41 110.864 829.342 110.864" stroke="#D9D9D9" stroke-dasharray="2 2"/>
<path d="M901.866 224.512C880.67 225.379 869.594 223.78 861.457 238.377C851.912 255.501 847.565 286.829 846.869 292.256C846.799 292.805 846.745 293.315 846.685 293.866C846.029 299.883 841.411 337.884 829.343 337.884" stroke="#D9D9D9" stroke-dasharray="2 2"/>
<path d="M905.59 224.236C877.713 224.808 863.366 224.574 854.053 209.869C840.227 188.04 838.611 148.646 829.342 148.646" stroke="#D9D9D9" stroke-dasharray="2 2"/>
<path d="M905.59 224.512C877.713 223.94 863.366 224.174 854.053 238.879C840.227 260.708 838.611 300.103 829.342 300.103" stroke="#D9D9D9" stroke-dasharray="2 2"/>
<path d="M901.865 224.27C887.808 224.27 868.692 227.418 852.258 217.137C840.884 210.021 837.001 186.536 829.342 186.536" stroke="#D9D9D9" stroke-dasharray="2 2"/>
<path d="M901.866 224.478C887.808 224.478 868.693 221.33 852.258 231.611C840.885 238.727 837.001 262.212 829.343 262.212" stroke="#D9D9D9" stroke-dasharray="2 2"/>
<path d="M910.011 224.304H829.342" stroke="#D9D9D9" stroke-dasharray="2 2"/>
<path d="M940.69 413.125L936.064 401.119H932.86L928.216 413.125H931.024L931.78 411.055H937.144L937.9 413.125H940.69ZM936.442 408.841H932.464L934.462 403.333L936.442 408.841ZM944.03 413.125V401.119H941.744V413.125H944.03ZM948.583 413.125V401.119H946.297V413.125H948.583ZM950.292 408.769C950.292 411.559 952.29 413.341 954.936 413.341C956.286 413.341 957.636 412.945 958.518 412.135L957.51 410.659C956.952 411.199 955.998 411.523 955.188 411.523C953.712 411.523 952.83 410.605 952.686 409.507H959.148V409.003C959.148 406.159 957.384 404.215 954.792 404.215C952.146 404.215 950.292 406.249 950.292 408.769ZM954.792 406.033C956.304 406.033 956.88 407.131 956.934 407.959H952.65C952.758 407.095 953.37 406.033 954.792 406.033ZM963.085 413.125V401.119H960.799V413.125H963.085ZM966.486 403.153C967.242 403.153 967.854 402.541 967.854 401.785C967.854 401.029 967.242 400.417 966.486 400.417C965.748 400.417 965.118 401.029 965.118 401.785C965.118 402.541 965.748 403.153 966.486 403.153ZM967.638 413.125V404.431H965.352V413.125H967.638ZM969.347 408.769C969.347 411.451 971.273 413.341 973.955 413.341C975.737 413.341 976.817 412.567 977.393 411.757L975.899 410.371C975.485 410.947 974.855 411.307 974.063 411.307C972.677 411.307 971.705 410.281 971.705 408.769C971.705 407.257 972.677 406.249 974.063 406.249C974.855 406.249 975.485 406.591 975.899 407.185L977.393 405.799C976.817 404.989 975.737 404.215 973.955 404.215C971.273 404.215 969.347 406.105 969.347 408.769ZM982.718 411.433C983.852 412.567 985.508 413.341 987.812 413.341C991.052 413.341 992.618 411.685 992.618 409.489C992.618 406.825 990.098 406.231 988.118 405.781C986.732 405.457 985.724 405.205 985.724 404.395C985.724 403.675 986.336 403.171 987.488 403.171C988.658 403.171 989.954 403.585 990.926 404.485L992.348 402.613C991.16 401.515 989.576 400.939 987.668 400.939C984.842 400.939 983.114 402.559 983.114 404.557C983.114 407.239 985.634 407.779 987.596 408.229C988.982 408.553 990.026 408.859 990.026 409.759C990.026 410.443 989.342 411.109 987.938 411.109C986.282 411.109 984.968 410.371 984.122 409.489L982.718 411.433ZM993.727 408.769C993.727 411.559 995.725 413.341 998.371 413.341C999.721 413.341 1001.07 412.945 1001.95 412.135L1000.95 410.659C1000.39 411.199 999.433 411.523 998.623 411.523C997.147 411.523 996.265 410.605 996.121 409.507H1002.58V409.003C1002.58 406.159 1000.82 404.215 998.227 404.215C995.581 404.215 993.727 406.249 993.727 408.769ZM998.227 406.033C999.739 406.033 1000.32 407.131 1000.37 407.959H996.085C996.193 407.095 996.805 406.033 998.227 406.033ZM1012.5 404.431H1010.19V405.529C1009.54 404.683 1008.57 404.215 1007.51 404.215C1005.3 404.215 1003.68 405.871 1003.68 408.769C1003.68 411.667 1005.3 413.341 1007.51 413.341C1008.55 413.341 1009.49 412.909 1010.19 412.009V416.437H1012.5V404.431ZM1010.19 410.317C1009.81 410.857 1008.99 411.307 1008.23 411.307C1006.93 411.307 1006.03 410.281 1006.03 408.769C1006.03 407.275 1006.93 406.249 1008.23 406.249C1008.99 406.249 1009.81 406.681 1010.19 407.239V410.317ZM1022.92 413.125V404.431H1020.63V410.317C1020.24 410.821 1019.53 411.307 1018.65 411.307C1017.68 411.307 1017.05 410.911 1017.05 409.705V404.431H1014.76V410.605C1014.76 412.297 1015.66 413.341 1017.57 413.341C1018.99 413.341 1020.04 412.693 1020.63 412.027V413.125H1022.92ZM1024.63 408.769C1024.63 411.559 1026.63 413.341 1029.27 413.341C1030.62 413.341 1031.97 412.945 1032.86 412.135L1031.85 410.659C1031.29 411.199 1030.34 411.523 1029.53 411.523C1028.05 411.523 1027.17 410.605 1027.02 409.507H1033.49V409.003C1033.49 406.159 1031.72 404.215 1029.13 404.215C1026.48 404.215 1024.63 406.249 1024.63 408.769ZM1029.13 406.033C1030.64 406.033 1031.22 407.131 1031.27 407.959H1026.99C1027.1 407.095 1027.71 406.033 1029.13 406.033ZM1043.29 413.125V406.987C1043.29 405.295 1042.37 404.215 1040.46 404.215C1039.04 404.215 1037.98 404.899 1037.42 405.565V404.431H1035.14V413.125H1037.42V407.275C1037.8 406.753 1038.5 406.249 1039.4 406.249C1040.37 406.249 1041 406.663 1041 407.869V413.125H1043.29ZM1045 408.769C1045 411.451 1046.93 413.341 1049.61 413.341C1051.39 413.341 1052.47 412.567 1053.05 411.757L1051.55 410.371C1051.14 410.947 1050.51 411.307 1049.72 411.307C1048.33 411.307 1047.36 410.281 1047.36 408.769C1047.36 407.257 1048.33 406.249 1049.72 406.249C1050.51 406.249 1051.14 406.591 1051.55 407.185L1053.05 405.799C1052.47 404.989 1051.39 404.215 1049.61 404.215C1046.93 404.215 1045 406.105 1045 408.769ZM1053.99 408.769C1053.99 411.559 1055.98 413.341 1058.63 413.341C1059.98 413.341 1061.33 412.945 1062.21 412.135L1061.2 410.659C1060.65 411.199 1059.69 411.523 1058.88 411.523C1057.41 411.523 1056.52 410.605 1056.38 409.507H1062.84V409.003C1062.84 406.159 1061.08 404.215 1058.49 404.215C1055.84 404.215 1053.99 406.249 1053.99 408.769ZM1058.49 406.033C1060 406.033 1060.57 407.131 1060.63 407.959H1056.34C1056.45 407.095 1057.06 406.033 1058.49 406.033ZM1074.5 413.125V403.369H1077.99V401.119H1068.41V403.369H1071.92V413.125H1074.5ZM1078.3 416.527C1078.59 416.599 1079.17 416.653 1079.44 416.653C1080.93 416.617 1082.08 416.185 1082.73 414.547L1086.82 404.431H1084.35L1082.08 410.479L1079.81 404.431H1077.37L1080.89 413.251L1080.57 413.989C1080.35 414.457 1079.96 414.619 1079.36 414.619C1079.15 414.619 1078.84 414.565 1078.64 414.475L1078.3 416.527ZM1090.12 412.009C1090.82 412.909 1091.78 413.341 1092.8 413.341C1095.04 413.341 1096.66 411.667 1096.66 408.769C1096.66 405.871 1095.04 404.215 1092.8 404.215C1091.74 404.215 1090.79 404.683 1090.12 405.529V404.431H1087.84V416.437H1090.12V412.009ZM1094.28 408.769C1094.28 410.281 1093.4 411.307 1092.08 411.307C1091.35 411.307 1090.5 410.857 1090.12 410.317V407.239C1090.5 406.681 1091.35 406.249 1092.08 406.249C1093.4 406.249 1094.28 407.275 1094.28 408.769ZM1097.81 408.769C1097.81 411.559 1099.81 413.341 1102.45 413.341C1103.8 413.341 1105.15 412.945 1106.03 412.135L1105.03 410.659C1104.47 411.199 1103.51 411.523 1102.7 411.523C1101.23 411.523 1100.35 410.605 1100.2 409.507H1106.66V409.003C1106.66 406.159 1104.9 404.215 1102.31 404.215C1099.66 404.215 1097.81 406.249 1097.81 408.769ZM1102.31 406.033C1103.82 406.033 1104.4 407.131 1104.45 407.959H1100.17C1100.27 407.095 1100.89 406.033 1102.31 406.033Z" fill="black"/>
<path d="M556.088 413.125L551.462 401.119H548.258L543.614 413.125H546.422L547.178 411.055H552.542L553.298 413.125H556.088ZM551.84 408.841H547.862L549.86 403.333L551.84 408.841ZM559.429 413.125V401.119H557.143V413.125H559.429ZM563.982 413.125V401.119H561.696V413.125H563.982ZM565.69 408.769C565.69 411.559 567.688 413.341 570.334 413.341C571.684 413.341 573.034 412.945 573.916 412.135L572.908 410.659C572.35 411.199 571.396 411.523 570.586 411.523C569.11 411.523 568.228 410.605 568.084 409.507H574.546V409.003C574.546 406.159 572.782 404.215 570.19 404.215C567.544 404.215 565.69 406.249 565.69 408.769ZM570.19 406.033C571.702 406.033 572.278 407.131 572.332 407.959H568.048C568.156 407.095 568.768 406.033 570.19 406.033ZM578.483 413.125V401.119H576.197V413.125H578.483ZM580.192 408.769C580.192 411.559 582.19 413.341 584.836 413.341C586.186 413.341 587.536 412.945 588.418 412.135L587.41 410.659C586.852 411.199 585.898 411.523 585.088 411.523C583.612 411.523 582.73 410.605 582.586 409.507H589.048V409.003C589.048 406.159 587.284 404.215 584.692 404.215C582.046 404.215 580.192 406.249 580.192 408.769ZM584.692 406.033C586.204 406.033 586.78 407.131 586.834 407.959H582.55C582.658 407.095 583.27 406.033 584.692 406.033ZM594.549 411.991C595.467 412.837 596.925 413.341 598.437 413.341C600.849 413.341 602.199 412.153 602.199 410.551C602.199 408.391 600.201 407.995 598.707 407.707C597.735 407.509 597.051 407.311 597.051 406.771C597.051 406.267 597.591 405.961 598.419 405.961C599.481 405.961 600.471 406.411 600.993 406.969L601.893 405.403C601.047 404.719 599.877 404.215 598.401 404.215C596.115 404.215 594.837 405.493 594.837 406.951C594.837 409.021 596.763 409.381 598.257 409.669C599.247 409.867 600.003 410.083 600.003 410.695C600.003 411.235 599.535 411.577 598.545 411.577C597.465 411.577 596.169 410.983 595.539 410.389L594.549 411.991ZM603.325 408.769C603.325 411.559 605.323 413.341 607.969 413.341C609.319 413.341 610.669 412.945 611.551 412.135L610.543 410.659C609.985 411.199 609.031 411.523 608.221 411.523C606.745 411.523 605.863 410.605 605.719 409.507H612.181V409.003C612.181 406.159 610.417 404.215 607.825 404.215C605.179 404.215 603.325 406.249 603.325 408.769ZM607.825 406.033C609.337 406.033 609.913 407.131 609.967 407.959H605.683C605.791 407.095 606.403 406.033 607.825 406.033ZM622.094 404.431H619.79V405.529C619.142 404.683 618.17 404.215 617.108 404.215C614.894 404.215 613.274 405.871 613.274 408.769C613.274 411.667 614.894 413.341 617.108 413.341C618.152 413.341 619.088 412.909 619.79 412.009V416.437H622.094V404.431ZM619.79 410.317C619.412 410.857 618.584 411.307 617.828 411.307C616.532 411.307 615.632 410.281 615.632 408.769C615.632 407.275 616.532 406.249 617.828 406.249C618.584 406.249 619.412 406.681 619.79 407.239V410.317ZM632.516 413.125V404.431H630.23V410.317C629.834 410.821 629.132 411.307 628.25 411.307C627.278 411.307 626.648 410.911 626.648 409.705V404.431H624.362V410.605C624.362 412.297 625.262 413.341 627.17 413.341C628.592 413.341 629.636 412.693 630.23 412.027V413.125H632.516ZM634.227 408.769C634.227 411.559 636.225 413.341 638.871 413.341C640.221 413.341 641.571 412.945 642.453 412.135L641.445 410.659C640.887 411.199 639.933 411.523 639.123 411.523C637.647 411.523 636.765 410.605 636.621 409.507H643.083V409.003C643.083 406.159 641.319 404.215 638.727 404.215C636.081 404.215 634.227 406.249 634.227 408.769ZM638.727 406.033C640.239 406.033 640.815 407.131 640.869 407.959H636.585C636.693 407.095 637.305 406.033 638.727 406.033ZM652.889 413.125V406.987C652.889 405.295 651.971 404.215 650.063 404.215C648.641 404.215 647.579 404.899 647.021 405.565V404.431H644.735V413.125H647.021V407.275C647.399 406.753 648.101 406.249 649.001 406.249C649.973 406.249 650.603 406.663 650.603 407.869V413.125H652.889ZM654.6 408.769C654.6 411.451 656.526 413.341 659.208 413.341C660.99 413.341 662.07 412.567 662.646 411.757L661.152 410.371C660.738 410.947 660.108 411.307 659.316 411.307C657.93 411.307 656.958 410.281 656.958 408.769C656.958 407.257 657.93 406.249 659.316 406.249C660.108 406.249 660.738 406.591 661.152 407.185L662.646 405.799C662.07 404.989 660.99 404.215 659.208 404.215C656.526 404.215 654.6 406.105 654.6 408.769ZM663.583 408.769C663.583 411.559 665.581 413.341 668.227 413.341C669.577 413.341 670.927 412.945 671.809 412.135L670.801 410.659C670.243 411.199 669.289 411.523 668.479 411.523C667.003 411.523 666.121 410.605 665.977 409.507H672.439V409.003C672.439 406.159 670.675 404.215 668.083 404.215C665.437 404.215 663.583 406.249 663.583 408.769ZM668.083 406.033C669.595 406.033 670.171 407.131 670.225 407.959H665.941C666.049 407.095 666.661 406.033 668.083 406.033ZM686.202 413.125V407.509C686.202 405.007 684.384 404.215 682.404 404.215C681.036 404.215 679.668 404.647 678.606 405.583L679.47 407.113C680.208 406.429 681.072 406.087 682.008 406.087C683.16 406.087 683.916 406.663 683.916 407.545V408.751C683.34 408.049 682.314 407.689 681.162 407.689C679.776 407.689 678.138 408.427 678.138 410.461C678.138 412.405 679.776 413.341 681.162 413.341C682.296 413.341 683.322 412.927 683.916 412.225V413.125H686.202ZM683.916 411.037C683.538 411.541 682.818 411.793 682.08 411.793C681.18 411.793 680.442 411.325 680.442 410.515C680.442 409.687 681.18 409.201 682.08 409.201C682.818 409.201 683.538 409.453 683.916 409.957V411.037ZM696.623 413.125V406.987C696.623 405.295 695.705 404.215 693.797 404.215C692.375 404.215 691.313 404.899 690.755 405.565V404.431H688.469V413.125H690.755V407.275C691.133 406.753 691.835 406.249 692.735 406.249C693.707 406.249 694.337 406.663 694.337 407.869V413.125H696.623ZM706.399 413.125V407.509C706.399 405.007 704.581 404.215 702.601 404.215C701.233 404.215 699.865 404.647 698.803 405.583L699.667 407.113C700.405 406.429 701.269 406.087 702.205 406.087C703.357 406.087 704.113 406.663 704.113 407.545V408.751C703.537 408.049 702.511 407.689 701.359 407.689C699.973 407.689 698.335 408.427 698.335 410.461C698.335 412.405 699.973 413.341 701.359 413.341C702.493 413.341 703.519 412.927 704.113 412.225V413.125H706.399ZM704.113 411.037C703.735 411.541 703.015 411.793 702.277 411.793C701.377 411.793 700.639 411.325 700.639 410.515C700.639 409.687 701.377 409.201 702.277 409.201C703.015 409.201 703.735 409.453 704.113 409.957V411.037ZM710.952 413.125V401.119H708.666V413.125H710.952ZM712.913 416.527C713.201 416.599 713.777 416.653 714.047 416.653C715.541 416.617 716.693 416.185 717.341 414.547L721.427 404.431H718.961L716.693 410.479L714.425 404.431H711.977L715.505 413.251L715.181 413.989C714.965 414.457 714.569 414.619 713.975 414.619C713.759 414.619 713.453 414.565 713.255 414.475L712.913 416.527ZM721.691 411.991C722.609 412.837 724.067 413.341 725.579 413.341C727.991 413.341 729.341 412.153 729.341 410.551C729.341 408.391 727.343 407.995 725.849 407.707C724.877 407.509 724.193 407.311 724.193 406.771C724.193 406.267 724.733 405.961 725.561 405.961C726.623 405.961 727.613 406.411 728.135 406.969L729.035 405.403C728.189 404.719 727.019 404.215 725.543 404.215C723.257 404.215 721.979 405.493 721.979 406.951C721.979 409.021 723.905 409.381 725.399 409.669C726.389 409.867 727.145 410.083 727.145 410.695C727.145 411.235 726.677 411.577 725.687 411.577C724.607 411.577 723.311 410.983 722.681 410.389L721.691 411.991ZM732.16 403.153C732.916 403.153 733.528 402.541 733.528 401.785C733.528 401.029 732.916 400.417 732.16 400.417C731.422 400.417 730.792 401.029 730.792 401.785C730.792 402.541 731.422 403.153 732.16 403.153ZM733.312 413.125V404.431H731.026V413.125H733.312ZM734.822 411.991C735.74 412.837 737.198 413.341 738.71 413.341C741.122 413.341 742.472 412.153 742.472 410.551C742.472 408.391 740.474 407.995 738.98 407.707C738.008 407.509 737.324 407.311 737.324 406.771C737.324 406.267 737.864 405.961 738.692 405.961C739.754 405.961 740.744 406.411 741.266 406.969L742.166 405.403C741.32 404.719 740.15 404.215 738.674 404.215C736.388 404.215 735.11 405.493 735.11 406.951C735.11 409.021 737.036 409.381 738.53 409.669C739.52 409.867 740.276 410.083 740.276 410.695C740.276 411.235 739.808 411.577 738.818 411.577C737.738 411.577 736.442 410.983 735.812 410.389L734.822 411.991Z" fill="black"/>
<path d="M182.982 413.125V401.119H180.408V405.835H174.738V401.119H172.182V413.125H174.738V408.085H180.408V413.125H182.982ZM189.326 413.341C192.206 413.341 193.934 411.253 193.934 408.769C193.934 406.303 192.206 404.215 189.326 404.215C186.464 404.215 184.736 406.303 184.736 408.769C184.736 411.253 186.464 413.341 189.326 413.341ZM189.326 411.307C187.904 411.307 187.112 410.137 187.112 408.769C187.112 407.419 187.904 406.249 189.326 406.249C190.748 406.249 191.558 407.419 191.558 408.769C191.558 410.137 190.748 411.307 189.326 411.307ZM203.784 413.125V404.431H201.498V410.317C201.102 410.821 200.4 411.307 199.518 411.307C198.546 411.307 197.916 410.911 197.916 409.705V404.431H195.63V410.605C195.63 412.297 196.53 413.341 198.438 413.341C199.86 413.341 200.904 412.693 201.498 412.027V413.125H203.784ZM205.297 411.991C206.215 412.837 207.673 413.341 209.185 413.341C211.597 413.341 212.947 412.153 212.947 410.551C212.947 408.391 210.949 407.995 209.455 407.707C208.483 407.509 207.799 407.311 207.799 406.771C207.799 406.267 208.339 405.961 209.167 405.961C210.229 405.961 211.219 406.411 211.741 406.969L212.641 405.403C211.795 404.719 210.625 404.215 209.149 404.215C206.863 404.215 205.585 405.493 205.585 406.951C205.585 409.021 207.511 409.381 209.005 409.669C209.995 409.867 210.751 410.083 210.751 410.695C210.751 411.235 210.283 411.577 209.293 411.577C208.213 411.577 206.917 410.983 206.287 410.389L205.297 411.991ZM214.074 408.769C214.074 411.559 216.072 413.341 218.718 413.341C220.068 413.341 221.418 412.945 222.3 412.135L221.292 410.659C220.734 411.199 219.78 411.523 218.97 411.523C217.494 411.523 216.612 410.605 216.468 409.507H222.93V409.003C222.93 406.159 221.166 404.215 218.574 404.215C215.928 404.215 214.074 406.249 214.074 408.769ZM218.574 406.033C220.086 406.033 220.662 407.131 220.716 407.959H216.432C216.54 407.095 217.152 406.033 218.574 406.033ZM237.682 413.125L234.136 408.373L237.574 404.431H234.766L231.472 408.301V401.119H229.186V413.125H231.472V410.893L232.516 409.777L234.82 413.125H237.682ZM237.874 408.769C237.874 411.559 239.872 413.341 242.518 413.341C243.868 413.341 245.218 412.945 246.1 412.135L245.092 410.659C244.534 411.199 243.58 411.523 242.77 411.523C241.294 411.523 240.412 410.605 240.268 409.507H246.73V409.003C246.73 406.159 244.966 404.215 242.374 404.215C239.728 404.215 237.874 406.249 237.874 408.769ZM242.374 406.033C243.886 406.033 244.462 407.131 244.516 407.959H240.232C240.34 407.095 240.952 406.033 242.374 406.033ZM247.824 408.769C247.824 411.559 249.822 413.341 252.468 413.341C253.818 413.341 255.168 412.945 256.05 412.135L255.042 410.659C254.484 411.199 253.53 411.523 252.72 411.523C251.244 411.523 250.362 410.605 250.218 409.507H256.68V409.003C256.68 406.159 254.916 404.215 252.324 404.215C249.678 404.215 247.824 406.249 247.824 408.769ZM252.324 406.033C253.836 406.033 254.412 407.131 254.466 407.959H250.182C250.29 407.095 250.902 406.033 252.324 406.033ZM260.617 412.009C261.319 412.909 262.273 413.341 263.299 413.341C265.531 413.341 267.151 411.667 267.151 408.769C267.151 405.871 265.531 404.215 263.299 404.215C262.237 404.215 261.283 404.683 260.617 405.529V404.431H258.331V416.437H260.617V412.009ZM264.775 408.769C264.775 410.281 263.893 411.307 262.579 411.307C261.841 411.307 260.995 410.857 260.617 410.317V407.239C260.995 406.681 261.841 406.249 262.579 406.249C263.893 406.249 264.775 407.275 264.775 408.769ZM269.994 403.153C270.75 403.153 271.362 402.541 271.362 401.785C271.362 401.029 270.75 400.417 269.994 400.417C269.256 400.417 268.626 401.029 268.626 401.785C268.626 402.541 269.256 403.153 269.994 403.153ZM271.146 413.125V404.431H268.86V413.125H271.146ZM281.567 413.125V406.987C281.567 405.295 280.649 404.215 278.741 404.215C277.319 404.215 276.257 404.899 275.699 405.565V404.431H273.413V413.125H275.699V407.275C276.077 406.753 276.779 406.249 277.679 406.249C278.651 406.249 279.281 406.663 279.281 407.869V413.125H281.567ZM283.657 415.357C284.737 416.311 285.907 416.653 287.401 416.653C289.543 416.653 292.099 415.843 292.099 412.531V404.431H289.795V405.547C289.093 404.665 288.157 404.215 287.113 404.215C284.917 404.215 283.279 405.799 283.279 408.643C283.279 411.541 284.935 413.071 287.113 413.071C288.175 413.071 289.111 412.567 289.795 411.703V412.585C289.795 414.295 288.499 414.781 287.401 414.781C286.303 414.781 285.385 414.475 284.683 413.701L283.657 415.357ZM289.795 410.047C289.417 410.605 288.589 411.037 287.833 411.037C286.537 411.037 285.637 410.137 285.637 408.643C285.637 407.149 286.537 406.249 287.833 406.249C288.589 406.249 289.417 406.663 289.795 407.239V410.047ZM298.791 415.357C299.871 416.311 301.041 416.653 302.535 416.653C304.677 416.653 307.233 415.843 307.233 412.531V404.431H304.929V405.547C304.227 404.665 303.291 404.215 302.247 404.215C300.051 404.215 298.413 405.799 298.413 408.643C298.413 411.541 300.069 413.071 302.247 413.071C303.309 413.071 304.245 412.567 304.929 411.703V412.585C304.929 414.295 303.633 414.781 302.535 414.781C301.437 414.781 300.519 414.475 299.817 413.701L298.791 415.357ZM304.929 410.047C304.551 410.605 303.723 411.037 302.967 411.037C301.671 411.037 300.771 410.137 300.771 408.643C300.771 407.149 301.671 406.249 302.967 406.249C303.723 406.249 304.551 406.663 304.929 407.239V410.047ZM308.943 408.769C308.943 411.559 310.941 413.341 313.587 413.341C314.937 413.341 316.287 412.945 317.169 412.135L316.161 410.659C315.603 411.199 314.649 411.523 313.839 411.523C312.363 411.523 311.481 410.605 311.337 409.507H317.799V409.003C317.799 406.159 316.035 404.215 313.443 404.215C310.797 404.215 308.943 406.249 308.943 408.769ZM313.443 406.033C314.955 406.033 315.531 407.131 315.585 407.959H311.301C311.409 407.095 312.021 406.033 313.443 406.033ZM327.604 413.125V406.987C327.604 405.295 326.686 404.215 324.778 404.215C323.356 404.215 322.294 404.899 321.736 405.565V404.431H319.45V413.125H321.736V407.275C322.114 406.753 322.816 406.249 323.716 406.249C324.688 406.249 325.318 406.663 325.318 407.869V413.125H327.604ZM329.316 408.769C329.316 411.559 331.314 413.341 333.96 413.341C335.31 413.341 336.66 412.945 337.542 412.135L336.534 410.659C335.976 411.199 335.022 411.523 334.212 411.523C332.736 411.523 331.854 410.605 331.71 409.507H338.172V409.003C338.172 406.159 336.408 404.215 333.816 404.215C331.17 404.215 329.316 406.249 329.316 408.769ZM333.816 406.033C335.328 406.033 335.904 407.131 335.958 407.959H331.674C331.782 407.095 332.394 406.033 333.816 406.033Z" fill="black"/>
<path fill-rule="evenodd" clip-rule="evenodd" d="M763.342 233.125L772.342 224.125L763.342 215.125V219.125L751.342 219.125V229.125L763.342 229.125V233.125Z" fill="black"/>
<path fill-rule="evenodd" clip-rule="evenodd" d="M531.342 233.125L540.342 224.125L531.342 215.125V219.125L519.342 219.125V229.125L531.342 229.125V233.125Z" fill="black"/>
<circle cx="1017.74" cy="224.125" r="119" fill="white" stroke="black" stroke-width="2"/>
<path d="M990.143 230.495C991.403 231.755 993.243 232.615 995.803 232.615C999.403 232.615 1001.14 230.775 1001.14 228.335C1001.14 225.375 998.343 224.715 996.143 224.215C994.603 223.855 993.483 223.575 993.483 222.675C993.483 221.875 994.163 221.315 995.443 221.315C996.743 221.315 998.183 221.775 999.263 222.775L1000.84 220.695C999.523 219.475 997.763 218.835 995.643 218.835C992.503 218.835 990.583 220.635 990.583 222.855C990.583 225.835 993.383 226.435 995.563 226.935C997.103 227.295 998.263 227.635 998.263 228.635C998.263 229.395 997.503 230.135 995.943 230.135C994.103 230.135 992.643 229.315 991.703 228.335L990.143 230.495ZM1008.86 232.375V221.535H1012.74V219.035H1002.1V221.535H1006V232.375H1008.86ZM1020.14 232.375V219.035H1017.66L1013.46 223.255L1015.08 224.955L1017.28 222.695V232.375H1020.14ZM1032.44 232.375V229.875H1026.88C1030.46 227.355 1032.34 225.375 1032.34 223.095C1032.34 220.435 1030.08 218.835 1027.24 218.835C1025.38 218.835 1023.4 219.515 1022.1 221.015L1023.72 222.895C1024.62 221.955 1025.78 221.355 1027.28 221.355C1028.4 221.355 1029.46 221.935 1029.46 223.095C1029.46 224.735 1027.86 226.115 1022.4 230.135V232.375H1032.44ZM1033.85 230.475C1034.83 231.675 1036.65 232.615 1039.11 232.615C1042.31 232.615 1044.37 230.995 1044.37 228.695C1044.37 226.695 1042.61 225.635 1041.25 225.495C1042.73 225.235 1044.17 224.135 1044.17 222.455C1044.17 220.235 1042.25 218.835 1039.13 218.835C1036.79 218.835 1035.11 219.735 1034.03 220.955L1035.43 222.715C1036.37 221.815 1037.53 221.315 1038.83 221.315C1040.23 221.315 1041.31 221.855 1041.31 222.915C1041.31 223.915 1040.33 224.395 1038.85 224.395C1038.33 224.395 1037.43 224.395 1037.19 224.375V226.855C1037.39 226.835 1038.29 226.835 1038.85 226.835C1040.71 226.835 1041.53 227.335 1041.53 228.415C1041.53 229.435 1040.63 230.135 1039.01 230.135C1037.71 230.135 1036.25 229.575 1035.33 228.615L1033.85 230.475Z" fill="black"/>
<circle r="4.5" transform="matrix(-1 0 0 1 899.237 224.375)" fill="white" stroke="black" stroke-width="5"/>
<path d="M813.808 116.125V104.119H811.126L806.932 108.259L808.696 110.113L810.712 108.079V116.125H813.808Z" fill="#F31C67"/>
<path d="M806.13 152.451C807.066 153.531 808.794 154.341 811.098 154.341C814.086 154.341 816.066 152.883 816.066 150.777C816.066 149.049 814.518 148.059 813.24 147.933C814.662 147.699 815.868 146.637 815.868 145.233C815.868 143.253 814.158 141.939 811.098 141.939C808.884 141.939 807.3 142.749 806.292 143.883L807.75 145.773C808.596 145.035 809.676 144.585 810.774 144.585C811.926 144.585 812.79 144.981 812.79 145.737C812.79 146.403 812.088 146.763 810.846 146.763C810.396 146.763 809.46 146.763 809.226 146.745V149.409C809.406 149.391 810.324 149.373 810.846 149.373C812.484 149.373 812.988 149.769 812.988 150.471C812.988 151.173 812.304 151.713 810.972 151.713C809.928 151.713 808.56 151.263 807.696 150.417L806.13 152.451Z" fill="#EE752C"/>
<path d="M816.048 192.125V189.425H811.422C814.644 187.337 815.958 185.771 815.958 183.935C815.958 181.523 813.924 179.939 811.098 179.939C809.424 179.939 807.516 180.533 806.238 181.937L807.948 183.989C808.812 183.179 809.82 182.675 811.098 182.675C812.034 182.675 812.808 183.107 812.808 183.935C812.808 185.123 811.836 185.951 806.634 189.713V192.125H816.048Z" fill="#FCE050"/>
<path d="M806.13 228.451C807.066 229.531 808.794 230.341 811.098 230.341C814.086 230.341 816.066 228.883 816.066 226.777C816.066 225.049 814.518 224.059 813.24 223.933C814.662 223.699 815.868 222.637 815.868 221.233C815.868 219.253 814.158 217.939 811.098 217.939C808.884 217.939 807.3 218.749 806.292 219.883L807.75 221.773C808.596 221.035 809.676 220.585 810.774 220.585C811.926 220.585 812.79 220.981 812.79 221.737C812.79 222.403 812.088 222.763 810.846 222.763C810.396 222.763 809.46 222.763 809.226 222.745V225.409C809.406 225.391 810.324 225.373 810.846 225.373C812.484 225.373 812.988 225.769 812.988 226.471C812.988 227.173 812.304 227.713 810.972 227.713C809.928 227.713 808.56 227.263 807.696 226.417L806.13 228.451Z" fill="#01BDB9"/>
<path d="M806.062 266.595C807.178 267.693 808.78 268.341 810.904 268.341C814.018 268.341 815.98 266.703 815.98 264.111C815.98 261.699 814.162 260.223 812.11 260.223C811.048 260.223 810.112 260.619 809.428 261.195V258.729H815.152V256.119H806.44V263.157L808.582 263.679C809.248 263.067 810.004 262.779 810.958 262.779C812.2 262.779 812.83 263.391 812.83 264.237C812.83 265.011 812.182 265.713 810.868 265.713C809.716 265.713 808.546 265.299 807.718 264.525L806.062 266.595Z" fill="#2E87EF"/>
<path d="M814.594 306.125V303.929H816.052V301.211H814.594V294.119H810.292L805.738 301.517V303.929H811.48V306.125H814.594ZM811.48 301.211H808.744L811.48 296.819V301.211Z" fill="#492EEF"/>
<path d="M813.808 344.125V332.119H811.126L806.932 336.259L808.696 338.113L810.712 336.079V344.125H813.808Z" fill="#B12EEF"/>
<rect x="573.363" y="93.125" width="140" height="34" rx="17" fill="#F3F3F3"/>
<path d="M616.521 113.645C616.521 114.261 617.039 114.779 617.655 114.779C618.271 114.779 618.789 114.261 618.789 113.645C618.789 113.029 618.271 112.511 617.655 112.511C617.039 112.511 616.521 113.029 616.521 113.645ZM620.603 113.645C620.603 114.261 621.121 114.779 621.737 114.779C622.353 114.779 622.871 114.261 622.871 113.645C622.871 113.029 622.353 112.511 621.737 112.511C621.121 112.511 620.603 113.029 620.603 113.645ZM633.659 114.625L630.061 105.287H627.569L623.957 114.625H626.141L626.729 113.015H630.901L631.489 114.625H633.659ZM630.355 111.293H627.261L628.815 107.009L630.355 111.293ZM638.995 114.793C641.123 114.793 642.299 113.659 642.971 112.497L641.263 111.671C640.871 112.441 640.031 113.029 638.995 113.029C637.371 113.029 636.139 111.727 636.139 109.963C636.139 108.199 637.371 106.897 638.995 106.897C640.031 106.897 640.871 107.499 641.263 108.255L642.971 107.415C642.313 106.253 641.123 105.133 638.995 105.133C636.265 105.133 634.095 107.093 634.095 109.963C634.095 112.833 636.265 114.793 638.995 114.793ZM648.812 114.625V107.037H651.528V105.287H644.08V107.037H646.81V114.625H648.812ZM657.461 114.625V107.037H660.177V105.287H652.729V107.037H655.459V114.625H657.461ZM661.162 109.963C661.162 112.903 663.402 114.807 666.132 114.807C667.826 114.807 669.156 114.107 670.108 113.043V109.473H665.656V111.181H668.148V112.315C667.742 112.679 666.986 113.029 666.132 113.029C664.438 113.029 663.206 111.727 663.206 109.963C663.206 108.199 664.438 106.897 666.132 106.897C667.112 106.897 667.91 107.415 668.344 108.073L669.996 107.177C669.282 106.071 668.064 105.133 666.132 105.133C663.402 105.133 661.162 107.009 661.162 109.963Z" fill="#454545"/>
<rect x="573.363" y="131.125" width="140" height="34" rx="17" fill="#F3F3F3"/>
<path d="M616.521 151.645C616.521 152.261 617.039 152.779 617.655 152.779C618.271 152.779 618.789 152.261 618.789 151.645C618.789 151.029 618.271 150.511 617.655 150.511C617.039 150.511 616.521 151.029 616.521 151.645ZM620.603 151.645C620.603 152.261 621.121 152.779 621.737 152.779C622.353 152.779 622.871 152.261 622.871 151.645C622.871 151.029 622.353 150.511 621.737 150.511C621.121 150.511 620.603 151.029 620.603 151.645ZM627.756 152.625V145.037H630.472V143.287H623.024V145.037H625.754V152.625H627.756ZM640.052 152.625L636.454 143.287H633.962L630.35 152.625H632.534L633.122 151.015H637.294L637.882 152.625H640.052ZM636.748 149.293H633.654L635.208 145.009L636.748 149.293ZM640.488 147.963C640.488 150.903 642.728 152.807 645.458 152.807C647.152 152.807 648.482 152.107 649.434 151.043V147.473H644.982V149.181H647.474V150.315C647.068 150.679 646.312 151.029 645.458 151.029C643.764 151.029 642.532 149.727 642.532 147.963C642.532 146.199 643.764 144.897 645.458 144.897C646.438 144.897 647.236 145.415 647.67 146.073L649.322 145.177C648.608 144.071 647.39 143.133 645.458 143.133C642.728 143.133 640.488 145.009 640.488 147.963ZM651.064 147.963C651.064 150.903 653.304 152.807 656.034 152.807C657.728 152.807 659.058 152.107 660.01 151.043V147.473H655.558V149.181H658.05V150.315C657.644 150.679 656.888 151.029 656.034 151.029C654.34 151.029 653.108 149.727 653.108 147.963C653.108 146.199 654.34 144.897 656.034 144.897C657.014 144.897 657.812 145.415 658.246 146.073L659.898 145.177C659.184 144.071 657.966 143.133 656.034 143.133C653.304 143.133 651.064 145.009 651.064 147.963ZM666.54 152.793C668.668 152.793 669.844 151.659 670.516 150.497L668.808 149.671C668.416 150.441 667.576 151.029 666.54 151.029C664.916 151.029 663.684 149.727 663.684 147.963C663.684 146.199 664.916 144.897 666.54 144.897C667.576 144.897 668.416 145.499 668.808 146.255L670.516 145.415C669.858 144.253 668.668 143.133 666.54 143.133C663.81 143.133 661.64 145.093 661.64 147.963C661.64 150.833 663.81 152.793 666.54 152.793Z" fill="#454545"/>
<rect x="573.363" y="169.125" width="140" height="34" rx="17" fill="#F3F3F3"/>
<path d="M615.521 189.645C615.521 190.261 616.039 190.779 616.655 190.779C617.271 190.779 617.789 190.261 617.789 189.645C617.789 189.029 617.271 188.511 616.655 188.511C616.039 188.511 615.521 189.029 615.521 189.645ZM619.603 189.645C619.603 190.261 620.121 190.779 620.737 190.779C621.353 190.779 621.871 190.261 621.871 189.645C621.871 189.029 621.353 188.511 620.737 188.511C620.121 188.511 619.603 189.029 619.603 189.645ZM632.659 190.625L629.061 181.287H626.569L622.957 190.625H625.141L625.729 189.015H629.901L630.489 190.625H632.659ZM629.355 187.293H626.261L627.815 183.009L629.355 187.293ZM637.277 190.625V183.037H639.993V181.287H632.545V183.037H635.275V190.625H637.277ZM640.978 185.963C640.978 188.903 643.218 190.807 645.948 190.807C647.642 190.807 648.972 190.107 649.924 189.043V185.473H645.472V187.181H647.964V188.315C647.558 188.679 646.802 189.029 645.948 189.029C644.254 189.029 643.022 187.727 643.022 185.963C643.022 184.199 644.254 182.897 645.948 182.897C646.928 182.897 647.726 183.415 648.16 184.073L649.812 183.177C649.098 182.071 647.88 181.133 645.948 181.133C643.218 181.133 640.978 183.009 640.978 185.963ZM656.454 190.793C658.582 190.793 659.758 189.659 660.43 188.497L658.722 187.671C658.33 188.441 657.49 189.029 656.454 189.029C654.83 189.029 653.598 187.727 653.598 185.963C653.598 184.199 654.83 182.897 656.454 182.897C657.49 182.897 658.33 183.499 658.722 184.255L660.43 183.415C659.772 182.253 658.582 181.133 656.454 181.133C653.724 181.133 651.554 183.093 651.554 185.963C651.554 188.833 653.724 190.793 656.454 190.793ZM661.665 185.963C661.665 188.903 663.905 190.807 666.635 190.807C668.329 190.807 669.659 190.107 670.611 189.043V185.473H666.159V187.181H668.651V188.315C668.245 188.679 667.489 189.029 666.635 189.029C664.941 189.029 663.709 187.727 663.709 185.963C663.709 184.199 664.941 182.897 666.635 182.897C667.615 182.897 668.413 183.415 668.847 184.073L670.499 183.177C669.785 182.071 668.567 181.133 666.635 181.133C663.905 181.133 661.665 183.009 661.665 185.963Z" fill="#454545"/>
<rect x="573.363" y="207.125" width="140" height="34" rx="17" fill="#F3F3F3"/>
<path d="M615.521 227.645C615.521 228.261 616.039 228.779 616.655 228.779C617.271 228.779 617.789 228.261 617.789 227.645C617.789 227.029 617.271 226.511 616.655 226.511C616.039 226.511 615.521 227.029 615.521 227.645ZM619.603 227.645C619.603 228.261 620.121 228.779 620.737 228.779C621.353 228.779 621.871 228.261 621.871 227.645C621.871 227.029 621.353 226.511 620.737 226.511C620.121 226.511 619.603 227.029 619.603 227.645ZM628.403 228.793C630.531 228.793 631.707 227.659 632.379 226.497L630.671 225.671C630.279 226.441 629.439 227.029 628.403 227.029C626.779 227.029 625.547 225.727 625.547 223.963C625.547 222.199 626.779 220.897 628.403 220.897C629.439 220.897 630.279 221.499 630.671 222.255L632.379 221.415C631.721 220.253 630.531 219.133 628.403 219.133C625.673 219.133 623.503 221.093 623.503 223.963C623.503 226.833 625.673 228.793 628.403 228.793ZM638.515 228.793C640.643 228.793 641.819 227.659 642.491 226.497L640.783 225.671C640.391 226.441 639.551 227.029 638.515 227.029C636.891 227.029 635.659 225.727 635.659 223.963C635.659 222.199 636.891 220.897 638.515 220.897C639.551 220.897 640.391 221.499 640.783 222.255L642.491 221.415C641.833 220.253 640.643 219.133 638.515 219.133C635.785 219.133 633.615 221.093 633.615 223.963C633.615 226.833 635.785 228.793 638.515 228.793ZM648.332 228.625V221.037H651.048V219.287H643.6V221.037H646.33V228.625H648.332ZM652.033 223.963C652.033 226.903 654.273 228.807 657.003 228.807C658.697 228.807 660.027 228.107 660.979 227.043V223.473H656.527V225.181H659.019V226.315C658.613 226.679 657.857 227.029 657.003 227.029C655.309 227.029 654.077 225.727 654.077 223.963C654.077 222.199 655.309 220.897 657.003 220.897C657.983 220.897 658.781 221.415 659.215 222.073L660.867 221.177C660.153 220.071 658.935 219.133 657.003 219.133C654.273 219.133 652.033 221.009 652.033 223.963ZM671.669 228.625L668.071 219.287H665.579L661.967 228.625H664.151L664.739 227.015H668.911L669.499 228.625H671.669ZM668.365 225.293H665.271L666.825 221.009L668.365 225.293Z" fill="#454545"/>
<rect x="573.363" y="245.125" width="140" height="34" rx="17" fill="#F3F3F3"/>
<path d="M615.521 265.645C615.521 266.261 616.039 266.779 616.655 266.779C617.271 266.779 617.789 266.261 617.789 265.645C617.789 265.029 617.271 264.511 616.655 264.511C616.039 264.511 615.521 265.029 615.521 265.645ZM619.603 265.645C619.603 266.261 620.121 266.779 620.737 266.779C621.353 266.779 621.871 266.261 621.871 265.645C621.871 265.029 621.353 264.511 620.737 264.511C620.121 264.511 619.603 265.029 619.603 265.645ZM632.659 266.625L629.061 257.287H626.569L622.957 266.625H625.141L625.729 265.015H629.901L630.489 266.625H632.659ZM629.355 263.293H626.261L627.815 259.009L629.355 263.293ZM642.73 266.625L639.132 257.287H636.64L633.028 266.625H635.212L635.8 265.015H639.972L640.56 266.625H642.73ZM639.426 263.293H636.332L637.886 259.009L639.426 263.293ZM648.065 266.793C650.193 266.793 651.369 265.659 652.041 264.497L650.333 263.671C649.941 264.441 649.101 265.029 648.065 265.029C646.441 265.029 645.209 263.727 645.209 261.963C645.209 260.199 646.441 258.897 648.065 258.897C649.101 258.897 649.941 259.499 650.333 260.255L652.041 259.415C651.383 258.253 650.193 257.133 648.065 257.133C645.335 257.133 643.165 259.093 643.165 261.963C643.165 264.833 645.335 266.793 648.065 266.793ZM657.883 266.625V259.037H660.599V257.287H653.151V259.037H655.881V266.625H657.883ZM661.583 261.963C661.583 264.903 663.823 266.807 666.553 266.807C668.247 266.807 669.577 266.107 670.529 265.043V261.473H666.077V263.181H668.569V264.315C668.163 264.679 667.407 265.029 666.553 265.029C664.859 265.029 663.627 263.727 663.627 261.963C663.627 260.199 664.859 258.897 666.553 258.897C667.533 258.897 668.331 259.415 668.765 260.073L670.417 259.177C669.703 258.071 668.485 257.133 666.553 257.133C663.823 257.133 661.583 259.009 661.583 261.963Z" fill="#454545"/>
<rect x="573.363" y="283.125" width="140" height="34" rx="17" fill="#F3F3F3"/>
<path d="M617.521 303.645C617.521 304.261 618.039 304.779 618.655 304.779C619.271 304.779 619.789 304.261 619.789 303.645C619.789 303.029 619.271 302.511 618.655 302.511C618.039 302.511 617.521 303.029 617.521 303.645ZM621.603 303.645C621.603 304.261 622.121 304.779 622.737 304.779C623.353 304.779 623.871 304.261 623.871 303.645C623.871 303.029 623.353 302.511 622.737 302.511C622.121 302.511 621.603 303.029 621.603 303.645ZM628.756 304.625V297.037H631.472V295.287H624.024V297.037H626.754V304.625H628.756ZM637.404 304.625V297.037H640.12V295.287H632.672V297.037H635.402V304.625H637.404ZM649.7 304.625L646.102 295.287H643.61L639.998 304.625H642.182L642.77 303.015H646.942L647.53 304.625H649.7ZM646.396 301.293H643.302L644.856 297.009L646.396 301.293ZM655.036 304.793C657.164 304.793 658.34 303.659 659.012 302.497L657.304 301.671C656.912 302.441 656.072 303.029 655.036 303.029C653.412 303.029 652.18 301.727 652.18 299.963C652.18 298.199 653.412 296.897 655.036 296.897C656.072 296.897 656.912 297.499 657.304 298.255L659.012 297.415C658.354 296.253 657.164 295.133 655.036 295.133C652.306 295.133 650.136 297.093 650.136 299.963C650.136 302.833 652.306 304.793 655.036 304.793ZM660.247 299.963C660.247 302.903 662.487 304.807 665.217 304.807C666.911 304.807 668.241 304.107 669.193 303.043V299.473H664.741V301.181H667.233V302.315C666.827 302.679 666.071 303.029 665.217 303.029C663.523 303.029 662.291 301.727 662.291 299.963C662.291 298.199 663.523 296.897 665.217 296.897C666.197 296.897 666.995 297.415 667.429 298.073L669.081 297.177C668.367 296.071 667.149 295.133 665.217 295.133C662.487 295.133 660.247 297.009 660.247 299.963Z" fill="#454545"/>
<rect x="573.363" y="321.125" width="140" height="34" rx="17" fill="#F3F3F3"/>
<path d="M615.521 341.645C615.521 342.261 616.039 342.779 616.655 342.779C617.271 342.779 617.789 342.261 617.789 341.645C617.789 341.029 617.271 340.511 616.655 340.511C616.039 340.511 615.521 341.029 615.521 341.645ZM619.603 341.645C619.603 342.261 620.121 342.779 620.737 342.779C621.353 342.779 621.871 342.261 621.871 341.645C621.871 341.029 621.353 340.511 620.737 340.511C620.121 340.511 619.603 341.029 619.603 341.645ZM632.659 342.625L629.061 333.287H626.569L622.957 342.625H625.141L625.729 341.015H629.901L630.489 342.625H632.659ZM629.355 339.293H626.261L627.815 335.009L629.355 339.293ZM633.095 337.963C633.095 340.903 635.335 342.807 638.065 342.807C639.759 342.807 641.089 342.107 642.041 341.043V337.473H637.589V339.181H640.081V340.315C639.675 340.679 638.919 341.029 638.065 341.029C636.371 341.029 635.139 339.727 635.139 337.963C635.139 336.199 636.371 334.897 638.065 334.897C639.045 334.897 639.843 335.415 640.277 336.073L641.929 335.177C641.215 334.071 639.997 333.133 638.065 333.133C635.335 333.133 633.095 335.009 633.095 337.963ZM648.182 342.625V335.037H650.898V333.287H643.45V335.037H646.18V342.625H648.182ZM656.782 342.793C658.91 342.793 660.086 341.659 660.758 340.497L659.05 339.671C658.658 340.441 657.818 341.029 656.782 341.029C655.158 341.029 653.926 339.727 653.926 337.963C653.926 336.199 655.158 334.897 656.782 334.897C657.818 334.897 658.658 335.499 659.05 336.255L660.758 335.415C660.1 334.253 658.91 333.133 656.782 333.133C654.052 333.133 651.882 335.093 651.882 337.963C651.882 340.833 654.052 342.793 656.782 342.793ZM661.994 337.963C661.994 340.903 664.234 342.807 666.964 342.807C668.658 342.807 669.988 342.107 670.94 341.043V337.473H666.488V339.181H668.98V340.315C668.574 340.679 667.818 341.029 666.964 341.029C665.27 341.029 664.038 339.727 664.038 337.963C664.038 336.199 665.27 334.897 666.964 334.897C667.944 334.897 668.742 335.415 669.176 336.073L670.828 335.177C670.114 334.071 668.896 333.133 666.964 333.133C664.234 333.133 661.994 335.009 661.994 337.963Z" fill="#454545"/>
<rect x="443.342" y="102.535" width="38" height="6.5" fill="#F31C67"/>
<rect x="443.342" y="111.989" width="38" height="6.5" fill="#F31C67"/>
<rect x="443.342" y="140.489" width="38" height="6.5" fill="#EE752C"/>
<rect x="443.342" y="149.944" width="38" height="6.5" fill="#EE752C"/>
<rect x="443.342" y="178.443" width="38" height="6.5" fill="#FBD615"/>
<rect x="443.342" y="187.898" width="38" height="6.5" fill="#FBD615"/>
<rect x="443.342" y="216.397" width="38" height="6.5" fill="#01BDB9"/>
<rect x="443.342" y="225.852" width="38" height="6.5" fill="#01BDB9"/>
<rect x="443.342" y="254.352" width="38" height="6.5" fill="#2E87EF"/>
<rect x="443.342" y="263.806" width="38" height="6.5" fill="#2E87EF"/>
<rect x="443.342" y="292.306" width="38" height="6.5" fill="#492EEF"/>
<rect x="443.342" y="301.76" width="38" height="6.5" fill="#492EEF"/>
<rect x="443.342" y="330.26" width="38" height="6.5" fill="#B12EEF"/>
<rect x="443.342" y="339.714" width="38" height="6.5" fill="#B12EEF"/>
<circle cx="254.841" cy="224.375" r="119" fill="white" stroke="black" stroke-width="2"/>
<path d="M113.654 156.178C113.654 158.208 115.054 159.734 117.098 159.734C118.372 159.734 119.142 159.202 119.632 158.544L118.792 157.774C118.386 158.334 117.84 158.614 117.154 158.614C115.824 158.614 114.97 157.578 114.97 156.178C114.97 154.778 115.824 153.756 117.154 153.756C117.84 153.756 118.386 154.022 118.792 154.596L119.632 153.826C119.142 153.168 118.372 152.636 117.098 152.636C115.054 152.636 113.654 154.148 113.654 156.178ZM120.599 156.178C120.599 158.208 121.999 159.734 124.043 159.734C125.317 159.734 126.087 159.202 126.577 158.544L125.737 157.774C125.331 158.334 124.785 158.614 124.099 158.614C122.769 158.614 121.915 157.578 121.915 156.178C121.915 154.778 122.769 153.756 124.099 153.756C124.785 153.756 125.331 154.022 125.737 154.596L126.577 153.826C126.087 153.168 125.317 152.636 124.043 152.636C121.999 152.636 120.599 154.148 120.599 156.178ZM129.225 158.586C129.771 159.328 130.555 159.734 131.437 159.734C133.201 159.734 134.447 158.39 134.447 156.178C134.447 153.966 133.201 152.636 131.437 152.636C130.527 152.636 129.715 153.098 129.225 153.77V152.804H127.965V162.142H129.225V158.586ZM133.131 156.178C133.131 157.592 132.361 158.614 131.101 158.614C130.331 158.614 129.561 158.152 129.225 157.62V154.75C129.561 154.204 130.331 153.756 131.101 153.756C132.361 153.756 133.131 154.778 133.131 156.178ZM144.277 159.566L140.567 150.228H138.817L135.107 159.566H136.647L137.403 157.634H141.981L142.737 159.566H144.277ZM141.575 156.388H137.809L139.685 151.446L141.575 156.388Z" fill="#707070"/>
<path d="M174.088 111.895C174.634 112.637 175.418 113.043 176.3 113.043C178.064 113.043 179.31 111.699 179.31 109.487C179.31 107.275 178.064 105.945 176.3 105.945C175.39 105.945 174.578 106.407 174.088 107.079V106.113H172.828V115.451H174.088V111.895ZM177.994 109.487C177.994 110.901 177.224 111.923 175.964 111.923C175.194 111.923 174.424 111.461 174.088 110.929V108.059C174.424 107.513 175.194 107.065 175.964 107.065C177.224 107.065 177.994 108.087 177.994 109.487ZM182.77 113.043C183.428 113.043 183.82 112.861 184.086 112.609L183.764 111.657C183.638 111.797 183.372 111.923 183.078 111.923C182.644 111.923 182.42 111.573 182.42 111.097V107.219H183.792V106.113H182.42V104.265H181.16V106.113H180.04V107.219H181.16V111.377C181.16 112.441 181.706 113.043 182.77 113.043ZM190.619 112.875V108.311C190.619 106.589 189.373 105.945 187.903 105.945C186.811 105.945 185.887 106.309 185.131 107.051L185.677 107.919C186.279 107.317 186.937 107.023 187.707 107.023C188.673 107.023 189.359 107.527 189.359 108.367V109.487C188.841 108.885 188.057 108.591 187.147 108.591C186.013 108.591 184.795 109.263 184.795 110.803C184.795 112.287 186.027 113.043 187.147 113.043C188.057 113.043 188.827 112.721 189.359 112.133V112.875H190.619ZM189.359 111.391C188.981 111.895 188.323 112.161 187.623 112.161C186.713 112.161 186.069 111.615 186.069 110.817C186.069 110.019 186.713 109.473 187.623 109.473C188.323 109.473 188.981 109.739 189.359 110.243V111.391Z" fill="#707070"/>
<path d="M241.069 89.213C241.069 91.985 242.987 94.043 245.773 94.043C248.559 94.043 250.477 91.985 250.477 89.213C250.477 86.441 248.559 84.383 245.773 84.383C242.987 84.383 241.069 86.441 241.069 89.213ZM249.035 89.213C249.035 91.257 247.747 92.797 245.773 92.797C243.771 92.797 242.511 91.257 242.511 89.213C242.511 87.155 243.771 85.629 245.773 85.629C247.747 85.629 249.035 87.155 249.035 89.213ZM253.398 93.875V89.171C253.692 88.667 254.546 88.191 255.176 88.191C255.344 88.191 255.484 88.205 255.61 88.233V86.959C254.714 86.959 253.916 87.477 253.398 88.149V87.113H252.138V93.875H253.398ZM257.484 85.979C257.932 85.979 258.296 85.629 258.296 85.181C258.296 84.733 257.932 84.369 257.484 84.369C257.05 84.369 256.672 84.733 256.672 85.181C256.672 85.629 257.05 85.979 257.484 85.979ZM258.128 93.875V87.113H256.868V93.875H258.128ZM264.56 94.043C266.394 94.043 267.528 93.161 268.27 92.069L267.08 91.439C266.59 92.223 265.666 92.797 264.56 92.797C262.67 92.797 261.214 91.299 261.214 89.213C261.214 87.113 262.67 85.629 264.56 85.629C265.666 85.629 266.59 86.203 267.08 86.987L268.27 86.357C267.542 85.265 266.394 84.383 264.56 84.383C261.9 84.383 259.772 86.343 259.772 89.213C259.772 92.083 261.9 94.043 264.56 94.043Z" fill="#707070"/>
<path d="M317.107 109.897V105.333C317.107 103.611 315.861 102.967 314.391 102.967C313.299 102.967 312.375 103.331 311.619 104.073L312.165 104.941C312.767 104.339 313.425 104.045 314.195 104.045C315.161 104.045 315.847 104.549 315.847 105.389V106.509C315.329 105.907 314.545 105.613 313.635 105.613C312.501 105.613 311.283 106.285 311.283 107.825C311.283 109.309 312.515 110.065 313.635 110.065C314.545 110.065 315.315 109.743 315.847 109.155V109.897H317.107ZM315.847 108.413C315.469 108.917 314.811 109.183 314.111 109.183C313.201 109.183 312.557 108.637 312.557 107.839C312.557 107.041 313.201 106.495 314.111 106.495C314.811 106.495 315.469 106.761 315.847 107.265V108.413ZM325.202 109.897V100.559H323.942V104.115C323.396 103.387 322.598 102.967 321.73 102.967C319.966 102.967 318.706 104.353 318.706 106.523C318.706 108.735 319.966 110.065 321.73 110.065C322.626 110.065 323.438 109.603 323.942 108.931V109.897H325.202ZM323.942 107.965C323.592 108.511 322.836 108.945 322.066 108.945C320.806 108.945 320.022 107.923 320.022 106.523C320.022 105.109 320.806 104.087 322.066 104.087C322.836 104.087 323.592 104.535 323.942 105.081V107.965ZM333.352 109.897L330.412 106.201L333.324 103.135H331.742L328.48 106.565V100.559H327.22V109.897H328.48V108.021L329.502 106.985L331.756 109.897H333.352Z" fill="#707070"/>
<path d="M352.421 140.133C353.233 140.903 354.059 141.141 355.193 141.141C356.859 141.141 358.553 140.455 358.553 138.131V131.635H357.293V132.615C356.747 131.887 355.949 131.467 355.067 131.467C353.317 131.467 352.057 132.783 352.057 134.953C352.057 137.165 353.317 138.453 355.067 138.453C355.977 138.453 356.775 137.963 357.293 137.291V138.173C357.293 139.601 356.243 140.105 355.193 140.105C354.269 140.105 353.583 139.853 353.023 139.209L352.421 140.133ZM357.293 136.325C356.943 136.871 356.173 137.333 355.417 137.333C354.157 137.333 353.373 136.353 353.373 134.953C353.373 133.567 354.157 132.587 355.417 132.587C356.173 132.587 356.943 133.035 357.293 133.581V136.325ZM361.817 138.397V129.059H360.557V138.397H361.817ZM365.084 137.417C365.63 138.159 366.414 138.565 367.296 138.565C369.06 138.565 370.306 137.221 370.306 135.009C370.306 132.797 369.06 131.467 367.296 131.467C366.386 131.467 365.574 131.929 365.084 132.601V131.635H363.824V140.973H365.084V137.417ZM368.99 135.009C368.99 136.423 368.22 137.445 366.96 137.445C366.19 137.445 365.42 136.983 365.084 136.451V133.581C365.42 133.035 366.19 132.587 366.96 132.587C368.22 132.587 368.99 133.609 368.99 135.009ZM374.07 138.397V130.291H376.954V129.059H369.772V130.291H372.67V138.397H374.07Z" fill="#707070"/>
<path d="M374.036 175.302C374.848 176.072 375.674 176.31 376.808 176.31C378.474 176.31 380.168 175.624 380.168 173.3V166.804H378.908V167.784C378.362 167.056 377.564 166.636 376.682 166.636C374.932 166.636 373.672 167.952 373.672 170.122C373.672 172.334 374.932 173.622 376.682 173.622C377.592 173.622 378.39 173.132 378.908 172.46V173.342C378.908 174.77 377.858 175.274 376.808 175.274C375.884 175.274 375.198 175.022 374.638 174.378L374.036 175.302ZM378.908 171.494C378.558 172.04 377.788 172.502 377.032 172.502C375.772 172.502 374.988 171.522 374.988 170.122C374.988 168.736 375.772 167.756 377.032 167.756C377.788 167.756 378.558 168.204 378.908 168.75V171.494ZM383.432 173.566V164.228H382.172V173.566H383.432ZM386.7 172.586C387.246 173.328 388.03 173.734 388.912 173.734C390.676 173.734 391.922 172.39 391.922 170.178C391.922 167.966 390.676 166.636 388.912 166.636C388.002 166.636 387.19 167.098 386.7 167.77V166.804H385.44V176.142H386.7V172.586ZM390.606 170.178C390.606 171.592 389.836 172.614 388.576 172.614C387.806 172.614 387.036 172.152 386.7 171.62V168.75C387.036 168.204 387.806 167.756 388.576 167.756C389.836 167.756 390.606 168.778 390.606 170.178ZM394.948 173.566V169.422H399.722V168.19H394.948V165.46H399.82V164.228H393.548V173.566H394.948Z" fill="#707070"/>
<path d="M353.206 314.045C353.752 314.787 354.535 315.193 355.418 315.193C357.182 315.193 358.428 313.849 358.428 311.637C358.428 309.425 357.182 308.095 355.418 308.095C354.508 308.095 353.696 308.557 353.206 309.229V308.263H351.946V317.601H353.206V314.045ZM357.112 311.637C357.112 313.051 356.342 314.073 355.082 314.073C354.312 314.073 353.542 313.611 353.206 313.079V310.209C353.542 309.663 354.312 309.215 355.082 309.215C356.342 309.215 357.112 310.237 357.112 311.637ZM365.458 315.025V310.461C365.458 308.739 364.212 308.095 362.742 308.095C361.65 308.095 360.726 308.459 359.97 309.201L360.516 310.069C361.118 309.467 361.776 309.173 362.546 309.173C363.512 309.173 364.198 309.677 364.198 310.517V311.637C363.68 311.035 362.896 310.741 361.986 310.741C360.852 310.741 359.634 311.413 359.634 312.953C359.634 314.437 360.866 315.193 361.986 315.193C362.896 315.193 363.666 314.871 364.198 314.283V315.025H365.458ZM364.198 313.541C363.82 314.045 363.162 314.311 362.462 314.311C361.552 314.311 360.908 313.765 360.908 312.967C360.908 312.169 361.552 311.623 362.462 311.623C363.162 311.623 363.82 311.889 364.198 312.393V313.541ZM373.301 315.025V310.279C373.301 308.851 372.559 308.095 371.131 308.095C370.081 308.095 369.185 308.669 368.737 309.215V308.263H367.477V315.025H368.737V310.195C369.101 309.691 369.815 309.215 370.599 309.215C371.467 309.215 372.041 309.579 372.041 310.699V315.025H373.301ZM379.721 315.193C381.555 315.193 382.689 314.311 383.431 313.219L382.241 312.589C381.751 313.373 380.827 313.947 379.721 313.947C377.831 313.947 376.375 312.449 376.375 310.363C376.375 308.263 377.831 306.779 379.721 306.779C380.827 306.779 381.751 307.353 382.241 308.137L383.431 307.507C382.703 306.415 381.555 305.533 379.721 305.533C377.061 305.533 374.933 307.493 374.933 310.363C374.933 313.233 377.061 315.193 379.721 315.193Z" fill="#707070"/>
<path d="M108.525 284.618C109.071 285.36 109.855 285.766 110.737 285.766C112.501 285.766 113.747 284.422 113.747 282.21C113.747 279.998 112.501 278.668 110.737 278.668C109.827 278.668 109.015 279.13 108.525 279.802V278.836H107.265V288.174H108.525V284.618ZM112.431 282.21C112.431 283.624 111.661 284.646 110.401 284.646C109.631 284.646 108.861 284.184 108.525 283.652V280.782C108.861 280.236 109.631 279.788 110.401 279.788C111.661 279.788 112.431 280.81 112.431 282.21ZM115.009 288.244C115.205 288.3 115.583 288.342 115.793 288.342C116.773 288.328 117.515 287.95 117.949 286.886L121.281 278.836H119.923L117.809 284.142L115.695 278.836H114.351L117.137 285.668L116.745 286.564C116.535 287.068 116.227 287.222 115.765 287.222C115.597 287.222 115.359 287.18 115.205 287.11L115.009 288.244ZM121.884 282.21C121.884 284.24 123.284 285.766 125.328 285.766C126.602 285.766 127.372 285.234 127.862 284.576L127.022 283.806C126.616 284.366 126.07 284.646 125.384 284.646C124.054 284.646 123.2 283.61 123.2 282.21C123.2 280.81 124.054 279.788 125.384 279.788C126.07 279.788 126.616 280.054 127.022 280.628L127.862 279.858C127.372 279.2 126.602 278.668 125.328 278.668C123.284 278.668 121.884 280.18 121.884 282.21ZM137.481 285.598L133.771 276.26H132.021L128.311 285.598H129.851L130.607 283.666H135.185L135.941 285.598H137.481ZM134.779 282.42H131.013L132.889 277.478L134.779 282.42Z" fill="#707070"/>
<path d="M200.251 207.375V194.035H197.391V199.275H191.091V194.035H188.251V207.375H191.091V201.775H197.391V207.375H200.251ZM207.3 207.615C210.5 207.615 212.42 205.295 212.42 202.535C212.42 199.795 210.5 197.475 207.3 197.475C204.12 197.475 202.2 199.795 202.2 202.535C202.2 205.295 204.12 207.615 207.3 207.615ZM207.3 205.355C205.72 205.355 204.84 204.055 204.84 202.535C204.84 201.035 205.72 199.735 207.3 199.735C208.88 199.735 209.78 201.035 209.78 202.535C209.78 204.055 208.88 205.355 207.3 205.355ZM223.364 207.375V197.715H220.824V204.255C220.384 204.815 219.604 205.355 218.624 205.355C217.544 205.355 216.844 204.915 216.844 203.575V197.715H214.304V204.575C214.304 206.455 215.304 207.615 217.424 207.615C219.004 207.615 220.164 206.895 220.824 206.155V207.375H223.364ZM225.046 206.115C226.066 207.055 227.686 207.615 229.366 207.615C232.046 207.615 233.546 206.295 233.546 204.515C233.546 202.115 231.326 201.675 229.666 201.355C228.586 201.135 227.826 200.915 227.826 200.315C227.826 199.755 228.426 199.415 229.346 199.415C230.526 199.415 231.626 199.915 232.206 200.535L233.206 198.795C232.266 198.035 230.966 197.475 229.326 197.475C226.786 197.475 225.366 198.895 225.366 200.515C225.366 202.815 227.506 203.215 229.166 203.535C230.266 203.755 231.106 203.995 231.106 204.675C231.106 205.275 230.586 205.655 229.486 205.655C228.286 205.655 226.846 204.995 226.146 204.335L225.046 206.115ZM234.798 202.535C234.798 205.635 237.018 207.615 239.958 207.615C241.458 207.615 242.958 207.175 243.938 206.275L242.818 204.635C242.198 205.235 241.138 205.595 240.238 205.595C238.598 205.595 237.618 204.575 237.458 203.355H244.638V202.795C244.638 199.635 242.678 197.475 239.798 197.475C236.858 197.475 234.798 199.735 234.798 202.535ZM239.798 199.495C241.478 199.495 242.118 200.715 242.178 201.635H237.418C237.538 200.675 238.218 199.495 239.798 199.495ZM261.03 207.375L257.09 202.095L260.91 197.715H257.79L254.13 202.015V194.035H251.59V207.375H254.13V204.895L255.29 203.655L257.85 207.375H261.03ZM261.243 202.535C261.243 205.635 263.463 207.615 266.403 207.615C267.903 207.615 269.403 207.175 270.383 206.275L269.263 204.635C268.643 205.235 267.583 205.595 266.683 205.595C265.043 205.595 264.063 204.575 263.903 203.355H271.083V202.795C271.083 199.635 269.123 197.475 266.243 197.475C263.303 197.475 261.243 199.735 261.243 202.535ZM266.243 199.495C267.923 199.495 268.563 200.715 268.623 201.635H263.863C263.983 200.675 264.663 199.495 266.243 199.495ZM272.298 202.535C272.298 205.635 274.518 207.615 277.458 207.615C278.958 207.615 280.458 207.175 281.438 206.275L280.318 204.635C279.698 205.235 278.638 205.595 277.738 205.595C276.098 205.595 275.118 204.575 274.958 203.355H282.138V202.795C282.138 199.635 280.178 197.475 277.298 197.475C274.358 197.475 272.298 199.735 272.298 202.535ZM277.298 199.495C278.978 199.495 279.618 200.715 279.678 201.635H274.918C275.038 200.675 275.718 199.495 277.298 199.495ZM286.512 206.135C287.292 207.135 288.352 207.615 289.492 207.615C291.972 207.615 293.772 205.755 293.772 202.535C293.772 199.315 291.972 197.475 289.492 197.475C288.312 197.475 287.252 197.995 286.512 198.935V197.715H283.972V211.055H286.512V206.135ZM291.132 202.535C291.132 204.215 290.152 205.355 288.692 205.355C287.872 205.355 286.932 204.855 286.512 204.255V200.835C286.932 200.215 287.872 199.735 288.692 199.735C290.152 199.735 291.132 200.875 291.132 202.535ZM296.932 196.295C297.772 196.295 298.452 195.615 298.452 194.775C298.452 193.935 297.772 193.255 296.932 193.255C296.112 193.255 295.412 193.935 295.412 194.775C295.412 195.615 296.112 196.295 296.932 196.295ZM298.212 207.375V197.715H295.672V207.375H298.212ZM309.79 207.375V200.555C309.79 198.675 308.77 197.475 306.65 197.475C305.07 197.475 303.89 198.235 303.27 198.975V197.715H300.73V207.375H303.27V200.875C303.69 200.295 304.47 199.735 305.47 199.735C306.55 199.735 307.25 200.195 307.25 201.535V207.375H309.79ZM312.112 209.855C313.312 210.915 314.612 211.295 316.272 211.295C318.652 211.295 321.492 210.395 321.492 206.715V197.715H318.932V198.955C318.152 197.975 317.112 197.475 315.952 197.475C313.512 197.475 311.692 199.235 311.692 202.395C311.692 205.615 313.532 207.315 315.952 207.315C317.132 207.315 318.172 206.755 318.932 205.795V206.775C318.932 208.675 317.492 209.215 316.272 209.215C315.052 209.215 314.032 208.875 313.252 208.015L312.112 209.855ZM318.932 203.955C318.512 204.575 317.592 205.055 316.752 205.055C315.312 205.055 314.312 204.055 314.312 202.395C314.312 200.735 315.312 199.735 316.752 199.735C317.592 199.735 318.512 200.195 318.932 200.835V203.955ZM228.44 233.855C229.64 234.915 230.94 235.295 232.6 235.295C234.98 235.295 237.82 234.395 237.82 230.715V221.715H235.26V222.955C234.48 221.975 233.44 221.475 232.28 221.475C229.84 221.475 228.02 223.235 228.02 226.395C228.02 229.615 229.86 231.315 232.28 231.315C233.46 231.315 234.5 230.755 235.26 229.795V230.775C235.26 232.675 233.82 233.215 232.6 233.215C231.38 233.215 230.36 232.875 229.58 232.015L228.44 233.855ZM235.26 227.955C234.84 228.575 233.92 229.055 233.08 229.055C231.64 229.055 230.64 228.055 230.64 226.395C230.64 224.735 231.64 223.735 233.08 223.735C233.92 223.735 234.84 224.195 235.26 224.835V227.955ZM239.72 226.535C239.72 229.635 241.94 231.615 244.88 231.615C246.38 231.615 247.88 231.175 248.86 230.275L247.74 228.635C247.12 229.235 246.06 229.595 245.16 229.595C243.52 229.595 242.54 228.575 242.38 227.355H249.56V226.795C249.56 223.635 247.6 221.475 244.72 221.475C241.78 221.475 239.72 223.735 239.72 226.535ZM244.72 223.495C246.4 223.495 247.04 224.715 247.1 225.635H242.34C242.46 224.675 243.14 223.495 244.72 223.495ZM260.454 231.375V224.555C260.454 222.675 259.434 221.475 257.314 221.475C255.734 221.475 254.554 222.235 253.934 222.975V221.715H251.394V231.375H253.934V224.875C254.354 224.295 255.134 223.735 256.134 223.735C257.214 223.735 257.914 224.195 257.914 225.535V231.375H260.454ZM262.356 226.535C262.356 229.635 264.576 231.615 267.516 231.615C269.016 231.615 270.516 231.175 271.496 230.275L270.376 228.635C269.756 229.235 268.696 229.595 267.796 229.595C266.156 229.595 265.176 228.575 265.016 227.355H272.196V226.795C272.196 223.635 270.236 221.475 267.356 221.475C264.416 221.475 262.356 223.735 262.356 226.535ZM267.356 223.495C269.036 223.495 269.676 224.715 269.736 225.635H264.976C265.096 224.675 265.776 223.495 267.356 223.495ZM273.191 230.115C274.211 231.055 275.831 231.615 277.511 231.615C280.191 231.615 281.691 230.295 281.691 228.515C281.691 226.115 279.471 225.675 277.811 225.355C276.731 225.135 275.971 224.915 275.971 224.315C275.971 223.755 276.571 223.415 277.491 223.415C278.671 223.415 279.771 223.915 280.351 224.535L281.351 222.795C280.411 222.035 279.111 221.475 277.471 221.475C274.931 221.475 273.511 222.895 273.511 224.515C273.511 226.815 275.651 227.215 277.311 227.535C278.411 227.755 279.251 227.995 279.251 228.675C279.251 229.275 278.731 229.655 277.631 229.655C276.431 229.655 274.991 228.995 274.291 228.335L273.191 230.115ZM199.946 255.375V245.715H197.406V252.255C196.966 252.815 196.186 253.355 195.206 253.355C194.126 253.355 193.426 252.915 193.426 251.575V245.715H190.886V252.575C190.886 254.455 191.886 255.615 194.006 255.615C195.586 255.615 196.746 254.895 197.406 254.155V255.375H199.946ZM201.628 254.115C202.648 255.055 204.268 255.615 205.948 255.615C208.628 255.615 210.128 254.295 210.128 252.515C210.128 250.115 207.908 249.675 206.248 249.355C205.168 249.135 204.408 248.915 204.408 248.315C204.408 247.755 205.008 247.415 205.928 247.415C207.108 247.415 208.208 247.915 208.788 248.535L209.788 246.795C208.848 246.035 207.548 245.475 205.908 245.475C203.368 245.475 201.948 246.895 201.948 248.515C201.948 250.815 204.088 251.215 205.748 251.535C206.848 251.755 207.688 251.995 207.688 252.675C207.688 253.275 207.168 253.655 206.068 253.655C204.868 253.655 203.428 252.995 202.728 252.335L201.628 254.115ZM211.38 250.535C211.38 253.635 213.6 255.615 216.54 255.615C218.04 255.615 219.54 255.175 220.52 254.275L219.4 252.635C218.78 253.235 217.72 253.595 216.82 253.595C215.18 253.595 214.2 252.575 214.04 251.355H221.22V250.795C221.22 247.635 219.26 245.475 216.38 245.475C213.44 245.475 211.38 247.735 211.38 250.535ZM216.38 247.495C218.06 247.495 218.7 248.715 218.76 249.635H214C214.12 248.675 214.8 247.495 216.38 247.495ZM232.254 255.375V242.035H229.694V246.955C228.934 245.975 227.854 245.475 226.714 245.475C224.254 245.475 222.434 247.395 222.434 250.555C222.434 253.775 224.274 255.615 226.714 255.615C227.874 255.615 228.934 255.095 229.694 254.155V255.375H232.254ZM229.694 252.255C229.254 252.895 228.354 253.355 227.494 253.355C226.054 253.355 225.054 252.215 225.054 250.555C225.054 248.875 226.054 247.735 227.494 247.735C228.354 247.735 229.254 248.195 229.694 248.835V252.255ZM244.97 247.935V245.715H243.01V245.235C243.01 244.315 243.49 243.835 244.21 243.835C244.51 243.835 244.81 243.895 245.03 244.035L245.55 242.235C245.09 241.995 244.43 241.835 243.71 241.835C241.81 241.835 240.45 243.095 240.45 245.195V245.715H238.85V247.935H240.45V255.375H243.01V247.935H244.97ZM250.913 255.615C254.113 255.615 256.033 253.295 256.033 250.535C256.033 247.795 254.113 245.475 250.913 245.475C247.733 245.475 245.813 247.795 245.813 250.535C245.813 253.295 247.733 255.615 250.913 255.615ZM250.913 253.355C249.333 253.355 248.453 252.055 248.453 250.535C248.453 249.035 249.333 247.735 250.913 247.735C252.493 247.735 253.393 249.035 253.393 250.535C253.393 252.055 252.493 253.355 250.913 253.355ZM260.458 255.375V248.995C260.878 248.375 261.998 247.915 262.838 247.915C263.118 247.915 263.358 247.935 263.538 247.975V245.495C262.338 245.495 261.138 246.175 260.458 247.035V245.715H257.918V255.375H260.458ZM284.762 255.375V242.035H280.762L277.522 250.355L274.282 242.035H270.302V255.375H273.142V245.775L276.902 255.375H278.142L281.902 245.775V255.375H284.762ZM295.891 255.375V252.875H290.251V242.035H287.411V255.375H295.891ZM296.96 253.495C298.22 254.755 300.06 255.615 302.62 255.615C306.22 255.615 307.96 253.775 307.96 251.335C307.96 248.375 305.16 247.715 302.96 247.215C301.42 246.855 300.3 246.575 300.3 245.675C300.3 244.875 300.98 244.315 302.26 244.315C303.56 244.315 305 244.775 306.08 245.775L307.66 243.695C306.34 242.475 304.58 241.835 302.46 241.835C299.32 241.835 297.4 243.635 297.4 245.855C297.4 248.835 300.2 249.435 302.38 249.935C303.92 250.295 305.08 250.635 305.08 251.635C305.08 252.395 304.32 253.135 302.76 253.135C300.92 253.135 299.46 252.315 298.52 251.335L296.96 253.495ZM315.676 255.375V244.535H319.556V242.035H308.916V244.535H312.816V255.375H315.676Z" fill="black"/>
<circle cx="311.667" cy="120.147" r="4" fill="#F31C67"/>
<circle cx="343.65" cy="145.579" r="4" fill="#EE752C"/>
<circle cx="364.748" cy="177.008" r="4" fill="#FBD615"/>
<circle cx="346.469" cy="300.852" r="4" fill="#01BDB9"/>
<circle cx="147.798" cy="276.598" r="4" fill="#2E87EF"/>
<circle cx="153.476" cy="162.732" r="4" fill="#492EEF"/>
<circle cx="191.169" cy="123.793" r="4" fill="#B12EEF"/>
<circle cx="254.8" cy="105.125" r="4" fill="#C9C9C9"/>
<circle cx="373.447" cy="224.375" r="4.5" fill="white" stroke="black" stroke-width="5"/>
<rect x="0.5" y="0.5" width="1243" height="499" stroke="#E9E9E9"/>
</svg>
