<svg width="1130" height="305" viewBox="0 0 1130 305" fill="none" xmlns="http://www.w3.org/2000/svg">
<path d="M39.8062 297.326H42.6662V286.486H46.5462V283.986H35.9062V286.486H39.8062V297.326ZM55.9068 297.326H59.1668L56.1668 292.246C57.6068 291.906 59.0868 290.646 59.0868 288.286C59.0868 285.806 57.3868 283.986 54.6068 283.986H48.3668V297.326H51.2068V292.546H53.2868L55.9068 297.326ZM56.1868 288.266C56.1868 289.386 55.3268 290.106 54.1868 290.106H51.2068V286.426H54.1868C55.3268 286.426 56.1868 287.146 56.1868 288.266ZM70.5584 297.326H73.6584L68.5184 283.986H64.9584L59.7984 297.326H62.9184L63.7584 295.026H69.7184L70.5584 297.326ZM66.7384 286.446L68.9384 292.566H64.5184L66.7384 286.446ZM74.8902 297.326H80.1502C84.3302 297.326 87.2302 294.686 87.2302 290.666C87.2302 286.646 84.3302 283.986 80.1502 283.986H74.8902V297.326ZM77.7302 294.826V286.486H80.1502C82.8902 286.486 84.3302 288.306 84.3302 290.666C84.3302 292.926 82.7902 294.826 80.1502 294.826H77.7302ZM89.2457 297.326H92.0857V283.986H89.2457V297.326ZM97.814 297.326H100.674V286.486H104.554V283.986H93.914V286.486H97.814V297.326ZM106.375 297.326H109.215V283.986H106.375V297.326ZM111.223 290.666C111.223 294.686 114.163 297.566 118.183 297.566C122.223 297.566 125.163 294.686 125.163 290.666C125.163 286.646 122.223 283.766 118.183 283.766C114.163 283.766 111.223 286.646 111.223 290.666ZM122.243 290.666C122.243 293.146 120.643 295.046 118.183 295.046C115.723 295.046 114.143 293.146 114.143 290.666C114.143 288.166 115.723 286.286 118.183 286.286C120.643 286.286 122.243 288.166 122.243 290.666ZM136.356 297.326H139.096V283.986H136.256V292.626L130.076 283.986H127.156V297.326H129.996V288.366L136.356 297.326ZM151.066 297.326H154.166L149.026 283.986H145.466L140.306 297.326H143.426L144.266 295.026H150.226L151.066 297.326ZM147.246 286.446L149.446 292.566H145.026L147.246 286.446ZM155.398 297.326H163.878V294.826H158.238V283.986H155.398V297.326ZM174.724 297.326H178.284L183.424 283.986H180.184L176.504 294.246L172.804 283.986H169.564L174.724 297.326ZM184.656 297.326H187.496V283.986H184.656V297.326ZM190.144 297.326H199.584V294.866H192.984V291.766H199.444V289.326H192.984V286.426H199.584V283.986H190.144V297.326ZM212.004 297.326H215.024L218.824 283.986H215.624L213.304 293.626L210.784 283.986H208.564L206.024 293.626L203.684 283.986H200.504L204.324 297.326H207.344L209.664 288.166L212.004 297.326Z" fill="black"/>
<path d="M687.533 297.326H697.573V294.826H692.013C695.593 292.306 697.473 290.326 697.473 288.046C697.473 285.386 695.213 283.786 692.373 283.786C690.513 283.786 688.533 284.466 687.233 285.966L688.853 287.846C689.753 286.906 690.913 286.306 692.413 286.306C693.533 286.306 694.593 286.886 694.593 288.046C694.593 289.686 692.993 291.066 687.533 295.086V297.326ZM699.265 290.666C699.265 294.106 700.965 297.566 704.785 297.566C708.585 297.566 710.305 294.106 710.305 290.666C710.305 287.226 708.585 283.786 704.785 283.786C700.965 283.786 699.265 287.226 699.265 290.666ZM707.405 290.666C707.405 293.126 706.685 295.046 704.785 295.046C702.865 295.046 702.145 293.126 702.145 290.666C702.145 288.206 702.865 286.306 704.785 286.306C706.685 286.306 707.405 288.206 707.405 290.666ZM711.668 290.666C711.668 294.106 713.368 297.566 717.188 297.566C720.988 297.566 722.708 294.106 722.708 290.666C722.708 287.226 720.988 283.786 717.188 283.786C713.368 283.786 711.668 287.226 711.668 290.666ZM719.808 290.666C719.808 293.126 719.088 295.046 717.188 295.046C715.268 295.046 714.548 293.126 714.548 290.666C714.548 288.206 715.268 286.306 717.188 286.306C719.088 286.306 719.808 288.206 719.808 290.666ZM730.27 297.326H733.11V294.566H734.83V292.066H733.11V283.986H729.19L723.89 292.326V294.566H730.27V297.326ZM730.27 286.506V292.066H726.67L730.27 286.506Z" fill="black"/>
<path d="M979.332 297.326H989.372V294.826H983.812C987.392 292.306 989.272 290.326 989.272 288.046C989.272 285.386 987.012 283.786 984.172 283.786C982.312 283.786 980.332 284.466 979.032 285.966L980.652 287.846C981.552 286.906 982.712 286.306 984.212 286.306C985.332 286.306 986.392 286.886 986.392 288.046C986.392 289.686 984.792 291.066 979.332 295.086V297.326ZM991.064 290.666C991.064 294.106 992.764 297.566 996.584 297.566C1000.38 297.566 1002.1 294.106 1002.1 290.666C1002.1 287.226 1000.38 283.786 996.584 283.786C992.764 283.786 991.064 287.226 991.064 290.666ZM999.204 290.666C999.204 293.126 998.484 295.046 996.584 295.046C994.664 295.046 993.944 293.126 993.944 290.666C993.944 288.206 994.664 286.306 996.584 286.306C998.484 286.306 999.204 288.206 999.204 290.666ZM1003.47 290.666C1003.47 294.106 1005.17 297.566 1008.99 297.566C1012.79 297.566 1014.51 294.106 1014.51 290.666C1014.51 287.226 1012.79 283.786 1008.99 283.786C1005.17 283.786 1003.47 287.226 1003.47 290.666ZM1011.61 290.666C1011.61 293.126 1010.89 295.046 1008.99 295.046C1007.07 295.046 1006.35 293.126 1006.35 290.666C1006.35 288.206 1007.07 286.306 1008.99 286.306C1010.89 286.306 1011.61 288.206 1011.61 290.666ZM1016.53 296.166C1017.47 297.006 1018.83 297.546 1020.45 297.546C1024.39 297.546 1026.65 294.686 1026.65 290.666C1026.65 286.886 1024.95 283.766 1020.91 283.766C1017.87 283.766 1015.79 285.746 1015.79 288.346C1015.79 291.186 1017.95 292.666 1020.35 292.666C1021.81 292.666 1023.15 291.846 1023.79 290.946V291.226C1023.79 293.246 1022.59 295.066 1020.45 295.066C1019.27 295.066 1018.51 294.706 1017.79 294.046L1016.53 296.166ZM1023.77 289.026C1023.13 289.806 1022.15 290.266 1021.15 290.266C1019.87 290.266 1018.69 289.646 1018.69 288.226C1018.69 287.286 1019.51 286.226 1021.03 286.226C1022.93 286.226 1023.65 287.746 1023.77 289.026Z" fill="black"/>
<path d="M401.392 297.326H404.232V283.986H401.752L397.552 288.206L399.172 289.906L401.392 287.646V297.326ZM406.895 296.166C407.835 297.006 409.195 297.546 410.815 297.546C414.755 297.546 417.015 294.686 417.015 290.666C417.015 286.886 415.315 283.766 411.275 283.766C408.235 283.766 406.155 285.746 406.155 288.346C406.155 291.186 408.315 292.666 410.715 292.666C412.175 292.666 413.515 291.846 414.155 290.946V291.226C414.155 293.246 412.955 295.066 410.815 295.066C409.635 295.066 408.875 294.706 408.155 294.046L406.895 296.166ZM414.135 289.026C413.495 289.806 412.515 290.266 411.515 290.266C410.235 290.266 409.055 289.646 409.055 288.226C409.055 287.286 409.875 286.226 411.395 286.226C413.295 286.226 414.015 287.746 414.135 289.026ZM418.423 293.866C418.423 296.366 420.983 297.566 423.783 297.566C426.583 297.566 429.143 296.346 429.143 293.866C429.143 292.246 427.863 291.006 426.263 290.446C427.743 289.926 428.923 288.966 428.923 287.306C428.923 284.806 426.243 283.786 423.783 283.786C421.303 283.786 418.643 284.806 418.643 287.306C418.643 288.966 419.803 289.926 421.283 290.446C419.683 291.006 418.423 292.246 418.423 293.866ZM426.023 287.746C426.023 288.786 424.603 289.246 423.783 289.366C422.963 289.246 421.523 288.786 421.523 287.746C421.523 286.806 422.463 286.226 423.783 286.226C425.083 286.226 426.023 286.806 426.023 287.746ZM426.263 293.526C426.263 294.506 425.143 295.126 423.783 295.126C422.383 295.126 421.303 294.506 421.303 293.526C421.303 292.366 422.943 291.806 423.783 291.706C424.603 291.806 426.263 292.366 426.263 293.526ZM432.272 297.326H435.392L440.352 285.966V283.986H430.332V286.486H437.052L432.272 297.326Z" fill="black"/>
<path d="M1002.87 2.41383C1033.31 2.41383 1062.73 13.332 1085.8 33.1843C1108.87 53.0366 1124.05 80.5055 1128.58 110.6C1133.11 140.694 1126.7 171.416 1110.51 197.183C1094.31 222.951 1069.41 242.054 1040.33 251.021L1002.87 129.539L1002.87 2.41383Z" fill="url(#paint0_radial)"/>
<path d="M1002.87 2.41383C1033.31 2.41383 1062.73 13.332 1085.8 33.1843C1108.87 53.0366 1124.05 80.5055 1128.58 110.6C1133.11 140.694 1126.7 171.416 1110.51 197.183C1094.31 222.951 1069.41 242.054 1040.33 251.021L1002.87 129.539L1002.87 2.41383Z" fill="url(#paint1_radial)" fill-opacity="0.52"/>
<path d="M1002.87 2.41383C1033.31 2.41383 1062.73 13.332 1085.8 33.1843C1108.87 53.0366 1124.05 80.5055 1128.58 110.6C1133.11 140.694 1126.7 171.416 1110.51 197.183C1094.31 222.951 1069.41 242.054 1040.33 251.021L1002.87 129.539L1002.87 2.41383Z" fill="#E9E9E9" fill-opacity="0.2"/>
<path d="M1037.99 240.901C1008.53 250.188 976.597 247.428 949.172 233.224C921.748 219.019 901.068 194.529 891.659 165.112L1002.87 129.539L1037.99 240.901Z" fill="url(#paint2_radial)"/>
<path d="M1037.99 240.901C1008.53 250.188 976.597 247.428 949.172 233.224C921.748 219.019 901.068 194.529 891.659 165.112L1002.87 129.539L1037.99 240.901Z" fill="url(#paint3_radial)" fill-opacity="0.4"/>
<path d="M904.228 161.135C899.436 146.174 898.109 130.319 900.349 114.77C902.589 99.2207 908.337 84.3846 917.156 71.3843L1002.87 129.539L904.228 161.135Z" fill="url(#paint4_linear)"/>
<path d="M922.877 75.5558C928.569 67.1201 935.56 59.6379 943.59 53.3865L1002.87 129.538L922.877 75.5558Z" fill="url(#paint5_linear)"/>
<path d="M922.877 75.5558C928.569 67.1201 935.56 59.6379 943.59 53.3865L1002.87 129.538L922.877 75.5558Z" fill="url(#paint6_linear)"/>
<path d="M949.187 60.5682C955.935 55.3156 963.418 51.0817 971.395 48.0018L1002.87 129.54L949.187 60.5682Z" fill="url(#paint7_linear)"/>
<path d="M973.587 53.8268C976.661 52.6376 979.805 51.6368 983 50.8298L1002.87 129.538L973.587 53.8268Z" fill="#066185"/>
<path d="M984.053 55.2666C986.862 54.5549 989.708 54.003 992.579 53.6137L1002.87 129.539L984.053 55.2666Z" fill="#10546F"/>
<path d="M993.081 57.5311C994.359 57.3573 995.641 57.2176 996.926 57.112L1002.87 129.54L993.081 57.5311Z" fill="#06394D"/>
<path d="M997.052 61.5214C998.259 61.4181 999.469 61.3469 1000.68 61.3079L1002.87 129.539L997.052 61.5214Z" fill="#012837"/>
<path d="M1000.69 69.222C1001.39 69.1964 1002.1 69.1832 1002.8 69.1824L1002.87 129.539L1000.69 69.222Z" fill="#222222"/>
<path d="M1031.93 126.467C1031.93 128.629 1033.19 130.132 1035.88 130.132C1038.54 130.132 1039.79 128.643 1039.79 126.454V121.181H1037.89V126.401C1037.89 127.627 1037.22 128.471 1035.88 128.471C1034.51 128.471 1033.83 127.627 1033.83 126.401V121.181H1031.93V126.467ZM1047.59 129.974H1049.4V121.181H1047.52V126.876L1043.45 121.181H1041.53V129.974H1043.4V124.068L1047.59 129.974ZM1056.35 129.974H1058.66L1054.93 125.307L1058.42 121.181H1056.11L1053 125.109V121.181H1051.13V129.974H1053V127.272L1053.69 126.454L1056.35 129.974ZM1065.58 129.974H1067.38V121.181H1065.51V126.876L1061.44 121.181H1059.51V129.974H1061.38V124.068L1065.58 129.974ZM1068.69 125.584C1068.69 128.234 1070.63 130.132 1073.28 130.132C1075.94 130.132 1077.88 128.234 1077.88 125.584C1077.88 122.934 1075.94 121.036 1073.28 121.036C1070.63 121.036 1068.69 122.934 1068.69 125.584ZM1075.96 125.584C1075.96 127.219 1074.9 128.471 1073.28 128.471C1071.66 128.471 1070.62 127.219 1070.62 125.584C1070.62 123.936 1071.66 122.697 1073.28 122.697C1074.9 122.697 1075.96 123.936 1075.96 125.584ZM1085.66 129.974H1087.65L1090.16 121.181H1088.05L1086.52 127.535L1084.86 121.181H1083.39L1081.72 127.535L1080.18 121.181H1078.08L1080.6 129.974H1082.59L1084.12 123.936L1085.66 129.974ZM1097.11 129.974H1098.91V121.181H1097.04V126.876L1092.97 121.181H1091.04V129.974H1092.91V124.068L1097.11 129.974Z" fill="#707070"/>
<path d="M961.679 195.233H963.986L960.255 190.566L963.749 186.44H961.442L958.331 190.369V186.44H956.458V195.233H958.331V192.531L959.016 191.713L961.679 195.233ZM969.81 195.233H971.959L969.981 191.885C970.93 191.66 971.906 190.83 971.906 189.274C971.906 187.64 970.785 186.44 968.953 186.44H964.84V195.233H966.712V192.082H968.083L969.81 195.233ZM969.994 189.261C969.994 189.999 969.427 190.474 968.676 190.474H966.712V188.048H968.676C969.427 188.048 969.994 188.523 969.994 189.261ZM979.468 195.233H981.511L978.123 186.44H975.776L972.375 195.233H974.432L974.985 193.717H978.914L979.468 195.233ZM976.95 188.061L978.4 192.096H975.486L976.95 188.061ZM981.626 193.994C982.457 194.824 983.67 195.391 985.357 195.391C987.73 195.391 988.877 194.178 988.877 192.57C988.877 190.619 987.032 190.184 985.581 189.854C984.566 189.617 983.828 189.432 983.828 188.839C983.828 188.312 984.276 187.943 985.12 187.943C985.977 187.943 986.926 188.246 987.638 188.905L988.68 187.534C987.809 186.73 986.649 186.308 985.252 186.308C983.182 186.308 981.917 187.495 981.917 188.958C981.917 190.922 983.762 191.318 985.199 191.647C986.214 191.885 986.979 192.109 986.979 192.768C986.979 193.269 986.478 193.757 985.45 193.757C984.237 193.757 983.274 193.216 982.655 192.57L981.626 193.994Z" fill="white"/>
<path d="M924.414 127.68H930.636V126.059H926.286V124.015H930.544V122.407H926.286V120.495H930.636V118.887H924.414V127.68ZM931.678 123.29C931.678 126.059 933.787 127.851 936.358 127.851C937.953 127.851 939.205 127.192 940.102 126.19V122.829H935.91V124.437H938.256V125.505C937.874 125.848 937.162 126.177 936.358 126.177C934.763 126.177 933.603 124.951 933.603 123.29C933.603 121.629 934.763 120.403 936.358 120.403C937.281 120.403 938.032 120.891 938.441 121.51L939.996 120.667C939.324 119.625 938.177 118.742 936.358 118.742C933.787 118.742 931.678 120.508 931.678 123.29ZM941.588 127.68H943.46V124.015H947.718V122.407H943.46V120.495H947.811V118.887H941.588V127.68ZM954.09 127.68H956.239L954.261 124.331C955.21 124.107 956.186 123.277 956.186 121.721C956.186 120.086 955.065 118.887 953.233 118.887H949.12V127.68H950.992V124.529H952.363L954.09 127.68ZM954.274 121.708C954.274 122.446 953.707 122.921 952.956 122.921H950.992V120.495H952.956C953.707 120.495 954.274 120.97 954.274 121.708Z" fill="white"/>
<path d="M901.825 20.3786L901.825 37.022L939.099 71.1583" stroke="#C9C9C9" stroke-width="0.941667"/>
<path d="M964.42 20.3794L964.42 61.922" stroke="#C9C9C9" stroke-width="0.941667"/>
<circle cx="939.652" cy="71.1584" r="2.35333" transform="rotate(90 939.652 71.1584)" fill="#C9C9C9" stroke="#C9C9C9" stroke-width="0.941667"/>
<circle cx="964.42" cy="61.4807" r="2.35333" transform="rotate(90 964.42 61.4807)" fill="#C9C9C9" stroke="#C9C9C9" stroke-width="0.941667"/>
<path d="M871.235 13H877.457V11.3784H873.107V9.33503H877.365V7.72667H873.107V5.81508H877.457V4.20672H871.235V13ZM886.567 13H888.452V4.20672H885.816L883.68 9.69098L881.544 4.20672H878.921V13H880.793V6.672L883.271 13H884.089L886.567 6.672V13ZM890.199 13H895.789V11.3521H892.071V4.20672H890.199V13ZM900.764 13H902.636V11.1807H903.77V9.53278H902.636V4.20672H900.052L896.559 9.70417V11.1807H900.764V13ZM900.764 5.86782V9.53278H898.391L900.764 5.86782ZM904.491 10.5215H907.655V9.09773H904.491V10.5215ZM915.075 13H917.118L913.73 4.20672H911.383L907.982 13H910.039L910.592 11.4839H914.521L915.075 13ZM912.557 5.82827L914.007 9.86237H911.093L912.557 5.82827ZM917.93 13H923.52V11.3521H919.802V4.20672H917.93V13ZM930.051 13H932.358L928.628 8.3331L932.121 4.20672H929.814L926.703 8.13535V4.20672H924.831V13H926.703V10.2974L927.388 9.48005L930.051 13Z" fill="#707070"/>
<path d="M954.463 13H956.348V4.20672H954.463V7.66075H950.31V4.20672H948.438V13H950.31V9.30867H954.463V13ZM958.081 13H964.303V11.3784H959.953V9.33503H964.211V7.72667H959.953V5.81508H964.303V4.20672H958.081V13ZM970.737 13H972.886L970.908 9.65143C971.857 9.42732 972.833 8.59677 972.833 7.04113C972.833 5.4064 971.712 4.20672 969.88 4.20672H965.767V13H967.639V9.84918H969.01L970.737 13ZM970.921 7.02795C970.921 7.76622 970.354 8.24082 969.603 8.24082H967.639V5.81508H969.603C970.354 5.81508 970.921 6.28968 970.921 7.02795ZM973.988 13H980.606V11.3521H976.941C979.3 9.69098 980.54 8.38583 980.54 6.88293C980.54 5.12955 979.05 4.07488 977.178 4.07488C975.952 4.07488 974.647 4.52312 973.79 5.51187L974.858 6.7511C975.451 6.13148 976.215 5.73598 977.204 5.73598C977.943 5.73598 978.641 6.1183 978.641 6.88293C978.641 7.96397 977.587 8.87362 973.988 11.5235V13Z" fill="#707070"/>
<path d="M710.958 2.4148C730.327 2.4148 749.439 6.84034 766.836 15.3535C784.233 23.8667 799.454 36.2425 811.339 51.536C823.223 66.8294 831.456 84.6362 835.408 103.597C839.361 122.557 838.929 142.17 834.145 160.939C829.361 179.707 820.352 197.134 807.806 211.889C795.259 226.644 779.508 238.337 761.753 246.076C743.998 253.815 724.709 257.394 705.36 256.541C686.01 255.688 667.112 250.425 650.107 241.154L710.958 129.54L710.958 2.4148Z" fill="#E9E9E9"/>
<path d="M710.958 2.4148C730.327 2.4148 749.439 6.84034 766.836 15.3535C784.233 23.8667 799.454 36.2425 811.339 51.536C823.223 66.8294 831.456 84.6362 835.408 103.597C839.361 122.557 838.929 142.17 834.145 160.939C829.361 179.707 820.352 197.134 807.806 211.889C795.259 226.644 779.508 238.337 761.753 246.076C743.998 253.815 724.709 257.394 705.36 256.541C686.01 255.688 667.112 250.425 650.107 241.154L710.958 129.54L710.958 2.4148Z" fill="url(#paint8_radial)"/>
<path d="M710.958 2.4148C730.327 2.4148 749.439 6.84034 766.836 15.3535C784.233 23.8667 799.454 36.2425 811.339 51.536C823.223 66.8294 831.456 84.6362 835.408 103.597C839.361 122.557 838.929 142.17 834.145 160.939C829.361 179.707 820.352 197.134 807.806 211.889C795.259 226.644 779.508 238.337 761.753 246.076C743.998 253.815 724.709 257.394 705.36 256.541C686.01 255.688 667.112 250.425 650.107 241.154L710.958 129.54L710.958 2.4148Z" fill="url(#paint9_radial)" fill-opacity="0.8"/>
<path d="M710.958 2.4148C730.327 2.4148 749.439 6.84034 766.836 15.3535C784.233 23.8667 799.454 36.2425 811.339 51.536C823.223 66.8294 831.456 84.6362 835.408 103.597C839.361 122.557 838.929 142.17 834.145 160.939C829.361 179.707 820.352 197.134 807.806 211.889C795.259 226.644 779.508 238.337 761.753 246.076C743.998 253.815 724.709 257.394 705.36 256.541C686.01 255.688 667.112 250.425 650.107 241.154L710.958 129.54L710.958 2.4148Z" fill="#E9E9E9" fill-opacity="0.1"/>
<path d="M710.958 2.4148C730.327 2.4148 749.439 6.84034 766.836 15.3535C784.233 23.8667 799.454 36.2425 811.339 51.536C823.223 66.8294 831.456 84.6362 835.408 103.597C839.361 122.557 838.929 142.17 834.145 160.939C829.361 179.707 820.352 197.134 807.806 211.889C795.259 226.644 779.508 238.337 761.753 246.076C743.998 253.815 724.709 257.394 705.36 256.541C686.01 255.688 667.112 250.425 650.107 241.154L710.958 129.54L710.958 2.4148Z" fill="url(#paint10_radial)" fill-opacity="0.6"/>
<path d="M655.228 232.149C640.983 224.412 628.506 213.794 618.589 200.97C608.673 188.147 601.535 173.4 597.63 157.667C593.725 141.934 593.139 125.56 595.909 109.589C598.679 93.6167 604.744 78.3965 613.718 64.897L710.959 129.54L655.228 232.149Z" fill="url(#paint11_radial)"/>
<path d="M655.228 232.149C640.983 224.412 628.506 213.794 618.589 200.97C608.673 188.147 601.535 173.4 597.63 157.667C593.725 141.934 593.139 125.56 595.909 109.589C598.679 93.6167 604.744 78.3965 613.718 64.897L710.959 129.54L655.228 232.149Z" fill="url(#paint12_radial)" fill-opacity="0.5"/>
<path d="M710.959 25.9565C693.842 25.9565 676.991 30.1984 661.915 38.3028C646.838 46.4072 634.005 58.1216 624.562 72.3985L710.959 129.54L710.959 25.9565Z" fill="url(#paint13_radial)"/>
<path d="M735.59 146.037C735.59 148.199 736.842 149.702 739.532 149.702C742.195 149.702 743.447 148.212 743.447 146.024V140.751H741.549V145.971C741.549 147.197 740.876 148.041 739.532 148.041C738.161 148.041 737.488 147.197 737.488 145.971V140.751H735.59V146.037ZM751.246 149.544H753.052V140.751H751.18V146.446L747.106 140.751H745.181V149.544H747.053V143.638L751.246 149.544ZM760.006 149.544H762.313L758.582 144.877L762.076 140.751H759.769L756.658 144.679V140.751H754.785V149.544H756.658V146.841L757.343 146.024L760.006 149.544ZM769.231 149.544H771.037V140.751H769.165V146.446L765.091 140.751H763.167V149.544H765.039V143.638L769.231 149.544ZM772.349 145.154C772.349 147.804 774.287 149.702 776.937 149.702C779.6 149.702 781.538 147.804 781.538 145.154C781.538 142.504 779.6 140.606 776.937 140.606C774.287 140.606 772.349 142.504 772.349 145.154ZM779.613 145.154C779.613 146.789 778.558 148.041 776.937 148.041C775.315 148.041 774.274 146.789 774.274 145.154C774.274 143.506 775.315 142.267 776.937 142.267C778.558 142.267 779.613 143.506 779.613 145.154ZM789.318 149.544H791.308L793.813 140.751H791.704L790.175 147.105L788.513 140.751H787.05L785.376 147.105L783.833 140.751H781.737L784.255 149.544H786.246L787.775 143.506L789.318 149.544ZM800.76 149.544H802.566V140.751H800.694V146.446L796.621 140.751H794.696V149.544H796.568V143.638L800.76 149.544Z" fill="#707070"/>
<path d="M638.951 149.75H641.258L637.527 145.083L641.02 140.957H638.713L635.602 144.885V140.957H633.73V149.75H635.602V147.047L636.288 146.23L638.951 149.75ZM647.081 149.75H649.23L647.253 146.401C648.202 146.177 649.177 145.347 649.177 143.791C649.177 142.156 648.057 140.957 646.224 140.957H642.111V149.75H643.983V146.599H645.354L647.081 149.75ZM647.266 143.778C647.266 144.516 646.699 144.991 645.948 144.991H643.983V142.565H645.948C646.699 142.565 647.266 143.04 647.266 143.778ZM656.739 149.75H658.783L655.394 140.957H653.048L649.646 149.75H651.703L652.257 148.234H656.185L656.739 149.75ZM654.221 142.578L655.671 146.612H652.758L654.221 142.578ZM658.898 148.511C659.729 149.341 660.941 149.908 662.629 149.908C665.002 149.908 666.149 148.695 666.149 147.087C666.149 145.136 664.303 144.701 662.853 144.371C661.838 144.134 661.1 143.949 661.1 143.356C661.1 142.829 661.548 142.46 662.392 142.46C663.248 142.46 664.198 142.763 664.91 143.422L665.951 142.051C665.081 141.247 663.921 140.825 662.523 140.825C660.454 140.825 659.188 142.011 659.188 143.475C659.188 145.439 661.034 145.835 662.471 146.164C663.486 146.401 664.25 146.626 664.25 147.285C664.25 147.786 663.749 148.273 662.721 148.273C661.508 148.273 660.546 147.733 659.926 147.087L658.898 148.511Z" fill="white"/>
<path d="M664.313 80.1838H670.536V78.5623H666.185V76.5189H670.443V74.9105H666.185V72.9989H670.536V71.3906H664.313V80.1838ZM671.577 75.7938C671.577 78.5623 673.686 80.3552 676.257 80.3552C677.852 80.3552 679.105 79.6961 680.001 78.6941V75.3324H675.809V76.9407H678.156V78.0086C677.773 78.3514 677.061 78.6809 676.257 78.6809C674.662 78.6809 673.502 77.4549 673.502 75.7938C673.502 74.1327 674.662 72.9066 676.257 72.9066C677.18 72.9066 677.932 73.3944 678.34 74.014L679.896 73.1703C679.223 72.1288 678.077 71.2455 676.257 71.2455C673.686 71.2455 671.577 73.0121 671.577 75.7938ZM681.487 80.1838H683.359V76.5189H687.618V74.9105H683.359V72.9989H687.71V71.3906H681.487V80.1838ZM693.989 80.1838H696.138L694.16 76.8353C695.11 76.6112 696.085 75.7806 696.085 74.225C696.085 72.5902 694.965 71.3906 693.132 71.3906H689.019V80.1838H690.891V77.033H692.262L693.989 80.1838ZM694.174 74.2118C694.174 74.9501 693.607 75.4247 692.855 75.4247H690.891V72.9989H692.855C693.607 72.9989 694.174 73.4735 694.174 74.2118Z" fill="white"/>
<path d="M419.041 2.4148C443.31 2.4148 467.072 9.36164 487.519 22.4345C507.966 35.5073 524.244 54.1599 534.429 76.1881C544.615 98.2164 548.281 122.7 544.997 146.745C541.712 170.791 531.613 193.394 515.893 211.884C500.173 230.373 479.489 243.977 456.285 251.087C433.081 258.197 408.327 258.516 384.947 252.007C361.567 245.499 340.539 232.433 324.347 214.356C308.155 196.278 297.476 173.943 293.572 149.99L419.041 129.54L419.041 2.4148Z" fill="#E9E9E9"/>
<path d="M419.041 2.4148C443.314 2.4148 467.079 9.36353 487.528 22.4397C507.976 35.516 524.254 54.173 534.438 76.2059C544.621 98.2387 548.283 122.726 544.993 146.774C541.702 170.823 531.596 193.426 515.868 211.913C500.14 230.401 479.448 243.999 456.238 251.101C433.028 258.203 408.27 258.512 384.89 251.992C361.51 245.471 340.486 232.394 324.301 214.305C308.117 196.216 297.45 173.871 293.56 149.913L419.041 129.54L419.041 2.4148Z" fill="url(#paint14_radial)"/>
<path d="M419.041 2.4148C443.314 2.4148 467.079 9.36353 487.528 22.4397C507.976 35.516 524.254 54.173 534.438 76.2059C544.621 98.2387 548.283 122.726 544.993 146.774C541.702 170.823 531.596 193.426 515.868 211.913C500.14 230.401 479.448 243.999 456.238 251.101C433.028 258.203 408.27 258.512 384.89 251.992C361.51 245.471 340.486 232.394 324.301 214.305C308.117 196.216 297.45 173.871 293.56 149.913L419.041 129.54L419.041 2.4148Z" fill="url(#paint15_radial)" fill-opacity="0.8"/>
<path d="M419.041 2.4148C443.314 2.4148 467.079 9.36353 487.528 22.4397C507.976 35.516 524.254 54.173 534.438 76.2059C544.621 98.2387 548.283 122.726 544.993 146.774C541.702 170.823 531.596 193.426 515.868 211.913C500.14 230.401 479.448 243.999 456.238 251.101C433.028 258.203 408.27 258.512 384.89 251.992C361.51 245.471 340.486 232.394 324.301 214.305C308.117 196.216 297.45 173.871 293.56 149.913L419.041 129.54L419.041 2.4148Z" fill="#E9E9E9" fill-opacity="0.1"/>
<path d="M419.041 2.4148C443.314 2.4148 467.079 9.36353 487.528 22.4397C507.976 35.516 524.254 54.173 534.438 76.2059C544.621 98.2387 548.283 122.726 544.993 146.774C541.702 170.823 531.596 193.426 515.868 211.913C500.14 230.401 479.448 243.999 456.238 251.101C433.028 258.203 408.27 258.512 384.89 251.992C361.51 245.471 340.486 232.394 324.301 214.305C308.117 196.216 297.45 173.871 293.56 149.913L419.041 129.54L419.041 2.4148Z" fill="url(#paint16_radial)" fill-opacity="0.5"/>
<path d="M303.82 148.47C301.075 131.763 301.996 114.658 306.52 98.3417C311.044 82.0255 319.062 66.8884 330.019 53.9796C340.975 41.0708 354.608 30.6993 369.972 23.584C385.336 16.4687 402.064 12.7798 418.996 12.7732L419.042 129.54L303.82 148.47Z" fill="url(#paint17_linear)"/>
<path d="M424.84 162.987C424.84 165.149 426.092 166.652 428.782 166.652C431.445 166.652 432.697 165.163 432.697 162.974V157.701H430.799V162.921C430.799 164.148 430.126 164.991 428.782 164.991C427.411 164.991 426.738 164.148 426.738 162.921V157.701H424.84V162.987ZM440.496 166.494H442.302V157.701H440.43V163.396L436.356 157.701H434.431V166.494H436.303V160.588L440.496 166.494ZM449.256 166.494H451.563L447.832 161.827L451.326 157.701H449.019L445.908 161.629V157.701H444.035V166.494H445.908V163.792L446.593 162.974L449.256 166.494ZM458.481 166.494H460.287V157.701H458.415V163.396L454.341 157.701H452.417V166.494H454.289V160.588L458.481 166.494ZM461.599 162.104C461.599 164.754 463.537 166.652 466.187 166.652C468.85 166.652 470.788 164.754 470.788 162.104C470.788 159.454 468.85 157.556 466.187 157.556C463.537 157.556 461.599 159.454 461.599 162.104ZM468.863 162.104C468.863 163.739 467.808 164.991 466.187 164.991C464.565 164.991 463.524 163.739 463.524 162.104C463.524 160.456 464.565 159.217 466.187 159.217C467.808 159.217 468.863 160.456 468.863 162.104ZM478.568 166.494H480.558L483.063 157.701H480.954L479.425 164.055L477.763 157.701H476.3L474.626 164.055L473.083 157.701H470.987L473.505 166.494H475.496L477.025 160.456L478.568 166.494ZM490.01 166.494H491.816V157.701H489.944V163.396L485.871 157.701H483.946V166.494H485.818V160.588L490.01 166.494Z" fill="#707070"/>
<path d="M358.547 94.2505H360.854L357.123 89.5836L360.617 85.4572H358.309L355.198 89.3858V85.4572H353.326V94.2505H355.198V91.5479L355.884 90.7305L358.547 94.2505ZM366.677 94.2505H368.826L366.849 90.9019C367.798 90.6778 368.774 89.8473 368.774 88.2916C368.774 86.6569 367.653 85.4572 365.821 85.4572H361.707V94.2505H363.579V91.0997H364.95L366.677 94.2505ZM366.862 88.2784C366.862 89.0167 366.295 89.4913 365.544 89.4913H363.579V87.0656H365.544C366.295 87.0656 366.862 87.5402 366.862 88.2784ZM376.335 94.2505H378.379L374.991 85.4572H372.644L369.243 94.2505H371.299L371.853 92.7344H375.782L376.335 94.2505ZM373.817 87.0788L375.267 91.1129H372.354L373.817 87.0788ZM378.494 93.0113C379.325 93.8418 380.538 94.4087 382.225 94.4087C384.598 94.4087 385.745 93.1958 385.745 91.5875C385.745 89.6363 383.899 89.2013 382.449 88.8717C381.434 88.6344 380.696 88.4498 380.696 87.8566C380.696 87.3292 381.144 86.9601 381.988 86.9601C382.845 86.9601 383.794 87.2633 384.506 87.9225L385.547 86.5514C384.677 85.7472 383.517 85.3254 382.12 85.3254C380.05 85.3254 378.784 86.5119 378.784 87.9752C378.784 89.9395 380.63 90.335 382.067 90.6646C383.082 90.9019 383.847 91.126 383.847 91.7852C383.847 92.2862 383.346 92.774 382.317 92.774C381.104 92.774 380.142 92.2334 379.522 91.5875L378.494 93.0113Z" fill="white"/>
<path d="M127.125 2.47572C160.841 2.47572 193.175 15.8692 217.016 39.7098C240.856 63.5503 254.25 95.8851 254.25 129.601C254.25 163.316 240.857 195.651 217.016 219.492C193.175 243.332 160.841 256.726 127.125 256.726L127.125 129.601L127.125 2.47572Z" fill="url(#paint18_radial)"/>
<path d="M127.125 2.47572C160.841 2.47572 193.175 15.8692 217.016 39.7098C240.856 63.5503 254.25 95.8851 254.25 129.601C254.25 163.316 240.857 195.651 217.016 219.492C193.175 243.332 160.841 256.726 127.125 256.726L127.125 129.601L127.125 2.47572Z" fill="url(#paint19_radial)" fill-opacity="0.2"/>
<path d="M127.125 246.307C108.144 246.307 89.4484 241.679 72.6585 232.825C55.8685 223.971 41.4902 211.157 30.7688 195.494C20.0475 179.83 13.3062 161.789 11.129 142.933C8.95186 124.077 11.4044 104.974 18.2741 87.2796L127.125 129.54L127.125 246.307Z" fill="url(#paint20_radial)"/>
<path d="M127.125 246.307C108.144 246.307 89.4484 241.679 72.6585 232.825C55.8685 223.971 41.4902 211.157 30.7688 195.494C20.0475 179.83 13.3062 161.789 11.129 142.933C8.95186 124.077 11.4044 104.974 18.2741 87.2796L127.125 129.54L127.125 246.307Z" fill="url(#paint21_radial)" fill-opacity="0.3"/>
<path d="M127.125 25.9566C106.232 25.9566 85.828 32.2746 68.5909 44.0809C51.3538 55.8873 38.0898 72.6302 30.5405 92.1113L127.125 129.54L127.125 25.9566Z" fill="url(#paint22_linear)"/>
<path d="M148.47 133.597H150.513L147.125 124.803H144.778L141.377 133.597H143.434L143.987 132.08H147.916L148.47 133.597ZM145.952 126.425L147.402 130.459H144.488L145.952 126.425ZM151.325 133.597H154.792C157.548 133.597 159.459 131.856 159.459 129.207C159.459 126.557 157.548 124.803 154.792 124.803H151.325V133.597ZM153.197 131.949V126.451H154.792C156.599 126.451 157.548 127.651 157.548 129.207C157.548 130.696 156.533 131.949 154.792 131.949H153.197ZM160.788 133.597H167.01V131.975H162.66V129.932H166.918V128.323H162.66V126.412H167.01V124.803H160.788V133.597ZM174.538 133.597H176.344V124.803H174.472V130.498L170.399 124.803H168.474V133.597H170.346V127.69L174.538 133.597ZM177.656 129.207C177.656 131.856 179.594 133.755 182.244 133.755C184.907 133.755 186.845 131.856 186.845 129.207C186.845 126.557 184.907 124.658 182.244 124.658C179.594 124.658 177.656 126.557 177.656 129.207ZM184.92 129.207C184.92 130.841 183.866 132.094 182.244 132.094C180.623 132.094 179.581 130.841 179.581 129.207C179.581 127.559 180.623 126.319 182.244 126.319C183.866 126.319 184.92 127.559 184.92 129.207ZM192.351 133.755C194.355 133.755 195.462 132.687 196.095 131.593L194.487 130.815C194.118 131.54 193.327 132.094 192.351 132.094C190.822 132.094 189.662 130.868 189.662 129.207C189.662 127.545 190.822 126.319 192.351 126.319C193.327 126.319 194.118 126.886 194.487 127.598L196.095 126.807C195.476 125.713 194.355 124.658 192.351 124.658C189.78 124.658 187.737 126.504 187.737 129.207C187.737 131.909 189.78 133.755 192.351 133.755ZM197.209 133.597H199.081V124.803H197.209V133.597ZM206.891 133.597H208.698V124.803H206.826V130.498L202.752 124.803H200.827V133.597H202.699V127.69L206.891 133.597ZM210.01 129.207C210.01 131.856 211.947 133.755 214.597 133.755C217.26 133.755 219.198 131.856 219.198 129.207C219.198 126.557 217.26 124.658 214.597 124.658C211.947 124.658 210.01 126.557 210.01 129.207ZM217.274 129.207C217.274 130.841 216.219 132.094 214.597 132.094C212.976 132.094 211.934 130.841 211.934 129.207C211.934 127.559 212.976 126.319 214.597 126.319C216.219 126.319 217.274 127.559 217.274 129.207ZM228.158 133.597H230.044V124.803H227.407L225.271 130.288L223.135 124.803H220.512V133.597H222.384V127.269L224.863 133.597H225.68L228.158 127.269V133.597ZM237.947 133.597H239.99L236.602 124.803H234.255L230.854 133.597H232.911L233.464 132.08H237.393L237.947 133.597ZM235.429 126.425L236.879 130.459H233.965L235.429 126.425Z" fill="white"/>
<path d="M39.0162 167.351C39.8468 168.182 41.0596 168.749 42.7471 168.749C45.1201 168.749 46.2671 167.536 46.2671 165.928C46.2671 163.977 44.4214 163.541 42.9712 163.212C41.9561 162.975 41.2178 162.79 41.2178 162.197C41.2178 161.669 41.6661 161.3 42.5098 161.3C43.3667 161.3 44.3159 161.604 45.0278 162.263L46.0693 160.892C45.1992 160.087 44.0391 159.666 42.6416 159.666C40.5719 159.666 39.3063 160.852 39.3063 162.315C39.3063 164.28 41.1519 164.675 42.5889 165.005C43.604 165.242 44.3687 165.466 44.3687 166.125C44.3687 166.626 43.8677 167.114 42.8394 167.114C41.6265 167.114 40.6641 166.574 40.0445 165.928L39.0162 167.351ZM56.2944 164.201C56.2944 161.551 54.3565 159.652 51.6934 159.652C49.0436 159.652 47.1056 161.551 47.1056 164.201C47.1056 166.85 49.0436 168.749 51.6934 168.749C52.4581 168.749 53.17 168.591 53.7896 168.301L54.4883 169.131L55.7935 168.063L55.1475 167.312C55.8726 166.521 56.2944 165.44 56.2944 164.201ZM51.6934 167.088C50.0719 167.088 49.0304 165.835 49.0304 164.201C49.0304 162.553 50.0719 161.313 51.6934 161.313C53.315 161.313 54.3697 162.553 54.3697 164.201C54.3697 164.833 54.2115 165.414 53.9214 165.875L52.9195 164.702L51.6143 165.756L52.6163 166.93C52.3394 167.035 52.023 167.088 51.6934 167.088ZM57.6081 165.084C57.6081 167.246 58.8605 168.749 61.5499 168.749C64.213 168.749 65.4654 167.259 65.4654 165.071V159.797H63.567V165.018C63.567 166.244 62.8946 167.088 61.5499 167.088C60.1789 167.088 59.5065 166.244 59.5065 165.018V159.797H57.6081V165.084ZM72.9184 168.591H74.9618L71.5737 159.797H69.2271L65.8258 168.591H67.8824L68.4361 167.075H72.3647L72.9184 168.591ZM70.4004 161.419L71.8505 165.453H68.937L70.4004 161.419ZM83.4202 168.591H85.3054V159.797H82.6687L80.533 165.282L78.3973 159.797H75.7738V168.591H77.6459V162.263L80.1243 168.591H80.9417L83.4202 162.263V168.591ZM86.6299 164.201C86.6299 166.85 88.5678 168.749 91.2177 168.749C93.8807 168.749 95.8187 166.85 95.8187 164.201C95.8187 161.551 93.8807 159.652 91.2177 159.652C88.5678 159.652 86.6299 161.551 86.6299 164.201ZM93.8939 164.201C93.8939 165.835 92.8392 167.088 91.2177 167.088C89.5961 167.088 88.5547 165.835 88.5547 164.201C88.5547 162.553 89.5961 161.313 91.2177 161.313C92.8392 161.313 93.8939 162.553 93.8939 164.201ZM97.1324 165.084C97.1324 167.246 98.3848 168.749 101.074 168.749C103.737 168.749 104.99 167.259 104.99 165.071V159.797H103.091V165.018C103.091 166.244 102.419 167.088 101.074 167.088C99.7031 167.088 99.0308 166.244 99.0308 165.018V159.797H97.1324V165.084ZM106.117 167.351C106.948 168.182 108.161 168.749 109.848 168.749C112.221 168.749 113.368 167.536 113.368 165.928C113.368 163.977 111.523 163.541 110.072 163.212C109.057 162.975 108.319 162.79 108.319 162.197C108.319 161.669 108.767 161.3 109.611 161.3C110.468 161.3 111.417 161.604 112.129 162.263L113.17 160.892C112.3 160.087 111.14 159.666 109.743 159.666C107.673 159.666 106.407 160.852 106.407 162.315C106.407 164.28 108.253 164.675 109.69 165.005C110.705 165.242 111.47 165.466 111.47 166.125C111.47 166.626 110.969 167.114 109.941 167.114C108.728 167.114 107.765 166.574 107.146 165.928L106.117 167.351Z" fill="white"/>
<path d="M72.7329 80.7788H78.3226V79.1309H74.6049V71.9855H72.7329V80.7788ZM85.7902 80.7788H87.8336L84.4455 71.9855H82.0988L78.6975 80.7788H80.7541L81.3078 79.2627H85.2365L85.7902 80.7788ZM83.2721 73.6071L84.7223 77.6412H81.8088L83.2721 73.6071ZM93.6157 80.7788H95.7646L93.7871 77.4302C94.7363 77.2061 95.7118 76.3756 95.7118 74.8199C95.7118 73.1852 94.5913 71.9855 92.7588 71.9855H88.6456V80.7788H90.5176V77.628H91.8887L93.6157 80.7788ZM93.8003 74.8068C93.8003 75.545 93.2334 76.0196 92.4819 76.0196H90.5176V73.5939H92.4819C93.2334 73.5939 93.8003 74.0685 93.8003 74.8068ZM96.695 76.3888C96.695 79.1573 98.8044 80.9502 101.375 80.9502C102.97 80.9502 104.223 80.291 105.119 79.2891V75.9273H100.927V77.5357H103.274V78.6036C102.891 78.9463 102.179 79.2759 101.375 79.2759C99.7799 79.2759 98.6198 78.0499 98.6198 76.3888C98.6198 74.7277 99.7799 73.5016 101.375 73.5016C102.298 73.5016 103.049 73.9894 103.458 74.609L105.014 73.7653C104.341 72.7238 103.194 71.8405 101.375 71.8405C98.8044 71.8405 96.695 73.6071 96.695 76.3888ZM106.605 80.7788H112.828V79.1573H108.477V77.1138H112.736V75.5055H108.477V73.5939H112.828V71.9855H106.605V80.7788ZM113.817 78.3003H116.981V76.8765H113.817V78.3003ZM84.4116 97.937C86.4155 97.937 87.5229 96.8692 88.1557 95.7749L86.5473 94.9971C86.1782 95.7222 85.3872 96.2759 84.4116 96.2759C82.8824 96.2759 81.7222 95.0499 81.7222 93.3888C81.7222 91.7277 82.8824 90.5016 84.4116 90.5016C85.3872 90.5016 86.1782 91.0685 86.5473 91.7804L88.1557 90.9894C87.5361 89.8952 86.4155 88.8405 84.4116 88.8405C81.8409 88.8405 79.7975 90.6862 79.7975 93.3888C79.7975 96.0913 81.8409 97.937 84.4116 97.937ZM89.27 97.7788H95.4925V96.1573H91.142V94.1138H95.4002V92.5055H91.142V90.5939H95.4925V88.9855H89.27V97.7788ZM96.956 97.7788H102.546V96.1309H98.828V88.9855H96.956V97.7788ZM103.857 97.7788H109.446V96.1309H105.729V88.9855H103.857V97.7788Z" fill="white"/>
<defs>
<radialGradient id="paint0_radial" cx="0" cy="0" r="1" gradientUnits="userSpaceOnUse" gradientTransform="translate(1002.87 192.395) rotate(-34.086) scale(126.92 99.1164)">
<stop stop-color="#2E87EF"/>
<stop offset="1" stop-color="#E9E9E9"/>
</radialGradient>
<radialGradient id="paint1_radial" cx="0" cy="0" r="1" gradientUnits="userSpaceOnUse" gradientTransform="translate(978.411 118.203) rotate(-44.1264) scale(166.306 175.281)">
<stop stop-color="#01BDB9"/>
<stop offset="1" stop-color="#E9E9E9" stop-opacity="0"/>
</radialGradient>
<radialGradient id="paint2_radial" cx="0" cy="0" r="1" gradientUnits="userSpaceOnUse" gradientTransform="translate(964.548 124.233) rotate(90.0764) scale(97.7895)">
<stop stop-color="#01BDB9"/>
<stop offset="1" stop-color="#2E87EF"/>
</radialGradient>
<radialGradient id="paint3_radial" cx="0" cy="0" r="1" gradientUnits="userSpaceOnUse" gradientTransform="translate(920.213 155.267) rotate(44.1186) scale(40.759 25.5991)">
<stop stop-color="#01BDB9"/>
<stop offset="1" stop-color="#01BDB9" stop-opacity="0"/>
</radialGradient>
<linearGradient id="paint4_linear" x1="984.055" y1="94.972" x2="946.814" y2="137.533" gradientUnits="userSpaceOnUse">
<stop stop-color="#1F8FAE"/>
<stop offset="1" stop-color="#01BDB9"/>
</linearGradient>
<linearGradient id="paint5_linear" x1="909.631" y1="63.8478" x2="1002.87" y2="129.538" gradientUnits="userSpaceOnUse">
<stop stop-color="#01BDB9"/>
<stop offset="1" stop-color="#0179BD"/>
</linearGradient>
<linearGradient id="paint6_linear" x1="937.184" y1="103.606" x2="1005.89" y2="55.0569" gradientUnits="userSpaceOnUse">
<stop stop-color="#169EB2"/>
<stop offset="1" stop-color="#3A64A3"/>
</linearGradient>
<linearGradient id="paint7_linear" x1="915.471" y1="-126.911" x2="1013.53" y2="120.957" gradientUnits="userSpaceOnUse">
<stop stop-color="#3A64A3"/>
<stop offset="1" stop-color="#0C7E9D"/>
</linearGradient>
<radialGradient id="paint8_radial" cx="0" cy="0" r="1" gradientUnits="userSpaceOnUse" gradientTransform="translate(689.726 133.618) rotate(49.2612) scale(162.397 163.702)">
<stop offset="0.0520121" stop-color="#2E87EF"/>
<stop offset="1" stop-color="#E9E9E9" stop-opacity="0"/>
</radialGradient>
<radialGradient id="paint9_radial" cx="0" cy="0" r="1" gradientUnits="userSpaceOnUse" gradientTransform="translate(670.197 68.3343) rotate(28.2665) scale(150.55 89.4174)">
<stop stop-color="#01BDB9"/>
<stop offset="1" stop-color="#E9E9E9" stop-opacity="0"/>
</radialGradient>
<radialGradient id="paint10_radial" cx="0" cy="0" r="1" gradientUnits="userSpaceOnUse" gradientTransform="translate(658.83 186.928) rotate(26.8033) scale(130.314 126.34)">
<stop stop-color="#2E87EF"/>
<stop offset="1" stop-color="#E9E9E9" stop-opacity="0"/>
</radialGradient>
<radialGradient id="paint11_radial" cx="0" cy="0" r="1" gradientUnits="userSpaceOnUse" gradientTransform="translate(705.691 96.1457) rotate(136.469) scale(88.5092 96.6489)">
<stop stop-color="#01BDB9"/>
<stop offset="1" stop-color="#2E87EF"/>
</radialGradient>
<radialGradient id="paint12_radial" cx="0" cy="0" r="1" gradientUnits="userSpaceOnUse" gradientTransform="translate(641.522 80.1034) rotate(93.6522) scale(75.5521 37.4184)">
<stop stop-color="#01BDB9"/>
<stop offset="1" stop-color="#01BDB9" stop-opacity="0"/>
</radialGradient>
<radialGradient id="paint13_radial" cx="0" cy="0" r="1" gradientUnits="userSpaceOnUse" gradientTransform="translate(742.588 47.2167) rotate(131.403) scale(99.4524 78.2076)">
<stop stop-color="#009F9C"/>
<stop offset="1" stop-color="#01BDB9"/>
</radialGradient>
<radialGradient id="paint14_radial" cx="0" cy="0" r="1" gradientUnits="userSpaceOnUse" gradientTransform="translate(381.497 129.54) rotate(87.2516) scale(127.271 161.584)">
<stop stop-color="#2E87EF"/>
<stop offset="0.567708" stop-color="#90BAEC" stop-opacity="0.6"/>
<stop offset="1" stop-color="#E9E9E9" stop-opacity="0"/>
</radialGradient>
<radialGradient id="paint15_radial" cx="0" cy="0" r="1" gradientUnits="userSpaceOnUse" gradientTransform="translate(393.656 65.4875) rotate(31.6432) scale(153.301 114.703)">
<stop stop-color="#01BDB9"/>
<stop offset="1" stop-color="#E9E9E9" stop-opacity="0"/>
</radialGradient>
<radialGradient id="paint16_radial" cx="0" cy="0" r="1" gradientUnits="userSpaceOnUse" gradientTransform="translate(329.789 119.214) rotate(83.5892) scale(112.95 109.051)">
<stop stop-color="#2E87EF"/>
<stop offset="1" stop-color="#E9E9E9" stop-opacity="0"/>
</radialGradient>
<linearGradient id="paint17_linear" x1="450.855" y1="105.243" x2="355.117" y2="153.113" gradientUnits="userSpaceOnUse">
<stop stop-color="#01BDB9"/>
<stop offset="1" stop-color="#2E87EF"/>
</linearGradient>
<radialGradient id="paint18_radial" cx="0" cy="0" r="1" gradientUnits="userSpaceOnUse" gradientTransform="translate(107.426 207.697) rotate(-41.6335) scale(102.053 90.047)">
<stop stop-color="#01BDB9"/>
<stop offset="1" stop-color="#2E87EF"/>
</radialGradient>
<radialGradient id="paint19_radial" cx="0" cy="0" r="1" gradientUnits="userSpaceOnUse" gradientTransform="translate(110.251 59.8549) rotate(44.5489) scale(84.5667 89.7713)">
<stop stop-color="#044999"/>
<stop offset="1" stop-color="#2E87EF" stop-opacity="0"/>
</radialGradient>
<radialGradient id="paint20_radial" cx="0" cy="0" r="1" gradientUnits="userSpaceOnUse" gradientTransform="translate(121.696 63.7228) rotate(25.3558) scale(101.876 113.542)">
<stop stop-color="#007E8F"/>
<stop offset="1" stop-color="#01BDB9"/>
</radialGradient>
<radialGradient id="paint21_radial" cx="0" cy="0" r="1" gradientUnits="userSpaceOnUse" gradientTransform="translate(72.5845 88.9857) rotate(91.4144) scale(76.2982 78.3057)">
<stop stop-color="#0F6988"/>
<stop offset="1" stop-color="#01BDB9" stop-opacity="0"/>
</radialGradient>
<linearGradient id="paint22_linear" x1="139.367" y1="58.3834" x2="62.1502" y2="158.2" gradientUnits="userSpaceOnUse">
<stop stop-color="#034660"/>
<stop offset="1" stop-color="#01BDB9"/>
</linearGradient>
</defs>
</svg>
