<svg width="1245" height="272" viewBox="0 0 1245 272" fill="none" xmlns="http://www.w3.org/2000/svg">
<path d="M137 129.001L131 129.001L131 141.001L137 141.001L137 129.001ZM137 141.001L1114 141.001L1114 129.001L137 129.001L137 141.001Z" fill="#F3F3F3"/>
<path d="M224 135L208 124V146L224 135Z" fill="#F3F3F3"/>
<path d="M438 135L422 124V146L438 135Z" fill="#F3F3F3"/>
<path d="M652 135L636 124V146L652 135Z" fill="#F3F3F3"/>
<path d="M866 135L850 124V146L866 135Z" fill="#F3F3F3"/>
<path d="M1080 135L1064 124V146L1080 135Z" fill="#F3F3F3"/>
<path d="M389 32C389 22.0589 373.217 14 363 14L25.5 14C15.5589 14 1 21.8411 1 31.5135" stroke="#D9D9D9" stroke-width="2" stroke-linecap="round" stroke-dasharray="0.1 4"/>
<rect x="146" width="98" height="28" rx="14" fill="#F3F3F3"/>
<path d="M160.859 14.338C160.859 17.152 162.917 19.168 165.731 19.168C168.559 19.168 170.617 17.152 170.617 14.338C170.617 11.524 168.559 9.508 165.731 9.508C162.917 9.508 160.859 11.524 160.859 14.338ZM168.573 14.338C168.573 16.074 167.453 17.404 165.731 17.404C164.009 17.404 162.903 16.074 162.903 14.338C162.903 12.588 164.009 11.272 165.731 11.272C167.453 11.272 168.573 12.588 168.573 14.338ZM172.012 19H174V15.654H176.38C178.396 15.654 179.516 14.296 179.516 12.672C179.516 11.034 178.41 9.662 176.38 9.662H172.012V19ZM177.486 12.658C177.486 13.442 176.898 13.946 176.114 13.946H174V11.37H176.114C176.898 11.37 177.486 11.888 177.486 12.658ZM182.904 19H184.906V11.412H187.622V9.662H180.174V11.412H182.904V19ZM188.897 19H190.885V9.662H188.897V19ZM192.29 14.338C192.29 17.152 194.348 19.168 197.162 19.168C199.99 19.168 202.048 17.152 202.048 14.338C202.048 11.524 199.99 9.508 197.162 9.508C194.348 9.508 192.29 11.524 192.29 14.338ZM200.004 14.338C200.004 16.074 198.884 17.404 197.162 17.404C195.44 17.404 194.334 16.074 194.334 14.338C194.334 12.588 195.44 11.272 197.162 11.272C198.884 11.272 200.004 12.588 200.004 14.338ZM209.884 19H211.802V9.662H209.814V15.71L205.488 9.662H203.444V19H205.432V12.728L209.884 19ZM220.181 19H222.351L218.753 9.662H216.261L212.649 19H214.833L215.421 17.39H219.593L220.181 19ZM217.507 11.384L219.047 15.668H215.953L217.507 11.384ZM223.213 19H229.149V17.25H225.201V9.662H223.213V19Z" fill="#909090"/>
<path d="M1031 32C1031 22.0589 1015.22 14 1005 14L454.5 14C444.559 14 430 21.8411 430 31.5135" stroke="#D9D9D9" stroke-width="2" stroke-linecap="round" stroke-dasharray="0.1 4"/>
<rect x="655" width="151" height="28" rx="14" fill="#F3F3F3"/>
<path d="M674.392 20.196C676.786 20.196 678.2 18.754 678.2 17.06C678.2 15.562 677.374 14.764 676.114 14.246L674.756 13.672C673.874 13.322 673.146 13.056 673.146 12.314C673.146 11.628 673.72 11.222 674.63 11.222C675.484 11.222 676.17 11.53 676.828 12.076L677.878 10.774C677.038 9.92 675.834 9.444 674.63 9.444C672.53 9.444 671.046 10.746 671.046 12.44C671.046 13.952 672.096 14.792 673.146 15.226L674.532 15.814C675.456 16.206 676.086 16.444 676.086 17.214C676.086 17.942 675.512 18.404 674.434 18.404C673.524 18.404 672.544 17.942 671.802 17.256L670.612 18.684C671.62 19.65 673.006 20.196 674.392 20.196ZM679.285 20H681.147V15.674C681.147 14.694 680.979 13.252 680.881 12.272H680.937L681.763 14.708L683.373 19.062H684.563L686.159 14.708L686.999 12.272H687.069C686.957 13.252 686.803 14.694 686.803 15.674V20H688.693V9.626H686.397L684.675 14.484C684.451 15.128 684.269 15.814 684.045 16.472H683.975C683.765 15.814 683.569 15.128 683.345 14.484L681.581 9.626H679.285V20ZM690.484 20H696.77V18.264H692.556V9.626H690.484V20ZM704.422 9.304H702.56V11.166C702.56 13.616 701.58 16.122 699.396 17.13L700.544 18.614C701.986 17.886 702.952 16.542 703.512 14.89C704.044 16.444 704.982 17.704 706.396 18.39L707.488 16.92C705.36 15.968 704.422 13.602 704.422 11.166V9.304ZM708.552 8.296V12.342H706.074V13.826H708.552V21.232H710.4V8.296H708.552ZM720.54 8.296V21.232H722.388V8.296H720.54ZM712.336 9.332V18.222H718.692V9.332H716.858V12.454H714.17V9.332H712.336ZM714.17 13.896H716.858V16.752H714.17V13.896ZM735.105 14.372C732.193 13.882 730.597 11.88 730.597 9.99V9.066H728.623V9.99C728.623 11.838 727.013 13.882 724.115 14.372L724.899 15.926C727.139 15.492 728.777 14.232 729.603 12.594C730.429 14.232 732.081 15.478 734.321 15.926L735.105 14.372ZM723.835 18.138V19.636H735.511V18.138H723.835ZM743.226 11.096H745.102V9.598H739.362V11.096H741.434V11.726C741.434 13.938 740.762 16.248 738.886 17.438L739.978 18.796C741.14 18.068 741.896 16.808 742.344 15.338C742.764 16.696 743.506 17.802 744.64 18.488L745.718 17.144C743.856 16.052 743.226 13.882 743.226 11.726V11.096ZM745.844 12.706H744.206V14.204H745.844V20.616H747.566V8.52H745.844V12.706ZM748.448 8.296V21.19H750.198V8.296H748.448ZM761.165 13.392C761.529 12.062 761.529 10.97 761.529 9.948V8.884H752.597V10.34H759.681C759.681 11.194 759.639 12.062 759.345 13.21L761.165 13.392ZM757.021 19.818C755.285 19.818 754.291 19.468 754.291 18.782C754.291 18.082 755.285 17.732 757.021 17.732C758.771 17.732 759.765 18.082 759.765 18.782C759.765 19.468 758.771 19.818 757.021 19.818ZM757.021 16.346C754.249 16.346 752.457 17.27 752.457 18.782C752.457 20.28 754.249 21.204 757.021 21.204C759.807 21.204 761.599 20.28 761.599 18.782C761.599 17.27 759.807 16.346 757.021 16.346ZM757.441 14.078V11.824H755.593V14.078H751.295V15.534H762.901V14.078H757.441ZM770.588 17.76H775.544V19.608H770.588V17.76ZM768.768 21.05H777.35V16.304H768.768V21.05ZM771.4 13.77H768.95V12.174H771.4V13.77ZM775.502 8.31V11.348H773.206V9.038H771.4V10.76H768.95V9.052H767.116V15.226H773.206V12.832H775.502V15.772H777.35V8.31H775.502ZM782.885 10.326C783.837 10.326 784.495 10.774 784.495 11.586C784.495 12.37 783.837 12.818 782.885 12.818C781.947 12.818 781.275 12.37 781.275 11.586C781.275 10.774 781.947 10.326 782.885 10.326ZM782.885 14.33C784.831 14.33 786.259 13.182 786.259 11.586C786.259 9.962 784.831 8.828 782.885 8.828C780.939 8.828 779.497 9.962 779.497 11.586C779.497 13.182 780.939 14.33 782.885 14.33ZM786.917 14.652C784.187 15.058 780.995 15.086 778.741 15.086L778.951 16.598C779.861 16.598 780.911 16.584 782.017 16.542V20.812H783.865V16.43C784.915 16.332 785.993 16.206 787.029 15.996L786.917 14.652ZM787.645 8.31V21.19H789.493V8.31H787.645Z" fill="#909090"/>
<circle cx="88" cy="137" r="86.5" fill="white" stroke="#2E87EF"/>
<g clip-path="url(#clip0)">
<path d="M94.5439 120.395L104.605 130.456L77.4069 157.654C74.6286 160.432 70.1241 160.432 67.3458 157.654C64.5676 154.876 64.5676 150.371 67.3458 147.593L94.5439 120.395Z" fill="white" stroke="#2E87EF" stroke-width="2.5"/>
<path d="M76.3148 138.239L96.5227 138.24" stroke="#2E87EF" stroke-width="2.5"/>
<rect x="98.8799" y="113.534" width="17.8002" height="8.73364" rx="1.75" transform="rotate(45 98.8799 113.534)" fill="white" stroke="#2E87EF" stroke-width="2.5"/>
<mask id="path-17-inside-1" fill="white">
<rect x="91.5112" y="130.009" width="10.8243" height="24.5098" rx="2" transform="rotate(45 91.5112 130.009)"/>
</mask>
<rect x="91.5112" y="130.009" width="10.8243" height="24.5098" rx="2" transform="rotate(45 91.5112 130.009)" fill="white" stroke="#2E87EF" stroke-width="5" mask="url(#path-17-inside-1)"/>
</g>
<path d="M59.802 249.488V251.168H64.282C63.946 253.12 62.17 254.72 59.002 255.584L59.834 257.216C64.122 256.032 66.522 253.376 66.522 249.488H59.802ZM63.642 259.136H69.178V261.552H63.642V259.136ZM61.562 263.2H71.258V257.472H61.562V263.2ZM69.146 248.656V252.128H66.602V253.84H69.146V256.864H71.258V248.656H69.146ZM77.4828 252.8H79.7388V251.104H77.4828V249.12H75.4828V251.104H73.1788V252.8H75.4828V253.104C75.4828 255.376 74.7308 257.792 72.6348 259.024L73.8188 260.608C75.1468 259.84 76.0108 258.528 76.5068 256.992C77.0348 258.4 77.8828 259.568 79.1788 260.256L80.3148 258.688C78.2348 257.584 77.4828 255.328 77.4828 253.104V252.8ZM80.5708 254.208H78.8908V255.92H80.5708V262.704H82.5388V248.88H80.5708V254.208ZM83.5468 248.624V263.36H85.5468V248.624H83.5468ZM94.3265 252.832H96.6625V251.12H94.3265V249.12H92.3265V251.12H89.9745V252.832H92.3265V253.072C92.3265 255.344 91.5745 257.76 89.4785 258.976L90.6625 260.56C91.9905 259.808 92.8545 258.512 93.3505 256.976C93.8785 258.368 94.7265 259.536 96.0385 260.224L97.1585 258.656C95.0785 257.552 94.3265 255.296 94.3265 253.072V252.832ZM100.503 248.624V254.272H99.3025V248.864H97.3345V262.704H99.3025V256H100.503V263.36H102.503V248.624H100.503ZM105.095 256.16C106.807 255.808 107.975 254.992 108.631 253.92C109.287 254.88 110.391 255.616 112.039 255.936L112.855 254.304C110.711 253.92 109.703 252.896 109.639 251.728H112.519V250.096H109.639V248.656H107.527V250.096H104.647V251.728H107.527C107.463 252.976 106.455 254.112 104.247 254.528L105.095 256.16ZM113.111 256.352C110.023 256.768 106.455 256.784 103.767 256.784L104.023 258.496C105.079 258.496 106.263 258.496 107.511 258.448V262.928H109.623V258.32C110.823 258.224 112.055 258.08 113.239 257.872L113.111 256.352ZM113.943 248.64V263.36H116.055V248.64H113.943Z" fill="#454545"/>
<circle cx="516" cy="137" r="87" fill="#2E87EF"/>
<path d="M519.761 126.619C519.897 126.853 519.897 127.142 519.761 127.376L520.84 128.006L519.761 127.376L514.351 136.632C514.216 136.862 513.97 137.003 513.703 137.003L502.841 137.003C502.574 137.003 502.328 136.862 502.193 136.632L496.783 127.376C496.647 127.142 496.647 126.853 496.783 126.619L502.193 117.363L501.114 116.732L502.193 117.363C502.328 117.133 502.574 116.991 502.841 116.991L513.703 116.991C513.97 116.991 514.216 117.133 514.351 117.363L519.761 126.619L520.84 125.988L519.761 126.619Z" fill="#2E87EF" stroke="white" stroke-width="2.5" stroke-linejoin="round"/>
<path d="M537.331 136.623C537.468 136.857 537.468 137.146 537.331 137.38L538.41 138.01L537.331 137.38L531.921 146.636C531.787 146.866 531.54 147.007 531.274 147.007L520.411 147.007C520.145 147.007 519.898 146.866 519.764 146.636L514.354 137.38C514.217 137.146 514.217 136.857 514.354 136.623L519.764 127.367L518.684 126.736L519.764 127.367C519.898 127.137 520.145 126.995 520.411 126.995L531.274 126.995C531.54 126.995 531.787 127.137 531.921 127.367L537.331 136.623L538.41 135.992L537.331 136.623Z" fill="#2E87EF" stroke="white" stroke-width="2.5" stroke-linejoin="round"/>
<path d="M519.761 146.624C519.897 146.858 519.897 147.147 519.761 147.381L520.84 148.012L519.761 147.381L514.351 156.637C514.216 156.867 513.97 157.009 513.703 157.009L502.841 157.009C502.574 157.009 502.328 156.867 502.193 156.637L496.783 147.381C496.647 147.147 496.647 146.858 496.783 146.624L502.193 137.368L501.114 136.738L502.193 137.368C502.328 137.138 502.574 136.997 502.841 136.997L513.703 136.997C513.97 136.997 514.216 137.138 514.351 137.368L519.761 146.624L520.84 145.994L519.761 146.624Z" fill="#2E87EF" stroke="white" stroke-width="2.5" stroke-linejoin="round"/>
<path d="M531.661 126.997L536.545 121.004" stroke="white" stroke-width="2.5" stroke-linecap="round"/>
<path d="M505.096 155.801C505.096 157.415 503.767 158.75 502.096 158.75C500.425 158.75 499.096 157.415 499.096 155.801C499.096 154.186 500.425 152.851 502.096 152.851C503.767 152.851 505.096 154.186 505.096 155.801Z" fill="#2E87EF" stroke="white" stroke-width="2.5"/>
<path d="M500.25 126.71C500.25 128.325 498.921 129.659 497.25 129.659C495.579 129.659 494.25 128.325 494.25 126.71C494.25 125.095 495.579 123.76 497.25 123.76C498.921 123.76 500.25 125.095 500.25 126.71Z" fill="#2E87EF" stroke="white" stroke-width="2.5"/>
<path d="M461.781 250.816C463.701 250.816 464.933 251.392 464.933 252.432C464.933 253.488 463.701 254.048 461.781 254.048C459.845 254.048 458.613 253.488 458.613 252.432C458.613 251.392 459.845 250.816 461.781 250.816ZM461.781 255.728C464.917 255.728 467.109 254.448 467.109 252.432C467.109 250.432 464.917 249.136 461.781 249.136C458.629 249.136 456.453 250.432 456.453 252.432C456.453 254.448 458.629 255.728 461.781 255.728ZM468.485 256.832H455.141V258.544H458.165V263.36H460.293V258.544H463.253V263.36H465.397V258.544H468.485V256.832ZM477.014 252.448V254.16H479.318V259.392H481.43V248.64H479.318V252.448H477.014ZM477.99 255.84C475.67 255.056 474.662 253.248 474.662 251.504V251.312H477.526V249.632H469.606V251.312H472.502V251.52C472.502 253.376 471.446 255.312 469.03 256.096L470.102 257.776C471.814 257.2 472.966 256.032 473.622 254.576C474.262 255.904 475.35 256.96 476.966 257.488L477.99 255.84ZM473.83 261.44V258.496H471.718V263.12H481.766V261.44H473.83ZM492.631 252.08H486.791V250.688H492.631V252.08ZM494.695 249.072H484.727V253.696H494.695V249.072ZM496.391 256.144V254.48H483.079V256.144H488.663V257.072H484.599V258.624H492.695V259.392H484.615V263.264H495.159V261.68H486.711V260.848H494.775V257.072H490.775V256.144H496.391ZM509.271 248.64H507.159V256.192H509.271V248.64ZM506.231 254.432C504.023 253.84 502.951 252.416 502.791 250.992H505.687V249.312H497.671V250.992H500.615C500.471 252.544 499.383 254.08 497.111 254.72L498.087 256.368C499.863 255.872 501.079 254.768 501.751 253.376C502.423 254.624 503.575 255.6 505.271 256.048L506.231 254.432ZM501.575 261.664V260.736H509.287V256.784H499.463V258.368H507.191V259.248H499.479V263.264H509.655V261.664H501.575ZM514.072 265.232L515.544 264.608C514.2 262.272 513.592 259.584 513.592 256.944C513.592 254.336 514.2 251.632 515.544 249.296L514.072 248.672C512.568 251.136 511.688 253.76 511.688 256.944C511.688 260.16 512.568 262.752 514.072 265.232ZM523.401 250.112H520.857V248.768H518.777V250.112H516.233V251.744H523.401V250.112ZM518.537 254.864C518.537 254.144 519.065 253.76 519.849 253.76C520.617 253.76 521.145 254.144 521.145 254.864C521.145 255.584 520.617 255.968 519.849 255.968C519.065 255.968 518.537 255.584 518.537 254.864ZM523.017 254.864C523.017 253.312 521.705 252.224 519.849 252.224C517.977 252.224 516.665 253.312 516.665 254.864C516.665 256.416 517.977 257.504 519.849 257.504C521.705 257.504 523.017 256.416 523.017 254.864ZM518.729 260.224H526.761V263.392H528.873V258.544H518.729V260.224ZM526.873 248.624V252.544H525.785V248.88H523.817V257.792H525.785V254.24H526.873V257.856H528.873V248.624H526.873ZM539.098 255.632C536.714 254.864 535.722 253.008 535.722 251.136V249.536H533.578V251.12C533.578 253.136 532.538 255.104 530.058 255.904L531.178 257.552C532.858 256.992 534.026 255.84 534.682 254.368C535.322 255.696 536.41 256.752 538.01 257.28L539.098 255.632ZM534.506 258.4H532.394V263.12H542.394V261.44H534.506V258.4ZM541.882 252.912V248.64H539.77V259.424H541.882V254.656H543.834V252.912H541.882ZM545.851 265.232C547.371 262.752 548.251 260.16 548.251 256.944C548.251 253.76 547.371 251.136 545.851 248.672L544.395 249.296C545.739 251.632 546.347 254.336 546.347 256.944C546.347 259.584 545.739 262.272 544.395 264.608L545.851 265.232ZM550.955 256.704C553.483 256.4 555.259 255.392 556.203 254.064C557.147 255.392 558.923 256.4 561.419 256.704L562.171 255.04C559.147 254.704 557.547 253.248 557.291 252H561.659V250.32H557.243V248.672H555.131V250.32H550.747V252H555.099C554.859 253.28 553.291 254.704 550.219 255.04L550.955 256.704ZM562.875 257.456H549.563V259.168H555.131V263.408H557.243V259.168H562.875V257.456ZM564.636 254.528C567.388 254.384 569.244 253.712 570.156 252.624C571.084 253.712 572.94 254.384 575.676 254.528L576.268 252.976C573.308 252.848 571.868 252.144 571.452 251.312H575.548V249.792H571.212V248.624H569.1V249.792H564.796V251.312H568.86C568.46 252.144 567.02 252.848 564.06 252.976L564.636 254.528ZM576.812 256.448V254.896H563.548V256.448H569.116V257.328H565.036V258.848H573.132V259.552H565.052V263.264H575.596V261.744H567.148V260.976H575.212V257.328H571.228V256.448H576.812Z" fill="#186BE8"/>
<circle cx="944" cy="137" r="87" fill="#2E87EF"/>
<g clip-path="url(#clip1)">
<path d="M937.079 158.715L940.261 145.215H947.739L950.921 158.715H937.079Z" fill="#2E87EF" stroke="white" stroke-width="2.5"/>
<path fill-rule="evenodd" clip-rule="evenodd" d="M933.5 158.785C933.5 158.095 934.047 157.535 934.721 157.535L953.279 157.535C953.953 157.535 954.5 158.095 954.5 158.785C954.5 159.476 953.953 160.035 953.279 160.035L934.721 160.035C934.047 160.035 933.5 159.476 933.5 158.785Z" fill="white"/>
<path d="M922.25 117.965C922.25 116.446 923.481 115.215 925 115.215H963C964.519 115.215 965.75 116.446 965.75 117.965V146.965C965.75 148.484 964.519 149.715 963 149.715H925C923.481 149.715 922.25 148.484 922.25 146.965V117.965Z" fill="#2E87EF" stroke="white" stroke-width="2.5"/>
<path d="M931 132.615H937.585L941.077 125.965L947.163 139.965L950.455 132.615H957" stroke="white" stroke-width="2.5" stroke-linecap="round" stroke-linejoin="round"/>
</g>
<path d="M934.332 251.536H935.82V255.712C935.324 255.744 934.828 255.76 934.332 255.776V251.536ZM939.516 255.424C938.972 255.488 938.412 255.552 937.836 255.584V251.536H939.004V249.856H931.148V251.536H932.3V255.808L930.764 255.824L930.988 257.536C933.436 257.536 936.764 257.472 939.66 256.96L939.516 255.424ZM935.052 258.48H932.94V263.12H942.972V261.44H935.052V258.48ZM942.444 252.8V248.64H940.332V259.488H942.444V254.544H944.396V252.8H942.444ZM946.285 260.096H954.461V263.424H956.573V258.432H946.285V260.096ZM952.525 255.76V254.48H956.685V252.816H948.541V250.896H956.557V249.232H946.445V254.48H950.413V255.76H944.829V257.44H958.141V255.76H952.525Z" fill="#186BE8"/>
<circle cx="302" cy="137" r="86.5" fill="white" stroke="#2E87EF"/>
<g clip-path="url(#clip2)">
<path d="M291.776 134.597L311.008 127.598C312.435 127.078 314.013 127.814 314.532 129.241L320.536 145.735L300.365 153.076C299.456 153.407 298.452 152.939 298.122 152.031L291.776 134.597Z" fill="white" stroke="#2E87EF" stroke-width="2.5"/>
<path d="M287.331 122.214L301.546 117.04C302.973 116.521 304.552 117.257 305.071 118.684L308.616 128.423L291.816 134.538L287.331 122.214Z" fill="white" stroke="#2E87EF" stroke-width="2.5"/>
<mask id="path-36-inside-2" fill="white">
<path d="M298.407 131.055L306.111 128.251L308.945 136.036C309.323 137.074 308.787 138.221 307.75 138.599L303.804 140.035C302.766 140.413 301.618 139.878 301.24 138.84L298.407 131.055Z"/>
</mask>
<path d="M298.407 131.055L306.111 128.251L308.945 136.036C309.323 137.074 308.787 138.221 307.75 138.599L303.804 140.035C302.766 140.413 301.618 139.878 301.24 138.84L298.407 131.055Z" fill="white" stroke="#2E87EF" stroke-width="5" mask="url(#path-36-inside-2)"/>
<path d="M279.262 118.051C280.006 117.78 282.256 116.735 284.663 115.859L298.372 153.693L324.659 144.259" stroke="#2E87EF" stroke-width="2.5" stroke-linecap="round" stroke-linejoin="round"/>
<circle cx="297.563" cy="152.86" r="6.25" transform="rotate(-20 297.563 152.86)" fill="white" stroke="#2E87EF" stroke-width="2.5"/>
</g>
<path d="M295.5 250.592C297.372 250.592 298.524 251.056 298.524 251.968C298.524 252.88 297.372 253.344 295.5 253.344C293.66 253.344 292.492 252.88 292.492 251.968C292.492 251.056 293.66 250.592 295.5 250.592ZM295.5 255.024C298.684 255.024 300.796 253.84 300.796 251.968C300.796 250.112 298.684 248.912 295.5 248.912C292.332 248.912 290.204 250.112 290.204 251.968C290.204 253.84 292.332 255.024 295.5 255.024ZM292.54 258.704H290.396V263.12H300.732V261.44H292.54V258.704ZM288.844 255.792V257.472H294.556V260H296.716V257.472H302.188V255.792H288.844ZM315.405 253.088C312.077 252.688 310.525 251.056 310.525 249.344V248.912H308.365V249.344C308.365 251.008 306.781 252.688 303.485 253.088L304.253 254.736C306.717 254.368 308.509 253.328 309.437 251.888C310.365 253.344 312.157 254.368 314.637 254.736L315.405 253.088ZM309.437 261.808C307.453 261.808 306.461 261.488 306.461 260.768C306.461 260.032 307.453 259.728 309.437 259.728C311.421 259.728 312.413 260.032 312.413 260.768C312.413 261.488 311.421 261.808 309.437 261.808ZM309.437 258.144C306.237 258.144 304.333 259.088 304.333 260.768C304.333 262.448 306.237 263.376 309.437 263.376C312.637 263.376 314.557 262.448 314.557 260.768C314.557 259.088 312.637 258.144 309.437 258.144ZM310.509 255.664V253.872H308.397V255.664H302.813V257.344H316.125V255.664H310.509Z" fill="#454545"/>
<circle cx="733" cy="137" r="87" fill="#2E87EF"/>
<g clip-path="url(#clip3)">
<path d="M713.25 118C713.25 116.481 714.481 115.25 716 115.25H750C751.519 115.25 752.75 116.481 752.75 118V153.425C752.75 154.944 751.519 156.175 750 156.175H716C714.481 156.175 713.25 154.944 713.25 153.425V118Z" fill="#2E87EF" stroke="white" stroke-width="2.5"/>
<path d="M727.206 148.378L738.937 148.378" stroke="white" stroke-width="2.5" stroke-linecap="round"/>
<mask id="path-43-inside-3" fill="white">
<rect x="718" y="120" width="30" height="22" rx="2"/>
</mask>
<rect x="718" y="120" width="30" height="22" rx="2" fill="#2E87EF" stroke="white" stroke-width="5" mask="url(#path-43-inside-3)"/>
<path d="M723.831 130.753H728.475L730.938 126.063L735.231 135.937L737.553 130.753H742.169" stroke="white" stroke-width="2.5" stroke-linecap="round" stroke-linejoin="round"/>
<path d="M718.164 158.772L718.164 156.878" stroke="white" stroke-width="2.5" stroke-linecap="round"/>
<path d="M748.164 158.772L748.164 156.878" stroke="white" stroke-width="2.5" stroke-linecap="round"/>
</g>
<path d="M663.085 255.584H667.869V249.888H660.909V251.568H665.709V253.92H660.925V259.984H662.253C664.925 259.984 667.085 259.888 669.485 259.472L669.261 257.76C667.181 258.112 665.325 258.224 663.085 258.24V255.584ZM670.285 248.624V263.408H672.397V248.624H670.285ZM676.318 252.432C676.318 251.376 677.086 250.736 678.174 250.736C679.262 250.736 680.062 251.376 680.062 252.432C680.062 253.488 679.262 254.128 678.174 254.128C677.086 254.128 676.318 253.488 676.318 252.432ZM684.318 253.264V256.016H686.43V248.64H684.318V251.584H681.966C681.566 250.048 680.062 249.024 678.174 249.024C675.966 249.024 674.302 250.448 674.302 252.432C674.302 254.416 675.966 255.824 678.174 255.824C680.078 255.824 681.566 254.8 681.966 253.264H684.318ZM678.814 261.568V260.64H686.43V256.64H676.702V258.256H684.334V259.12H676.734V263.2H686.846V261.568H678.814ZM690.767 255.616H695.375V253.968H690.767V251.568H695.583V249.856H688.655V260.048H689.903C692.431 260.048 694.415 259.984 696.655 259.648L696.463 257.968C694.543 258.256 692.847 258.336 690.767 258.352V255.616ZM701.759 254.224H699.615V248.64H697.503V263.392H699.615V255.968H701.759V254.224ZM712.159 248.64V256.992H714.287V248.64H712.159ZM704.479 257.648V263.2H714.287V257.648H704.479ZM712.223 259.296V261.552H706.559V259.296H712.223ZM706.271 249.312C703.983 249.312 702.255 250.784 702.255 252.864C702.255 254.928 703.983 256.4 706.271 256.4C708.559 256.4 710.271 254.928 710.271 252.864C710.271 250.784 708.559 249.312 706.271 249.312ZM706.271 251.072C707.375 251.072 708.207 251.744 708.207 252.864C708.207 253.968 707.375 254.64 706.271 254.64C705.151 254.64 704.319 253.968 704.319 252.864C704.319 251.744 705.151 251.072 706.271 251.072ZM719.659 262H722.027V257.792H723.611C726.155 257.792 728.187 256.576 728.187 253.872C728.187 251.072 726.171 250.144 723.547 250.144H719.659V262ZM722.027 255.92V252.032H723.371C725.003 252.032 725.867 252.496 725.867 253.872C725.867 255.232 725.083 255.92 723.451 255.92H722.027ZM734.413 262.224C735.949 262.224 737.213 261.616 738.189 260.48L736.941 259.008C736.301 259.696 735.517 260.176 734.493 260.176C732.621 260.176 731.405 258.624 731.405 256.048C731.405 253.504 732.749 251.968 734.541 251.968C735.437 251.968 736.125 252.384 736.733 252.96L737.965 251.456C737.197 250.656 735.997 249.936 734.493 249.936C731.501 249.936 728.989 252.224 728.989 256.128C728.989 260.08 731.421 262.224 734.413 262.224ZM739.347 262H741.715V257.52H743.363L745.795 262H748.435L745.667 257.152C747.027 256.624 747.923 255.52 747.923 253.744C747.923 251.024 745.955 250.144 743.475 250.144H739.347V262ZM741.715 255.648V252.032H743.251C744.771 252.032 745.619 252.464 745.619 253.744C745.619 255.008 744.771 255.648 743.251 255.648H741.715ZM760.394 255.328C758.074 254.64 757.066 252.992 757.034 251.312H759.914V249.616H751.946V251.312H754.874C754.842 253.152 753.786 255.024 751.402 255.824L752.458 257.472C754.186 256.912 755.354 255.744 756.01 254.288C756.65 255.504 757.77 256.48 759.386 256.96L760.394 255.328ZM758.394 261.76C756.506 261.76 755.498 261.36 755.498 260.528C755.498 259.68 756.506 259.28 758.394 259.28C760.266 259.28 761.274 259.68 761.274 260.528C761.274 261.36 760.266 261.76 758.394 261.76ZM758.394 257.648C755.322 257.648 753.402 258.72 753.402 260.528C753.402 262.32 755.322 263.376 758.394 263.376C761.45 263.376 763.37 262.32 763.37 260.528C763.37 258.72 761.45 257.648 758.394 257.648ZM763.21 252.032V248.64H761.098V257.392H763.21V253.76H765.162V252.032H763.21ZM775.675 248.624V263.408H777.787V248.624H775.675ZM766.299 249.808V259.968H773.563V249.808H771.467V253.376H768.395V249.808H766.299ZM768.395 255.024H771.467V258.288H768.395V255.024ZM780.219 250.144V251.856H785.035C784.651 255.12 782.827 257.456 779.403 259.216L780.587 260.832C785.483 258.352 787.163 254.56 787.163 250.144H780.219ZM793.147 254.256H791.083V248.624H788.971V263.344H791.083V256H793.147V254.256ZM800.14 261.792C798.172 261.792 797.164 261.456 797.164 260.688C797.164 259.92 798.172 259.568 800.14 259.568C802.108 259.568 803.116 259.92 803.116 260.688C803.116 261.456 802.108 261.792 800.14 261.792ZM800.14 257.968C796.956 257.968 795.036 258.944 795.036 260.688C795.036 262.416 796.956 263.392 800.14 263.392C803.324 263.392 805.26 262.416 805.26 260.688C805.26 258.944 803.324 257.968 800.14 257.968ZM801.244 255.568V254.352H805.34V252.672H797.244V250.944H805.26V249.264H795.148V254.352H799.132V255.568H793.532V257.248H806.86V255.568H801.244Z" fill="#186BE8"/>
<circle cx="1158" cy="137" r="86.5" fill="white" stroke="#2E87EF"/>
<g clip-path="url(#clip4)">
<rect x="1140.25" y="120.427" width="35.5" height="39.5" rx="2.75" fill="white" stroke="#2E87EF" stroke-width="2.5"/>
<path d="M1148.33 144.557L1154.77 138.452L1161.03 144.717L1169.61 136.137" stroke="#2E87EF" stroke-width="2.5" stroke-linecap="round"/>
<circle cx="1147.05" cy="145.669" r="2.15648" transform="rotate(45 1147.05 145.669)" fill="white" stroke="#2E87EF" stroke-width="2.5"/>
<circle cx="1154.83" cy="138.649" r="2.15648" transform="rotate(45 1154.83 138.649)" fill="white" stroke="#2E87EF" stroke-width="2.5"/>
<circle cx="1161.5" cy="144.497" r="2.15648" transform="rotate(45 1161.5 144.497)" fill="white" stroke="#2E87EF" stroke-width="2.5"/>
<circle cx="1168.95" cy="136.856" r="2.15648" transform="rotate(45 1168.95 136.856)" fill="white" stroke="#2E87EF" stroke-width="2.5"/>
<path d="M1152.75 119.5C1152.75 116.601 1155.1 114.25 1158 114.25C1160.9 114.25 1163.25 116.601 1163.25 119.5V124.983H1152.75V119.5Z" fill="white" stroke="#2E87EF" stroke-width="2.5"/>
<path d="M1150 124.993H1166" stroke="#2E87EF" stroke-width="2.5" stroke-linecap="round"/>
<circle cx="1158" cy="119.873" r="1.5" fill="#2E87EF"/>
</g>
<path d="M1148.35 255.504H1154.65V257.568H1148.35V255.504ZM1152.56 261.952V259.248H1156.73V251.552H1154.65V253.84H1148.35V251.552H1146.25V259.248H1150.44V261.952H1144.84V263.664H1158.19V261.952H1152.56ZM1170.29 260.368C1170.88 257.232 1170.88 255.152 1170.88 253.312V251.904H1160.17V253.584H1168.77C1168.77 255.296 1168.73 257.344 1168.17 260.128L1170.29 260.368ZM1165.65 261.904V256.832H1163.53V261.904H1158.83V263.6H1172.16V261.904H1165.65Z" fill="#454545"/>
<defs>
<clipPath id="clip0">
<rect width="48" height="47.6499" fill="white" transform="translate(64 113)"/>
</clipPath>
<clipPath id="clip1">
<rect width="48" height="48" fill="white" transform="translate(920 113)"/>
</clipPath>
<clipPath id="clip2">
<rect width="48" height="48" fill="white" transform="translate(278 113)"/>
</clipPath>
<clipPath id="clip3">
<rect width="48" height="47.6499" fill="white" transform="translate(709 113)"/>
</clipPath>
<clipPath id="clip4">
<rect width="48" height="48" fill="white" transform="translate(1134 113)"/>
</clipPath>
</defs>
</svg>
