<svg width="1000" height="280" viewBox="0 0 1000 280" fill="none" xmlns="http://www.w3.org/2000/svg">
<circle cx="140" cy="140" r="139.5" fill="white" stroke="#2E87EF"/>
<path d="M95.8328 109V103.742H99.5728C102.741 103.742 104.501 101.608 104.501 99.056C104.501 96.482 102.763 94.326 99.5728 94.326H92.7088V109H95.8328ZM101.311 99.034C101.311 100.266 100.387 101.058 99.1548 101.058H95.8328V97.01H99.1548C100.387 97.01 101.311 97.824 101.311 99.034ZM105.733 101.674C105.733 106.096 108.967 109.264 113.389 109.264C117.833 109.264 121.067 106.096 121.067 101.674C121.067 97.252 117.833 94.084 113.389 94.084C108.967 94.084 105.733 97.252 105.733 101.674ZM117.855 101.674C117.855 104.402 116.095 106.492 113.389 106.492C110.683 106.492 108.945 104.402 108.945 101.674C108.945 98.924 110.683 96.856 113.389 96.856C116.095 96.856 117.855 98.924 117.855 101.674ZM122.248 106.932C123.634 108.318 125.658 109.264 128.474 109.264C132.434 109.264 134.348 107.24 134.348 104.556C134.348 101.3 131.268 100.574 128.848 100.024C127.154 99.628 125.922 99.32 125.922 98.33C125.922 97.45 126.67 96.834 128.078 96.834C129.508 96.834 131.092 97.34 132.28 98.44L134.018 96.152C132.566 94.81 130.63 94.106 128.298 94.106C124.844 94.106 122.732 96.086 122.732 98.528C122.732 101.806 125.812 102.466 128.21 103.016C129.904 103.412 131.18 103.786 131.18 104.886C131.18 105.722 130.344 106.536 128.628 106.536C126.604 106.536 124.998 105.634 123.964 104.556L122.248 106.932ZM139.575 109V94.326H136.451V109H139.575ZM149.022 109V97.076H153.29V94.326H141.586V97.076H145.876V109H149.022ZM158.417 109V94.326H155.293V109H158.417ZM169.36 109L175.014 94.326H171.45L167.402 105.612L163.332 94.326H159.768L165.444 109H169.36ZM186.753 109V106.294H179.493V102.884H186.599V100.2H179.493V97.01H186.753V94.326H176.369V109H186.753ZM95.3494 137V131.742H99.0894C102.257 131.742 104.017 129.608 104.017 127.056C104.017 124.482 102.279 122.326 99.0894 122.326H92.2254V137H95.3494ZM100.827 127.034C100.827 128.266 99.9034 129.058 98.6714 129.058H95.3494V125.01H98.6714C99.9034 125.01 100.827 125.824 100.827 127.034ZM116.338 137V134.294H109.078V130.884H116.184V128.2H109.078V125.01H116.338V122.326H105.954V137H116.338ZM130.66 137L127.36 131.412C128.944 131.038 130.572 129.652 130.572 127.056C130.572 124.328 128.702 122.326 125.644 122.326H118.78V137H121.904V131.742H124.192L127.074 137H130.66ZM127.382 127.034C127.382 128.266 126.436 129.058 125.182 129.058H121.904V125.01H125.182C126.436 125.01 127.382 125.802 127.382 127.034ZM139.913 137.264C143.257 137.264 145.105 135.482 146.161 133.656L143.477 132.358C142.861 133.568 141.541 134.492 139.913 134.492C137.361 134.492 135.425 132.446 135.425 129.674C135.425 126.902 137.361 124.856 139.913 124.856C141.541 124.856 142.861 125.802 143.477 126.99L146.161 125.67C145.127 123.844 143.257 122.084 139.913 122.084C135.623 122.084 132.213 125.164 132.213 129.674C132.213 134.184 135.623 137.264 139.913 137.264ZM158.404 137V134.294H151.144V130.884H158.25V128.2H151.144V125.01H158.404V122.326H148.02V137H158.404ZM173.981 137V122.326H170.857V131.83L164.059 122.326H160.847V137H163.971V127.144L170.967 137H173.981ZM183.408 137V125.076H187.676V122.326H175.972V125.076H180.262V137H183.408ZM89.4417 165L83.7877 150.326H79.8717L74.1957 165H77.6277L78.5517 162.47H85.1077L86.0317 165H89.4417ZM84.2497 159.764H79.3877L81.8297 153.032L84.2497 159.764ZM89.3408 157.674C89.3408 162.294 92.8608 165.286 97.1508 165.286C99.8128 165.286 101.903 164.186 103.399 162.514V156.904H96.4028V159.588H100.319V161.37C99.6808 161.942 98.4928 162.492 97.1508 162.492C94.4888 162.492 92.5528 160.446 92.5528 157.674C92.5528 154.902 94.4888 152.856 97.1508 152.856C98.6908 152.856 99.9448 153.67 100.627 154.704L103.223 153.296C102.101 151.558 100.187 150.084 97.1508 150.084C92.8608 150.084 89.3408 153.032 89.3408 157.674ZM117.759 165L114.459 159.412C116.043 159.038 117.671 157.652 117.671 155.056C117.671 152.328 115.801 150.326 112.743 150.326H105.879V165H109.003V159.742H111.291L114.173 165H117.759ZM114.481 155.034C114.481 156.266 113.535 157.058 112.281 157.058H109.003V153.01H112.281C113.535 153.01 114.481 153.802 114.481 155.034ZM130.399 165V162.294H123.139V158.884H130.245V156.2H123.139V153.01H130.399V150.326H120.015V165H130.399ZM143.226 165V162.294H135.966V158.884H143.072V156.2H135.966V153.01H143.226V150.326H132.842V165H143.226ZM161.574 165V150.326H157.174L153.61 159.478L150.046 150.326H145.668V165H148.792V154.44L152.928 165H154.292L158.428 154.44V165H161.574ZM174.872 165V162.294H167.612V158.884H174.718V156.2H167.612V153.01H174.872V150.326H164.488V165H174.872ZM190.448 165V150.326H187.324V159.83L180.526 150.326H177.314V165H180.438V155.144L187.434 165H190.448ZM199.876 165V153.076H204.144V150.326H192.44V153.076H196.73V165H199.876ZM118.675 196.014C117.179 193.374 116.453 190.954 116.453 187.654C116.453 184.354 117.179 181.934 118.675 179.25L116.915 177.93C114.781 180.35 113.439 184.112 113.439 187.654C113.439 191.196 114.781 194.98 116.915 197.378L118.675 196.014ZM123.644 193V187.742H127.384C130.552 187.742 132.312 185.608 132.312 183.056C132.312 180.482 130.574 178.326 127.384 178.326H120.52V193H123.644ZM129.122 183.034C129.122 184.266 128.198 185.058 126.966 185.058H123.644V181.01H126.966C128.198 181.01 129.122 181.824 129.122 183.034ZM137.373 193V187.742H141.113C144.281 187.742 146.041 185.608 146.041 183.056C146.041 180.482 144.303 178.326 141.113 178.326H134.249V193H137.373ZM142.851 183.034C142.851 184.266 141.927 185.058 140.695 185.058H137.373V181.01H140.695C141.927 181.01 142.851 181.824 142.851 183.034ZM160.029 193L154.375 178.326H150.459L144.783 193H148.215L149.139 190.47H155.695L156.619 193H160.029ZM154.837 187.764H149.975L152.417 181.032L154.837 187.764ZM162.55 187.654C162.55 190.954 161.824 193.374 160.306 196.014L162.066 197.378C164.222 194.98 165.586 191.196 165.586 187.654C165.586 184.112 164.222 180.35 162.066 177.93L160.306 179.25C161.824 181.934 162.55 184.354 162.55 187.654Z" fill="#2E87EF"/>
<circle cx="860" cy="140" r="139.5" fill="white" stroke="#2E87EF"/>
<path d="M821.653 109V94.326H818.529V103.83L811.731 94.326H808.519V109H811.643V99.144L818.639 109H821.653ZM834.931 109V106.294H827.671V102.884H834.777V100.2H827.671V97.01H834.931V94.326H824.547V109H834.931ZM836.669 101.674C836.669 106.294 840.189 109.286 844.479 109.286C847.141 109.286 849.231 108.186 850.727 106.514V100.904H843.731V103.588H847.647V105.37C847.009 105.942 845.821 106.492 844.479 106.492C841.817 106.492 839.881 104.446 839.881 101.674C839.881 98.902 841.817 96.856 844.479 96.856C846.019 96.856 847.273 97.67 847.955 98.704L850.551 97.296C849.429 95.558 847.515 94.084 844.479 94.084C840.189 94.084 836.669 97.032 836.669 101.674ZM866.74 109L861.086 94.326H857.17L851.494 109H854.926L855.85 106.47H862.406L863.33 109H866.74ZM861.548 103.764H856.686L859.128 97.032L861.548 103.764ZM873.212 109V97.076H877.48V94.326H865.776V97.076H870.066V109H873.212ZM882.606 109V94.326H879.482V109H882.606ZM893.549 109L899.203 94.326H895.639L891.591 105.612L887.521 94.326H883.957L889.633 109H893.549ZM910.942 109V106.294H903.682V102.884H910.788V100.2H903.682V97.01H910.942V94.326H900.558V109H910.942ZM815.349 137V131.742H819.089C822.257 131.742 824.017 129.608 824.017 127.056C824.017 124.482 822.279 122.326 819.089 122.326H812.225V137H815.349ZM820.827 127.034C820.827 128.266 819.903 129.058 818.671 129.058H815.349V125.01H818.671C819.903 125.01 820.827 125.824 820.827 127.034ZM836.338 137V134.294H829.078V130.884H836.184V128.2H829.078V125.01H836.338V122.326H825.954V137H836.338ZM850.66 137L847.36 131.412C848.944 131.038 850.572 129.652 850.572 127.056C850.572 124.328 848.702 122.326 845.644 122.326H838.78V137H841.904V131.742H844.192L847.074 137H850.66ZM847.382 127.034C847.382 128.266 846.436 129.058 845.182 129.058H841.904V125.01H845.182C846.436 125.01 847.382 125.802 847.382 127.034ZM859.913 137.264C863.257 137.264 865.105 135.482 866.161 133.656L863.477 132.358C862.861 133.568 861.541 134.492 859.913 134.492C857.361 134.492 855.425 132.446 855.425 129.674C855.425 126.902 857.361 124.856 859.913 124.856C861.541 124.856 862.861 125.802 863.477 126.99L866.161 125.67C865.127 123.844 863.257 122.084 859.913 122.084C855.623 122.084 852.213 125.164 852.213 129.674C852.213 134.184 855.623 137.264 859.913 137.264ZM878.404 137V134.294H871.144V130.884H878.25V128.2H871.144V125.01H878.404V122.326H868.02V137H878.404ZM893.981 137V122.326H890.857V131.83L884.059 122.326H880.847V137H883.971V127.144L890.967 137H893.981ZM903.408 137V125.076H907.676V122.326H895.972V125.076H900.262V137H903.408ZM809.442 165L803.788 150.326H799.872L794.196 165H797.628L798.552 162.47H805.108L806.032 165H809.442ZM804.25 159.764H799.388L801.83 153.032L804.25 159.764ZM809.341 157.674C809.341 162.294 812.861 165.286 817.151 165.286C819.813 165.286 821.903 164.186 823.399 162.514V156.904H816.403V159.588H820.319V161.37C819.681 161.942 818.493 162.492 817.151 162.492C814.489 162.492 812.553 160.446 812.553 157.674C812.553 154.902 814.489 152.856 817.151 152.856C818.691 152.856 819.945 153.67 820.627 154.704L823.223 153.296C822.101 151.558 820.187 150.084 817.151 150.084C812.861 150.084 809.341 153.032 809.341 157.674ZM837.759 165L834.459 159.412C836.043 159.038 837.671 157.652 837.671 155.056C837.671 152.328 835.801 150.326 832.743 150.326H825.879V165H829.003V159.742H831.291L834.173 165H837.759ZM834.481 155.034C834.481 156.266 833.535 157.058 832.281 157.058H829.003V153.01H832.281C833.535 153.01 834.481 153.802 834.481 155.034ZM850.399 165V162.294H843.139V158.884H850.245V156.2H843.139V153.01H850.399V150.326H840.015V165H850.399ZM863.226 165V162.294H855.966V158.884H863.072V156.2H855.966V153.01H863.226V150.326H852.842V165H863.226ZM881.574 165V150.326H877.174L873.61 159.478L870.046 150.326H865.668V165H868.792V154.44L872.928 165H874.292L878.428 154.44V165H881.574ZM894.872 165V162.294H887.612V158.884H894.718V156.2H887.612V153.01H894.872V150.326H884.488V165H894.872ZM910.448 165V150.326H907.324V159.83L900.526 150.326H897.314V165H900.438V155.144L907.434 165H910.448ZM919.876 165V153.076H924.144V150.326H912.44V153.076H916.73V165H919.876ZM837.526 196.014C836.03 193.374 835.304 190.954 835.304 187.654C835.304 184.354 836.03 181.934 837.526 179.25L835.766 177.93C833.632 180.35 832.29 184.112 832.29 187.654C832.29 191.196 833.632 194.98 835.766 197.378L837.526 196.014ZM852.505 193V178.326H849.381V187.83L842.583 178.326H839.371V193H842.495V183.144L849.491 193H852.505ZM858.522 193V187.742H862.262C865.43 187.742 867.19 185.608 867.19 183.056C867.19 180.482 865.452 178.326 862.262 178.326H855.398V193H858.522ZM864 183.034C864 184.266 863.076 185.058 861.844 185.058H858.522V181.01H861.844C863.076 181.01 864 181.824 864 183.034ZM881.178 193L875.524 178.326H871.608L865.932 193H869.364L870.288 190.47H876.844L877.768 193H881.178ZM875.986 187.764H871.124L873.566 181.032L875.986 187.764ZM883.699 187.654C883.699 190.954 882.973 193.374 881.455 196.014L883.215 197.378C885.371 194.98 886.735 191.196 886.735 187.654C886.735 184.112 885.371 180.35 883.215 177.93L881.455 179.25C882.973 181.934 883.699 184.354 883.699 187.654Z" fill="#2E87EF"/>
<circle cx="500" cy="140" r="140" fill="#2E87EF"/>
<path d="M552.821 124.693C551.075 124.693 549.665 124.14 548.592 123.032C547.531 121.925 547 120.436 547 118.564C547 116.521 547.565 114.9 548.695 113.702C549.836 112.504 551.354 111.904 553.249 111.904C555.064 111.904 556.479 112.446 557.495 113.531C558.522 114.615 559.036 116.139 559.036 118.102C559.036 120.122 558.471 121.726 557.341 122.913C556.211 124.1 554.704 124.693 552.821 124.693ZM553.146 114.917C551.48 114.917 550.647 116.076 550.647 118.393C550.647 120.584 551.44 121.68 553.026 121.68C554.647 121.68 555.457 120.539 555.457 118.256C555.457 116.03 554.687 114.917 553.146 114.917ZM570.746 112.247L554.755 136.797H550.578L566.534 112.247H570.746ZM568.109 137.14C566.363 137.14 564.953 136.586 563.881 135.479C562.819 134.372 562.288 132.882 562.288 131.011C562.288 128.968 562.853 127.347 563.983 126.148C565.125 124.95 566.643 124.351 568.537 124.351C570.363 124.351 571.784 124.887 572.8 125.96C573.816 127.033 574.324 128.551 574.324 130.514C574.324 132.534 573.759 134.144 572.629 135.342C571.499 136.54 569.993 137.14 568.109 137.14ZM568.383 127.364C566.728 127.364 565.901 128.522 565.901 130.839C565.901 133.031 566.705 134.126 568.315 134.126C569.935 134.126 570.746 132.985 570.746 130.702C570.746 129.641 570.529 128.819 570.095 128.237C569.662 127.655 569.091 127.364 568.383 127.364Z" fill="white" stroke="white" stroke-width="0.7"/>
<path d="M454.09 138V91.31H443.66L427.35 107.41L434.21 114.62L442.05 106.71V138H454.09ZM459.629 114.69C459.629 127.01 465.999 138.84 479.649 138.84C493.299 138.84 499.669 127.01 499.669 114.69C499.669 102.37 493.299 90.61 479.649 90.61C465.999 90.61 459.629 102.37 459.629 114.69ZM487.489 114.69C487.489 122.95 485.249 128.2 479.649 128.2C474.049 128.2 471.809 122.95 471.809 114.69C471.809 106.43 474.049 101.25 479.649 101.25C485.249 101.25 487.489 106.43 487.489 114.69ZM502.81 114.69C502.81 127.01 509.18 138.84 522.83 138.84C536.48 138.84 542.85 127.01 542.85 114.69C542.85 102.37 536.48 90.61 522.83 90.61C509.18 90.61 502.81 102.37 502.81 114.69ZM530.67 114.69C530.67 122.95 528.43 128.2 522.83 128.2C517.23 128.2 514.99 122.95 514.99 114.69C514.99 106.43 517.23 101.25 522.83 101.25C528.43 101.25 530.67 106.43 530.67 114.69Z" fill="white"/>
<path d="M472.16 167.18C470.84 164.72 470.12 162.48 470.12 159.34C470.12 156.2 470.84 153.96 472.16 151.48L470.86 150.5C468.98 152.82 467.84 156.12 467.84 159.34C467.84 162.56 468.98 165.88 470.86 168.18L472.16 167.18ZM483.187 166V163.94H477.267C480.847 161.24 483.107 159.04 483.107 156.58C483.107 153.92 480.847 152.46 478.267 152.46C476.407 152.46 474.527 153.18 473.347 154.6L474.707 156.14C475.547 155.18 476.747 154.54 478.307 154.54C479.527 154.54 480.727 155.18 480.727 156.58C480.727 158.5 478.707 160.24 473.527 164.16V166H483.187ZM485.242 159.34C485.242 162.7 486.842 166.24 490.582 166.24C494.322 166.24 495.922 162.7 495.922 159.34C495.922 155.98 494.322 152.46 490.582 152.46C486.842 152.46 485.242 155.98 485.242 159.34ZM493.542 159.34C493.542 161.88 492.762 164.16 490.582 164.16C488.402 164.16 487.622 161.88 487.622 159.34C487.622 156.8 488.402 154.54 490.582 154.54C492.762 154.54 493.542 156.8 493.542 159.34ZM498.306 166.4L503.046 152.26H501.486L496.746 166.4H498.306ZM513.715 166V163.94H507.795C511.375 161.24 513.635 159.04 513.635 156.58C513.635 153.92 511.375 152.46 508.795 152.46C506.935 152.46 505.055 153.18 503.875 154.6L505.235 156.14C506.075 155.18 507.275 154.54 508.835 154.54C510.055 154.54 511.255 155.18 511.255 156.58C511.255 158.5 509.235 160.24 504.055 164.16V166H513.715ZM515.769 159.34C515.769 162.7 517.369 166.24 521.109 166.24C524.849 166.24 526.449 162.7 526.449 159.34C526.449 155.98 524.849 152.46 521.109 152.46C517.369 152.46 515.769 155.98 515.769 159.34ZM524.069 159.34C524.069 161.88 523.289 164.16 521.109 164.16C518.929 164.16 518.149 161.88 518.149 159.34C518.149 156.8 518.929 154.54 521.109 154.54C523.289 154.54 524.069 156.8 524.069 159.34ZM529.673 159.34C529.673 162.48 528.953 164.72 527.613 167.18L528.913 168.18C530.813 165.88 531.953 162.56 531.953 159.34C531.953 156.12 530.813 152.82 528.913 150.5L527.613 151.48C528.953 153.96 529.673 156.2 529.673 159.34Z" fill="white"/>
<path d="M422.938 199.188C423.596 199.776 424.548 200.154 425.682 200.154C428.44 200.154 430.022 198.152 430.022 195.338C430.022 192.692 428.832 190.508 426.004 190.508C423.876 190.508 422.42 191.894 422.42 193.714C422.42 195.702 423.932 196.738 425.612 196.738C426.634 196.738 427.572 196.164 428.02 195.534V195.73C428.02 197.144 427.18 198.418 425.682 198.418C424.856 198.418 424.324 198.166 423.82 197.704L422.938 199.188ZM427.992 194.19C427.558 194.736 426.872 195.058 426.172 195.058C425.276 195.058 424.45 194.624 424.45 193.63C424.45 192.972 425.024 192.23 426.088 192.23C427.418 192.23 427.922 193.294 427.992 194.19ZM431.204 198.768C432.002 199.636 433.178 200.168 434.802 200.168C437.056 200.168 438.54 198.922 438.54 196.948C438.54 195.058 437.126 193.938 435.544 193.938C434.69 193.938 433.934 194.274 433.444 194.708V192.37H437.91V190.662H431.498V195.996L432.884 196.374C433.444 195.842 434.074 195.604 434.844 195.604C435.908 195.604 436.524 196.178 436.524 197.032C436.524 197.802 435.894 198.432 434.788 198.432C433.808 198.432 432.94 198.082 432.296 197.424L431.204 198.768Z" fill="white" fill-opacity="0.6"/>
<path d="M442.158 195.563C441.511 195.563 440.988 195.358 440.59 194.948C440.197 194.537 440 193.985 440 193.291C440 192.534 440.209 191.933 440.628 191.488C441.052 191.044 441.614 190.822 442.317 190.822C442.99 190.822 443.514 191.023 443.891 191.425C444.272 191.827 444.462 192.392 444.462 193.12C444.462 193.869 444.253 194.463 443.834 194.903C443.415 195.343 442.856 195.563 442.158 195.563ZM442.279 191.939C441.661 191.939 441.352 192.368 441.352 193.228C441.352 194.04 441.646 194.446 442.234 194.446C442.835 194.446 443.136 194.023 443.136 193.177C443.136 192.352 442.85 191.939 442.279 191.939ZM448.804 190.949L442.875 200.051H441.327L447.243 190.949H448.804ZM447.827 200.178C447.179 200.178 446.657 199.973 446.259 199.562C445.865 199.152 445.668 198.6 445.668 197.906C445.668 197.148 445.878 196.547 446.297 196.103C446.72 195.659 447.283 195.437 447.985 195.437C448.662 195.437 449.189 195.635 449.566 196.033C449.943 196.431 450.131 196.994 450.131 197.722C450.131 198.471 449.921 199.067 449.502 199.512C449.083 199.956 448.525 200.178 447.827 200.178ZM447.928 196.554C447.315 196.554 447.008 196.983 447.008 197.842C447.008 198.655 447.306 199.061 447.903 199.061C448.504 199.061 448.804 198.638 448.804 197.792C448.804 197.398 448.724 197.093 448.563 196.877C448.402 196.662 448.191 196.554 447.928 196.554Z" fill="white" fill-opacity="0.6"/>
<path d="M440.518 195.017L440.519 195.017C440.938 195.45 441.488 195.663 442.158 195.663C442.879 195.663 443.466 195.435 443.906 194.972C444.347 194.509 444.562 193.888 444.562 193.12C444.562 192.375 444.367 191.782 443.964 191.356C443.564 190.93 443.011 190.722 442.317 190.722C441.591 190.722 441.001 190.952 440.556 191.419L440.556 191.42C440.115 191.887 439.9 192.514 439.9 193.291C439.9 194.005 440.103 194.584 440.518 195.017ZM448.888 191.003L448.989 190.849H448.804H447.243H447.188L447.159 190.894L441.243 199.997L441.142 200.151H441.327H442.875H442.93L442.959 200.106L448.888 191.003ZM446.187 199.632L446.187 199.632C446.606 200.065 447.156 200.278 447.827 200.278C448.548 200.278 449.135 200.048 449.575 199.58C450.015 199.113 450.231 198.49 450.231 197.722C450.231 196.977 450.038 196.386 449.639 195.964C449.239 195.542 448.683 195.337 447.985 195.337C447.26 195.337 446.669 195.567 446.224 196.034L446.224 196.034C445.784 196.502 445.568 197.129 445.568 197.906C445.568 198.62 445.771 199.199 446.187 199.632ZM441.452 193.228C441.452 192.807 441.528 192.51 441.665 192.319C441.797 192.135 441.996 192.039 442.279 192.039C442.537 192.039 442.718 192.13 442.839 192.305C442.965 192.487 443.036 192.773 443.036 193.177C443.036 193.591 442.962 193.884 442.829 194.071C442.701 194.252 442.508 194.346 442.234 194.346C441.966 194.346 441.778 194.255 441.654 194.083C441.524 193.905 441.452 193.625 441.452 193.228ZM447.108 197.842C447.108 197.422 447.183 197.124 447.319 196.934C447.451 196.75 447.648 196.654 447.928 196.654C448.158 196.654 448.34 196.746 448.483 196.937C448.626 197.129 448.704 197.41 448.704 197.792C448.704 198.206 448.63 198.499 448.497 198.686C448.369 198.866 448.177 198.961 447.903 198.961C447.63 198.961 447.439 198.87 447.312 198.697C447.181 198.519 447.108 198.239 447.108 197.842Z" stroke="white" stroke-opacity="0.6" stroke-width="0.2"/>
<path d="M458.507 200.168C460.635 200.168 461.811 199.034 462.483 197.872L460.775 197.046C460.383 197.816 459.543 198.404 458.507 198.404C456.883 198.404 455.651 197.102 455.651 195.338C455.651 193.574 456.883 192.272 458.507 192.272C459.543 192.272 460.383 192.874 460.775 193.63L462.483 192.79C461.825 191.628 460.635 190.508 458.507 190.508C455.777 190.508 453.607 192.468 453.607 195.338C453.607 198.208 455.777 200.168 458.507 200.168ZM465.654 200V190.662H463.666V200H465.654ZM471.49 200.658C470.538 198.978 470.076 197.438 470.076 195.338C470.076 193.238 470.538 191.698 471.49 189.99L470.37 189.15C469.012 190.69 468.158 193.084 468.158 195.338C468.158 197.592 469.012 200 470.37 201.526L471.49 200.658ZM472.23 197.578C472.23 199.328 474.022 200.168 475.982 200.168C477.942 200.168 479.734 199.314 479.734 197.578C479.734 196.444 478.838 195.576 477.718 195.184C478.754 194.834 479.58 194.148 479.58 192.986C479.58 191.236 477.704 190.522 475.982 190.522C474.246 190.522 472.384 191.236 472.384 192.986C472.384 194.148 473.196 194.834 474.232 195.184C473.112 195.576 472.23 196.444 472.23 197.578ZM477.55 193.294C477.55 194.022 476.556 194.344 475.982 194.428C475.408 194.344 474.4 194.022 474.4 193.294C474.4 192.636 475.058 192.23 475.982 192.23C476.892 192.23 477.55 192.636 477.55 193.294ZM477.718 197.34C477.718 198.026 476.934 198.46 475.982 198.46C475.002 198.46 474.246 198.026 474.246 197.34C474.246 196.528 475.394 196.136 475.982 196.066C476.556 196.136 477.718 196.528 477.718 197.34ZM480.51 198.67C481.196 199.51 482.47 200.168 484.192 200.168C486.432 200.168 487.874 199.034 487.874 197.424C487.874 196.024 486.642 195.282 485.69 195.184C486.726 195.002 487.734 194.232 487.734 193.056C487.734 191.502 486.39 190.522 484.206 190.522C482.568 190.522 481.392 191.152 480.636 192.006L481.616 193.238C482.274 192.608 483.086 192.258 483.996 192.258C484.976 192.258 485.732 192.636 485.732 193.378C485.732 194.078 485.046 194.414 484.01 194.414C483.646 194.414 483.016 194.414 482.848 194.4V196.136C482.988 196.122 483.618 196.122 484.01 196.122C485.312 196.122 485.886 196.472 485.886 197.228C485.886 197.942 485.256 198.432 484.122 198.432C483.212 198.432 482.19 198.04 481.546 197.368L480.51 198.67ZM489.105 199.02C489.105 199.636 489.623 200.154 490.239 200.154C490.855 200.154 491.373 199.636 491.373 199.02C491.373 198.404 490.855 197.886 490.239 197.886C489.623 197.886 489.105 198.404 489.105 199.02ZM492.519 197.578C492.519 199.328 494.311 200.168 496.271 200.168C498.231 200.168 500.023 199.314 500.023 197.578C500.023 196.444 499.127 195.576 498.007 195.184C499.043 194.834 499.869 194.148 499.869 192.986C499.869 191.236 497.993 190.522 496.271 190.522C494.535 190.522 492.673 191.236 492.673 192.986C492.673 194.148 493.485 194.834 494.521 195.184C493.401 195.576 492.519 196.444 492.519 197.578ZM497.839 193.294C497.839 194.022 496.845 194.344 496.271 194.428C495.697 194.344 494.689 194.022 494.689 193.294C494.689 192.636 495.347 192.23 496.271 192.23C497.181 192.23 497.839 192.636 497.839 193.294ZM498.007 197.34C498.007 198.026 497.223 198.46 496.271 198.46C495.291 198.46 494.535 198.026 494.535 197.34C494.535 196.528 495.683 196.136 496.271 196.066C496.845 196.136 498.007 196.528 498.007 197.34ZM501.458 199.188C502.116 199.776 503.068 200.154 504.202 200.154C506.96 200.154 508.542 198.152 508.542 195.338C508.542 192.692 507.352 190.508 504.524 190.508C502.396 190.508 500.94 191.894 500.94 193.714C500.94 195.702 502.452 196.738 504.132 196.738C505.154 196.738 506.092 196.164 506.54 195.534V195.73C506.54 197.144 505.7 198.418 504.202 198.418C503.376 198.418 502.844 198.166 502.34 197.704L501.458 199.188ZM506.512 194.19C506.078 194.736 505.392 195.058 504.692 195.058C503.796 195.058 502.97 194.624 502.97 193.63C502.97 192.972 503.544 192.23 504.608 192.23C505.938 192.23 506.442 193.294 506.512 194.19Z" fill="white" fill-opacity="0.6"/>
<path d="M515.911 195.982V194.47H512.551V195.982H515.911ZM523.258 200V190.662H521.522L518.582 193.616L519.716 194.806L521.256 193.224V200H523.258ZM524.66 195.338C524.66 197.746 525.85 200.168 528.524 200.168C531.184 200.168 532.388 197.746 532.388 195.338C532.388 192.93 531.184 190.522 528.524 190.522C525.85 190.522 524.66 192.93 524.66 195.338ZM530.358 195.338C530.358 197.06 529.854 198.404 528.524 198.404C527.18 198.404 526.676 197.06 526.676 195.338C526.676 193.616 527.18 192.286 528.524 192.286C529.854 192.286 530.358 193.616 530.358 195.338ZM533.342 195.338C533.342 197.746 534.532 200.168 537.206 200.168C539.866 200.168 541.07 197.746 541.07 195.338C541.07 192.93 539.866 190.522 537.206 190.522C534.532 190.522 533.342 192.93 533.342 195.338ZM539.04 195.338C539.04 197.06 538.536 198.404 537.206 198.404C535.862 198.404 535.358 197.06 535.358 195.338C535.358 193.616 535.862 192.286 537.206 192.286C538.536 192.286 539.04 193.616 539.04 195.338ZM541.904 199.02C541.904 199.636 542.422 200.154 543.038 200.154C543.654 200.154 544.172 199.636 544.172 199.02C544.172 198.404 543.654 197.886 543.038 197.886C542.422 197.886 541.904 198.404 541.904 199.02ZM545.305 195.338C545.305 197.746 546.495 200.168 549.169 200.168C551.829 200.168 553.033 197.746 553.033 195.338C553.033 192.93 551.829 190.522 549.169 190.522C546.495 190.522 545.305 192.93 545.305 195.338ZM551.003 195.338C551.003 197.06 550.499 198.404 549.169 198.404C547.825 198.404 547.321 197.06 547.321 195.338C547.321 193.616 547.825 192.286 549.169 192.286C550.499 192.286 551.003 193.616 551.003 195.338ZM553.986 195.338C553.986 197.746 555.176 200.168 557.85 200.168C560.51 200.168 561.714 197.746 561.714 195.338C561.714 192.93 560.51 190.522 557.85 190.522C555.176 190.522 553.986 192.93 553.986 195.338ZM559.684 195.338C559.684 197.06 559.18 198.404 557.85 198.404C556.506 198.404 556.002 197.06 556.002 195.338C556.002 193.616 556.506 192.286 557.85 192.286C559.18 192.286 559.684 193.616 559.684 195.338Z" fill="white" fill-opacity="0.6"/>
<path d="M565.289 195.563C564.642 195.563 564.119 195.358 563.721 194.948C563.328 194.537 563.131 193.985 563.131 193.291C563.131 192.534 563.34 191.933 563.759 191.488C564.182 191.044 564.745 190.822 565.448 190.822C566.121 190.822 566.645 191.023 567.022 191.425C567.403 191.827 567.593 192.392 567.593 193.12C567.593 193.869 567.384 194.463 566.965 194.903C566.546 195.343 565.987 195.563 565.289 195.563ZM565.41 191.939C564.792 191.939 564.483 192.368 564.483 193.228C564.483 194.04 564.777 194.446 565.365 194.446C565.966 194.446 566.267 194.023 566.267 193.177C566.267 192.352 565.981 191.939 565.41 191.939ZM571.935 190.949L566.006 200.051H564.458L570.374 190.949H571.935ZM570.958 200.178C570.31 200.178 569.787 199.973 569.39 199.562C568.996 199.152 568.799 198.6 568.799 197.906C568.799 197.148 569.009 196.547 569.428 196.103C569.851 195.659 570.414 195.437 571.116 195.437C571.793 195.437 572.32 195.635 572.697 196.033C573.073 196.431 573.262 196.994 573.262 197.722C573.262 198.471 573.052 199.067 572.633 199.512C572.214 199.956 571.656 200.178 570.958 200.178ZM571.059 196.554C570.445 196.554 570.139 196.983 570.139 197.842C570.139 198.655 570.437 199.061 571.034 199.061C571.635 199.061 571.935 198.638 571.935 197.792C571.935 197.398 571.855 197.093 571.694 196.877C571.533 196.662 571.321 196.554 571.059 196.554Z" fill="white" fill-opacity="0.6"/>
<path d="M563.649 195.017L563.649 195.017C564.069 195.45 564.618 195.663 565.289 195.663C566.01 195.663 566.597 195.435 567.037 194.972C567.478 194.509 567.693 193.888 567.693 193.12C567.693 192.375 567.498 191.782 567.095 191.356C566.695 190.93 566.142 190.722 565.448 190.722C564.722 190.722 564.132 190.952 563.687 191.419L563.687 191.42C563.246 191.887 563.031 192.514 563.031 193.291C563.031 194.005 563.234 194.584 563.649 195.017ZM572.019 191.003L572.12 190.849H571.935H570.374H570.319L570.29 190.894L564.374 199.997L564.273 200.151H564.458H566.006H566.061L566.09 200.106L572.019 191.003ZM569.317 199.632L569.318 199.632C569.737 200.065 570.287 200.278 570.958 200.278C571.679 200.278 572.265 200.048 572.706 199.58C573.146 199.113 573.362 198.49 573.362 197.722C573.362 196.977 573.169 196.386 572.769 195.964C572.37 195.542 571.814 195.337 571.116 195.337C570.391 195.337 569.8 195.567 569.355 196.034L569.355 196.034C568.915 196.502 568.699 197.129 568.699 197.906C568.699 198.62 568.902 199.199 569.317 199.632ZM564.583 193.228C564.583 192.807 564.659 192.51 564.796 192.319C564.928 192.135 565.127 192.039 565.41 192.039C565.668 192.039 565.849 192.13 565.97 192.305C566.096 192.487 566.167 192.773 566.167 193.177C566.167 193.591 566.093 193.884 565.96 194.071C565.831 194.252 565.639 194.346 565.365 194.346C565.097 194.346 564.909 194.255 564.784 194.083C564.655 193.905 564.583 193.625 564.583 193.228ZM570.239 197.842C570.239 197.422 570.314 197.124 570.45 196.934C570.582 196.75 570.779 196.654 571.059 196.654C571.289 196.654 571.471 196.746 571.614 196.937C571.757 197.129 571.835 197.41 571.835 197.792C571.835 198.206 571.761 198.499 571.628 198.686C571.5 198.866 571.308 198.961 571.034 198.961C570.761 198.961 570.57 198.87 570.443 198.697C570.312 198.519 570.239 198.239 570.239 197.842Z" stroke="white" stroke-opacity="0.6" stroke-width="0.2"/>
<path d="M575.928 195.338C575.928 197.438 575.466 198.978 574.5 200.658L575.62 201.526C576.992 200 577.86 197.592 577.86 195.338C577.86 193.084 576.992 190.69 575.62 189.15L574.5 189.99C575.466 191.698 575.928 193.238 575.928 195.338Z" fill="white" fill-opacity="0.6"/>
<path d="M717 139C717.552 139 718 139.448 718 140C718 140.552 717.552 141 717 141L717 139ZM647 141C646.448 141 646 140.552 646 140C646 139.448 646.448 139 647 139L647 141ZM716.95 141C716.397 141 715.95 140.552 715.95 140C715.95 139.448 716.398 139 716.95 139L716.95 141ZM712.933 139C713.485 139 713.933 139.448 713.933 140C713.933 140.552 713.485 141 712.933 141L712.933 139ZM712.832 141C712.28 141 711.832 140.552 711.832 140C711.832 139.448 712.28 139 712.832 139L712.832 141ZM708.815 139C709.367 139 709.815 139.448 709.815 140C709.815 140.552 709.367 141 708.815 141L708.815 139ZM708.714 141C708.162 141 707.714 140.552 707.714 140C707.714 139.448 708.162 139 708.714 139L708.714 141ZM704.697 139C705.25 139 705.697 139.448 705.697 140C705.697 140.552 705.25 141 704.697 141L704.697 139ZM704.597 141C704.045 141 703.597 140.552 703.597 140C703.597 139.448 704.045 139 704.597 139L704.597 141ZM700.58 139C701.132 139 701.58 139.448 701.58 140C701.58 140.552 701.132 141 700.58 141L700.58 139ZM700.479 141C699.927 141 699.479 140.552 699.479 140C699.479 139.448 699.927 139 700.479 139L700.479 141ZM696.462 139C697.014 139 697.462 139.448 697.462 140C697.462 140.552 697.014 141 696.462 141L696.462 139ZM696.362 141C695.809 141 695.362 140.552 695.362 140C695.362 139.448 695.809 139 696.362 139L696.362 141ZM692.344 139C692.897 139 693.344 139.448 693.344 140C693.344 140.552 692.897 141 692.344 141L692.344 139ZM692.244 141C691.692 141 691.244 140.552 691.244 140C691.244 139.448 691.692 139 692.244 139L692.244 141ZM688.227 139C688.779 139 689.227 139.448 689.227 140C689.227 140.552 688.779 141 688.227 141L688.227 139ZM688.126 141C687.574 141 687.126 140.552 687.126 140C687.126 139.448 687.574 139 688.126 139L688.126 141ZM684.109 139C684.661 139 685.109 139.448 685.109 140C685.109 140.552 684.661 141 684.109 141L684.109 139ZM684.009 141C683.456 141 683.009 140.552 683.009 140C683.009 139.448 683.456 139 684.009 139L684.009 141ZM679.991 139C680.544 139 680.991 139.448 680.991 140C680.991 140.552 680.544 141 679.991 141L679.991 139ZM679.891 141C679.339 141 678.891 140.552 678.891 140C678.891 139.448 679.339 139 679.891 139L679.891 141ZM675.874 139C676.426 139 676.874 139.448 676.874 140C676.874 140.552 676.426 141 675.874 141L675.874 139ZM675.773 141C675.221 141 674.773 140.552 674.773 140C674.773 139.448 675.221 139 675.773 139L675.773 141ZM671.756 139C672.308 139 672.756 139.448 672.756 140C672.756 140.552 672.308 141 671.756 141L671.756 139ZM671.656 141C671.103 141 670.656 140.552 670.656 140C670.656 139.448 671.103 139 671.656 139L671.656 141ZM667.638 139C668.191 139 668.638 139.448 668.638 140C668.638 140.552 668.191 141 667.638 141L667.638 139ZM667.538 141C666.986 141 666.538 140.552 666.538 140C666.538 139.448 666.986 139 667.538 139L667.538 141ZM663.521 139C664.073 139 664.521 139.448 664.521 140C664.521 140.552 664.073 141 663.521 141L663.521 139ZM663.42 141C662.868 141 662.42 140.552 662.42 140C662.42 139.448 662.868 139 663.42 139L663.42 141ZM659.403 139C659.955 139 660.403 139.448 660.403 140C660.403 140.552 659.955 141 659.403 141L659.403 139ZM659.303 141C658.75 141 658.303 140.552 658.303 140C658.303 139.448 658.75 139 659.303 139L659.303 141ZM655.286 139C655.838 139 656.286 139.448 656.286 140C656.286 140.552 655.838 141 655.286 141L655.286 139ZM655.185 141C654.633 141 654.185 140.552 654.185 140C654.185 139.448 654.633 139 655.185 139L655.185 141ZM651.168 139C651.72 139 652.168 139.448 652.168 140C652.168 140.552 651.72 141 651.168 141L651.168 139ZM651.067 141C650.515 141 650.067 140.552 650.067 140C650.067 139.448 650.515 139 651.067 139L651.067 141ZM647.05 139C647.603 139 648.05 139.448 648.05 140C648.05 140.552 647.603 141 647.05 141L647.05 139ZM717 141L716.95 141L716.95 139L717 139L717 141ZM712.933 141L712.832 141L712.832 139L712.933 139L712.933 141ZM708.815 141L708.714 141L708.714 139L708.815 139L708.815 141ZM704.697 141L704.597 141L704.597 139L704.697 139L704.697 141ZM700.58 141L700.479 141L700.479 139L700.58 139L700.58 141ZM696.462 141L696.362 141L696.362 139L696.462 139L696.462 141ZM692.344 141L692.244 141L692.244 139L692.344 139L692.344 141ZM688.227 141L688.126 141L688.126 139L688.227 139L688.227 141ZM684.109 141L684.009 141L684.009 139L684.109 139L684.109 141ZM679.991 141L679.891 141L679.891 139L679.991 139L679.991 141ZM675.874 141L675.773 141L675.773 139L675.874 139L675.874 141ZM671.756 141L671.656 141L671.656 139L671.756 139L671.756 141ZM667.638 141L667.538 141L667.538 139L667.638 139L667.638 141ZM663.521 141L663.42 141L663.42 139L663.521 139L663.521 141ZM659.403 141L659.303 141L659.303 139L659.403 139L659.403 141ZM655.286 141L655.185 141L655.185 139L655.286 139L655.286 141ZM651.168 141L651.067 141L651.067 139L651.168 139L651.168 141ZM647.05 141L647 141L647 139L647.05 139L647.05 141Z" fill="#C9C9C9"/>
<circle r="4" transform="matrix(-1 0 0 1 639 140)" fill="white" stroke="#2E87EF" stroke-width="2"/>
<path d="M284 139C283.448 139 283 139.448 283 140C283 140.552 283.448 141 284 141L284 139ZM354 141C354.552 141 355 140.552 355 140C355 139.448 354.552 139 354 139L354 141ZM284.05 141C284.603 141 285.05 140.552 285.05 140C285.05 139.448 284.602 139 284.05 139L284.05 141ZM288.067 139C287.515 139 287.067 139.448 287.067 140C287.067 140.552 287.515 141 288.067 141L288.067 139ZM288.168 141C288.72 141 289.168 140.552 289.168 140C289.168 139.448 288.72 139 288.168 139L288.168 141ZM292.185 139C291.633 139 291.185 139.448 291.185 140C291.185 140.552 291.633 141 292.185 141L292.185 139ZM292.286 141C292.838 141 293.286 140.552 293.286 140C293.286 139.448 292.838 139 292.286 139L292.286 141ZM296.303 139C295.75 139 295.303 139.448 295.303 140C295.303 140.552 295.75 141 296.303 141L296.303 139ZM296.403 141C296.955 141 297.403 140.552 297.403 140C297.403 139.448 296.955 139 296.403 139L296.403 141ZM300.42 139C299.868 139 299.42 139.448 299.42 140C299.42 140.552 299.868 141 300.42 141L300.42 139ZM300.521 141C301.073 141 301.521 140.552 301.521 140C301.521 139.448 301.073 139 300.521 139L300.521 141ZM304.538 139C303.986 139 303.538 139.448 303.538 140C303.538 140.552 303.986 141 304.538 141L304.538 139ZM304.638 141C305.191 141 305.638 140.552 305.638 140C305.638 139.448 305.191 139 304.638 139L304.638 141ZM308.656 139C308.103 139 307.656 139.448 307.656 140C307.656 140.552 308.103 141 308.656 141L308.656 139ZM308.756 141C309.308 141 309.756 140.552 309.756 140C309.756 139.448 309.308 139 308.756 139L308.756 141ZM312.773 139C312.221 139 311.773 139.448 311.773 140C311.773 140.552 312.221 141 312.773 141L312.773 139ZM312.874 141C313.426 141 313.874 140.552 313.874 140C313.874 139.448 313.426 139 312.874 139L312.874 141ZM316.891 139C316.339 139 315.891 139.448 315.891 140C315.891 140.552 316.339 141 316.891 141L316.891 139ZM316.991 141C317.544 141 317.991 140.552 317.991 140C317.991 139.448 317.544 139 316.991 139L316.991 141ZM321.009 139C320.456 139 320.009 139.448 320.009 140C320.009 140.552 320.456 141 321.009 141L321.009 139ZM321.109 141C321.661 141 322.109 140.552 322.109 140C322.109 139.448 321.661 139 321.109 139L321.109 141ZM325.126 139C324.574 139 324.126 139.448 324.126 140C324.126 140.552 324.574 141 325.126 141L325.126 139ZM325.227 141C325.779 141 326.227 140.552 326.227 140C326.227 139.448 325.779 139 325.227 139L325.227 141ZM329.244 139C328.692 139 328.244 139.448 328.244 140C328.244 140.552 328.692 141 329.244 141L329.244 139ZM329.344 141C329.897 141 330.344 140.552 330.344 140C330.344 139.448 329.897 139 329.344 139L329.344 141ZM333.362 139C332.809 139 332.362 139.448 332.362 140C332.362 140.552 332.809 141 333.362 141L333.362 139ZM333.462 141C334.014 141 334.462 140.552 334.462 140C334.462 139.448 334.014 139 333.462 139L333.462 141ZM337.479 139C336.927 139 336.479 139.448 336.479 140C336.479 140.552 336.927 141 337.479 141L337.479 139ZM337.58 141C338.132 141 338.58 140.552 338.58 140C338.58 139.448 338.132 139 337.58 139L337.58 141ZM341.597 139C341.045 139 340.597 139.448 340.597 140C340.597 140.552 341.045 141 341.597 141L341.597 139ZM341.697 141C342.25 141 342.697 140.552 342.697 140C342.697 139.448 342.25 139 341.697 139L341.697 141ZM345.714 139C345.162 139 344.714 139.448 344.714 140C344.714 140.552 345.162 141 345.714 141L345.714 139ZM345.815 141C346.367 141 346.815 140.552 346.815 140C346.815 139.448 346.367 139 345.815 139L345.815 141ZM349.832 139C349.28 139 348.832 139.448 348.832 140C348.832 140.552 349.28 141 349.832 141L349.832 139ZM349.933 141C350.485 141 350.933 140.552 350.933 140C350.933 139.448 350.485 139 349.933 139L349.933 141ZM353.95 139C353.397 139 352.95 139.448 352.95 140C352.95 140.552 353.397 141 353.95 141L353.95 139ZM284 141L284.05 141L284.05 139L284 139L284 141ZM288.067 141L288.168 141L288.168 139L288.067 139L288.067 141ZM292.185 141L292.286 141L292.286 139L292.185 139L292.185 141ZM296.303 141L296.403 141L296.403 139L296.303 139L296.303 141ZM300.42 141L300.521 141L300.521 139L300.42 139L300.42 141ZM304.538 141L304.638 141L304.638 139L304.538 139L304.538 141ZM308.656 141L308.756 141L308.756 139L308.656 139L308.656 141ZM312.773 141L312.874 141L312.874 139L312.773 139L312.773 141ZM316.891 141L316.991 141L316.991 139L316.891 139L316.891 141ZM321.009 141L321.109 141L321.109 139L321.009 139L321.009 141ZM325.126 141L325.227 141L325.227 139L325.126 139L325.126 141ZM329.244 141L329.344 141L329.344 139L329.244 139L329.244 141ZM333.362 141L333.462 141L333.462 139L333.362 139L333.362 141ZM337.479 141L337.58 141L337.58 139L337.479 139L337.479 141ZM341.597 141L341.697 141L341.697 139L341.597 139L341.597 141ZM345.714 141L345.815 141L345.815 139L345.714 139L345.714 141ZM349.832 141L349.933 141L349.933 139L349.832 139L349.832 141ZM353.95 141L354 141L354 139L353.95 139L353.95 141Z" fill="#C9C9C9"/>
<circle cx="361" cy="140" r="4" fill="white" stroke="#2E87EF" stroke-width="2"/>
</svg>
