<svg width="1244" height="260" viewBox="0 0 1244 260" fill="none" xmlns="http://www.w3.org/2000/svg">
<circle cx="130" cy="130" r="129" fill="white" stroke="#2E87EF" stroke-width="2"/>
<path d="M73.9647 120.216C76.7007 120.216 78.2127 118.758 79.0767 117.264L76.8807 116.202C76.3767 117.192 75.2967 117.948 73.9647 117.948C71.8767 117.948 70.2927 116.274 70.2927 114.006C70.2927 111.738 71.8767 110.064 73.9647 110.064C75.2967 110.064 76.3767 110.838 76.8807 111.81L79.0767 110.73C78.2307 109.236 76.7007 107.796 73.9647 107.796C70.4547 107.796 67.6647 110.316 67.6647 114.006C67.6647 117.696 70.4547 120.216 73.9647 120.216ZM84.5762 120.216C87.4562 120.216 89.1842 118.128 89.1842 115.644C89.1842 113.178 87.4562 111.09 84.5762 111.09C81.7142 111.09 79.9862 113.178 79.9862 115.644C79.9862 118.128 81.7142 120.216 84.5762 120.216ZM84.5762 118.182C83.1542 118.182 82.3622 117.012 82.3622 115.644C82.3622 114.294 83.1542 113.124 84.5762 113.124C85.9982 113.124 86.8082 114.294 86.8082 115.644C86.8082 117.012 85.9982 118.182 84.5762 118.182ZM96.7481 120H99.0341V113.862C99.0341 112.17 98.1161 111.09 96.2081 111.09C94.7861 111.09 93.7241 111.774 93.1661 112.44V111.306H90.8801V120H93.1661V114.15C93.5441 113.628 94.2461 113.124 95.1461 113.124C96.1181 113.124 96.7481 113.538 96.7481 114.744V120ZM100.548 118.866C101.466 119.712 102.924 120.216 104.436 120.216C106.848 120.216 108.198 119.028 108.198 117.426C108.198 115.266 106.2 114.87 104.706 114.582C103.734 114.384 103.05 114.186 103.05 113.646C103.05 113.142 103.59 112.836 104.418 112.836C105.48 112.836 106.47 113.286 106.992 113.844L107.892 112.278C107.046 111.594 105.876 111.09 104.4 111.09C102.114 111.09 100.836 112.368 100.836 113.826C100.836 115.896 102.762 116.256 104.256 116.544C105.246 116.742 106.002 116.958 106.002 117.57C106.002 118.11 105.534 118.452 104.544 118.452C103.464 118.452 102.168 117.858 101.538 117.264L100.548 118.866ZM112.798 120.216C113.752 120.216 114.364 119.964 114.706 119.658L114.22 117.93C114.094 118.056 113.77 118.182 113.428 118.182C112.924 118.182 112.636 117.768 112.636 117.228V113.304H114.4V111.306H112.636V108.93H110.332V111.306H108.892V113.304H110.332V117.84C110.332 119.388 111.196 120.216 112.798 120.216ZM115.964 120H118.25V114.258C118.628 113.7 119.636 113.286 120.392 113.286C120.644 113.286 120.86 113.304 121.022 113.34V111.108C119.942 111.108 118.862 111.72 118.25 112.494V111.306H115.964V120ZM128.318 120H130.604V111.306H128.318V117.192C127.922 117.696 127.22 118.182 126.338 118.182C125.366 118.182 124.736 117.786 124.736 116.58V111.306H122.45V117.48C122.45 119.172 123.35 120.216 125.258 120.216C126.68 120.216 127.724 119.568 128.318 118.902V120ZM132.316 115.644C132.316 118.326 134.242 120.216 136.924 120.216C138.706 120.216 139.786 119.442 140.362 118.632L138.868 117.246C138.454 117.822 137.824 118.182 137.032 118.182C135.646 118.182 134.674 117.156 134.674 115.644C134.674 114.132 135.646 113.124 137.032 113.124C137.824 113.124 138.454 113.466 138.868 114.06L140.362 112.674C139.786 111.864 138.706 111.09 136.924 111.09C134.242 111.09 132.316 112.98 132.316 115.644ZM144.773 120.216C145.727 120.216 146.339 119.964 146.681 119.658L146.195 117.93C146.069 118.056 145.745 118.182 145.403 118.182C144.899 118.182 144.611 117.768 144.611 117.228V113.304H146.375V111.306H144.611V108.93H142.307V111.306H140.867V113.304H142.307V117.84C142.307 119.388 143.171 120.216 144.773 120.216ZM149.073 110.028C149.829 110.028 150.441 109.416 150.441 108.66C150.441 107.904 149.829 107.292 149.073 107.292C148.335 107.292 147.705 107.904 147.705 108.66C147.705 109.416 148.335 110.028 149.073 110.028ZM147.939 120H150.225V111.306H147.939V120ZM156.523 120.216C159.403 120.216 161.131 118.128 161.131 115.644C161.131 113.178 159.403 111.09 156.523 111.09C153.661 111.09 151.933 113.178 151.933 115.644C151.933 118.128 153.661 120.216 156.523 120.216ZM156.523 118.182C155.101 118.182 154.309 117.012 154.309 115.644C154.309 114.294 155.101 113.124 156.523 113.124C157.945 113.124 158.755 114.294 158.755 115.644C158.755 117.012 157.945 118.182 156.523 118.182ZM168.695 120H170.981V113.862C170.981 112.17 170.063 111.09 168.155 111.09C166.733 111.09 165.671 111.774 165.113 112.44V111.306H162.827V120H165.113V114.15C165.491 113.628 166.193 113.124 167.093 113.124C168.065 113.124 168.695 113.538 168.695 114.744V120ZM181.889 120.216C184.769 120.216 186.497 118.128 186.497 115.644C186.497 113.178 184.769 111.09 181.889 111.09C179.027 111.09 177.299 113.178 177.299 115.644C177.299 118.128 179.027 120.216 181.889 120.216ZM181.889 118.182C180.467 118.182 179.675 117.012 179.675 115.644C179.675 114.294 180.467 113.124 181.889 113.124C183.311 113.124 184.121 114.294 184.121 115.644C184.121 117.012 183.311 118.182 181.889 118.182ZM188.697 120H191.001V113.304H192.765V111.306H191.001V110.874C191.001 110.046 191.433 109.614 192.081 109.614C192.351 109.614 192.621 109.668 192.819 109.794L193.287 108.174C192.873 107.958 192.279 107.814 191.631 107.814C189.921 107.814 188.697 108.948 188.697 110.838V111.306H187.257V113.304H188.697V120ZM58.8221 147.644C58.8221 150.434 60.8201 152.216 63.4661 152.216C64.8161 152.216 66.1661 151.82 67.0481 151.01L66.0401 149.534C65.4821 150.074 64.5281 150.398 63.7181 150.398C62.2421 150.398 61.3601 149.48 61.2161 148.382H67.6781V147.878C67.6781 145.034 65.9141 143.09 63.3221 143.09C60.6761 143.09 58.8221 145.124 58.8221 147.644ZM63.3221 144.908C64.8341 144.908 65.4101 146.006 65.4641 146.834H61.1801C61.2881 145.97 61.9001 144.908 63.3221 144.908ZM74.0961 152H76.6521L73.5381 147.536L76.4541 143.306H73.8981L72.1161 145.988L70.3161 143.306H67.7601L70.6581 147.536L67.5801 152H70.1181L72.1161 149.066L74.0961 152ZM80.0704 155.312V150.884C80.7724 151.784 81.7264 152.216 82.7524 152.216C84.9844 152.216 86.6044 150.542 86.6044 147.644C86.6044 144.746 84.9844 143.09 82.7524 143.09C81.6904 143.09 80.7364 143.558 80.0704 144.404V143.306H77.7844V155.312H80.0704ZM84.2284 147.644C84.2284 149.156 83.3464 150.182 82.0324 150.182C81.2944 150.182 80.4484 149.732 80.0704 149.192V146.114C80.4484 145.556 81.2944 145.124 82.0324 145.124C83.3464 145.124 84.2284 146.15 84.2284 147.644ZM88.3137 152H90.5997V146.258C90.9777 145.7 91.9857 145.286 92.7417 145.286C92.9937 145.286 93.2097 145.304 93.3717 145.34V143.108C92.2917 143.108 91.2117 143.72 90.5997 144.494V143.306H88.3137V152ZM94.242 147.644C94.242 150.434 96.24 152.216 98.886 152.216C100.236 152.216 101.586 151.82 102.468 151.01L101.46 149.534C100.902 150.074 99.948 150.398 99.138 150.398C97.662 150.398 96.78 149.48 96.636 148.382H103.098V147.878C103.098 145.034 101.334 143.09 98.742 143.09C96.096 143.09 94.242 145.124 94.242 147.644ZM98.742 144.908C100.254 144.908 100.83 146.006 100.884 146.834H96.6C96.708 145.97 97.32 144.908 98.742 144.908ZM103.993 150.866C104.911 151.712 106.369 152.216 107.881 152.216C110.293 152.216 111.643 151.028 111.643 149.426C111.643 147.266 109.645 146.87 108.151 146.582C107.179 146.384 106.495 146.186 106.495 145.646C106.495 145.142 107.035 144.836 107.863 144.836C108.925 144.836 109.915 145.286 110.437 145.844L111.337 144.278C110.491 143.594 109.321 143.09 107.845 143.09C105.559 143.09 104.281 144.368 104.281 145.826C104.281 147.896 106.207 148.256 107.701 148.544C108.691 148.742 109.447 148.958 109.447 149.57C109.447 150.11 108.979 150.452 107.989 150.452C106.909 150.452 105.613 149.858 104.983 149.264L103.993 150.866ZM112.571 150.866C113.489 151.712 114.947 152.216 116.459 152.216C118.871 152.216 120.221 151.028 120.221 149.426C120.221 147.266 118.223 146.87 116.729 146.582C115.757 146.384 115.073 146.186 115.073 145.646C115.073 145.142 115.613 144.836 116.441 144.836C117.503 144.836 118.493 145.286 119.015 145.844L119.915 144.278C119.069 143.594 117.899 143.09 116.423 143.09C114.137 143.09 112.859 144.368 112.859 145.826C112.859 147.896 114.785 148.256 116.279 148.544C117.269 148.742 118.025 148.958 118.025 149.57C118.025 150.11 117.557 150.452 116.567 150.452C115.487 150.452 114.191 149.858 113.561 149.264L112.571 150.866ZM123.039 142.028C123.795 142.028 124.407 141.416 124.407 140.66C124.407 139.904 123.795 139.292 123.039 139.292C122.301 139.292 121.671 139.904 121.671 140.66C121.671 141.416 122.301 142.028 123.039 142.028ZM121.905 152H124.191V143.306H121.905V152ZM130.49 152.216C133.37 152.216 135.098 150.128 135.098 147.644C135.098 145.178 133.37 143.09 130.49 143.09C127.628 143.09 125.9 145.178 125.9 147.644C125.9 150.128 127.628 152.216 130.49 152.216ZM130.49 150.182C129.068 150.182 128.276 149.012 128.276 147.644C128.276 146.294 129.068 145.124 130.49 145.124C131.912 145.124 132.722 146.294 132.722 147.644C132.722 149.012 131.912 150.182 130.49 150.182ZM142.662 152H144.948V145.862C144.948 144.17 144.03 143.09 142.122 143.09C140.7 143.09 139.638 143.774 139.08 144.44V143.306H136.794V152H139.08V146.15C139.458 145.628 140.16 145.124 141.06 145.124C142.032 145.124 142.662 145.538 142.662 146.744V152ZM154.073 152H156.539L160.031 143.306H157.565L155.297 149.354L153.029 143.306H150.581L154.073 152ZM160.494 147.644C160.494 150.434 162.492 152.216 165.138 152.216C166.488 152.216 167.838 151.82 168.72 151.01L167.712 149.534C167.154 150.074 166.2 150.398 165.39 150.398C163.914 150.398 163.032 149.48 162.888 148.382H169.35V147.878C169.35 145.034 167.586 143.09 164.994 143.09C162.348 143.09 160.494 145.124 160.494 147.644ZM164.994 144.908C166.506 144.908 167.082 146.006 167.136 146.834H162.852C162.96 145.97 163.572 144.908 164.994 144.908ZM170.443 147.644C170.443 150.326 172.369 152.216 175.051 152.216C176.833 152.216 177.913 151.442 178.489 150.632L176.995 149.246C176.581 149.822 175.951 150.182 175.159 150.182C173.773 150.182 172.801 149.156 172.801 147.644C172.801 146.132 173.773 145.124 175.159 145.124C175.951 145.124 176.581 145.466 176.995 146.06L178.489 144.674C177.913 143.864 176.833 143.09 175.051 143.09C172.369 143.09 170.443 144.98 170.443 147.644ZM182.9 152.216C183.854 152.216 184.466 151.964 184.808 151.658L184.322 149.93C184.196 150.056 183.872 150.182 183.53 150.182C183.026 150.182 182.738 149.768 182.738 149.228V145.304H184.502V143.306H182.738V140.93H180.434V143.306H178.994V145.304H180.434V149.84C180.434 151.388 181.298 152.216 182.9 152.216ZM190.098 152.216C192.978 152.216 194.706 150.128 194.706 147.644C194.706 145.178 192.978 143.09 190.098 143.09C187.236 143.09 185.508 145.178 185.508 147.644C185.508 150.128 187.236 152.216 190.098 152.216ZM190.098 150.182C188.676 150.182 187.884 149.012 187.884 147.644C187.884 146.294 188.676 145.124 190.098 145.124C191.52 145.124 192.33 146.294 192.33 147.644C192.33 149.012 191.52 150.182 190.098 150.182ZM196.402 152H198.688V146.258C199.066 145.7 200.074 145.286 200.83 145.286C201.082 145.286 201.298 145.304 201.46 145.34V143.108C200.38 143.108 199.3 143.72 198.688 144.494V143.306H196.402V152Z" fill="#186BE8"/>
<circle cx="458" cy="130" r="129" fill="white" stroke="#2E87EF" stroke-width="2"/>
<path d="M402.129 104H404.685V99.698H407.745C410.337 99.698 411.777 97.952 411.777 95.864C411.777 93.758 410.355 91.994 407.745 91.994H402.129V104ZM409.167 95.846C409.167 96.854 408.411 97.502 407.403 97.502H404.685V94.19H407.403C408.411 94.19 409.167 94.856 409.167 95.846ZM419.176 104H421.462V95.306H419.176V101.192C418.78 101.696 418.078 102.182 417.196 102.182C416.224 102.182 415.594 101.786 415.594 100.58V95.306H413.308V101.48C413.308 103.172 414.208 104.216 416.116 104.216C417.538 104.216 418.582 103.568 419.176 102.902V104ZM423.732 104H426.018V98.258C426.396 97.7 427.404 97.286 428.16 97.286C428.412 97.286 428.628 97.304 428.79 97.34V95.108C427.71 95.108 426.63 95.72 426.018 96.494V95.306H423.732V104ZM431.352 94.028C432.108 94.028 432.72 93.416 432.72 92.66C432.72 91.904 432.108 91.292 431.352 91.292C430.614 91.292 429.984 91.904 429.984 92.66C429.984 93.416 430.614 94.028 431.352 94.028ZM430.218 104H432.504V95.306H430.218V104ZM441.791 94.028C442.547 94.028 443.159 93.416 443.159 92.66C443.159 91.904 442.547 91.292 441.791 91.292C441.053 91.292 440.423 91.904 440.423 92.66C440.423 93.416 441.053 94.028 441.791 94.028ZM435.275 104H437.579V97.304H439.343V95.306H437.579V94.838C437.579 94.046 438.011 93.614 438.659 93.614C438.965 93.614 439.217 93.704 439.397 93.83L439.865 92.174C439.451 91.958 438.857 91.814 438.209 91.814C436.499 91.814 435.275 92.948 435.275 94.838V95.306H433.835V97.304H435.275V104ZM440.657 104H442.943V95.306H440.657V104ZM444.654 99.644C444.654 102.326 446.58 104.216 449.262 104.216C451.044 104.216 452.124 103.442 452.7 102.632L451.206 101.246C450.792 101.822 450.162 102.182 449.37 102.182C447.984 102.182 447.012 101.156 447.012 99.644C447.012 98.132 447.984 97.124 449.37 97.124C450.162 97.124 450.792 97.466 451.206 98.06L452.7 96.674C452.124 95.864 451.044 95.09 449.262 95.09C446.58 95.09 444.654 96.98 444.654 99.644ZM459.415 104H461.701V98.384C461.701 95.882 459.883 95.09 457.903 95.09C456.535 95.09 455.167 95.522 454.105 96.458L454.969 97.988C455.707 97.304 456.571 96.962 457.507 96.962C458.659 96.962 459.415 97.538 459.415 98.42V99.626C458.839 98.924 457.813 98.564 456.661 98.564C455.275 98.564 453.637 99.302 453.637 101.336C453.637 103.28 455.275 104.216 456.661 104.216C457.795 104.216 458.821 103.802 459.415 103.1V104ZM459.415 101.912C459.037 102.416 458.317 102.668 457.579 102.668C456.679 102.668 455.941 102.2 455.941 101.39C455.941 100.562 456.679 100.076 457.579 100.076C458.317 100.076 459.037 100.328 459.415 100.832V101.912ZM466.884 104.216C467.838 104.216 468.45 103.964 468.792 103.658L468.306 101.93C468.18 102.056 467.856 102.182 467.514 102.182C467.01 102.182 466.722 101.768 466.722 101.228V97.304H468.486V95.306H466.722V92.93H464.418V95.306H462.978V97.304H464.418V101.84C464.418 103.388 465.282 104.216 466.884 104.216ZM471.184 94.028C471.94 94.028 472.552 93.416 472.552 92.66C472.552 91.904 471.94 91.292 471.184 91.292C470.446 91.292 469.816 91.904 469.816 92.66C469.816 93.416 470.446 94.028 471.184 94.028ZM470.05 104H472.336V95.306H470.05V104ZM478.635 104.216C481.515 104.216 483.243 102.128 483.243 99.644C483.243 97.178 481.515 95.09 478.635 95.09C475.773 95.09 474.045 97.178 474.045 99.644C474.045 102.128 475.773 104.216 478.635 104.216ZM478.635 102.182C477.213 102.182 476.421 101.012 476.421 99.644C476.421 98.294 477.213 97.124 478.635 97.124C480.057 97.124 480.867 98.294 480.867 99.644C480.867 101.012 480.057 102.182 478.635 102.182ZM490.807 104H493.093V97.862C493.093 96.17 492.175 95.09 490.267 95.09C488.845 95.09 487.783 95.774 487.225 96.44V95.306H484.939V104H487.225V98.15C487.603 97.628 488.305 97.124 489.205 97.124C490.177 97.124 490.807 97.538 490.807 98.744V104ZM504 104.216C506.88 104.216 508.608 102.128 508.608 99.644C508.608 97.178 506.88 95.09 504 95.09C501.138 95.09 499.41 97.178 499.41 99.644C499.41 102.128 501.138 104.216 504 104.216ZM504 102.182C502.578 102.182 501.786 101.012 501.786 99.644C501.786 98.294 502.578 97.124 504 97.124C505.422 97.124 506.232 98.294 506.232 99.644C506.232 101.012 505.422 102.182 504 102.182ZM510.808 104H513.112V97.304H514.876V95.306H513.112V94.874C513.112 94.046 513.544 93.614 514.192 93.614C514.462 93.614 514.732 93.668 514.93 93.794L515.398 92.174C514.984 91.958 514.39 91.814 513.742 91.814C512.032 91.814 510.808 92.948 510.808 94.838V95.306H509.368V97.304H510.808V104ZM384.519 131.644C384.519 134.434 386.517 136.216 389.163 136.216C390.513 136.216 391.863 135.82 392.745 135.01L391.737 133.534C391.179 134.074 390.225 134.398 389.415 134.398C387.939 134.398 387.057 133.48 386.913 132.382H393.375V131.878C393.375 129.034 391.611 127.09 389.019 127.09C386.373 127.09 384.519 129.124 384.519 131.644ZM389.019 128.908C390.531 128.908 391.107 130.006 391.161 130.834H386.877C386.985 129.97 387.597 128.908 389.019 128.908ZM399.793 136H402.349L399.235 131.536L402.151 127.306H399.595L397.813 129.988L396.013 127.306H393.457L396.355 131.536L393.277 136H395.815L397.813 133.066L399.793 136ZM405.768 139.312V134.884C406.47 135.784 407.424 136.216 408.45 136.216C410.682 136.216 412.302 134.542 412.302 131.644C412.302 128.746 410.682 127.09 408.45 127.09C407.388 127.09 406.434 127.558 405.768 128.404V127.306H403.482V139.312H405.768ZM409.926 131.644C409.926 133.156 409.044 134.182 407.73 134.182C406.992 134.182 406.146 133.732 405.768 133.192V130.114C406.146 129.556 406.992 129.124 407.73 129.124C409.044 129.124 409.926 130.15 409.926 131.644ZM414.011 136H416.297V130.258C416.675 129.7 417.683 129.286 418.439 129.286C418.691 129.286 418.907 129.304 419.069 129.34V127.108C417.989 127.108 416.909 127.72 416.297 128.494V127.306H414.011V136ZM419.939 131.644C419.939 134.434 421.937 136.216 424.583 136.216C425.933 136.216 427.283 135.82 428.165 135.01L427.157 133.534C426.599 134.074 425.645 134.398 424.835 134.398C423.359 134.398 422.477 133.48 422.333 132.382H428.795V131.878C428.795 129.034 427.031 127.09 424.439 127.09C421.793 127.09 419.939 129.124 419.939 131.644ZM424.439 128.908C425.951 128.908 426.527 130.006 426.581 130.834H422.297C422.405 129.97 423.017 128.908 424.439 128.908ZM429.691 134.866C430.609 135.712 432.067 136.216 433.579 136.216C435.991 136.216 437.341 135.028 437.341 133.426C437.341 131.266 435.343 130.87 433.849 130.582C432.877 130.384 432.193 130.186 432.193 129.646C432.193 129.142 432.733 128.836 433.561 128.836C434.623 128.836 435.613 129.286 436.135 129.844L437.035 128.278C436.189 127.594 435.019 127.09 433.543 127.09C431.257 127.09 429.979 128.368 429.979 129.826C429.979 131.896 431.905 132.256 433.399 132.544C434.389 132.742 435.145 132.958 435.145 133.57C435.145 134.11 434.677 134.452 433.687 134.452C432.607 134.452 431.311 133.858 430.681 133.264L429.691 134.866ZM438.269 134.866C439.187 135.712 440.645 136.216 442.157 136.216C444.569 136.216 445.919 135.028 445.919 133.426C445.919 131.266 443.921 130.87 442.427 130.582C441.455 130.384 440.771 130.186 440.771 129.646C440.771 129.142 441.311 128.836 442.139 128.836C443.201 128.836 444.191 129.286 444.713 129.844L445.613 128.278C444.767 127.594 443.597 127.09 442.121 127.09C439.835 127.09 438.557 128.368 438.557 129.826C438.557 131.896 440.483 132.256 441.977 132.544C442.967 132.742 443.723 132.958 443.723 133.57C443.723 134.11 443.255 134.452 442.265 134.452C441.185 134.452 439.889 133.858 439.259 133.264L438.269 134.866ZM448.737 126.028C449.493 126.028 450.105 125.416 450.105 124.66C450.105 123.904 449.493 123.292 448.737 123.292C447.999 123.292 447.369 123.904 447.369 124.66C447.369 125.416 447.999 126.028 448.737 126.028ZM447.603 136H449.889V127.306H447.603V136ZM456.187 136.216C459.067 136.216 460.795 134.128 460.795 131.644C460.795 129.178 459.067 127.09 456.187 127.09C453.325 127.09 451.597 129.178 451.597 131.644C451.597 134.128 453.325 136.216 456.187 136.216ZM456.187 134.182C454.765 134.182 453.973 133.012 453.973 131.644C453.973 130.294 454.765 129.124 456.187 129.124C457.609 129.124 458.419 130.294 458.419 131.644C458.419 133.012 457.609 134.182 456.187 134.182ZM468.359 136H470.645V129.862C470.645 128.17 469.727 127.09 467.819 127.09C466.397 127.09 465.335 127.774 464.777 128.44V127.306H462.491V136H464.777V130.15C465.155 129.628 465.857 129.124 466.757 129.124C467.729 129.124 468.359 129.538 468.359 130.744V136ZM479.771 136H482.237L485.729 127.306H483.263L480.995 133.354L478.727 127.306H476.279L479.771 136ZM486.191 131.644C486.191 134.434 488.189 136.216 490.835 136.216C492.185 136.216 493.535 135.82 494.417 135.01L493.409 133.534C492.851 134.074 491.897 134.398 491.087 134.398C489.611 134.398 488.729 133.48 488.585 132.382H495.047V131.878C495.047 129.034 493.283 127.09 490.691 127.09C488.045 127.09 486.191 129.124 486.191 131.644ZM490.691 128.908C492.203 128.908 492.779 130.006 492.833 130.834H488.549C488.657 129.97 489.269 128.908 490.691 128.908ZM496.14 131.644C496.14 134.326 498.066 136.216 500.748 136.216C502.53 136.216 503.61 135.442 504.186 134.632L502.692 133.246C502.278 133.822 501.648 134.182 500.856 134.182C499.47 134.182 498.498 133.156 498.498 131.644C498.498 130.132 499.47 129.124 500.856 129.124C501.648 129.124 502.278 129.466 502.692 130.06L504.186 128.674C503.61 127.864 502.53 127.09 500.748 127.09C498.066 127.09 496.14 128.98 496.14 131.644ZM508.597 136.216C509.551 136.216 510.163 135.964 510.505 135.658L510.019 133.93C509.893 134.056 509.569 134.182 509.227 134.182C508.723 134.182 508.435 133.768 508.435 133.228V129.304H510.199V127.306H508.435V124.93H506.131V127.306H504.691V129.304H506.131V133.84C506.131 135.388 506.995 136.216 508.597 136.216ZM515.795 136.216C518.675 136.216 520.403 134.128 520.403 131.644C520.403 129.178 518.675 127.09 515.795 127.09C512.933 127.09 511.205 129.178 511.205 131.644C511.205 134.128 512.933 136.216 515.795 136.216ZM515.795 134.182C514.373 134.182 513.581 133.012 513.581 131.644C513.581 130.294 514.373 129.124 515.795 129.124C517.217 129.124 518.027 130.294 518.027 131.644C518.027 133.012 517.217 134.182 515.795 134.182ZM522.099 136H524.385V130.258C524.763 129.7 525.771 129.286 526.527 129.286C526.779 129.286 526.995 129.304 527.157 129.34V127.108C526.077 127.108 524.997 127.72 524.385 128.494V127.306H522.099V136ZM388.209 168H390.513V161.304H392.277V159.306H390.513V158.874C390.513 158.046 390.945 157.614 391.593 157.614C391.863 157.614 392.133 157.668 392.331 157.794L392.799 156.174C392.385 155.958 391.791 155.814 391.143 155.814C389.433 155.814 388.209 156.948 388.209 158.838V159.306H386.769V161.304H388.209V168ZM397.626 168.216C400.506 168.216 402.234 166.128 402.234 163.644C402.234 161.178 400.506 159.09 397.626 159.09C394.764 159.09 393.036 161.178 393.036 163.644C393.036 166.128 394.764 168.216 397.626 168.216ZM397.626 166.182C396.204 166.182 395.412 165.012 395.412 163.644C395.412 162.294 396.204 161.124 397.626 161.124C399.048 161.124 399.858 162.294 399.858 163.644C399.858 165.012 399.048 166.182 397.626 166.182ZM403.93 168H406.216V162.258C406.594 161.7 407.602 161.286 408.358 161.286C408.61 161.286 408.826 161.304 408.988 161.34V159.108C407.908 159.108 406.828 159.72 406.216 160.494V159.306H403.93V168ZM425.804 168H428.108V161.718C428.108 159.936 427.154 159.09 425.552 159.09C424.22 159.09 423.068 159.882 422.564 160.674C422.24 159.684 421.43 159.09 420.152 159.09C418.82 159.09 417.668 159.918 417.308 160.44V159.306H415.022V168H417.308V162.15C417.65 161.664 418.316 161.124 419.108 161.124C420.044 161.124 420.404 161.7 420.404 162.51V168H422.708V162.132C423.032 161.664 423.698 161.124 424.508 161.124C425.444 161.124 425.804 161.7 425.804 162.51V168ZM431.484 158.028C432.24 158.028 432.852 157.416 432.852 156.66C432.852 155.904 432.24 155.292 431.484 155.292C430.746 155.292 430.116 155.904 430.116 156.66C430.116 157.416 430.746 158.028 431.484 158.028ZM430.35 168H432.636V159.306H430.35V168ZM434.345 163.644C434.345 166.326 436.271 168.216 438.953 168.216C440.735 168.216 441.815 167.442 442.391 166.632L440.897 165.246C440.483 165.822 439.853 166.182 439.061 166.182C437.675 166.182 436.703 165.156 436.703 163.644C436.703 162.132 437.675 161.124 439.061 161.124C439.853 161.124 440.483 161.466 440.897 162.06L442.391 160.674C441.815 159.864 440.735 159.09 438.953 159.09C436.271 159.09 434.345 160.98 434.345 163.644ZM443.885 168H446.171V162.258C446.549 161.7 447.557 161.286 448.313 161.286C448.565 161.286 448.781 161.304 448.943 161.34V159.108C447.863 159.108 446.783 159.72 446.171 160.494V159.306H443.885V168ZM454.403 168.216C457.283 168.216 459.011 166.128 459.011 163.644C459.011 161.178 457.283 159.09 454.403 159.09C451.541 159.09 449.813 161.178 449.813 163.644C449.813 166.128 451.541 168.216 454.403 168.216ZM454.403 166.182C452.981 166.182 452.189 165.012 452.189 163.644C452.189 162.294 452.981 161.124 454.403 161.124C455.825 161.124 456.635 162.294 456.635 163.644C456.635 165.012 455.825 166.182 454.403 166.182ZM461.841 158.028C462.597 158.028 463.209 157.416 463.209 156.66C463.209 155.904 462.597 155.292 461.841 155.292C461.103 155.292 460.473 155.904 460.473 156.66C460.473 157.416 461.103 158.028 461.841 158.028ZM460.707 168H462.993V159.306H460.707V168ZM471.128 168H473.414V161.862C473.414 160.17 472.496 159.09 470.588 159.09C469.166 159.09 468.104 159.774 467.546 160.44V159.306H465.26V168H467.546V162.15C467.924 161.628 468.626 161.124 469.526 161.124C470.498 161.124 471.128 161.538 471.128 162.744V168ZM476.818 158.028C477.574 158.028 478.186 157.416 478.186 156.66C478.186 155.904 477.574 155.292 476.818 155.292C476.08 155.292 475.45 155.904 475.45 156.66C475.45 157.416 476.08 158.028 476.818 158.028ZM477.97 159.306H475.684V168.234C475.684 169.206 475.198 169.62 474.532 169.62C474.388 169.62 474.172 169.602 474.028 169.566L473.884 171.438C474.154 171.492 474.46 171.528 474.874 171.528C476.962 171.528 477.97 170.214 477.97 168.234V159.306ZM479.679 163.644C479.679 166.434 481.677 168.216 484.323 168.216C485.673 168.216 487.023 167.82 487.905 167.01L486.897 165.534C486.339 166.074 485.385 166.398 484.575 166.398C483.099 166.398 482.217 165.48 482.073 164.382H488.535V163.878C488.535 161.034 486.771 159.09 484.179 159.09C481.533 159.09 479.679 161.124 479.679 163.644ZM484.179 160.908C485.691 160.908 486.267 162.006 486.321 162.834H482.037C482.145 161.97 482.757 160.908 484.179 160.908ZM489.628 163.644C489.628 166.326 491.554 168.216 494.236 168.216C496.018 168.216 497.098 167.442 497.674 166.632L496.18 165.246C495.766 165.822 495.136 166.182 494.344 166.182C492.958 166.182 491.986 165.156 491.986 163.644C491.986 162.132 492.958 161.124 494.344 161.124C495.136 161.124 495.766 161.466 496.18 162.06L497.674 160.674C497.098 159.864 496.018 159.09 494.236 159.09C491.554 159.09 489.628 160.98 489.628 163.644ZM502.084 168.216C503.038 168.216 503.65 167.964 503.992 167.658L503.506 165.93C503.38 166.056 503.056 166.182 502.714 166.182C502.21 166.182 501.922 165.768 501.922 165.228V161.304H503.686V159.306H501.922V156.93H499.618V159.306H498.178V161.304H499.618V165.84C499.618 167.388 500.482 168.216 502.084 168.216ZM506.384 158.028C507.14 158.028 507.752 157.416 507.752 156.66C507.752 155.904 507.14 155.292 506.384 155.292C505.646 155.292 505.016 155.904 505.016 156.66C505.016 157.416 505.646 158.028 506.384 158.028ZM505.25 168H507.536V159.306H505.25V168ZM513.835 168.216C516.715 168.216 518.443 166.128 518.443 163.644C518.443 161.178 516.715 159.09 513.835 159.09C510.973 159.09 509.245 161.178 509.245 163.644C509.245 166.128 510.973 168.216 513.835 168.216ZM513.835 166.182C512.413 166.182 511.621 165.012 511.621 163.644C511.621 162.294 512.413 161.124 513.835 161.124C515.257 161.124 516.067 162.294 516.067 163.644C516.067 165.012 515.257 166.182 513.835 166.182ZM526.007 168H528.293V161.862C528.293 160.17 527.375 159.09 525.467 159.09C524.045 159.09 522.983 159.774 522.425 160.44V159.306H520.139V168H522.425V162.15C522.803 161.628 523.505 161.124 524.405 161.124C525.377 161.124 526.007 161.538 526.007 162.744V168Z" fill="#186BE8"/>
<circle cx="786" cy="130" r="129" fill="white" stroke="#2E87EF" stroke-width="2"/>
<path d="M731.701 104H734.275V91.994H730.675L727.759 99.482L724.843 91.994H721.261V104H723.817V95.36L727.201 104H728.317L731.701 95.36V104ZM737.74 94.028C738.496 94.028 739.108 93.416 739.108 92.66C739.108 91.904 738.496 91.292 737.74 91.292C737.002 91.292 736.372 91.904 736.372 92.66C736.372 93.416 737.002 94.028 737.74 94.028ZM736.606 104H738.892V95.306H736.606V104ZM740.6 99.644C740.6 102.326 742.526 104.216 745.208 104.216C746.99 104.216 748.07 103.442 748.646 102.632L747.152 101.246C746.738 101.822 746.108 102.182 745.316 102.182C743.93 102.182 742.958 101.156 742.958 99.644C742.958 98.132 743.93 97.124 745.316 97.124C746.108 97.124 746.738 97.466 747.152 98.06L748.646 96.674C748.07 95.864 746.99 95.09 745.208 95.09C742.526 95.09 740.6 96.98 740.6 99.644ZM750.141 104H752.427V98.258C752.805 97.7 753.813 97.286 754.569 97.286C754.821 97.286 755.037 97.304 755.199 97.34V95.108C754.119 95.108 753.039 95.72 752.427 96.494V95.306H750.141V104ZM760.659 104.216C763.539 104.216 765.267 102.128 765.267 99.644C765.267 97.178 763.539 95.09 760.659 95.09C757.797 95.09 756.069 97.178 756.069 99.644C756.069 102.128 757.797 104.216 760.659 104.216ZM760.659 102.182C759.237 102.182 758.445 101.012 758.445 99.644C758.445 98.294 759.237 97.124 760.659 97.124C762.081 97.124 762.891 98.294 762.891 99.644C762.891 101.012 762.081 102.182 760.659 102.182ZM768.097 94.028C768.853 94.028 769.465 93.416 769.465 92.66C769.465 91.904 768.853 91.292 768.097 91.292C767.359 91.292 766.729 91.904 766.729 92.66C766.729 93.416 767.359 94.028 768.097 94.028ZM766.963 104H769.249V95.306H766.963V104ZM777.384 104H779.67V97.862C779.67 96.17 778.752 95.09 776.844 95.09C775.422 95.09 774.36 95.774 773.802 96.44V95.306H771.516V104H773.802V98.15C774.18 97.628 774.882 97.124 775.782 97.124C776.754 97.124 777.384 97.538 777.384 98.744V104ZM783.074 94.028C783.83 94.028 784.442 93.416 784.442 92.66C784.442 91.904 783.83 91.292 783.074 91.292C782.336 91.292 781.706 91.904 781.706 92.66C781.706 93.416 782.336 94.028 783.074 94.028ZM784.226 95.306H781.94V104.234C781.94 105.206 781.454 105.62 780.788 105.62C780.644 105.62 780.428 105.602 780.284 105.566L780.14 107.438C780.41 107.492 780.716 107.528 781.13 107.528C783.218 107.528 784.226 106.214 784.226 104.234V95.306ZM785.934 99.644C785.934 102.434 787.932 104.216 790.578 104.216C791.928 104.216 793.278 103.82 794.16 103.01L793.152 101.534C792.594 102.074 791.64 102.398 790.83 102.398C789.354 102.398 788.472 101.48 788.328 100.382H794.79V99.878C794.79 97.034 793.026 95.09 790.434 95.09C787.788 95.09 785.934 97.124 785.934 99.644ZM790.434 96.908C791.946 96.908 792.522 98.006 792.576 98.834H788.292C788.4 97.97 789.012 96.908 790.434 96.908ZM795.884 99.644C795.884 102.326 797.81 104.216 800.492 104.216C802.274 104.216 803.354 103.442 803.93 102.632L802.436 101.246C802.022 101.822 801.392 102.182 800.6 102.182C799.214 102.182 798.242 101.156 798.242 99.644C798.242 98.132 799.214 97.124 800.6 97.124C801.392 97.124 802.022 97.466 802.436 98.06L803.93 96.674C803.354 95.864 802.274 95.09 800.492 95.09C797.81 95.09 795.884 96.98 795.884 99.644ZM808.34 104.216C809.294 104.216 809.906 103.964 810.248 103.658L809.762 101.93C809.636 102.056 809.312 102.182 808.97 102.182C808.466 102.182 808.178 101.768 808.178 101.228V97.304H809.942V95.306H808.178V92.93H805.874V95.306H804.434V97.304H805.874V101.84C805.874 103.388 806.738 104.216 808.34 104.216ZM812.64 94.028C813.396 94.028 814.008 93.416 814.008 92.66C814.008 91.904 813.396 91.292 812.64 91.292C811.902 91.292 811.272 91.904 811.272 92.66C811.272 93.416 811.902 94.028 812.64 94.028ZM811.506 104H813.792V95.306H811.506V104ZM820.091 104.216C822.971 104.216 824.699 102.128 824.699 99.644C824.699 97.178 822.971 95.09 820.091 95.09C817.229 95.09 815.501 97.178 815.501 99.644C815.501 102.128 817.229 104.216 820.091 104.216ZM820.091 102.182C818.669 102.182 817.877 101.012 817.877 99.644C817.877 98.294 818.669 97.124 820.091 97.124C821.513 97.124 822.323 98.294 822.323 99.644C822.323 101.012 821.513 102.182 820.091 102.182ZM832.263 104H834.549V97.862C834.549 96.17 833.631 95.09 831.723 95.09C830.301 95.09 829.239 95.774 828.681 96.44V95.306H826.395V104H828.681V98.15C829.059 97.628 829.761 97.124 830.661 97.124C831.633 97.124 832.263 97.538 832.263 98.744V104ZM849.452 101.588C850.136 100.67 850.694 99.644 851.126 98.69L849.29 97.844C849.074 98.546 848.696 99.392 848.192 100.166C847.85 99.77 847.508 99.374 847.166 98.942C846.86 98.582 846.5 98.132 846.14 97.646C847.616 96.962 849.092 96.188 849.092 94.352C849.092 92.75 847.634 91.814 845.924 91.814C843.926 91.814 842.504 93.074 842.504 94.694C842.504 95.504 842.828 96.386 843.296 97.268C841.928 97.97 840.704 98.906 840.704 100.742C840.704 103.064 842.468 104.216 844.682 104.216C845.978 104.216 847.04 103.784 847.94 103.1C848.282 103.442 848.588 103.766 848.84 104H851.756C850.928 103.154 850.172 102.362 849.452 101.588ZM844.79 94.748C844.79 94.01 845.33 93.47 846.05 93.47C846.644 93.47 847.094 93.848 847.094 94.478C847.094 95.36 846.32 95.882 845.312 96.35C845.006 95.792 844.79 95.234 844.79 94.748ZM844.988 102.416C843.998 102.416 843.134 101.696 843.134 100.526C843.134 99.698 843.566 99.14 844.178 98.69C844.574 99.248 844.988 99.788 845.384 100.274C845.672 100.634 846.176 101.192 846.716 101.786C846.194 102.182 845.618 102.416 844.988 102.416ZM732.072 136H734.628V131.698H737.688C740.28 131.698 741.72 129.952 741.72 127.864C741.72 125.758 740.298 123.994 737.688 123.994H732.072V136ZM739.11 127.846C739.11 128.854 738.354 129.502 737.346 129.502H734.628V126.19H737.346C738.354 126.19 739.11 126.856 739.11 127.846ZM743.25 136H745.536V130.258C745.914 129.7 746.922 129.286 747.678 129.286C747.93 129.286 748.146 129.304 748.308 129.34V127.108C747.228 127.108 746.148 127.72 745.536 128.494V127.306H743.25V136ZM753.769 136.216C756.649 136.216 758.377 134.128 758.377 131.644C758.377 129.178 756.649 127.09 753.769 127.09C750.907 127.09 749.179 129.178 749.179 131.644C749.179 134.128 750.907 136.216 753.769 136.216ZM753.769 134.182C752.347 134.182 751.555 133.012 751.555 131.644C751.555 130.294 752.347 129.124 753.769 129.124C755.191 129.124 756.001 130.294 756.001 131.644C756.001 133.012 755.191 134.182 753.769 134.182ZM766.048 136H768.352V123.994H766.048V128.422C765.364 127.54 764.392 127.09 763.366 127.09C761.152 127.09 759.514 128.818 759.514 131.662C759.514 134.56 761.17 136.216 763.366 136.216C764.41 136.216 765.364 135.748 766.048 134.902V136ZM766.048 133.192C765.652 133.768 764.842 134.182 764.068 134.182C762.772 134.182 761.872 133.156 761.872 131.662C761.872 130.15 762.772 129.124 764.068 129.124C764.842 129.124 765.652 129.538 766.048 130.114V133.192ZM776.487 136H778.773V127.306H776.487V133.192C776.091 133.696 775.389 134.182 774.507 134.182C773.535 134.182 772.905 133.786 772.905 132.58V127.306H770.619V133.48C770.619 135.172 771.519 136.216 773.427 136.216C774.849 136.216 775.893 135.568 776.487 134.902V136ZM780.485 131.644C780.485 134.326 782.411 136.216 785.093 136.216C786.875 136.216 787.955 135.442 788.531 134.632L787.037 133.246C786.623 133.822 785.993 134.182 785.201 134.182C783.815 134.182 782.843 133.156 782.843 131.644C782.843 130.132 783.815 129.124 785.201 129.124C785.993 129.124 786.623 129.466 787.037 130.06L788.531 128.674C787.955 127.864 786.875 127.09 785.093 127.09C782.411 127.09 780.485 128.98 780.485 131.644ZM792.942 136.216C793.896 136.216 794.508 135.964 794.85 135.658L794.364 133.93C794.238 134.056 793.914 134.182 793.572 134.182C793.068 134.182 792.78 133.768 792.78 133.228V129.304H794.544V127.306H792.78V124.93H790.476V127.306H789.036V129.304H790.476V133.84C790.476 135.388 791.34 136.216 792.942 136.216ZM797.242 126.028C797.998 126.028 798.61 125.416 798.61 124.66C798.61 123.904 797.998 123.292 797.242 123.292C796.504 123.292 795.874 123.904 795.874 124.66C795.874 125.416 796.504 126.028 797.242 126.028ZM796.108 136H798.394V127.306H796.108V136ZM804.692 136.216C807.572 136.216 809.3 134.128 809.3 131.644C809.3 129.178 807.572 127.09 804.692 127.09C801.83 127.09 800.102 129.178 800.102 131.644C800.102 134.128 801.83 136.216 804.692 136.216ZM804.692 134.182C803.27 134.182 802.478 133.012 802.478 131.644C802.478 130.294 803.27 129.124 804.692 129.124C806.114 129.124 806.924 130.294 806.924 131.644C806.924 133.012 806.114 134.182 804.692 134.182ZM816.864 136H819.15V129.862C819.15 128.17 818.232 127.09 816.324 127.09C814.902 127.09 813.84 127.774 813.282 128.44V127.306H810.996V136H813.282V130.15C813.66 129.628 814.362 129.124 815.262 129.124C816.234 129.124 816.864 129.538 816.864 130.744V136ZM830.058 136.216C832.938 136.216 834.666 134.128 834.666 131.644C834.666 129.178 832.938 127.09 830.058 127.09C827.196 127.09 825.468 129.178 825.468 131.644C825.468 134.128 827.196 136.216 830.058 136.216ZM830.058 134.182C828.636 134.182 827.844 133.012 827.844 131.644C827.844 130.294 828.636 129.124 830.058 129.124C831.48 129.124 832.29 130.294 832.29 131.644C832.29 133.012 831.48 134.182 830.058 134.182ZM836.866 136H839.17V129.304H840.934V127.306H839.17V126.874C839.17 126.046 839.602 125.614 840.25 125.614C840.52 125.614 840.79 125.668 840.988 125.794L841.456 124.174C841.042 123.958 840.448 123.814 839.8 123.814C838.09 123.814 836.866 124.948 836.866 126.838V127.306H835.426V129.304H836.866V136ZM726 168H728.304V161.304H730.068V159.306H728.304V158.874C728.304 158.046 728.736 157.614 729.384 157.614C729.654 157.614 729.924 157.668 730.122 157.794L730.59 156.174C730.176 155.958 729.582 155.814 728.934 155.814C727.224 155.814 726 156.948 726 158.838V159.306H724.56V161.304H726V168ZM735.417 168.216C738.297 168.216 740.025 166.128 740.025 163.644C740.025 161.178 738.297 159.09 735.417 159.09C732.555 159.09 730.827 161.178 730.827 163.644C730.827 166.128 732.555 168.216 735.417 168.216ZM735.417 166.182C733.995 166.182 733.203 165.012 733.203 163.644C733.203 162.294 733.995 161.124 735.417 161.124C736.839 161.124 737.649 162.294 737.649 163.644C737.649 165.012 736.839 166.182 735.417 166.182ZM747.589 168H749.875V159.306H747.589V165.192C747.193 165.696 746.491 166.182 745.609 166.182C744.637 166.182 744.007 165.786 744.007 164.58V159.306H741.721V165.48C741.721 167.172 742.621 168.216 744.529 168.216C745.951 168.216 746.995 167.568 747.589 166.902V168ZM758.013 168H760.299V161.862C760.299 160.17 759.381 159.09 757.473 159.09C756.051 159.09 754.989 159.774 754.431 160.44V159.306H752.145V168H754.431V162.15C754.809 161.628 755.511 161.124 756.411 161.124C757.383 161.124 758.013 161.538 758.013 162.744V168ZM768.545 168H770.849V155.994H768.545V160.422C767.861 159.54 766.889 159.09 765.863 159.09C763.649 159.09 762.011 160.818 762.011 163.662C762.011 166.56 763.667 168.216 765.863 168.216C766.907 168.216 767.861 167.748 768.545 166.902V168ZM768.545 165.192C768.149 165.768 767.339 166.182 766.565 166.182C765.269 166.182 764.369 165.156 764.369 163.662C764.369 162.15 765.269 161.124 766.565 161.124C767.339 161.124 768.149 161.538 768.545 162.114V165.192ZM772.557 163.644C772.557 166.434 774.555 168.216 777.201 168.216C778.551 168.216 779.901 167.82 780.783 167.01L779.775 165.534C779.217 166.074 778.263 166.398 777.453 166.398C775.977 166.398 775.095 165.48 774.951 164.382H781.413V163.878C781.413 161.034 779.649 159.09 777.057 159.09C774.411 159.09 772.557 161.124 772.557 163.644ZM777.057 160.908C778.569 160.908 779.145 162.006 779.199 162.834H774.915C775.023 161.97 775.635 160.908 777.057 160.908ZM783.065 168H785.351V162.258C785.729 161.7 786.737 161.286 787.493 161.286C787.745 161.286 787.961 161.304 788.123 161.34V159.108C787.043 159.108 785.963 159.72 785.351 160.494V159.306H783.065V168ZM804.938 168H807.242V161.718C807.242 159.936 806.288 159.09 804.686 159.09C803.354 159.09 802.202 159.882 801.698 160.674C801.374 159.684 800.564 159.09 799.286 159.09C797.954 159.09 796.802 159.918 796.442 160.44V159.306H794.156V168H796.442V162.15C796.784 161.664 797.45 161.124 798.242 161.124C799.178 161.124 799.538 161.7 799.538 162.51V168H801.842V162.132C802.166 161.664 802.832 161.124 803.642 161.124C804.578 161.124 804.938 161.7 804.938 162.51V168ZM813.517 168.216C816.397 168.216 818.125 166.128 818.125 163.644C818.125 161.178 816.397 159.09 813.517 159.09C810.655 159.09 808.927 161.178 808.927 163.644C808.927 166.128 810.655 168.216 813.517 168.216ZM813.517 166.182C812.095 166.182 811.303 165.012 811.303 163.644C811.303 162.294 812.095 161.124 813.517 161.124C814.939 161.124 815.749 162.294 815.749 163.644C815.749 165.012 814.939 166.182 813.517 166.182ZM825.689 168H827.975V159.306H825.689V165.192C825.293 165.696 824.591 166.182 823.709 166.182C822.737 166.182 822.107 165.786 822.107 164.58V159.306H819.821V165.48C819.821 167.172 820.721 168.216 822.629 168.216C824.051 168.216 825.095 167.568 825.689 166.902V168ZM829.488 166.866C830.406 167.712 831.864 168.216 833.376 168.216C835.788 168.216 837.138 167.028 837.138 165.426C837.138 163.266 835.14 162.87 833.646 162.582C832.674 162.384 831.99 162.186 831.99 161.646C831.99 161.142 832.53 160.836 833.358 160.836C834.42 160.836 835.41 161.286 835.932 161.844L836.832 160.278C835.986 159.594 834.816 159.09 833.34 159.09C831.054 159.09 829.776 160.368 829.776 161.826C829.776 163.896 831.702 164.256 833.196 164.544C834.186 164.742 834.942 164.958 834.942 165.57C834.942 166.11 834.474 166.452 833.484 166.452C832.404 166.452 831.108 165.858 830.478 165.264L829.488 166.866ZM838.264 163.644C838.264 166.434 840.262 168.216 842.908 168.216C844.258 168.216 845.608 167.82 846.49 167.01L845.482 165.534C844.924 166.074 843.97 166.398 843.16 166.398C841.684 166.398 840.802 165.48 840.658 164.382H847.12V163.878C847.12 161.034 845.356 159.09 842.764 159.09C840.118 159.09 838.264 161.124 838.264 163.644ZM842.764 160.908C844.276 160.908 844.852 162.006 844.906 162.834H840.622C840.73 161.97 841.342 160.908 842.764 160.908Z" fill="#186BE8"/>
<circle cx="1114" cy="130" r="129" fill="white" stroke="#2E87EF" stroke-width="2"/>
<path d="M1051.23 120H1053.79V107.994H1051.23V120ZM1062.09 120H1064.4V107.994H1062.09V112.422C1061.41 111.54 1060.44 111.09 1059.41 111.09C1057.2 111.09 1055.56 112.818 1055.56 115.662C1055.56 118.56 1057.21 120.216 1059.41 120.216C1060.45 120.216 1061.41 119.748 1062.09 118.902V120ZM1062.09 117.192C1061.7 117.768 1060.89 118.182 1060.11 118.182C1058.82 118.182 1057.92 117.156 1057.92 115.662C1057.92 114.15 1058.82 113.124 1060.11 113.124C1060.89 113.124 1061.7 113.538 1062.09 114.114V117.192ZM1066.1 115.644C1066.1 118.434 1068.1 120.216 1070.75 120.216C1072.1 120.216 1073.45 119.82 1074.33 119.01L1073.32 117.534C1072.76 118.074 1071.81 118.398 1071 118.398C1069.52 118.398 1068.64 117.48 1068.5 116.382H1074.96V115.878C1074.96 113.034 1073.2 111.09 1070.6 111.09C1067.96 111.09 1066.1 113.124 1066.1 115.644ZM1070.6 112.908C1072.12 112.908 1072.69 114.006 1072.75 114.834H1068.46C1068.57 113.97 1069.18 112.908 1070.6 112.908ZM1082.48 120H1084.77V113.862C1084.77 112.17 1083.85 111.09 1081.94 111.09C1080.52 111.09 1079.46 111.774 1078.9 112.44V111.306H1076.61V120H1078.9V114.15C1079.28 113.628 1079.98 113.124 1080.88 113.124C1081.85 113.124 1082.48 113.538 1082.48 114.744V120ZM1089.95 120.216C1090.91 120.216 1091.52 119.964 1091.86 119.658L1091.37 117.93C1091.25 118.056 1090.92 118.182 1090.58 118.182C1090.08 118.182 1089.79 117.768 1089.79 117.228V113.304H1091.55V111.306H1089.79V108.93H1087.49V111.306H1086.05V113.304H1087.49V117.84C1087.49 119.388 1088.35 120.216 1089.95 120.216ZM1094.25 110.028C1095.01 110.028 1095.62 109.416 1095.62 108.66C1095.62 107.904 1095.01 107.292 1094.25 107.292C1093.51 107.292 1092.88 107.904 1092.88 108.66C1092.88 109.416 1093.51 110.028 1094.25 110.028ZM1093.12 120H1095.4V111.306H1093.12V120ZM1104.69 110.028C1105.45 110.028 1106.06 109.416 1106.06 108.66C1106.06 107.904 1105.45 107.292 1104.69 107.292C1103.95 107.292 1103.32 107.904 1103.32 108.66C1103.32 109.416 1103.95 110.028 1104.69 110.028ZM1098.17 120H1100.48V113.304H1102.24V111.306H1100.48V110.838C1100.48 110.046 1100.91 109.614 1101.56 109.614C1101.86 109.614 1102.12 109.704 1102.3 109.83L1102.76 108.174C1102.35 107.958 1101.76 107.814 1101.11 107.814C1099.4 107.814 1098.17 108.948 1098.17 110.838V111.306H1096.73V113.304H1098.17V120ZM1103.56 120H1105.84V111.306H1103.56V120ZM1107.55 115.644C1107.55 118.326 1109.48 120.216 1112.16 120.216C1113.94 120.216 1115.02 119.442 1115.6 118.632L1114.11 117.246C1113.69 117.822 1113.06 118.182 1112.27 118.182C1110.88 118.182 1109.91 117.156 1109.91 115.644C1109.91 114.132 1110.88 113.124 1112.27 113.124C1113.06 113.124 1113.69 113.466 1114.11 114.06L1115.6 112.674C1115.02 111.864 1113.94 111.09 1112.16 111.09C1109.48 111.09 1107.55 112.98 1107.55 115.644ZM1122.31 120H1124.6V114.384C1124.6 111.882 1122.78 111.09 1120.8 111.09C1119.43 111.09 1118.07 111.522 1117 112.458L1117.87 113.988C1118.61 113.304 1119.47 112.962 1120.41 112.962C1121.56 112.962 1122.31 113.538 1122.31 114.42V115.626C1121.74 114.924 1120.71 114.564 1119.56 114.564C1118.17 114.564 1116.54 115.302 1116.54 117.336C1116.54 119.28 1118.17 120.216 1119.56 120.216C1120.69 120.216 1121.72 119.802 1122.31 119.1V120ZM1122.31 117.912C1121.94 118.416 1121.22 118.668 1120.48 118.668C1119.58 118.668 1118.84 118.2 1118.84 117.39C1118.84 116.562 1119.58 116.076 1120.48 116.076C1121.22 116.076 1121.94 116.328 1122.31 116.832V117.912ZM1129.78 120.216C1130.74 120.216 1131.35 119.964 1131.69 119.658L1131.21 117.93C1131.08 118.056 1130.76 118.182 1130.41 118.182C1129.91 118.182 1129.62 117.768 1129.62 117.228V113.304H1131.39V111.306H1129.62V108.93H1127.32V111.306H1125.88V113.304H1127.32V117.84C1127.32 119.388 1128.18 120.216 1129.78 120.216ZM1134.08 110.028C1134.84 110.028 1135.45 109.416 1135.45 108.66C1135.45 107.904 1134.84 107.292 1134.08 107.292C1133.35 107.292 1132.72 107.904 1132.72 108.66C1132.72 109.416 1133.35 110.028 1134.08 110.028ZM1132.95 120H1135.24V111.306H1132.95V120ZM1141.53 120.216C1144.41 120.216 1146.14 118.128 1146.14 115.644C1146.14 113.178 1144.41 111.09 1141.53 111.09C1138.67 111.09 1136.94 113.178 1136.94 115.644C1136.94 118.128 1138.67 120.216 1141.53 120.216ZM1141.53 118.182C1140.11 118.182 1139.32 117.012 1139.32 115.644C1139.32 114.294 1140.11 113.124 1141.53 113.124C1142.96 113.124 1143.77 114.294 1143.77 115.644C1143.77 117.012 1142.96 118.182 1141.53 118.182ZM1153.71 120H1155.99V113.862C1155.99 112.17 1155.07 111.09 1153.17 111.09C1151.74 111.09 1150.68 111.774 1150.12 112.44V111.306H1147.84V120H1150.12V114.15C1150.5 113.628 1151.2 113.124 1152.1 113.124C1153.08 113.124 1153.71 113.538 1153.71 114.744V120ZM1166.9 120.216C1169.78 120.216 1171.51 118.128 1171.51 115.644C1171.51 113.178 1169.78 111.09 1166.9 111.09C1164.04 111.09 1162.31 113.178 1162.31 115.644C1162.31 118.128 1164.04 120.216 1166.9 120.216ZM1166.9 118.182C1165.48 118.182 1164.69 117.012 1164.69 115.644C1164.69 114.294 1165.48 113.124 1166.9 113.124C1168.32 113.124 1169.13 114.294 1169.13 115.644C1169.13 117.012 1168.32 118.182 1166.9 118.182ZM1173.71 120H1176.01V113.304H1177.78V111.306H1176.01V110.874C1176.01 110.046 1176.44 109.614 1177.09 109.614C1177.36 109.614 1177.63 109.668 1177.83 109.794L1178.3 108.174C1177.88 107.958 1177.29 107.814 1176.64 107.814C1174.93 107.814 1173.71 108.948 1173.71 110.838V111.306H1172.27V113.304H1173.71V120ZM1052.11 152.216C1053.07 152.216 1053.68 151.964 1054.02 151.658L1053.54 149.93C1053.41 150.056 1053.09 150.182 1052.74 150.182C1052.24 150.182 1051.95 149.768 1051.95 149.228V145.304H1053.72V143.306H1051.95V140.93H1049.65V143.306H1048.21V145.304H1049.65V149.84C1049.65 151.388 1050.51 152.216 1052.11 152.216ZM1061.17 152H1063.45V145.826C1063.45 144.134 1062.53 143.09 1060.63 143.09C1059.2 143.09 1058.12 143.774 1057.57 144.44V139.994H1055.28V152H1057.57V146.15C1057.96 145.628 1058.66 145.124 1059.55 145.124C1060.54 145.124 1061.17 145.502 1061.17 146.708V152ZM1065.16 147.644C1065.16 150.434 1067.16 152.216 1069.81 152.216C1071.16 152.216 1072.51 151.82 1073.39 151.01L1072.38 149.534C1071.82 150.074 1070.87 150.398 1070.06 150.398C1068.58 150.398 1067.7 149.48 1067.56 148.382H1074.02V147.878C1074.02 145.034 1072.26 143.09 1069.66 143.09C1067.02 143.09 1065.16 145.124 1065.16 147.644ZM1069.66 144.908C1071.18 144.908 1071.75 146.006 1071.81 146.834H1067.52C1067.63 145.97 1068.24 144.908 1069.66 144.908ZM1080.78 152H1083.08V145.304H1084.85V143.306H1083.08V142.874C1083.08 142.046 1083.52 141.614 1084.16 141.614C1084.43 141.614 1084.7 141.668 1084.9 141.794L1085.37 140.174C1084.96 139.958 1084.36 139.814 1083.71 139.814C1082 139.814 1080.78 140.948 1080.78 142.838V143.306H1079.34V145.304H1080.78V152ZM1090.2 152.216C1093.08 152.216 1094.81 150.128 1094.81 147.644C1094.81 145.178 1093.08 143.09 1090.2 143.09C1087.34 143.09 1085.61 145.178 1085.61 147.644C1085.61 150.128 1087.34 152.216 1090.2 152.216ZM1090.2 150.182C1088.78 150.182 1087.98 149.012 1087.98 147.644C1087.98 146.294 1088.78 145.124 1090.2 145.124C1091.62 145.124 1092.43 146.294 1092.43 147.644C1092.43 149.012 1091.62 150.182 1090.2 150.182ZM1102.37 152H1104.66V143.306H1102.37V149.192C1101.97 149.696 1101.27 150.182 1100.39 150.182C1099.42 150.182 1098.79 149.786 1098.79 148.58V143.306H1096.5V149.48C1096.5 151.172 1097.4 152.216 1099.31 152.216C1100.73 152.216 1101.78 151.568 1102.37 150.902V152ZM1112.79 152H1115.08V145.862C1115.08 144.17 1114.16 143.09 1112.25 143.09C1110.83 143.09 1109.77 143.774 1109.21 144.44V143.306H1106.93V152H1109.21V146.15C1109.59 145.628 1110.29 145.124 1111.19 145.124C1112.16 145.124 1112.79 145.538 1112.79 146.744V152ZM1123.32 152H1125.63V139.994H1123.32V144.422C1122.64 143.54 1121.67 143.09 1120.64 143.09C1118.43 143.09 1116.79 144.818 1116.79 147.662C1116.79 150.56 1118.45 152.216 1120.64 152.216C1121.69 152.216 1122.64 151.748 1123.32 150.902V152ZM1123.32 149.192C1122.93 149.768 1122.12 150.182 1121.34 150.182C1120.05 150.182 1119.15 149.156 1119.15 147.662C1119.15 146.15 1120.05 145.124 1121.34 145.124C1122.12 145.124 1122.93 145.538 1123.32 146.114V149.192ZM1127.34 147.644C1127.34 150.434 1129.34 152.216 1131.98 152.216C1133.33 152.216 1134.68 151.82 1135.56 151.01L1134.56 149.534C1134 150.074 1133.04 150.398 1132.23 150.398C1130.76 150.398 1129.88 149.48 1129.73 148.382H1136.19V147.878C1136.19 145.034 1134.43 143.09 1131.84 143.09C1129.19 143.09 1127.34 145.124 1127.34 147.644ZM1131.84 144.908C1133.35 144.908 1133.93 146.006 1133.98 146.834H1129.7C1129.8 145.97 1130.42 144.908 1131.84 144.908ZM1137.84 152H1140.13V146.258C1140.51 145.7 1141.52 145.286 1142.27 145.286C1142.52 145.286 1142.74 145.304 1142.9 145.34V143.108C1141.82 143.108 1140.74 143.72 1140.13 144.494V143.306H1137.84V152ZM1151.38 155.582L1152.82 154.466C1151.6 152.306 1151.01 150.326 1151.01 147.626C1151.01 144.926 1151.6 142.946 1152.82 140.75L1151.38 139.67C1149.64 141.65 1148.54 144.728 1148.54 147.626C1148.54 150.524 1149.64 153.62 1151.38 155.582ZM1154.33 152H1156.89V146.996H1162.7V144.8H1156.89V142.19H1162.83V139.994H1154.33V152ZM1164.04 146.006C1164.04 149.102 1165.57 152.216 1169.01 152.216C1172.43 152.216 1173.98 149.102 1173.98 146.006C1173.98 142.91 1172.43 139.814 1169.01 139.814C1165.57 139.814 1164.04 142.91 1164.04 146.006ZM1171.37 146.006C1171.37 148.22 1170.72 149.948 1169.01 149.948C1167.28 149.948 1166.63 148.22 1166.63 146.006C1166.63 143.792 1167.28 142.082 1169.01 142.082C1170.72 142.082 1171.37 143.792 1171.37 146.006ZM1176.73 147.626C1176.73 150.326 1176.14 152.306 1174.9 154.466L1176.34 155.582C1178.1 153.62 1179.22 150.524 1179.22 147.626C1179.22 144.728 1178.1 141.65 1176.34 139.67L1174.9 140.75C1176.14 142.946 1176.73 144.926 1176.73 147.626Z" fill="#186BE8"/>
<path d="M318.051 124L324 129.911L318.051 135.821" stroke="#2E87EF" stroke-width="2"/>
<path d="M266 130L318 130" stroke="#2E87EF" stroke-width="2" stroke-linecap="round" stroke-dasharray="0.1 4"/>
<circle cx="259" cy="129.999" r="4" fill="#2E87EF"/>
<path d="M646.051 124L652 129.911L646.051 135.822" stroke="#2E87EF" stroke-width="2"/>
<path d="M594 130L646 130" stroke="#2E87EF" stroke-width="2" stroke-linecap="round" stroke-dasharray="0.1 4"/>
<circle cx="587" cy="130" r="4" fill="#2E87EF"/>
<path d="M974.051 124L980 129.911L974.051 135.822" stroke="#2E87EF" stroke-width="2"/>
<path d="M922 130L974 130" stroke="#2E87EF" stroke-width="2" stroke-linecap="round" stroke-dasharray="0.1 4"/>
<circle cx="915" cy="130" r="4" fill="#2E87EF"/>
</svg>
