<svg width="70" height="70" viewBox="0 0 70 70" fill="none" xmlns="http://www.w3.org/2000/svg">
<path d="M30.75 33.1253L39.2497 28.8872" stroke="black" stroke-width="2" stroke-linecap="round" stroke-linejoin="round"/>
<path d="M30.75 36.74L39.2497 40.9781" stroke="black" stroke-width="2" stroke-linecap="round" stroke-linejoin="round"/>
<path d="M27.1243 38.8589C29.3795 38.8589 31.2077 37.1011 31.2077 34.9326C31.2077 32.7642 29.3795 31.0063 27.1243 31.0063C24.8692 31.0063 23.041 32.7642 23.041 34.9326C23.041 37.1011 24.8692 38.8589 27.1243 38.8589Z" stroke="black" stroke-width="2" stroke-linecap="round" stroke-linejoin="round"/>
<path d="M42.8743 31.0064C45.1295 31.0064 46.9577 29.2485 46.9577 27.0801C46.9577 24.9117 45.1295 23.1538 42.8743 23.1538C40.6192 23.1538 38.791 24.9117 38.791 27.0801C38.791 29.2485 40.6192 31.0064 42.8743 31.0064Z" stroke="black" stroke-width="2" stroke-linecap="round" stroke-linejoin="round"/>
<path d="M42.8743 46.7117C45.1295 46.7117 46.9577 44.9538 46.9577 42.7854C46.9577 40.617 45.1295 38.8591 42.8743 38.8591C40.6192 38.8591 38.791 40.617 38.791 42.7854C38.791 44.9538 40.6192 46.7117 42.8743 46.7117Z" stroke="black" stroke-width="2" stroke-linecap="round" stroke-linejoin="round"/>
<path d="M35 69C16.2223 69 1 53.7777 1 35H-1C-1 54.8823 15.1177 71 35 71V69ZM69 35C69 53.7777 53.7777 69 35 69V71C54.8823 71 71 54.8823 71 35H69ZM35 1C53.7777 1 69 16.2223 69 35H71C71 15.1177 54.8823 -1 35 -1V1ZM35 -1C15.1177 -1 -1 15.1177 -1 35H1C1 16.2223 16.2223 1 35 1V-1Z" fill="#D9D9D9"/>
</svg>
