<svg width="26" height="26" viewBox="0 0 26 26" fill="none" xmlns="http://www.w3.org/2000/svg">
<path d="M8.75 11.1253L17.2497 6.88721" stroke="black" stroke-width="2" stroke-linecap="round" stroke-linejoin="round"/>
<path d="M8.75 14.74L17.2497 18.9781" stroke="black" stroke-width="2" stroke-linecap="round" stroke-linejoin="round"/>
<path d="M5.12435 16.8589C7.37951 16.8589 9.20768 15.1011 9.20768 12.9326C9.20768 10.7642 7.37951 9.00635 5.12435 9.00635C2.86919 9.00635 1.04102 10.7642 1.04102 12.9326C1.04102 15.1011 2.86919 16.8589 5.12435 16.8589Z" stroke="black" stroke-width="2" stroke-linecap="round" stroke-linejoin="round"/>
<path d="M20.8743 9.00637C23.1295 9.00637 24.9577 7.24852 24.9577 5.08009C24.9577 2.91167 23.1295 1.15381 20.8743 1.15381C18.6192 1.15381 16.791 2.91167 16.791 5.08009C16.791 7.24852 18.6192 9.00637 20.8743 9.00637Z" stroke="black" stroke-width="2" stroke-linecap="round" stroke-linejoin="round"/>
<path d="M20.8743 24.7117C23.1295 24.7117 24.9577 22.9538 24.9577 20.7854C24.9577 18.617 23.1295 16.8591 20.8743 16.8591C18.6192 16.8591 16.791 18.617 16.791 20.7854C16.791 22.9538 18.6192 24.7117 20.8743 24.7117Z" stroke="black" stroke-width="2" stroke-linecap="round" stroke-linejoin="round"/>
</svg>
