<svg width="612" height="2" viewBox="0 0 612 2" fill="none" xmlns="http://www.w3.org/2000/svg">
<path d="M1 0.5C0.723858 0.5 0.5 0.723858 0.5 1C0.5 1.27614 0.723858 1.5 1 1.5V0.5ZM611 1.5C611.276 1.5 611.5 1.27614 611.5 1C611.5 0.723858 611.276 0.5 611 0.5V1.5ZM1.005 1.5C1.28115 1.5 1.505 1.27614 1.505 1C1.505 0.723858 1.28115 0.5 1.005 0.5V1.5ZM5.00815 0.5C4.73201 0.5 4.50815 0.723858 4.50815 1C4.50815 1.27614 4.73201 1.5 5.00815 1.5V0.5ZM5.01816 1.5C5.2943 1.5 5.51816 1.27614 5.51816 1C5.51816 0.723858 5.2943 0.5 5.01816 0.5V1.5ZM9.02131 0.5C8.74517 0.5 8.52131 0.723858 8.52131 1C8.52131 1.27614 8.74517 1.5 9.02131 1.5V0.5ZM9.03132 1.5C9.30746 1.5 9.53132 1.27614 9.53132 1C9.53132 0.723858 9.30746 0.5 9.03132 0.5V1.5ZM13.0345 0.5C12.7583 0.5 12.5345 0.723858 12.5345 1C12.5345 1.27614 12.7583 1.5 13.0345 1.5V0.5ZM13.0445 1.5C13.3206 1.5 13.5445 1.27614 13.5445 1C13.5445 0.723858 13.3206 0.5 13.0445 0.5V1.5ZM17.0476 0.5C16.7715 0.5 16.5476 0.723858 16.5476 1C16.5476 1.27614 16.7715 1.5 17.0476 1.5V0.5ZM17.0576 1.5C17.3338 1.5 17.5576 1.27614 17.5576 1C17.5576 0.723858 17.3338 0.5 17.0576 0.5V1.5ZM21.0608 0.5C20.7846 0.5 20.5608 0.723858 20.5608 1C20.5608 1.27614 20.7846 1.5 21.0608 1.5V0.5ZM21.0708 1.5C21.3469 1.5 21.5708 1.27614 21.5708 1C21.5708 0.723858 21.3469 0.5 21.0708 0.5V1.5ZM25.0739 0.5C24.7978 0.5 24.5739 0.723858 24.5739 1C24.5739 1.27614 24.7978 1.5 25.0739 1.5V0.5ZM25.0839 1.5C25.3601 1.5 25.5839 1.27614 25.5839 1C25.5839 0.723858 25.3601 0.5 25.0839 0.5V1.5ZM29.0871 0.5C28.811 0.5 28.5871 0.723858 28.5871 1C28.5871 1.27614 28.811 1.5 29.0871 1.5V0.5ZM29.0971 1.5C29.3732 1.5 29.5971 1.27614 29.5971 1C29.5971 0.723858 29.3732 0.5 29.0971 0.5V1.5ZM33.1003 0.5C32.8241 0.5 32.6003 0.723858 32.6003 1C32.6003 1.27614 32.8241 1.5 33.1003 1.5V0.5ZM33.1103 1.5C33.3864 1.5 33.6103 1.27614 33.6103 1C33.6103 0.723858 33.3864 0.5 33.1103 0.5V1.5ZM37.1134 0.5C36.8373 0.5 36.6134 0.723858 36.6134 1C36.6134 1.27614 36.8373 1.5 37.1134 1.5V0.5ZM37.1234 1.5C37.3996 1.5 37.6234 1.27614 37.6234 1C37.6234 0.723858 37.3996 0.5 37.1234 0.5V1.5ZM41.1266 0.5C40.8504 0.5 40.6266 0.723858 40.6266 1C40.6266 1.27614 40.8504 1.5 41.1266 1.5V0.5ZM41.1366 1.5C41.4127 1.5 41.6366 1.27614 41.6366 1C41.6366 0.723858 41.4127 0.5 41.1366 0.5V1.5ZM45.1397 0.5C44.8636 0.5 44.6397 0.723858 44.6397 1C44.6397 1.27614 44.8636 1.5 45.1397 1.5V0.5ZM45.1497 1.5C45.4259 1.5 45.6497 1.27614 45.6497 1C45.6497 0.723858 45.4259 0.5 45.1497 0.5V1.5ZM49.1529 0.5C48.8768 0.5 48.6529 0.723858 48.6529 1C48.6529 1.27614 48.8768 1.5 49.1529 1.5V0.5ZM49.1629 1.5C49.439 1.5 49.6629 1.27614 49.6629 1C49.6629 0.723858 49.439 0.5 49.1629 0.5V1.5ZM53.1661 0.5C52.8899 0.5 52.6661 0.723858 52.6661 1C52.6661 1.27614 52.8899 1.5 53.1661 1.5V0.5ZM53.1761 1.5C53.4522 1.5 53.6761 1.27614 53.6761 1C53.6761 0.723858 53.4522 0.5 53.1761 0.5V1.5ZM57.1792 0.5C56.9031 0.5 56.6792 0.723858 56.6792 1C56.6792 1.27614 56.9031 1.5 57.1792 1.5V0.5ZM57.1892 1.5C57.4654 1.5 57.6892 1.27614 57.6892 1C57.6892 0.723858 57.4654 0.5 57.1892 0.5V1.5ZM61.1924 0.5C60.9162 0.5 60.6924 0.723858 60.6924 1C60.6924 1.27614 60.9162 1.5 61.1924 1.5V0.5ZM61.2024 1.5C61.4785 1.5 61.7024 1.27614 61.7024 1C61.7024 0.723858 61.4785 0.5 61.2024 0.5V1.5ZM65.2055 0.5C64.9294 0.5 64.7055 0.723858 64.7055 1C64.7055 1.27614 64.9294 1.5 65.2055 1.5V0.5ZM65.2155 1.5C65.4917 1.5 65.7155 1.27614 65.7155 1C65.7155 0.723858 65.4917 0.5 65.2155 0.5V1.5ZM69.2187 0.5C68.9426 0.5 68.7187 0.723858 68.7187 1C68.7187 1.27614 68.9426 1.5 69.2187 1.5V0.5ZM69.2287 1.5C69.5048 1.5 69.7287 1.27614 69.7287 1C69.7287 0.723858 69.5048 0.5 69.2287 0.5V1.5ZM73.2319 0.5C72.9557 0.5 72.7319 0.723858 72.7319 1C72.7319 1.27614 72.9557 1.5 73.2319 1.5V0.5ZM73.2419 1.5C73.518 1.5 73.7419 1.27614 73.7419 1C73.7419 0.723858 73.518 0.5 73.2419 0.5V1.5ZM77.245 0.5C76.9689 0.5 76.745 0.723858 76.745 1C76.745 1.27614 76.9689 1.5 77.245 1.5V0.5ZM77.255 1.5C77.5312 1.5 77.755 1.27614 77.755 1C77.755 0.723858 77.5312 0.5 77.255 0.5V1.5ZM81.2582 0.5C80.982 0.5 80.7582 0.723858 80.7582 1C80.7582 1.27614 80.982 1.5 81.2582 1.5V0.5ZM81.2682 1.5C81.5443 1.5 81.7682 1.27614 81.7682 1C81.7682 0.723858 81.5443 0.5 81.2682 0.5V1.5ZM85.2713 0.5C84.9952 0.5 84.7713 0.723858 84.7713 1C84.7713 1.27614 84.9952 1.5 85.2713 1.5V0.5ZM85.2813 1.5C85.5575 1.5 85.7813 1.27614 85.7813 1C85.7813 0.723858 85.5575 0.5 85.2813 0.5V1.5ZM89.2845 0.5C89.0084 0.5 88.7845 0.723858 88.7845 1C88.7845 1.27614 89.0084 1.5 89.2845 1.5V0.5ZM89.2945 1.5C89.5706 1.5 89.7945 1.27614 89.7945 1C89.7945 0.723858 89.5706 0.5 89.2945 0.5V1.5ZM93.2977 0.5C93.0215 0.5 92.7977 0.723858 92.7977 1C92.7977 1.27614 93.0215 1.5 93.2977 1.5V0.5ZM93.3077 1.5C93.5838 1.5 93.8077 1.27614 93.8077 1C93.8077 0.723858 93.5838 0.5 93.3077 0.5V1.5ZM97.3108 0.5C97.0347 0.5 96.8108 0.723858 96.8108 1C96.8108 1.27614 97.0347 1.5 97.3108 1.5V0.5ZM97.3208 1.5C97.597 1.5 97.8208 1.27614 97.8208 1C97.8208 0.723858 97.597 0.5 97.3208 0.5V1.5ZM101.324 0.5C101.048 0.5 100.824 0.723858 100.824 1C100.824 1.27614 101.048 1.5 101.324 1.5V0.5ZM101.334 1.5C101.61 1.5 101.834 1.27614 101.834 1C101.834 0.723858 101.61 0.5 101.334 0.5V1.5ZM105.337 0.5C105.061 0.5 104.837 0.723858 104.837 1C104.837 1.27614 105.061 1.5 105.337 1.5V0.5ZM105.347 1.5C105.623 1.5 105.847 1.27614 105.847 1C105.847 0.723858 105.623 0.5 105.347 0.5V1.5ZM109.35 0.5C109.074 0.5 108.85 0.723858 108.85 1C108.85 1.27614 109.074 1.5 109.35 1.5V0.5ZM109.36 1.5C109.636 1.5 109.86 1.27614 109.86 1C109.86 0.723858 109.636 0.5 109.36 0.5V1.5ZM113.363 0.5C113.087 0.5 112.863 0.723858 112.863 1C112.863 1.27614 113.087 1.5 113.363 1.5V0.5ZM113.373 1.5C113.65 1.5 113.873 1.27614 113.873 1C113.873 0.723858 113.65 0.5 113.373 0.5V1.5ZM117.377 0.5C117.1 0.5 116.877 0.723858 116.877 1C116.877 1.27614 117.1 1.5 117.377 1.5V0.5ZM117.387 1.5C117.663 1.5 117.887 1.27614 117.887 1C117.887 0.723858 117.663 0.5 117.387 0.5V1.5ZM121.39 0.5C121.114 0.5 120.89 0.723858 120.89 1C120.89 1.27614 121.114 1.5 121.39 1.5V0.5ZM121.4 1.5C121.676 1.5 121.9 1.27614 121.9 1C121.9 0.723858 121.676 0.5 121.4 0.5V1.5ZM125.403 0.5C125.127 0.5 124.903 0.723858 124.903 1C124.903 1.27614 125.127 1.5 125.403 1.5V0.5ZM125.413 1.5C125.689 1.5 125.913 1.27614 125.913 1C125.913 0.723858 125.689 0.5 125.413 0.5V1.5ZM129.416 0.5C129.14 0.5 128.916 0.723858 128.916 1C128.916 1.27614 129.14 1.5 129.416 1.5V0.5ZM129.426 1.5C129.702 1.5 129.926 1.27614 129.926 1C129.926 0.723858 129.702 0.5 129.426 0.5V1.5ZM133.429 0.5C133.153 0.5 132.929 0.723858 132.929 1C132.929 1.27614 133.153 1.5 133.429 1.5V0.5ZM133.439 1.5C133.715 1.5 133.939 1.27614 133.939 1C133.939 0.723858 133.715 0.5 133.439 0.5V1.5ZM137.442 0.5C137.166 0.5 136.942 0.723858 136.942 1C136.942 1.27614 137.166 1.5 137.442 1.5V0.5ZM137.452 1.5C137.729 1.5 137.952 1.27614 137.952 1C137.952 0.723858 137.729 0.5 137.452 0.5V1.5ZM141.456 0.5C141.179 0.5 140.956 0.723858 140.956 1C140.956 1.27614 141.179 1.5 141.456 1.5V0.5ZM141.466 1.5C141.742 1.5 141.966 1.27614 141.966 1C141.966 0.723858 141.742 0.5 141.466 0.5V1.5ZM145.469 0.5C145.193 0.5 144.969 0.723858 144.969 1C144.969 1.27614 145.193 1.5 145.469 1.5V0.5ZM145.479 1.5C145.755 1.5 145.979 1.27614 145.979 1C145.979 0.723858 145.755 0.5 145.479 0.5V1.5ZM149.482 0.5C149.206 0.5 148.982 0.723858 148.982 1C148.982 1.27614 149.206 1.5 149.482 1.5V0.5ZM149.492 1.5C149.768 1.5 149.992 1.27614 149.992 1C149.992 0.723858 149.768 0.5 149.492 0.5V1.5ZM153.495 0.5C153.219 0.5 152.995 0.723858 152.995 1C152.995 1.27614 153.219 1.5 153.495 1.5V0.5ZM153.505 1.5C153.781 1.5 154.005 1.27614 154.005 1C154.005 0.723858 153.781 0.5 153.505 0.5V1.5ZM157.508 0.5C157.232 0.5 157.008 0.723858 157.008 1C157.008 1.27614 157.232 1.5 157.508 1.5V0.5ZM157.518 1.5C157.794 1.5 158.018 1.27614 158.018 1C158.018 0.723858 157.794 0.5 157.518 0.5V1.5ZM161.521 0.5C161.245 0.5 161.021 0.723858 161.021 1C161.021 1.27614 161.245 1.5 161.521 1.5V0.5ZM161.531 1.5C161.807 1.5 162.031 1.27614 162.031 1C162.031 0.723858 161.807 0.5 161.531 0.5V1.5ZM165.534 0.5C165.258 0.5 165.034 0.723858 165.034 1C165.034 1.27614 165.258 1.5 165.534 1.5V0.5ZM165.544 1.5C165.821 1.5 166.044 1.27614 166.044 1C166.044 0.723858 165.821 0.5 165.544 0.5V1.5ZM169.548 0.5C169.271 0.5 169.048 0.723858 169.048 1C169.048 1.27614 169.271 1.5 169.548 1.5V0.5ZM169.558 1.5C169.834 1.5 170.058 1.27614 170.058 1C170.058 0.723858 169.834 0.5 169.558 0.5V1.5ZM173.561 0.5C173.285 0.5 173.061 0.723858 173.061 1C173.061 1.27614 173.285 1.5 173.561 1.5V0.5ZM173.571 1.5C173.847 1.5 174.071 1.27614 174.071 1C174.071 0.723858 173.847 0.5 173.571 0.5V1.5ZM177.574 0.5C177.298 0.5 177.074 0.723858 177.074 1C177.074 1.27614 177.298 1.5 177.574 1.5V0.5ZM177.584 1.5C177.86 1.5 178.084 1.27614 178.084 1C178.084 0.723858 177.86 0.5 177.584 0.5V1.5ZM181.587 0.5C181.311 0.5 181.087 0.723858 181.087 1C181.087 1.27614 181.311 1.5 181.587 1.5V0.5ZM181.597 1.5C181.873 1.5 182.097 1.27614 182.097 1C182.097 0.723858 181.873 0.5 181.597 0.5V1.5ZM185.6 0.5C185.324 0.5 185.1 0.723858 185.1 1C185.1 1.27614 185.324 1.5 185.6 1.5V0.5ZM185.61 1.5C185.886 1.5 186.11 1.27614 186.11 1C186.11 0.723858 185.886 0.5 185.61 0.5V1.5ZM189.613 0.5C189.337 0.5 189.113 0.723858 189.113 1C189.113 1.27614 189.337 1.5 189.613 1.5V0.5ZM189.623 1.5C189.9 1.5 190.123 1.27614 190.123 1C190.123 0.723858 189.9 0.5 189.623 0.5V1.5ZM193.627 0.5C193.35 0.5 193.127 0.723858 193.127 1C193.127 1.27614 193.35 1.5 193.627 1.5V0.5ZM193.637 1.5C193.913 1.5 194.137 1.27614 194.137 1C194.137 0.723858 193.913 0.5 193.637 0.5V1.5ZM197.64 0.5C197.364 0.5 197.14 0.723858 197.14 1C197.14 1.27614 197.364 1.5 197.64 1.5V0.5ZM197.65 1.5C197.926 1.5 198.15 1.27614 198.15 1C198.15 0.723858 197.926 0.5 197.65 0.5V1.5ZM201.653 0.5C201.377 0.5 201.153 0.723858 201.153 1C201.153 1.27614 201.377 1.5 201.653 1.5V0.5ZM201.663 1.5C201.939 1.5 202.163 1.27614 202.163 1C202.163 0.723858 201.939 0.5 201.663 0.5V1.5ZM205.666 0.5C205.39 0.5 205.166 0.723858 205.166 1C205.166 1.27614 205.39 1.5 205.666 1.5V0.5ZM205.676 1.5C205.952 1.5 206.176 1.27614 206.176 1C206.176 0.723858 205.952 0.5 205.676 0.5V1.5ZM209.679 0.5C209.403 0.5 209.179 0.723858 209.179 1C209.179 1.27614 209.403 1.5 209.679 1.5V0.5ZM209.689 1.5C209.965 1.5 210.189 1.27614 210.189 1C210.189 0.723858 209.965 0.5 209.689 0.5V1.5ZM213.692 0.5C213.416 0.5 213.192 0.723858 213.192 1C213.192 1.27614 213.416 1.5 213.692 1.5V0.5ZM213.702 1.5C213.978 1.5 214.202 1.27614 214.202 1C214.202 0.723858 213.978 0.5 213.702 0.5V1.5ZM217.705 0.5C217.429 0.5 217.205 0.723858 217.205 1C217.205 1.27614 217.429 1.5 217.705 1.5V0.5ZM217.715 1.5C217.992 1.5 218.215 1.27614 218.215 1C218.215 0.723858 217.992 0.5 217.715 0.5V1.5ZM221.719 0.5C221.442 0.5 221.219 0.723858 221.219 1C221.219 1.27614 221.442 1.5 221.719 1.5V0.5ZM221.729 1.5C222.005 1.5 222.229 1.27614 222.229 1C222.229 0.723858 222.005 0.5 221.729 0.5V1.5ZM225.732 0.5C225.456 0.5 225.232 0.723858 225.232 1C225.232 1.27614 225.456 1.5 225.732 1.5V0.5ZM225.742 1.5C226.018 1.5 226.242 1.27614 226.242 1C226.242 0.723858 226.018 0.5 225.742 0.5V1.5ZM229.745 0.5C229.469 0.5 229.245 0.723858 229.245 1C229.245 1.27614 229.469 1.5 229.745 1.5V0.5ZM229.755 1.5C230.031 1.5 230.255 1.27614 230.255 1C230.255 0.723858 230.031 0.5 229.755 0.5V1.5ZM233.758 0.5C233.482 0.5 233.258 0.723858 233.258 1C233.258 1.27614 233.482 1.5 233.758 1.5V0.5ZM233.768 1.5C234.044 1.5 234.268 1.27614 234.268 1C234.268 0.723858 234.044 0.5 233.768 0.5V1.5ZM237.771 0.5C237.495 0.5 237.271 0.723858 237.271 1C237.271 1.27614 237.495 1.5 237.771 1.5V0.5ZM237.781 1.5C238.057 1.5 238.281 1.27614 238.281 1C238.281 0.723858 238.057 0.5 237.781 0.5V1.5ZM241.784 0.5C241.508 0.5 241.284 0.723858 241.284 1C241.284 1.27614 241.508 1.5 241.784 1.5V0.5ZM241.794 1.5C242.071 1.5 242.294 1.27614 242.294 1C242.294 0.723858 242.071 0.5 241.794 0.5V1.5ZM245.798 0.5C245.521 0.5 245.298 0.723858 245.298 1C245.298 1.27614 245.521 1.5 245.798 1.5V0.5ZM245.808 1.5C246.084 1.5 246.308 1.27614 246.308 1C246.308 0.723858 246.084 0.5 245.808 0.5V1.5ZM249.811 0.5C249.535 0.5 249.311 0.723858 249.311 1C249.311 1.27614 249.535 1.5 249.811 1.5V0.5ZM249.821 1.5C250.097 1.5 250.321 1.27614 250.321 1C250.321 0.723858 250.097 0.5 249.821 0.5V1.5ZM253.824 0.5C253.548 0.5 253.324 0.723858 253.324 1C253.324 1.27614 253.548 1.5 253.824 1.5V0.5ZM253.834 1.5C254.11 1.5 254.334 1.27614 254.334 1C254.334 0.723858 254.11 0.5 253.834 0.5V1.5ZM257.837 0.5C257.561 0.5 257.337 0.723858 257.337 1C257.337 1.27614 257.561 1.5 257.837 1.5V0.5ZM257.847 1.5C258.123 1.5 258.347 1.27614 258.347 1C258.347 0.723858 258.123 0.5 257.847 0.5V1.5ZM261.85 0.5C261.574 0.5 261.35 0.723858 261.35 1C261.35 1.27614 261.574 1.5 261.85 1.5V0.5ZM261.86 1.5C262.136 1.5 262.36 1.27614 262.36 1C262.36 0.723858 262.136 0.5 261.86 0.5V1.5ZM265.863 0.5C265.587 0.5 265.363 0.723858 265.363 1C265.363 1.27614 265.587 1.5 265.863 1.5V0.5ZM265.873 1.5C266.149 1.5 266.373 1.27614 266.373 1C266.373 0.723858 266.149 0.5 265.873 0.5V1.5ZM269.876 0.5C269.6 0.5 269.376 0.723858 269.376 1C269.376 1.27614 269.6 1.5 269.876 1.5V0.5ZM269.886 1.5C270.163 1.5 270.386 1.27614 270.386 1C270.386 0.723858 270.163 0.5 269.886 0.5V1.5ZM273.89 0.5C273.613 0.5 273.39 0.723858 273.39 1C273.39 1.27614 273.613 1.5 273.89 1.5V0.5ZM273.9 1.5C274.176 1.5 274.4 1.27614 274.4 1C274.4 0.723858 274.176 0.5 273.9 0.5V1.5ZM277.903 0.5C277.627 0.5 277.403 0.723858 277.403 1C277.403 1.27614 277.627 1.5 277.903 1.5V0.5ZM277.913 1.5C278.189 1.5 278.413 1.27614 278.413 1C278.413 0.723858 278.189 0.5 277.913 0.5V1.5ZM281.916 0.5C281.64 0.5 281.416 0.723858 281.416 1C281.416 1.27614 281.64 1.5 281.916 1.5V0.5ZM281.926 1.5C282.202 1.5 282.426 1.27614 282.426 1C282.426 0.723858 282.202 0.5 281.926 0.5V1.5ZM285.929 0.5C285.653 0.5 285.429 0.723858 285.429 1C285.429 1.27614 285.653 1.5 285.929 1.5V0.5ZM285.939 1.5C286.215 1.5 286.439 1.27614 286.439 1C286.439 0.723858 286.215 0.5 285.939 0.5V1.5ZM289.942 0.5C289.666 0.5 289.442 0.723858 289.442 1C289.442 1.27614 289.666 1.5 289.942 1.5V0.5ZM289.952 1.5C290.228 1.5 290.452 1.27614 290.452 1C290.452 0.723858 290.228 0.5 289.952 0.5V1.5ZM293.955 0.5C293.679 0.5 293.455 0.723858 293.455 1C293.455 1.27614 293.679 1.5 293.955 1.5V0.5ZM293.965 1.5C294.242 1.5 294.465 1.27614 294.465 1C294.465 0.723858 294.242 0.5 293.965 0.5V1.5ZM297.969 0.5C297.692 0.5 297.469 0.723858 297.469 1C297.469 1.27614 297.692 1.5 297.969 1.5V0.5ZM297.979 1.5C298.255 1.5 298.479 1.27614 298.479 1C298.479 0.723858 298.255 0.5 297.979 0.5V1.5ZM301.982 0.5C301.706 0.5 301.482 0.723858 301.482 1C301.482 1.27614 301.706 1.5 301.982 1.5V0.5ZM301.992 1.5C302.268 1.5 302.492 1.27614 302.492 1C302.492 0.723858 302.268 0.5 301.992 0.5V1.5ZM305.995 0.5C305.719 0.5 305.495 0.723858 305.495 1C305.495 1.27614 305.719 1.5 305.995 1.5V0.5ZM306.005 1.5C306.281 1.5 306.505 1.27614 306.505 1C306.505 0.723858 306.281 0.5 306.005 0.5V1.5ZM310.008 0.5C309.732 0.5 309.508 0.723858 309.508 1C309.508 1.27614 309.732 1.5 310.008 1.5V0.5ZM310.018 1.5C310.294 1.5 310.518 1.27614 310.518 1C310.518 0.723858 310.294 0.5 310.018 0.5V1.5ZM314.021 0.5C313.745 0.5 313.521 0.723858 313.521 1C313.521 1.27614 313.745 1.5 314.021 1.5V0.5ZM314.031 1.5C314.307 1.5 314.531 1.27614 314.531 1C314.531 0.723858 314.307 0.5 314.031 0.5V1.5ZM318.034 0.5C317.758 0.5 317.534 0.723858 317.534 1C317.534 1.27614 317.758 1.5 318.034 1.5V0.5ZM318.044 1.5C318.32 1.5 318.544 1.27614 318.544 1C318.544 0.723858 318.32 0.5 318.044 0.5V1.5ZM322.047 0.5C321.771 0.5 321.547 0.723858 321.547 1C321.547 1.27614 321.771 1.5 322.047 1.5V0.5ZM322.057 1.5C322.334 1.5 322.557 1.27614 322.557 1C322.557 0.723858 322.334 0.5 322.057 0.5V1.5ZM326.061 0.5C325.784 0.5 325.561 0.723858 325.561 1C325.561 1.27614 325.784 1.5 326.061 1.5V0.5ZM326.071 1.5C326.347 1.5 326.571 1.27614 326.571 1C326.571 0.723858 326.347 0.5 326.071 0.5V1.5ZM330.074 0.5C329.798 0.5 329.574 0.723858 329.574 1C329.574 1.27614 329.798 1.5 330.074 1.5V0.5ZM330.084 1.5C330.36 1.5 330.584 1.27614 330.584 1C330.584 0.723858 330.36 0.5 330.084 0.5V1.5ZM334.087 0.5C333.811 0.5 333.587 0.723858 333.587 1C333.587 1.27614 333.811 1.5 334.087 1.5V0.5ZM334.097 1.5C334.373 1.5 334.597 1.27614 334.597 1C334.597 0.723858 334.373 0.5 334.097 0.5V1.5ZM338.1 0.5C337.824 0.5 337.6 0.723858 337.6 1C337.6 1.27614 337.824 1.5 338.1 1.5V0.5ZM338.11 1.5C338.386 1.5 338.61 1.27614 338.61 1C338.61 0.723858 338.386 0.5 338.11 0.5V1.5ZM342.113 0.5C341.837 0.5 341.613 0.723858 341.613 1C341.613 1.27614 341.837 1.5 342.113 1.5V0.5ZM342.123 1.5C342.399 1.5 342.623 1.27614 342.623 1C342.623 0.723858 342.399 0.5 342.123 0.5V1.5ZM346.126 0.5C345.85 0.5 345.626 0.723858 345.626 1C345.626 1.27614 345.85 1.5 346.126 1.5V0.5ZM346.136 1.5C346.413 1.5 346.636 1.27614 346.636 1C346.636 0.723858 346.413 0.5 346.136 0.5V1.5ZM350.14 0.5C349.863 0.5 349.64 0.723858 349.64 1C349.64 1.27614 349.863 1.5 350.14 1.5V0.5ZM350.15 1.5C350.426 1.5 350.65 1.27614 350.65 1C350.65 0.723858 350.426 0.5 350.15 0.5V1.5ZM354.153 0.5C353.877 0.5 353.653 0.723858 353.653 1C353.653 1.27614 353.877 1.5 354.153 1.5V0.5ZM354.163 1.5C354.439 1.5 354.663 1.27614 354.663 1C354.663 0.723858 354.439 0.5 354.163 0.5V1.5ZM358.166 0.5C357.89 0.5 357.666 0.723858 357.666 1C357.666 1.27614 357.89 1.5 358.166 1.5V0.5ZM358.176 1.5C358.452 1.5 358.676 1.27614 358.676 1C358.676 0.723858 358.452 0.5 358.176 0.5V1.5ZM362.179 0.5C361.903 0.5 361.679 0.723858 361.679 1C361.679 1.27614 361.903 1.5 362.179 1.5V0.5ZM362.189 1.5C362.465 1.5 362.689 1.27614 362.689 1C362.689 0.723858 362.465 0.5 362.189 0.5V1.5ZM366.192 0.5C365.916 0.5 365.692 0.723858 365.692 1C365.692 1.27614 365.916 1.5 366.192 1.5V0.5ZM366.202 1.5C366.478 1.5 366.702 1.27614 366.702 1C366.702 0.723858 366.478 0.5 366.202 0.5V1.5ZM370.205 0.5C369.929 0.5 369.705 0.723858 369.705 1C369.705 1.27614 369.929 1.5 370.205 1.5V0.5ZM370.215 1.5C370.491 1.5 370.715 1.27614 370.715 1C370.715 0.723858 370.491 0.5 370.215 0.5V1.5ZM374.218 0.5C373.942 0.5 373.718 0.723858 373.718 1C373.718 1.27614 373.942 1.5 374.218 1.5V0.5ZM374.228 1.5C374.505 1.5 374.728 1.27614 374.728 1C374.728 0.723858 374.505 0.5 374.228 0.5V1.5ZM378.232 0.5C377.955 0.5 377.732 0.723858 377.732 1C377.732 1.27614 377.955 1.5 378.232 1.5V0.5ZM378.242 1.5C378.518 1.5 378.742 1.27614 378.742 1C378.742 0.723858 378.518 0.5 378.242 0.5V1.5ZM382.245 0.5C381.969 0.5 381.745 0.723858 381.745 1C381.745 1.27614 381.969 1.5 382.245 1.5V0.5ZM382.255 1.5C382.531 1.5 382.755 1.27614 382.755 1C382.755 0.723858 382.531 0.5 382.255 0.5V1.5ZM386.258 0.5C385.982 0.5 385.758 0.723858 385.758 1C385.758 1.27614 385.982 1.5 386.258 1.5V0.5ZM386.268 1.5C386.544 1.5 386.768 1.27614 386.768 1C386.768 0.723858 386.544 0.5 386.268 0.5V1.5ZM390.271 0.5C389.995 0.5 389.771 0.723858 389.771 1C389.771 1.27614 389.995 1.5 390.271 1.5V0.5ZM390.281 1.5C390.557 1.5 390.781 1.27614 390.781 1C390.781 0.723858 390.557 0.5 390.281 0.5V1.5ZM394.284 0.5C394.008 0.5 393.784 0.723858 393.784 1C393.784 1.27614 394.008 1.5 394.284 1.5V0.5ZM394.294 1.5C394.57 1.5 394.794 1.27614 394.794 1C394.794 0.723858 394.57 0.5 394.294 0.5V1.5ZM398.297 0.5C398.021 0.5 397.797 0.723858 397.797 1C397.797 1.27614 398.021 1.5 398.297 1.5V0.5ZM398.307 1.5C398.583 1.5 398.807 1.27614 398.807 1C398.807 0.723858 398.583 0.5 398.307 0.5V1.5ZM402.311 0.5C402.034 0.5 401.811 0.723858 401.811 1C401.811 1.27614 402.034 1.5 402.311 1.5V0.5ZM402.32 1.5C402.597 1.5 402.82 1.27614 402.82 1C402.82 0.723858 402.597 0.5 402.32 0.5V1.5ZM406.324 0.5C406.048 0.5 405.824 0.723858 405.824 1C405.824 1.27614 406.048 1.5 406.324 1.5V0.5ZM406.334 1.5C406.61 1.5 406.834 1.27614 406.834 1C406.834 0.723858 406.61 0.5 406.334 0.5V1.5ZM410.337 0.5C410.061 0.5 409.837 0.723858 409.837 1C409.837 1.27614 410.061 1.5 410.337 1.5V0.5ZM410.347 1.5C410.623 1.5 410.847 1.27614 410.847 1C410.847 0.723858 410.623 0.5 410.347 0.5V1.5ZM414.35 0.5C414.074 0.5 413.85 0.723858 413.85 1C413.85 1.27614 414.074 1.5 414.35 1.5V0.5ZM414.36 1.5C414.636 1.5 414.86 1.27614 414.86 1C414.86 0.723858 414.636 0.5 414.36 0.5V1.5ZM418.363 0.5C418.087 0.5 417.863 0.723858 417.863 1C417.863 1.27614 418.087 1.5 418.363 1.5V0.5ZM418.373 1.5C418.649 1.5 418.873 1.27614 418.873 1C418.873 0.723858 418.649 0.5 418.373 0.5V1.5ZM422.376 0.5C422.1 0.5 421.876 0.723858 421.876 1C421.876 1.27614 422.1 1.5 422.376 1.5V0.5ZM422.386 1.5C422.662 1.5 422.886 1.27614 422.886 1C422.886 0.723858 422.662 0.5 422.386 0.5V1.5ZM426.389 0.5C426.113 0.5 425.889 0.723858 425.889 1C425.889 1.27614 426.113 1.5 426.389 1.5V0.5ZM426.399 1.5C426.676 1.5 426.899 1.27614 426.899 1C426.899 0.723858 426.676 0.5 426.399 0.5V1.5ZM430.403 0.5C430.126 0.5 429.903 0.723858 429.903 1C429.903 1.27614 430.126 1.5 430.403 1.5V0.5ZM430.413 1.5C430.689 1.5 430.913 1.27614 430.913 1C430.913 0.723858 430.689 0.5 430.413 0.5V1.5ZM434.416 0.5C434.14 0.5 433.916 0.723858 433.916 1C433.916 1.27614 434.14 1.5 434.416 1.5V0.5ZM434.426 1.5C434.702 1.5 434.926 1.27614 434.926 1C434.926 0.723858 434.702 0.5 434.426 0.5V1.5ZM438.429 0.5C438.153 0.5 437.929 0.723858 437.929 1C437.929 1.27614 438.153 1.5 438.429 1.5V0.5ZM438.439 1.5C438.715 1.5 438.939 1.27614 438.939 1C438.939 0.723858 438.715 0.5 438.439 0.5V1.5ZM442.442 0.5C442.166 0.5 441.942 0.723858 441.942 1C441.942 1.27614 442.166 1.5 442.442 1.5V0.5ZM442.452 1.5C442.728 1.5 442.952 1.27614 442.952 1C442.952 0.723858 442.728 0.5 442.452 0.5V1.5ZM446.455 0.5C446.179 0.5 445.955 0.723858 445.955 1C445.955 1.27614 446.179 1.5 446.455 1.5V0.5ZM446.465 1.5C446.741 1.5 446.965 1.27614 446.965 1C446.965 0.723858 446.741 0.5 446.465 0.5V1.5ZM450.468 0.5C450.192 0.5 449.968 0.723858 449.968 1C449.968 1.27614 450.192 1.5 450.468 1.5V0.5ZM450.478 1.5C450.755 1.5 450.978 1.27614 450.978 1C450.978 0.723858 450.755 0.5 450.478 0.5V1.5ZM454.482 0.5C454.205 0.5 453.982 0.723858 453.982 1C453.982 1.27614 454.205 1.5 454.482 1.5V0.5ZM454.492 1.5C454.768 1.5 454.992 1.27614 454.992 1C454.992 0.723858 454.768 0.5 454.492 0.5V1.5ZM458.495 0.5C458.219 0.5 457.995 0.723858 457.995 1C457.995 1.27614 458.219 1.5 458.495 1.5V0.5ZM458.505 1.5C458.781 1.5 459.005 1.27614 459.005 1C459.005 0.723858 458.781 0.5 458.505 0.5V1.5ZM462.508 0.5C462.232 0.5 462.008 0.723858 462.008 1C462.008 1.27614 462.232 1.5 462.508 1.5V0.5ZM462.518 1.5C462.794 1.5 463.018 1.27614 463.018 1C463.018 0.723858 462.794 0.5 462.518 0.5V1.5ZM466.521 0.5C466.245 0.5 466.021 0.723858 466.021 1C466.021 1.27614 466.245 1.5 466.521 1.5V0.5ZM466.531 1.5C466.807 1.5 467.031 1.27614 467.031 1C467.031 0.723858 466.807 0.5 466.531 0.5V1.5ZM470.534 0.5C470.258 0.5 470.034 0.723858 470.034 1C470.034 1.27614 470.258 1.5 470.534 1.5V0.5ZM470.544 1.5C470.82 1.5 471.044 1.27614 471.044 1C471.044 0.723858 470.82 0.5 470.544 0.5V1.5ZM474.547 0.5C474.271 0.5 474.047 0.723858 474.047 1C474.047 1.27614 474.271 1.5 474.547 1.5V0.5ZM474.557 1.5C474.833 1.5 475.057 1.27614 475.057 1C475.057 0.723858 474.833 0.5 474.557 0.5V1.5ZM478.56 0.5C478.284 0.5 478.06 0.723858 478.06 1C478.06 1.27614 478.284 1.5 478.56 1.5V0.5ZM478.57 1.5C478.847 1.5 479.07 1.27614 479.07 1C479.07 0.723858 478.847 0.5 478.57 0.5V1.5ZM482.574 0.5C482.297 0.5 482.074 0.723858 482.074 1C482.074 1.27614 482.297 1.5 482.574 1.5V0.5ZM482.584 1.5C482.86 1.5 483.084 1.27614 483.084 1C483.084 0.723858 482.86 0.5 482.584 0.5V1.5ZM486.587 0.5C486.311 0.5 486.087 0.723858 486.087 1C486.087 1.27614 486.311 1.5 486.587 1.5V0.5ZM486.597 1.5C486.873 1.5 487.097 1.27614 487.097 1C487.097 0.723858 486.873 0.5 486.597 0.5V1.5ZM490.6 0.5C490.324 0.5 490.1 0.723858 490.1 1C490.1 1.27614 490.324 1.5 490.6 1.5V0.5ZM490.61 1.5C490.886 1.5 491.11 1.27614 491.11 1C491.11 0.723858 490.886 0.5 490.61 0.5V1.5ZM494.613 0.5C494.337 0.5 494.113 0.723858 494.113 1C494.113 1.27614 494.337 1.5 494.613 1.5V0.5ZM494.623 1.5C494.899 1.5 495.123 1.27614 495.123 1C495.123 0.723858 494.899 0.5 494.623 0.5V1.5ZM498.626 0.5C498.35 0.5 498.126 0.723858 498.126 1C498.126 1.27614 498.35 1.5 498.626 1.5V0.5ZM498.636 1.5C498.912 1.5 499.136 1.27614 499.136 1C499.136 0.723858 498.912 0.5 498.636 0.5V1.5ZM502.639 0.5C502.363 0.5 502.139 0.723858 502.139 1C502.139 1.27614 502.363 1.5 502.639 1.5V0.5ZM502.649 1.5C502.926 1.5 503.149 1.27614 503.149 1C503.149 0.723858 502.926 0.5 502.649 0.5V1.5ZM506.652 0.5C506.376 0.5 506.152 0.723858 506.152 1C506.152 1.27614 506.376 1.5 506.652 1.5V0.5ZM506.663 1.5C506.939 1.5 507.163 1.27614 507.163 1C507.163 0.723858 506.939 0.5 506.663 0.5V1.5ZM510.666 0.5C510.389 0.5 510.166 0.723858 510.166 1C510.166 1.27614 510.389 1.5 510.666 1.5V0.5ZM510.676 1.5C510.952 1.5 511.176 1.27614 511.176 1C511.176 0.723858 510.952 0.5 510.676 0.5V1.5ZM514.679 0.5C514.403 0.5 514.179 0.723858 514.179 1C514.179 1.27614 514.403 1.5 514.679 1.5V0.5ZM514.689 1.5C514.965 1.5 515.189 1.27614 515.189 1C515.189 0.723858 514.965 0.5 514.689 0.5V1.5ZM518.692 0.5C518.416 0.5 518.192 0.723858 518.192 1C518.192 1.27614 518.416 1.5 518.692 1.5V0.5ZM518.702 1.5C518.978 1.5 519.202 1.27614 519.202 1C519.202 0.723858 518.978 0.5 518.702 0.5V1.5ZM522.705 0.5C522.429 0.5 522.205 0.723858 522.205 1C522.205 1.27614 522.429 1.5 522.705 1.5V0.5ZM522.715 1.5C522.991 1.5 523.215 1.27614 523.215 1C523.215 0.723858 522.991 0.5 522.715 0.5V1.5ZM526.718 0.5C526.442 0.5 526.218 0.723858 526.218 1C526.218 1.27614 526.442 1.5 526.718 1.5V0.5ZM526.728 1.5C527.005 1.5 527.228 1.27614 527.228 1C527.228 0.723858 527.005 0.5 526.728 0.5V1.5ZM530.732 0.5C530.455 0.5 530.232 0.723858 530.232 1C530.232 1.27614 530.455 1.5 530.732 1.5V0.5ZM530.742 1.5C531.018 1.5 531.242 1.27614 531.242 1C531.242 0.723858 531.018 0.5 530.742 0.5V1.5ZM534.745 0.5C534.469 0.5 534.245 0.723858 534.245 1C534.245 1.27614 534.469 1.5 534.745 1.5V0.5ZM534.755 1.5C535.031 1.5 535.255 1.27614 535.255 1C535.255 0.723858 535.031 0.5 534.755 0.5V1.5ZM538.758 0.5C538.482 0.5 538.258 0.723858 538.258 1C538.258 1.27614 538.482 1.5 538.758 1.5V0.5ZM538.768 1.5C539.044 1.5 539.268 1.27614 539.268 1C539.268 0.723858 539.044 0.5 538.768 0.5V1.5ZM542.771 0.5C542.495 0.5 542.271 0.723858 542.271 1C542.271 1.27614 542.495 1.5 542.771 1.5V0.5ZM542.781 1.5C543.057 1.5 543.281 1.27614 543.281 1C543.281 0.723858 543.057 0.5 542.781 0.5V1.5ZM546.784 0.5C546.508 0.5 546.284 0.723858 546.284 1C546.284 1.27614 546.508 1.5 546.784 1.5V0.5ZM546.794 1.5C547.07 1.5 547.294 1.27614 547.294 1C547.294 0.723858 547.07 0.5 546.794 0.5V1.5ZM550.797 0.5C550.521 0.5 550.297 0.723858 550.297 1C550.297 1.27614 550.521 1.5 550.797 1.5V0.5ZM550.807 1.5C551.084 1.5 551.307 1.27614 551.307 1C551.307 0.723858 551.084 0.5 550.807 0.5V1.5ZM554.811 0.5C554.534 0.5 554.311 0.723858 554.311 1C554.311 1.27614 554.534 1.5 554.811 1.5V0.5ZM554.821 1.5C555.097 1.5 555.321 1.27614 555.321 1C555.321 0.723858 555.097 0.5 554.821 0.5V1.5ZM558.824 0.5C558.548 0.5 558.324 0.723858 558.324 1C558.324 1.27614 558.548 1.5 558.824 1.5V0.5ZM558.834 1.5C559.11 1.5 559.334 1.27614 559.334 1C559.334 0.723858 559.11 0.5 558.834 0.5V1.5ZM562.837 0.5C562.561 0.5 562.337 0.723858 562.337 1C562.337 1.27614 562.561 1.5 562.837 1.5V0.5ZM562.847 1.5C563.123 1.5 563.347 1.27614 563.347 1C563.347 0.723858 563.123 0.5 562.847 0.5V1.5ZM566.85 0.5C566.574 0.5 566.35 0.723858 566.35 1C566.35 1.27614 566.574 1.5 566.85 1.5V0.5ZM566.86 1.5C567.136 1.5 567.36 1.27614 567.36 1C567.36 0.723858 567.136 0.5 566.86 0.5V1.5ZM570.863 0.5C570.587 0.5 570.363 0.723858 570.363 1C570.363 1.27614 570.587 1.5 570.863 1.5V0.5ZM570.873 1.5C571.15 1.5 571.373 1.27614 571.373 1C571.373 0.723858 571.15 0.5 570.873 0.5V1.5ZM574.877 0.5C574.6 0.5 574.377 0.723858 574.377 1C574.377 1.27614 574.6 1.5 574.877 1.5V0.5ZM574.887 1.5C575.163 1.5 575.387 1.27614 575.387 1C575.387 0.723858 575.163 0.5 574.887 0.5V1.5ZM578.89 0.5C578.614 0.5 578.39 0.723858 578.39 1C578.39 1.27614 578.614 1.5 578.89 1.5V0.5ZM578.9 1.5C579.176 1.5 579.4 1.27614 579.4 1C579.4 0.723858 579.176 0.5 578.9 0.5V1.5ZM582.903 0.5C582.627 0.5 582.403 0.723858 582.403 1C582.403 1.27614 582.627 1.5 582.903 1.5V0.5ZM582.913 1.5C583.189 1.5 583.413 1.27614 583.413 1C583.413 0.723858 583.189 0.5 582.913 0.5V1.5ZM586.916 0.5C586.64 0.5 586.416 0.723858 586.416 1C586.416 1.27614 586.64 1.5 586.916 1.5V0.5ZM586.926 1.5C587.202 1.5 587.426 1.27614 587.426 1C587.426 0.723858 587.202 0.5 586.926 0.5V1.5ZM590.929 0.5C590.653 0.5 590.429 0.723858 590.429 1C590.429 1.27614 590.653 1.5 590.929 1.5V0.5ZM590.939 1.5C591.215 1.5 591.439 1.27614 591.439 1C591.439 0.723858 591.215 0.5 590.939 0.5V1.5ZM594.943 0.5C594.666 0.5 594.443 0.723858 594.443 1C594.443 1.27614 594.666 1.5 594.943 1.5V0.5ZM594.953 1.5C595.229 1.5 595.453 1.27614 595.453 1C595.453 0.723858 595.229 0.5 594.953 0.5V1.5ZM598.956 0.5C598.68 0.5 598.456 0.723858 598.456 1C598.456 1.27614 598.68 1.5 598.956 1.5V0.5ZM598.966 1.5C599.242 1.5 599.466 1.27614 599.466 1C599.466 0.723858 599.242 0.5 598.966 0.5V1.5ZM602.969 0.5C602.693 0.5 602.469 0.723858 602.469 1C602.469 1.27614 602.693 1.5 602.969 1.5V0.5ZM602.979 1.5C603.255 1.5 603.479 1.27614 603.479 1C603.479 0.723858 603.255 0.5 602.979 0.5V1.5ZM606.982 0.5C606.706 0.5 606.482 0.723858 606.482 1C606.482 1.27614 606.706 1.5 606.982 1.5V0.5ZM606.992 1.5C607.268 1.5 607.492 1.27614 607.492 1C607.492 0.723858 607.268 0.5 606.992 0.5V1.5ZM610.995 0.5C610.719 0.5 610.495 0.723858 610.495 1C610.495 1.27614 610.719 1.5 610.995 1.5V0.5ZM1 1.5H1.005V0.5H1V1.5ZM5.00815 1.5H5.01816V0.5H5.00815V1.5ZM9.02131 1.5H9.03132V0.5H9.02131V1.5ZM13.0345 1.5H13.0445V0.5H13.0345V1.5ZM17.0476 1.5H17.0576V0.5H17.0476V1.5ZM21.0608 1.5H21.0708V0.5H21.0608V1.5ZM25.0739 1.5H25.0839V0.5H25.0739V1.5ZM29.0871 1.5H29.0971V0.5H29.0871V1.5ZM33.1003 1.5H33.1103V0.5H33.1003V1.5ZM37.1134 1.5H37.1234V0.5H37.1134V1.5ZM41.1266 1.5H41.1366V0.5H41.1266V1.5ZM45.1397 1.5H45.1497V0.5H45.1397V1.5ZM49.1529 1.5H49.1629V0.5H49.1529V1.5ZM53.1661 1.5H53.1761V0.5H53.1661V1.5ZM57.1792 1.5H57.1892V0.5H57.1792V1.5ZM61.1924 1.5H61.2024V0.5H61.1924V1.5ZM65.2055 1.5H65.2155V0.5H65.2055V1.5ZM69.2187 1.5H69.2287V0.5H69.2187V1.5ZM73.2319 1.5H73.2419V0.5H73.2319V1.5ZM77.245 1.5H77.255V0.5H77.245V1.5ZM81.2582 1.5H81.2682V0.5H81.2582V1.5ZM85.2713 1.5H85.2813V0.5H85.2713V1.5ZM89.2845 1.5H89.2945V0.5H89.2845V1.5ZM93.2977 1.5H93.3077V0.5H93.2977V1.5ZM97.3108 1.5H97.3208V0.5H97.3108V1.5ZM101.324 1.5H101.334V0.5H101.324V1.5ZM105.337 1.5H105.347V0.5H105.337V1.5ZM109.35 1.5H109.36V0.5H109.35V1.5ZM113.363 1.5H113.373V0.5H113.363V1.5ZM117.377 1.5H117.387V0.5H117.377V1.5ZM121.39 1.5H121.4V0.5H121.39V1.5ZM125.403 1.5H125.413V0.5H125.403V1.5ZM129.416 1.5H129.426V0.5H129.416V1.5ZM133.429 1.5H133.439V0.5H133.429V1.5ZM137.442 1.5H137.452V0.5H137.442V1.5ZM141.456 1.5H141.466V0.5H141.456V1.5ZM145.469 1.5H145.479V0.5H145.469V1.5ZM149.482 1.5H149.492V0.5H149.482V1.5ZM153.495 1.5H153.505V0.5H153.495V1.5ZM157.508 1.5H157.518V0.5H157.508V1.5ZM161.521 1.5H161.531V0.5H161.521V1.5ZM165.534 1.5H165.544V0.5H165.534V1.5ZM169.548 1.5H169.558V0.5H169.548V1.5ZM173.561 1.5H173.571V0.5H173.561V1.5ZM177.574 1.5H177.584V0.5H177.574V1.5ZM181.587 1.5H181.597V0.5H181.587V1.5ZM185.6 1.5H185.61V0.5H185.6V1.5ZM189.613 1.5H189.623V0.5H189.613V1.5ZM193.627 1.5H193.637V0.5H193.627V1.5ZM197.64 1.5H197.65V0.5H197.64V1.5ZM201.653 1.5H201.663V0.5H201.653V1.5ZM205.666 1.5H205.676V0.5H205.666V1.5ZM209.679 1.5H209.689V0.5H209.679V1.5ZM213.692 1.5H213.702V0.5H213.692V1.5ZM217.705 1.5H217.715V0.5H217.705V1.5ZM221.719 1.5H221.729V0.5H221.719V1.5ZM225.732 1.5H225.742V0.5H225.732V1.5ZM229.745 1.5H229.755V0.5H229.745V1.5ZM233.758 1.5H233.768V0.5H233.758V1.5ZM237.771 1.5H237.781V0.5H237.771V1.5ZM241.784 1.5H241.794V0.5H241.784V1.5ZM245.798 1.5H245.808V0.5H245.798V1.5ZM249.811 1.5H249.821V0.5H249.811V1.5ZM253.824 1.5H253.834V0.5H253.824V1.5ZM257.837 1.5H257.847V0.5H257.837V1.5ZM261.85 1.5H261.86V0.5H261.85V1.5ZM265.863 1.5H265.873V0.5H265.863V1.5ZM269.876 1.5H269.886V0.5H269.876V1.5ZM273.89 1.5H273.9V0.5H273.89V1.5ZM277.903 1.5H277.913V0.5H277.903V1.5ZM281.916 1.5H281.926V0.5H281.916V1.5ZM285.929 1.5H285.939V0.5H285.929V1.5ZM289.942 1.5H289.952V0.5H289.942V1.5ZM293.955 1.5H293.965V0.5H293.955V1.5ZM297.969 1.5H297.979V0.5H297.969V1.5ZM301.982 1.5H301.992V0.5H301.982V1.5ZM305.995 1.5H306.005V0.5H305.995V1.5ZM310.008 1.5H310.018V0.5H310.008V1.5ZM314.021 1.5H314.031V0.5H314.021V1.5ZM318.034 1.5H318.044V0.5H318.034V1.5ZM322.047 1.5H322.057V0.5H322.047V1.5ZM326.061 1.5H326.071V0.5H326.061V1.5ZM330.074 1.5H330.084V0.5H330.074V1.5ZM334.087 1.5H334.097V0.5H334.087V1.5ZM338.1 1.5H338.11V0.5H338.1V1.5ZM342.113 1.5H342.123V0.5H342.113V1.5ZM346.126 1.5H346.136V0.5H346.126V1.5ZM350.14 1.5H350.15V0.5H350.14V1.5ZM354.153 1.5H354.163V0.5H354.153V1.5ZM358.166 1.5H358.176V0.5H358.166V1.5ZM362.179 1.5H362.189V0.5H362.179V1.5ZM366.192 1.5H366.202V0.5H366.192V1.5ZM370.205 1.5H370.215V0.5H370.205V1.5ZM374.218 1.5H374.228V0.5H374.218V1.5ZM378.232 1.5H378.242V0.5H378.232V1.5ZM382.245 1.5H382.255V0.5H382.245V1.5ZM386.258 1.5H386.268V0.5H386.258V1.5ZM390.271 1.5H390.281V0.5H390.271V1.5ZM394.284 1.5H394.294V0.5H394.284V1.5ZM398.297 1.5H398.307V0.5H398.297V1.5ZM402.311 1.5H402.32V0.5H402.311V1.5ZM406.324 1.5H406.334V0.5H406.324V1.5ZM410.337 1.5H410.347V0.5H410.337V1.5ZM414.35 1.5H414.36V0.5H414.35V1.5ZM418.363 1.5H418.373V0.5H418.363V1.5ZM422.376 1.5H422.386V0.5H422.376V1.5ZM426.389 1.5H426.399V0.5H426.389V1.5ZM430.403 1.5H430.413V0.5H430.403V1.5ZM434.416 1.5H434.426V0.5H434.416V1.5ZM438.429 1.5H438.439V0.5H438.429V1.5ZM442.442 1.5H442.452V0.5H442.442V1.5ZM446.455 1.5H446.465V0.5H446.455V1.5ZM450.468 1.5H450.478V0.5H450.468V1.5ZM454.482 1.5H454.492V0.5H454.482V1.5ZM458.495 1.5H458.505V0.5H458.495V1.5ZM462.508 1.5H462.518V0.5H462.508V1.5ZM466.521 1.5H466.531V0.5H466.521V1.5ZM470.534 1.5H470.544V0.5H470.534V1.5ZM474.547 1.5H474.557V0.5H474.547V1.5ZM478.56 1.5H478.57V0.5H478.56V1.5ZM482.574 1.5H482.584V0.5H482.574V1.5ZM486.587 1.5H486.597V0.5H486.587V1.5ZM490.6 1.5H490.61V0.5H490.6V1.5ZM494.613 1.5H494.623V0.5H494.613V1.5ZM498.626 1.5H498.636V0.5H498.626V1.5ZM502.639 1.5H502.649V0.5H502.639V1.5ZM506.652 1.5H506.663V0.5H506.652V1.5ZM510.666 1.5H510.676V0.5H510.666V1.5ZM514.679 1.5H514.689V0.5H514.679V1.5ZM518.692 1.5H518.702V0.5H518.692V1.5ZM522.705 1.5H522.715V0.5H522.705V1.5ZM526.718 1.5H526.728V0.5H526.718V1.5ZM530.732 1.5H530.742V0.5H530.732V1.5ZM534.745 1.5H534.755V0.5H534.745V1.5ZM538.758 1.5H538.768V0.5H538.758V1.5ZM542.771 1.5H542.781V0.5H542.771V1.5ZM546.784 1.5H546.794V0.5H546.784V1.5ZM550.797 1.5H550.807V0.5H550.797V1.5ZM554.811 1.5H554.821V0.5H554.811V1.5ZM558.824 1.5H558.834V0.5H558.824V1.5ZM562.837 1.5H562.847V0.5H562.837V1.5ZM566.85 1.5H566.86V0.5H566.85V1.5ZM570.863 1.5H570.873V0.5H570.863V1.5ZM574.877 1.5H574.887V0.5H574.877V1.5ZM578.89 1.5H578.9V0.5H578.89V1.5ZM582.903 1.5H582.913V0.5H582.903V1.5ZM586.916 1.5H586.926V0.5H586.916V1.5ZM590.929 1.5H590.939V0.5H590.929V1.5ZM594.943 1.5H594.953V0.5H594.943V1.5ZM598.956 1.5H598.966V0.5H598.956V1.5ZM602.969 1.5H602.979V0.5H602.969V1.5ZM606.982 1.5H606.992V0.5H606.982V1.5ZM610.995 1.5H611V0.5H610.995V1.5Z" fill="#909090"/>
</svg>
