<svg width="86" height="86" viewBox="0 0 86 86" fill="none" xmlns="http://www.w3.org/2000/svg">
<path d="M22.5001 73.7499L4.78809 56.0364L5.36209 56.6104" stroke="white" stroke-width="4" stroke-miterlimit="10" stroke-linecap="round"/>
<path d="M41.5361 34.2144L59.213 51.8927L57.961 50.6408" stroke="#2E87EF" stroke-width="4" stroke-miterlimit="10" stroke-linecap="round"/>
<path d="M44.4649 51.7859L26.7236 34.0461L27.1527 34.4751" stroke="#2E87EF" stroke-width="4" stroke-miterlimit="10" stroke-linecap="round"/>
<path d="M80.7478 29.4964L81.215 29.962L63.5 12.25" stroke="white" stroke-width="4" stroke-miterlimit="10" stroke-linecap="round"/>
<path d="M37.1426 59.7969C40.0422 60.3169 42.9825 60.5762 45.9283 60.5715C49.8118 60.5715 53.5363 59.0288 56.2824 56.2827C59.0285 53.5367 60.5712 49.8122 60.5712 45.9286C60.5712 31.2858 54.714 25.4286 54.714 10.7857C54.718 7.60596 55.774 4.51686 57.7173 2" stroke="white" stroke-width="4" stroke-miterlimit="10" stroke-linecap="round"/>
<path d="M19.5715 55.4963C16.6722 54.9728 13.7318 54.7111 10.7857 54.7144C7.60827 54.7237 4.5217 55.7757 2 57.7089" stroke="white" stroke-width="4" stroke-miterlimit="10" stroke-linecap="round"/>
<path d="M48.8573 26.2034C45.9577 25.6834 43.0174 25.4242 40.0716 25.4288C36.1881 25.4288 32.4636 26.9716 29.7175 29.7176C26.9714 32.4637 25.4287 36.1882 25.4287 40.0717C25.4287 54.7146 31.2859 60.5717 31.2859 75.2146C31.2819 78.3944 30.2259 81.4835 28.2826 84.0004" stroke="white" stroke-width="4" stroke-miterlimit="10" stroke-linecap="round"/>
<path d="M66.4287 30.5039C69.3279 31.0274 72.2683 31.2891 75.2144 31.2858C78.3919 31.2766 81.4785 30.2245 84.0002 28.2913" stroke="white" stroke-width="4" stroke-miterlimit="10" stroke-linecap="round"/>
</svg>
