<svg width="86" height="86" viewBox="0 0 86 86" fill="none" xmlns="http://www.w3.org/2000/svg">
<path d="M22.5005 73.7499L4.78845 56.0364L5.36245 56.6104" stroke="white" stroke-width="4" stroke-miterlimit="10" stroke-linecap="round"/>
<path d="M41.5359 34.2144L59.2128 51.8927L57.9608 50.6407" stroke="#2E87EF" stroke-width="4" stroke-miterlimit="10" stroke-linecap="round"/>
<path d="M44.4647 51.786L26.7234 34.0461L27.1524 34.4752" stroke="#2E87EF" stroke-width="4" stroke-miterlimit="10" stroke-linecap="round"/>
<path d="M80.7478 29.4964L81.215 29.962L63.5 12.25" stroke="white" stroke-width="4" stroke-miterlimit="10" stroke-linecap="round"/>
<path d="M37.1429 59.7969C40.0425 60.3169 42.9828 60.5762 45.9287 60.5715C49.8122 60.5715 53.5367 59.0288 56.2828 56.2827C59.0288 53.5367 60.5716 49.8122 60.5716 45.9286C60.5716 31.2858 54.7144 25.4286 54.7144 10.7857C54.7184 7.60596 55.7744 4.51686 57.7177 2" stroke="white" stroke-width="4" stroke-miterlimit="10" stroke-linecap="round"/>
<path d="M19.5715 55.4963C16.6722 54.9728 13.7318 54.7111 10.7857 54.7144C7.60827 54.7236 4.5217 55.7756 2 57.7089" stroke="white" stroke-width="4" stroke-miterlimit="10" stroke-linecap="round"/>
<path d="M48.8574 26.2034C45.9579 25.6834 43.0175 25.4241 40.0717 25.4288C36.1882 25.4288 32.4637 26.9715 29.7176 29.7176C26.9716 32.4636 25.4288 36.1881 25.4288 40.0717C25.4288 54.7145 31.286 60.5717 31.286 75.2146C31.282 78.3943 30.226 81.4834 28.2827 84.0003" stroke="white" stroke-width="4" stroke-miterlimit="10" stroke-linecap="round"/>
<path d="M66.4288 30.5038C69.328 31.0274 72.2685 31.2891 75.2146 31.2857C78.392 31.2765 81.4786 30.2245 84.0003 28.2913" stroke="white" stroke-width="4" stroke-miterlimit="10" stroke-linecap="round"/>
</svg>
