<svg width="590" height="648" viewBox="0 0 590 648" fill="none" xmlns="http://www.w3.org/2000/svg">
<g filter="url(#filter0_d)">
<path fill-rule="evenodd" clip-rule="evenodd" d="M200.389 77.674C217.019 61.3428 243.74 61.5854 260.071 78.2159C278.552 97.0352 304.611 129.215 325.242 167.068C342.404 198.557 358.146 238.22 358.988 279.472C386.784 281.475 411.976 286.823 435.306 296.644C479.319 315.171 511.165 347.248 540.985 388.729C554.59 407.655 550.277 434.026 531.351 447.631C512.426 461.236 486.054 456.923 472.449 437.998C447.062 402.683 426.353 384.456 402.558 374.439C391.428 369.754 378.482 366.382 362.494 364.548C366.211 380.499 371.665 396.304 378.405 411.328C394.488 447.179 415.197 472.687 429.027 482.798C447.842 496.555 451.944 522.96 438.187 541.776C424.431 560.592 398.025 564.693 379.209 550.936C349.567 529.264 321.061 489.722 301.392 445.877C290.548 421.705 281.595 394.479 276.679 365.875C175.317 370.629 94.4132 323.532 63.2067 295.985C45.7326 280.559 44.0715 253.889 59.4967 236.415C74.9218 218.941 101.592 217.28 119.066 232.705C138.034 249.448 199.054 285.63 274.602 281.463C274.225 259.893 265.698 234.195 251.128 207.462C234.671 177.268 213.527 151.287 199.847 137.356C183.516 120.726 183.758 94.0052 200.389 77.674Z" stroke="#E0E0E0" stroke-opacity="0.45" stroke-linecap="round"/>
<path fill-rule="evenodd" clip-rule="evenodd" d="M243.349 326.699C241.304 303.481 258.468 283 281.686 280.955C342.435 275.602 392.068 278.442 435.305 296.643C479.317 315.17 511.164 347.246 540.984 388.728C554.589 407.654 550.276 434.025 531.35 447.63C512.424 461.235 486.053 456.922 472.448 437.996C447.061 402.682 426.352 384.455 402.556 374.438C377.985 364.095 344.558 360.149 289.094 365.036C265.876 367.082 245.395 349.918 243.349 326.699Z" fill="url(#paint0_linear)" fill-opacity="0.5"/>
</g>
<defs>
<filter id="filter0_d" x="28.4324" y="65.0826" width="560.992" height="559.491" filterUnits="userSpaceOnUse" color-interpolation-filters="sRGB">
<feFlood flood-opacity="0" result="BackgroundImageFix"/>
<feColorMatrix in="SourceAlpha" type="matrix" values="0 0 0 0 0 0 0 0 0 0 0 0 0 0 0 0 0 0 127 0" result="hardAlpha"/>
<feOffset dx="10" dy="35"/>
<feGaussianBlur stdDeviation="15"/>
<feColorMatrix type="matrix" values="0 0 0 0 0 0 0 0 0 0 0 0 0 0 0 0 0 0 0.12 0"/>
<feBlend mode="normal" in2="BackgroundImageFix" result="effect1_dropShadow"/>
<feBlend mode="normal" in="SourceGraphic" in2="effect1_dropShadow" result="shape"/>
</filter>
<linearGradient id="paint0_linear" x1="126.162" y1="341.071" x2="411.182" y2="211.039" gradientUnits="userSpaceOnUse">
<stop stop-color="#00ADA9"/>
<stop offset="1" stop-color="#2088E9"/>
</linearGradient>
</defs>
</svg>
