<svg width="777" height="732" viewBox="0 0 777 732" fill="none" xmlns="http://www.w3.org/2000/svg">
<g filter="url(#filter0_d)">
<path fill-rule="evenodd" clip-rule="evenodd" d="M602.26 213.664C622.339 225.501 629.021 251.374 617.184 271.453C603.789 294.175 579.45 327.675 548.226 357.4C522.252 382.127 488.015 407.598 448.386 419.089C453.646 446.456 455 472.173 451.552 497.25C445.047 544.558 422.307 583.622 389.957 623.162C375.197 641.202 348.608 643.861 330.568 629.101C312.528 614.342 309.869 587.753 324.629 569.713C352.169 536.051 364.415 511.33 367.932 485.753C369.577 473.79 369.483 460.412 367.117 444.494C352.672 452.213 338.816 461.571 326.049 471.97C295.582 496.784 276.303 523.39 270.116 539.365C261.698 561.1 237.254 571.896 215.519 563.478C193.784 555.06 182.988 530.616 191.406 508.881C204.667 474.639 235.485 436.871 272.745 406.524C293.287 389.793 317.267 374.098 343.625 361.946C312.798 265.269 337.351 174.932 355.883 137.659C366.26 116.788 391.591 108.281 412.462 118.658C433.333 129.035 441.841 154.366 431.464 175.237C420.2 197.892 401.044 266.198 424.623 338.093C445.36 332.147 467.976 317.258 490.026 296.266C514.932 272.555 534.556 245.407 544.471 228.588C556.308 208.509 582.181 201.827 602.26 213.664Z" stroke="#E0E0E0" stroke-opacity="0.45" stroke-linecap="round"/>
<path fill-rule="evenodd" clip-rule="evenodd" d="M372.839 319.613C394.737 311.628 418.962 322.906 426.947 344.804C447.84 402.098 457.943 450.775 451.553 497.249C445.048 544.557 422.308 583.62 389.958 623.16C375.198 641.2 348.609 643.859 330.569 629.1C312.529 614.34 309.87 587.751 324.629 569.711C352.17 536.05 364.416 511.328 367.933 485.751C371.564 459.34 366.724 426.031 347.648 373.721C339.663 351.824 350.941 327.599 372.839 319.613Z" fill="url(#paint0_linear)" fill-opacity="0.5"/>
</g>
<defs>
<filter id="filter0_d" x="168.046" y="113.735" width="495.492" height="590.407" filterUnits="userSpaceOnUse" color-interpolation-filters="sRGB">
<feFlood flood-opacity="0" result="BackgroundImageFix"/>
<feColorMatrix in="SourceAlpha" type="matrix" values="0 0 0 0 0 0 0 0 0 0 0 0 0 0 0 0 0 0 127 0" result="hardAlpha"/>
<feOffset dx="10" dy="35"/>
<feGaussianBlur stdDeviation="15"/>
<feColorMatrix type="matrix" values="0 0 0 0 0 0 0 0 0 0 0 0 0 0 0 0 0 0 0.12 0"/>
<feBlend mode="normal" in2="BackgroundImageFix" result="effect1_dropShadow"/>
<feBlend mode="normal" in="SourceGraphic" in2="effect1_dropShadow" result="shape"/>
</filter>
<linearGradient id="paint0_linear" x1="328.627" y1="210.139" x2="527.996" y2="451.792" gradientUnits="userSpaceOnUse">
<stop stop-color="#00ADA9"/>
<stop offset="1" stop-color="#2088E9"/>
</linearGradient>
</defs>
</svg>
