<svg width="648" height="615" viewBox="0 0 648 615" fill="none" xmlns="http://www.w3.org/2000/svg">
<g filter="url(#filter0_d)">
<path fill-rule="evenodd" clip-rule="evenodd" d="M569.812 200.389C586.143 217.019 585.9 243.74 569.27 260.071C550.45 278.552 518.27 304.611 480.417 325.242C448.928 342.404 409.266 358.146 368.013 358.988C366.011 386.784 360.662 411.976 350.841 435.306C332.314 479.319 300.238 511.165 258.756 540.985C239.831 554.59 213.459 550.277 199.854 531.351C186.249 512.426 190.562 486.054 209.488 472.449C244.803 447.062 263.029 426.353 273.046 402.558C277.731 391.428 281.103 378.482 282.937 362.494C266.987 366.211 251.182 371.665 236.157 378.405C200.307 394.488 174.799 415.197 164.687 429.027C150.931 447.842 124.525 451.944 105.71 438.187C86.8937 424.431 82.7925 398.025 96.5491 379.209C118.221 349.567 157.764 321.061 201.609 301.392C225.781 290.548 253.006 281.595 281.611 276.679C276.857 175.317 323.954 94.4132 351.501 63.2067C366.926 45.7326 393.596 44.0715 411.07 59.4967C428.545 74.9218 430.206 101.592 414.78 119.066C398.037 138.034 361.855 199.054 366.023 274.602C387.592 274.225 413.291 265.698 440.023 251.128C470.217 234.671 496.199 213.527 510.129 199.847C526.76 183.516 553.48 183.758 569.812 200.389Z" stroke="#E0E0E0" stroke-opacity="0.45" stroke-linecap="round"/>
<path fill-rule="evenodd" clip-rule="evenodd" d="M320.786 243.349C344.005 241.304 364.485 258.468 366.531 281.686C371.883 342.435 369.043 392.068 350.843 435.305C332.315 479.317 300.239 511.164 258.758 540.984C239.832 554.589 213.46 550.276 199.855 531.35C186.25 512.424 190.563 486.053 209.489 472.448C244.804 447.061 263.031 426.352 273.047 402.556C283.391 377.985 287.336 344.558 282.45 289.094C280.404 265.876 297.568 245.395 320.786 243.349Z" fill="url(#paint0_linear)" fill-opacity="0.5"/>
</g>
<defs>
<filter id="filter0_d" x="67.9116" y="48.4324" width="554.491" height="565.992" filterUnits="userSpaceOnUse" color-interpolation-filters="sRGB">
<feFlood flood-opacity="0" result="BackgroundImageFix"/>
<feColorMatrix in="SourceAlpha" type="matrix" values="0 0 0 0 0 0 0 0 0 0 0 0 0 0 0 0 0 0 127 0" result="hardAlpha"/>
<feOffset dx="10" dy="35"/>
<feGaussianBlur stdDeviation="15"/>
<feColorMatrix type="matrix" values="0 0 0 0 0 0 0 0 0 0 0 0 0 0 0 0 0 0 0.12 0"/>
<feBlend mode="normal" in2="BackgroundImageFix" result="effect1_dropShadow"/>
<feBlend mode="normal" in="SourceGraphic" in2="effect1_dropShadow" result="shape"/>
</filter>
<linearGradient id="paint0_linear" x1="306.415" y1="126.162" x2="436.446" y2="411.182" gradientUnits="userSpaceOnUse">
<stop stop-color="#00ADA9"/>
<stop offset="1" stop-color="#2088E9"/>
</linearGradient>
</defs>
</svg>
