<svg width="673" height="252" viewBox="0 0 673 252" fill="none" xmlns="http://www.w3.org/2000/svg">
<g clip-path="url(#clip0)">
<path fill-rule="evenodd" clip-rule="evenodd" d="M427.046 93.0526C429.391 92.5512 431.644 91.689 433.724 90.4969L433.702 73.1398H421.504V76.2067H430.296V88.5411C428.833 89.3769 427.237 89.9557 425.577 90.2524C423.746 90.5542 421.892 90.7028 420.035 90.6969C417.826 90.7283 415.634 90.2967 413.602 89.4301C411.752 88.6568 410.085 87.5062 408.706 86.052C407.343 84.5634 406.291 82.818 405.612 80.9182C404.157 76.8053 404.157 72.319 405.612 68.206C406.297 66.311 407.357 64.5728 408.728 63.0944C410.093 61.6128 411.763 60.445 413.625 59.6719C415.664 58.8029 417.863 58.3713 420.08 58.4051C421.105 58.4273 422.126 58.5464 423.129 58.7607C425.139 59.1714 427.046 59.9799 428.738 61.1387C429.505 61.6616 430.195 62.2901 430.786 63.0055L433.301 60.3831C431.56 58.6844 429.488 57.3604 427.214 56.4926C424.94 55.6249 422.512 55.232 420.08 55.3382C417.442 55.2999 414.823 55.7911 412.378 56.7828C410.126 57.6896 408.082 59.0429 406.369 60.7609C404.692 62.5189 403.376 64.5876 402.496 66.8503C400.612 71.8272 400.612 77.3193 402.496 82.2961C403.366 84.5641 404.683 86.6348 406.369 88.3856C408.07 90.1078 410.108 91.462 412.356 92.3637C414.796 93.3439 417.405 93.8347 420.035 93.8083C422.392 93.8059 424.743 93.5526 427.046 93.0526ZM147.283 56.0271H150.688V72.1841H171.188V56.0494H174.638V92.6748H171.166V75.3622H150.688V92.7193H147.238L147.283 56.0271ZM331.947 176.73C336.454 179.088 341.472 180.308 346.561 180.283C354.459 180.277 362.056 177.256 367.795 171.837L369.086 170.571L368.018 169.415L361.34 161.925C361.17 161.749 360.966 161.609 360.74 161.514C360.515 161.418 360.272 161.369 360.027 161.369C359.782 161.369 359.539 161.418 359.314 161.514C359.088 161.609 358.884 161.749 358.714 161.925C355.312 164.803 350.997 166.378 346.539 166.37C343.754 166.373 341.011 165.698 338.547 164.404C336.082 163.11 333.971 161.236 332.395 158.945C330.819 156.653 329.825 154.012 329.501 151.251C329.177 148.49 329.531 145.691 330.533 143.098C331.536 140.504 333.156 138.193 335.253 136.365C337.351 134.537 339.863 133.247 342.572 132.606C345.282 131.965 348.107 131.993 350.803 132.687C353.499 133.381 355.985 134.721 358.046 136.59L358.825 137.301C358.825 137.301 366.304 130.567 367.728 129.123C367.936 128.97 368.104 128.77 368.22 128.541C368.336 128.311 368.396 128.057 368.396 127.8C368.396 127.543 368.336 127.289 368.22 127.06C368.104 126.83 367.936 126.631 367.728 126.478C364.017 123.001 359.509 120.485 354.599 119.15C349.689 117.814 344.527 117.699 339.562 118.815C334.597 119.932 329.982 122.245 326.119 125.553C322.257 128.862 319.264 133.064 317.404 137.793C315.543 142.523 314.871 147.635 315.446 152.684C316.021 157.732 317.825 162.564 320.701 166.755C323.578 170.947 327.439 174.372 331.947 176.73ZM309.011 122.189V178.682H295.077V172.148C292.562 174.715 289.534 176.724 286.19 178.045C282.846 179.366 279.261 179.97 275.668 179.816C257.661 179.816 245.085 167.126 245.108 148.946C245.13 130.767 257.706 118.099 275.735 118.121C279.293 117.967 282.844 118.557 286.16 119.855C289.476 121.152 292.483 123.128 294.988 125.655C294.988 125.655 297.392 119.611 303.068 119.611H306.295C308.477 119.544 309.011 120.322 309.011 122.189ZM277.137 130.923C273.562 130.879 270.055 131.897 267.061 133.848C264.067 135.799 261.721 138.595 260.323 141.88C258.924 145.165 258.535 148.791 259.205 152.298C259.876 155.804 261.575 159.033 264.087 161.573C266.599 164.112 269.811 165.849 273.315 166.562C276.818 167.275 280.454 166.931 283.762 165.576C287.069 164.22 289.898 161.913 291.889 158.948C293.88 155.983 294.944 152.494 294.944 148.924C294.962 144.183 293.098 139.627 289.761 136.254C286.425 132.881 281.886 130.964 277.137 130.923ZM611.078 155.08C611.109 154.51 611.109 153.939 611.078 153.369C612.257 128.7 596.454 118.299 580.895 118.344C564.269 118.322 551.604 131.456 551.604 148.569C551.604 165.681 562.02 180.549 581.519 180.549C598.902 180.572 607.45 170.326 607.45 170.326L600.772 162.703C600.598 162.429 600.365 162.197 600.091 162.022C599.816 161.847 599.507 161.735 599.184 161.693C598.862 161.65 598.534 161.679 598.224 161.777C597.914 161.875 597.629 162.039 597.389 162.259C592.851 165.689 587.275 167.469 581.585 167.304C572.66 167.281 566.472 160.548 565.715 155.08H611.078ZM581.875 130.7C590.444 130.767 596.009 135.456 597.322 142.546L565.626 142.524C566.581 139 568.712 135.907 571.666 133.757C574.621 131.606 578.223 130.528 581.875 130.7ZM545.26 177.305C545.238 192.95 530.904 206.729 514.388 206.729C509.144 206.766 503.979 205.457 499.387 202.927C494.796 200.398 490.933 196.733 488.168 192.284C488.168 192.284 496.403 186.683 497.694 185.839C497.904 185.666 498.147 185.539 498.409 185.466C498.67 185.393 498.944 185.376 499.213 185.416C499.482 185.456 499.739 185.551 499.968 185.697C500.197 185.843 500.393 186.035 500.543 186.261C502.268 188.28 504.384 189.93 506.763 191.114C509.141 192.298 511.735 192.99 514.388 193.15C516.649 193.147 518.888 192.699 520.976 191.832C523.063 190.965 524.96 189.695 526.555 188.095C528.151 186.495 529.416 184.597 530.276 182.509C531.137 180.421 531.577 178.184 531.571 175.927V175.238C525.879 179.056 519.08 180.885 512.237 180.437C505.394 179.989 498.892 177.29 493.748 172.762C488.604 168.233 485.107 162.131 483.804 155.409C482.501 148.686 483.465 141.722 486.546 135.604C489.627 129.487 494.651 124.561 500.833 121.596C507.015 118.632 514.006 117.796 520.714 119.218C527.422 120.641 533.469 124.243 537.91 129.46C542.351 134.678 544.936 141.218 545.26 148.057V152.036V177.305ZM504.715 163.585C507.545 165.473 510.873 166.481 514.277 166.481C516.536 166.487 518.774 166.048 520.863 165.188C522.951 164.328 524.849 163.065 526.448 161.471C528.047 159.876 529.314 157.983 530.178 155.899C531.042 153.814 531.485 151.58 531.482 149.324C531.487 145.926 530.481 142.602 528.593 139.774C526.706 136.946 524.02 134.741 520.876 133.437C517.733 132.133 514.273 131.79 510.934 132.45C507.595 133.11 504.527 134.745 502.118 137.147C499.71 139.548 498.069 142.609 497.403 145.942C496.738 149.275 497.077 152.731 498.379 155.871C499.68 159.012 501.885 161.696 504.715 163.585ZM375.43 178.771V121.788C375.41 121.482 375.459 121.175 375.573 120.889C375.688 120.604 375.864 120.347 376.09 120.139C376.316 119.93 376.586 119.775 376.88 119.683C377.174 119.592 377.484 119.567 377.789 119.611H380.727C382.406 119.681 384.043 120.154 385.499 120.989C386.956 121.825 388.19 122.999 389.096 124.411C393.214 120.277 400.092 118.766 405.701 118.766C410.821 118.901 415.789 120.531 419.991 123.455L411.733 134.567C409.033 132.995 405.955 132.188 402.83 132.234C395.106 132.234 389.586 135.856 389.475 145.568V178.771H375.43ZM147.216 121.5V178.594H161.484V143.79C161.413 142.192 161.672 140.596 162.244 139.102C162.817 137.607 163.69 136.246 164.81 135.102C165.931 133.959 167.275 133.057 168.758 132.452C170.242 131.848 171.834 131.554 173.436 131.589C175.031 131.579 176.612 131.891 178.083 132.506C179.554 133.121 180.886 134.027 181.998 135.168C183.11 136.31 183.98 137.664 184.555 139.15C185.13 140.635 185.398 142.221 185.344 143.813V178.616H200.235V143.813C200.166 142.201 200.423 140.591 200.993 139.081C201.563 137.571 202.433 136.192 203.551 135.027C204.669 133.862 206.011 132.934 207.497 132.301C208.984 131.667 210.583 131.341 212.199 131.341C213.815 131.341 215.414 131.667 216.901 132.301C218.387 132.934 219.729 133.862 220.847 135.027C221.965 136.192 222.835 137.571 223.405 139.081C223.975 140.591 224.232 142.201 224.163 143.813V178.638H238.519V138.923C238.519 127.478 227.991 118.166 214.97 118.144C210.873 118.047 206.819 118.996 203.193 120.902C199.566 122.808 196.487 125.607 194.248 129.034C192.693 126.14 190.472 123.656 187.767 121.787C185.063 119.918 181.953 118.717 178.693 118.283C175.433 117.849 172.116 118.195 169.016 119.291C165.915 120.387 163.12 122.203 160.86 124.589C160.316 122.965 159.247 121.569 157.82 120.619C156.394 119.67 154.691 119.221 152.981 119.344H149.308C147.817 119.411 147.216 119.922 147.216 121.5ZM619.669 178.882V122.3C619.669 120.566 620.515 119.811 622.207 119.922H626.792C628.356 119.852 629.893 120.349 631.12 121.321C632.347 122.293 633.181 123.674 633.469 125.211C635.457 123.118 637.848 121.449 640.499 120.303C643.15 119.157 646.006 118.559 648.894 118.544C651.343 118.544 673 119.277 673 144.257V178.905H658.755V144.279C658.848 142.633 658.588 140.985 657.993 139.447C657.398 137.908 656.481 136.514 655.303 135.357C654.126 134.2 652.715 133.308 651.164 132.738C649.614 132.169 647.96 131.937 646.312 132.056C644.679 131.999 643.05 132.273 641.526 132.862C640.001 133.452 638.612 134.343 637.443 135.484C636.274 136.625 635.348 137.99 634.723 139.498C634.097 141.006 633.784 142.625 633.803 144.257V178.882H619.669ZM446.456 118.188C440.293 118.188 434.268 120.013 429.143 123.432C424.019 126.851 420.025 131.71 417.666 137.395C415.308 143.081 414.691 149.337 415.893 155.372C417.095 161.408 420.063 166.952 424.421 171.303C428.779 175.654 434.332 178.618 440.377 179.818C446.421 181.019 452.687 180.402 458.381 178.048C464.075 175.693 468.942 171.705 472.366 166.588C475.79 161.471 477.617 155.456 477.617 149.302C477.617 145.216 476.811 141.17 475.245 137.395C473.679 133.62 471.384 130.19 468.49 127.301C465.597 124.412 462.162 122.12 458.381 120.557C454.6 118.993 450.548 118.188 446.456 118.188ZM446.456 166.481C443.052 166.481 439.725 165.473 436.895 163.585C434.065 161.696 431.859 159.012 430.558 155.871C429.256 152.731 428.917 149.275 429.582 145.942C430.248 142.609 431.889 139.548 434.298 137.147C436.706 134.745 439.774 133.11 443.113 132.45C446.452 131.79 449.912 132.133 453.056 133.437C456.199 134.741 458.885 136.946 460.773 139.774C462.661 142.602 463.666 145.926 463.661 149.324C463.661 153.875 461.851 158.239 458.629 161.456C455.406 164.674 451.035 166.481 446.478 166.481H446.456ZM201.459 87.6077V85.9631L201.393 68.8061H198.277V80.6738C198.313 82.1374 198.094 83.5962 197.631 84.9853C197.26 86.1031 196.661 87.1322 195.873 88.0078C195.152 88.8216 194.242 89.4473 193.224 89.8301C192.196 90.2317 191.101 90.4353 189.996 90.4302C188.949 90.4729 187.908 90.2513 186.969 89.7857C186.226 89.3761 185.604 88.7782 185.166 88.0522C184.712 87.3012 184.403 86.4721 184.254 85.6076C184.077 84.6771 183.987 83.7322 183.987 82.7851V68.695H180.893V83.0295C180.833 84.331 180.915 85.6351 181.138 86.9188C181.341 88.1057 181.813 89.2307 182.518 90.208C183.232 91.1814 184.192 91.9483 185.3 92.4304C186.746 93.0559 188.31 93.3592 189.885 93.3193C191.682 93.3675 193.451 92.8717 194.96 91.897C196.291 91.0861 197.364 89.9146 198.054 88.5189H198.21C198.319 89.045 198.364 89.5823 198.343 90.1191V92.6971H201.459V91.3636V89.5635V87.6077ZM207.469 75.54V73.8954V71.9841V70.1395V68.8061H210.563V71.4063C210.506 71.9381 210.506 72.4746 210.563 73.0064H210.719C211.431 71.613 212.508 70.438 213.835 69.6061C215.354 68.6554 217.118 68.1687 218.91 68.206C220.482 68.1646 222.031 68.59 223.361 69.4283C224.761 70.348 225.774 71.7473 226.21 73.362C226.872 71.7125 228.072 70.3343 229.616 69.4506C231.066 68.6452 232.698 68.2244 234.357 68.2282C235.887 68.1842 237.407 68.4803 238.809 69.095C239.909 69.5893 240.866 70.3539 241.591 71.3174C242.259 72.3175 242.734 73.4328 242.993 74.6066C243.253 75.8715 243.38 77.1601 243.372 78.4514V92.6748H240.255V78.6736C240.257 77.7264 240.167 76.7813 239.988 75.8511C239.847 74.9775 239.537 74.1397 239.076 73.3842C238.638 72.6583 238.016 72.0604 237.273 71.6508C236.361 71.1678 235.345 70.916 234.312 70.9174C233.075 70.8633 231.846 71.1394 230.751 71.7174C229.856 72.2113 229.093 72.9124 228.525 73.7621C227.998 74.5801 227.614 75.482 227.39 76.429C227.176 77.3397 227.064 78.2715 227.056 79.207V92.5415H223.94V78.3402C224.039 76.4857 223.623 74.64 222.738 73.0064C222.354 72.3622 221.8 71.8352 221.137 71.4827C220.474 71.1301 219.727 70.9653 218.977 71.0063C217.875 71.0047 216.782 71.2004 215.749 71.5841C214.747 71.9776 213.844 72.5844 213.1 73.362C212.321 74.2732 211.717 75.3206 211.32 76.4512C210.869 77.8433 210.651 79.2999 210.674 80.7627V92.7193H207.469V75.54ZM267.299 85.8742V82.7184L267.388 76.7845C267.519 75.5483 267.353 74.2987 266.904 73.1392C266.455 71.9798 265.736 70.9438 264.806 70.1173C262.797 68.6756 260.355 67.9621 257.884 68.0949C256.227 68.1205 254.583 68.3978 253.009 68.9172C251.427 69.4239 249.981 70.2826 248.78 71.4285L250.583 73.6509C252.601 71.8851 255.201 70.9272 257.884 70.9618C259.579 70.9023 261.25 71.3681 262.669 72.2953C263.337 72.8153 263.863 73.4953 264.198 74.2724C264.532 75.0494 264.665 75.8982 264.584 76.7401V78.1847H260.978C259.624 78.1767 258.27 78.2584 256.927 78.4291C255.401 78.5403 253.901 78.8773 252.475 79.4292C251.152 79.9473 249.97 80.7696 249.025 81.8294C248.023 83.0866 247.523 84.6704 247.623 86.2743C247.592 87.4098 247.853 88.5344 248.38 89.5412C248.851 90.4169 249.513 91.1763 250.316 91.7636C251.124 92.3499 252.039 92.7727 253.009 93.0082C254.011 93.275 255.044 93.4095 256.081 93.4082C257.823 93.4779 259.554 93.1031 261.111 92.3192C262.522 91.5212 263.679 90.3428 264.45 88.9189C264.433 90.2148 264.537 91.5095 264.762 92.7859H267.655C267.433 92.0748 267.433 91.3858 267.433 90.6746C267.35 89.9366 267.305 89.1948 267.299 88.4522V85.8742ZM257.238 81.0071C258.492 80.8275 259.756 80.7384 261.022 80.7404H264.428V82.3628C264.427 83.3574 264.315 84.3489 264.094 85.3186C263.845 86.2862 263.39 87.1884 262.758 87.9633C262.06 88.7794 261.185 89.4256 260.199 89.8524C258.899 90.3747 257.503 90.6171 256.103 90.5635C255.449 90.5543 254.799 90.4648 254.167 90.2968C253.554 90.0998 252.971 89.8234 252.431 89.4745C251.911 89.0894 251.473 88.6061 251.14 88.0522C250.821 87.458 250.661 86.7924 250.672 86.1187C250.634 85.1714 250.951 84.244 251.563 83.5185C252.205 82.7889 253.015 82.2248 253.922 81.8739C254.981 81.4314 256.098 81.1396 257.238 81.0071ZM273.042 75.5844V73.9621V72.0286V70.1839V68.8505H276.136V71.4507C276.133 71.9806 276.185 72.5094 276.291 73.0286H276.447C277.15 71.6354 278.219 70.4598 279.541 69.6283C281.066 68.6948 282.827 68.2166 284.616 68.2504C286.146 68.2049 287.667 68.5011 289.068 69.1172C290.16 69.6241 291.115 70.3864 291.85 71.3396C292.528 72.3317 292.997 73.4506 293.23 74.6288C293.499 75.8852 293.633 77.1666 293.63 78.4513V92.6748H290.537V78.6958C290.538 77.756 290.449 76.8182 290.27 75.8956C290.136 75.0234 289.833 74.1855 289.379 73.4287C288.945 72.692 288.313 72.0915 287.554 71.6952C286.614 71.2323 285.574 71.0108 284.527 71.0507C283.423 71.0455 282.328 71.2491 281.299 71.6507C280.294 72.0241 279.393 72.6339 278.673 73.4287C277.879 74.3213 277.274 75.3643 276.892 76.4956C276.429 77.8847 276.211 79.3435 276.247 80.8071V92.7637H273.108L273.042 75.5844ZM320.051 71.7174L305.672 90.9191L305.628 92.786H324.903V89.9857H309.99L324.236 70.7618V68.895H306.429V71.7174H320.051ZM327.552 59.4497C327.544 59.1445 327.6 58.8409 327.714 58.558C327.829 58.275 328.001 58.0187 328.22 57.8051C328.434 57.5801 328.694 57.4026 328.981 57.2839C329.269 57.1653 329.578 57.1081 329.889 57.1161C330.197 57.1112 330.502 57.1699 330.785 57.2885C331.068 57.407 331.324 57.5829 331.536 57.8051C331.755 58.0187 331.927 58.275 332.042 58.558C332.157 58.8409 332.212 59.1445 332.204 59.4497C332.212 59.7549 332.157 60.0584 332.042 60.3414C331.927 60.6244 331.755 60.8806 331.536 61.0943C331.322 61.3124 331.066 61.4842 330.782 61.5989C330.499 61.7136 330.195 61.7688 329.889 61.761C329.58 61.7719 329.272 61.7182 328.984 61.6034C328.697 61.4886 328.436 61.3152 328.22 61.0943C328.001 60.8806 327.829 60.6244 327.714 60.3414C327.6 60.0584 327.544 59.7549 327.552 59.4497ZM328.309 68.895H331.425V92.8082H328.309V68.895ZM337.568 74.0065V75.6511L337.524 92.8082H340.64V80.8738C340.612 79.4106 340.83 77.9531 341.286 76.5623C341.666 75.4285 342.263 74.3793 343.044 73.4731C343.781 72.6784 344.697 72.0692 345.715 71.6952C346.743 71.2936 347.838 71.09 348.942 71.0951C349.989 71.058 351.029 71.2794 351.97 71.7396C352.713 72.1493 353.335 72.7472 353.773 73.4731C354.224 74.2332 354.534 75.0691 354.685 75.94C354.863 76.8703 354.953 77.8153 354.952 78.7625V92.7637H358.157V78.5402C358.162 77.2502 358.043 75.9627 357.801 74.6955C357.542 73.5217 357.067 72.4064 356.399 71.4063C355.674 70.4428 354.717 69.6782 353.617 69.1839C352.217 68.5648 350.695 68.2686 349.165 68.3171C347.373 68.2772 345.608 68.7641 344.09 69.7172C342.757 70.5486 341.673 71.7232 340.952 73.1175H340.818C340.737 72.5878 340.693 72.0532 340.685 71.5174V68.9172H337.568V70.2284V72.073V74.0065ZM386.714 91.2969C386.807 93.7568 386.359 96.2071 385.401 98.4753C384.668 100.114 383.572 101.565 382.196 102.72C380.959 103.681 379.533 104.37 378.011 104.743C376.683 105.055 375.325 105.219 373.96 105.231C372.773 105.233 371.588 105.121 370.421 104.898C369.297 104.677 368.195 104.357 367.127 103.942C366.135 103.516 365.194 102.979 364.323 102.342C363.484 101.705 362.735 100.957 362.097 100.12L364.545 97.8975C365.554 99.4066 366.975 100.595 368.641 101.32C370.307 102.064 372.113 102.443 373.938 102.431C375.3 102.461 376.656 102.251 377.945 101.809C378.946 101.447 379.868 100.896 380.66 100.187C381.337 99.5496 381.895 98.797 382.307 97.9642C382.692 97.1838 382.99 96.3642 383.198 95.5195C383.385 94.7913 383.504 94.0473 383.554 93.2971V91.5414V88.1855C382.653 89.6217 381.395 90.8007 379.903 91.6081C378.226 92.4463 376.37 92.8657 374.495 92.8304C372.786 92.8421 371.092 92.5174 369.509 91.8748C367.995 91.2728 366.617 90.3734 365.458 89.2301C364.293 88.1164 363.356 86.7881 362.698 85.3186C362.035 83.8213 361.701 82.1996 361.718 80.5626C361.713 78.9246 362.054 77.3038 362.72 75.8067C363.374 74.3532 364.304 73.04 365.458 71.9397C366.636 70.8149 368.019 69.9248 369.531 69.3172C371.109 68.6565 372.806 68.3238 374.517 68.3393C376.396 68.2914 378.257 68.7196 379.926 69.5839C381.379 70.3862 382.593 71.5597 383.442 72.9842H383.554V68.9394H386.67L386.714 91.2969ZM383.732 80.5849C383.746 79.3153 383.488 78.0573 382.975 76.8957C382.501 75.7672 381.814 74.7409 380.95 73.8732C380.082 73.025 379.063 72.3466 377.945 71.873C376.783 71.3784 375.535 71.1214 374.272 71.1174C372.993 71.1038 371.726 71.3614 370.555 71.873C368.838 72.595 367.374 73.8068 366.344 75.3566C365.315 76.9064 364.766 78.7252 364.768 80.5849C364.791 81.8551 365.087 83.1055 365.636 84.2519C366.096 85.382 366.777 86.4094 367.639 87.2744C368.97 88.6109 370.673 89.518 372.526 89.8785C374.379 90.239 376.297 90.0364 378.034 89.2967C379.167 88.8294 380.196 88.1419 381.061 87.2744C381.917 86.4088 382.604 85.3913 383.086 84.2741C383.548 83.1003 383.768 81.8455 383.732 80.5849ZM461.346 88.43C460.271 90.1353 458.725 91.4937 456.895 92.3415C455.032 93.1405 453.023 93.5417 450.996 93.5194C449.296 93.5405 447.609 93.2232 446.033 92.586C444.591 91.9806 443.289 91.0883 442.204 89.9635C441.125 88.8137 440.286 87.4615 439.734 85.9854C439.175 84.3394 438.897 82.6116 438.91 80.8738C438.893 79.19 439.188 77.5175 439.778 75.94C440.348 74.4626 441.203 73.1111 442.293 71.9619C443.394 70.8044 444.725 69.8899 446.201 69.2775C447.677 68.665 449.265 68.3682 450.863 68.406C452.535 68.3719 454.196 68.6899 455.737 69.3395C457.037 69.9333 458.203 70.7825 459.167 71.8364C460.131 72.8902 460.872 74.1272 461.346 75.4733C461.815 76.7861 462.055 78.169 462.059 79.5626V81.785H442.026C442.047 82.6362 442.182 83.4807 442.427 84.2963C442.699 85.3669 443.183 86.3721 443.851 87.2522C444.647 88.4215 445.736 89.3628 447.009 89.9826C448.281 90.6024 449.694 90.8793 451.107 90.7858C452.705 90.7827 454.278 90.3939 455.693 89.6524C457.108 88.9309 458.295 87.8306 459.12 86.4743L461.346 88.43ZM458.965 78.9403C458.979 77.9044 458.758 76.8787 458.319 75.94C457.902 75.0153 457.313 74.1782 456.583 73.4732C455.81 72.7658 454.912 72.2081 453.934 71.8286C452.915 71.3918 451.816 71.1723 450.707 71.1841C449.226 71.1173 447.757 71.4801 446.478 72.2286C445.443 72.8333 444.536 73.6335 443.807 74.5844C443.195 75.3737 442.721 76.2603 442.405 77.2068C442.18 77.761 442.037 78.345 441.982 78.9403H458.965ZM465.798 74.0954V75.74V92.9193H469.114V80.9627C469.091 79.4999 469.309 78.0433 469.76 76.6512C470.145 75.5264 470.742 74.4854 471.518 73.5843C472.249 72.7924 473.157 72.1834 474.167 71.8063C475.195 71.4026 476.29 71.1989 477.394 71.2063C478.449 71.1664 479.496 71.3878 480.444 71.8508C481.191 72.2453 481.814 72.8373 482.247 73.562C482.686 74.3362 482.994 75.1771 483.159 76.0511C483.32 76.976 483.402 77.9127 483.404 78.8514V92.8526H486.498V78.6291C486.497 77.3457 486.37 76.0654 486.12 74.8066C485.88 73.6267 485.403 72.5077 484.717 71.5174C483.992 70.5639 483.044 69.8012 481.957 69.295C480.512 68.6695 478.947 68.3661 477.372 68.406C475.587 68.3652 473.829 68.8523 472.32 69.8061C470.975 70.6241 469.888 71.8022 469.181 73.2064H469.025C468.931 72.6786 468.894 72.1421 468.914 71.6063V69.0061H465.798V70.3395V72.1841V74.0954ZM489.881 80.9849C489.852 79.2506 490.17 77.5278 490.816 75.9178C491.413 74.4452 492.29 73.1019 493.398 71.9619C494.531 70.8289 495.888 69.9435 497.382 69.3617C499.006 68.7267 500.736 68.4098 502.48 68.4283C504.208 68.4099 505.924 68.7269 507.532 69.3617C509.025 69.9568 510.38 70.8491 511.516 71.9841C512.632 73.1229 513.516 74.4661 514.121 75.94C514.759 77.5523 515.077 79.2735 515.056 81.0072C515.053 82.7242 514.736 84.4263 514.121 86.0298C513.534 87.5439 512.636 88.9189 511.487 90.0669C510.337 91.215 508.96 92.1108 507.443 92.6971C504.177 93.9561 500.559 93.9561 497.293 92.6971C495.803 92.1208 494.452 91.2345 493.331 90.0968C492.199 88.9551 491.312 87.5936 490.727 86.0965C490.099 84.4682 489.811 82.7286 489.881 80.9849ZM492.975 80.9849C492.965 82.2744 493.191 83.555 493.643 84.763C494.033 85.9232 494.671 86.9848 495.513 87.8744C496.361 88.7734 497.384 89.4916 498.518 89.9857C499.762 90.5158 501.104 90.7807 502.457 90.7636C503.804 90.7919 505.141 90.5265 506.375 89.9857C507.512 89.4863 508.541 88.769 509.402 87.8744C510.25 86.9943 510.896 85.9401 511.294 84.7853C511.724 83.5721 511.942 82.2941 511.939 81.0072C511.944 79.7055 511.726 78.4126 511.294 77.1846C510.882 76.0362 510.238 74.9846 509.402 74.0954C508.554 73.1911 507.522 72.4787 506.375 72.0064C505.149 71.4653 503.819 71.1998 502.48 71.2285C501.125 71.2005 499.781 71.4658 498.54 72.0064C497.398 72.4781 496.367 73.182 495.513 74.0732C494.697 74.9822 494.062 76.0382 493.643 77.1846C493.2 78.4028 492.974 79.689 492.975 80.9849ZM519.485 74.1398V75.7844L519.374 92.9637H522.468V81.0071C522.432 79.5435 522.65 78.0847 523.113 76.6956C523.494 75.5643 524.1 74.5213 524.894 73.6287C525.613 72.8339 526.514 72.2241 527.52 71.8508C528.556 71.45 529.659 71.2465 530.77 71.2507C531.52 71.206 532.268 71.3717 532.929 71.7291C533.589 72.0865 534.137 72.6213 534.509 73.2731C535.394 74.8985 535.81 76.7372 535.711 78.5847V92.8748H538.827V79.5403C538.856 78.605 538.975 77.6746 539.183 76.7623C539.388 75.809 539.773 74.9037 540.319 74.0954C540.878 73.2387 541.643 72.5357 542.544 72.0508C543.644 71.4864 544.87 71.211 546.106 71.2507C547.16 71.2108 548.208 71.4323 549.155 71.8952C549.893 72.3114 550.514 72.9078 550.958 73.6287C551.403 74.3901 551.704 75.2261 551.848 76.0956C552.026 77.0259 552.116 77.9709 552.115 78.918V92.9859H555.232V78.7625C555.233 77.4704 555.099 76.1818 554.831 74.9177C554.591 73.7172 554.115 72.5765 553.429 71.5618C552.693 70.6087 551.739 69.8464 550.646 69.3394C549.245 68.7254 547.725 68.4294 546.195 68.4727C544.543 68.4666 542.917 68.8877 541.476 69.695C539.993 70.6025 538.857 71.9795 538.249 73.6065C537.803 71.9962 536.792 70.5999 535.4 69.6728C534.1 68.8577 532.594 68.4334 531.059 68.4505C529.266 68.4039 527.499 68.8913 525.984 69.8506C524.647 70.6699 523.567 71.8482 522.868 73.2509H522.712C522.618 72.7228 522.574 72.1871 522.579 71.6507V69.0505H519.485V70.384V72.2286V74.1398ZM560.507 59.6275C560.499 59.3222 560.554 59.0187 560.669 58.7357C560.784 58.4528 560.956 58.1965 561.175 57.9829C561.383 57.7501 561.639 57.5639 561.925 57.4364C562.21 57.3089 562.52 57.243 562.833 57.243C563.146 57.243 563.455 57.3089 563.741 57.4364C564.027 57.5639 564.282 57.7501 564.491 57.9829C564.71 58.1965 564.882 58.4528 564.997 58.7357C565.112 59.0187 565.167 59.3222 565.159 59.6275C565.167 59.9327 565.112 60.2362 564.997 60.5192C564.882 60.8022 564.71 61.0584 564.491 61.2721C564.273 61.489 564.012 61.6583 563.724 61.7692C563.437 61.8802 563.13 61.9303 562.822 61.9166C562.231 61.9166 561.665 61.6824 561.248 61.2656C560.83 60.8489 560.596 60.2836 560.596 59.6941L560.507 59.6275ZM561.264 69.095H564.38V92.986H561.286L561.264 69.095ZM585.69 92.6179C587.237 91.8957 588.592 90.8186 589.643 89.4745L587.172 87.6299C586.384 88.5975 585.417 89.4048 584.323 90.0079C583.232 90.6274 581.994 90.9421 580.74 90.9191C579.387 90.9343 578.045 90.6695 576.8 90.1413C575.652 89.6212 574.628 88.8637 573.795 87.9188C572.954 87.0332 572.31 85.9806 571.903 84.8297C571.47 83.6171 571.252 82.3388 571.258 81.0516C571.249 79.7477 571.475 78.453 571.925 77.229C572.33 76.0825 572.967 75.0311 573.795 74.1398C574.657 73.2519 575.686 72.5421 576.822 72.0508C578.067 71.5207 579.409 71.2558 580.762 71.2729C581.968 71.2891 583.155 71.5778 584.234 72.1174C585.331 72.7436 586.323 73.5386 587.172 74.4732L589.665 72.6286C588.536 71.3532 587.167 70.3112 585.636 69.5617C584.113 68.8422 582.447 68.4775 580.762 68.4949C579.026 68.4782 577.303 68.7951 575.687 69.4283C574.183 69.991 572.822 70.8789 571.703 72.0285C570.58 73.1615 569.695 74.5063 569.099 75.9845C568.46 77.5967 568.142 79.3179 568.164 81.0516C568.145 82.7706 568.462 84.4768 569.099 86.0742C569.672 87.5718 570.552 88.934 571.68 90.0746C572.81 91.2127 574.167 92.0989 575.665 92.6748C577.279 93.3151 579.002 93.6396 580.74 93.6305C582.447 93.6871 584.143 93.3401 585.69 92.6179ZM594.495 86.9188C595.123 88.1654 596.128 89.1836 597.366 89.8301C598.621 90.4953 600.019 90.8461 601.44 90.8525C602.096 90.8341 602.747 90.7295 603.376 90.5413C604.01 90.3492 604.605 90.0484 605.135 89.6524C605.651 89.2977 606.084 88.8351 606.403 88.2967C606.746 87.7429 606.924 87.103 606.915 86.4521C606.949 85.9822 606.869 85.5111 606.683 85.0782C606.497 84.6452 606.211 84.2628 605.847 83.963C605.058 83.3895 604.177 82.9536 603.243 82.674C602.124 82.343 600.987 82.0759 599.837 81.8739C598.655 81.6596 597.504 81.3013 596.409 80.8071C595.401 80.3864 594.508 79.7311 593.805 78.8958C593.002 77.8984 592.598 76.6397 592.67 75.3622C592.644 74.3033 592.889 73.2553 593.382 72.3175C593.846 71.45 594.491 70.6921 595.274 70.0951C596.073 69.5354 596.961 69.1146 597.901 68.8505C598.863 68.5746 599.86 68.4399 600.861 68.4505C602.62 68.4085 604.364 68.7736 605.958 69.5172C607.404 70.2789 608.572 71.4766 609.297 72.9398L606.515 74.5844C605.98 73.5845 605.218 72.7242 604.289 72.073C603.233 71.4742 602.03 71.1817 600.816 71.2285C600.229 71.2285 599.645 71.3108 599.08 71.473C598.51 71.6485 597.964 71.8949 597.455 72.2064C596.971 72.5126 596.56 72.9225 596.253 73.4065C595.913 73.8867 595.733 74.4626 595.742 75.0511C595.696 75.5375 595.779 76.0272 595.982 76.4717C596.186 76.9161 596.501 77.2998 596.899 77.5846C597.69 78.1204 598.561 78.5256 599.481 78.7847C600.549 79.0736 601.707 79.3181 602.931 79.5403C604.105 79.7225 605.25 80.0587 606.337 80.5404C607.364 80.9913 608.265 81.6855 608.963 82.5628C609.735 83.6579 610.112 84.9821 610.031 86.3187C610.054 87.4341 609.81 88.5388 609.319 89.5412C608.849 90.4114 608.196 91.1695 607.405 91.7636C606.569 92.3883 605.626 92.8553 604.623 93.1415C603.562 93.4664 602.46 93.6312 601.351 93.6305C599.403 93.6307 597.476 93.2218 595.697 92.4304C594.011 91.6399 592.623 90.3316 591.735 88.6967L594.495 86.9188ZM298.055 58.533C297.936 58.8161 297.877 59.1206 297.882 59.4274C297.877 59.7343 297.936 60.0388 298.055 60.3219C298.174 60.6049 298.35 60.8603 298.572 61.072C298.786 61.2902 299.043 61.462 299.326 61.5767C299.61 61.6914 299.914 61.7466 300.219 61.7388C300.529 61.7497 300.837 61.696 301.124 61.5812C301.412 61.4664 301.672 61.293 301.889 61.072C302.215 60.7444 302.436 60.3275 302.524 59.8742C302.613 59.4209 302.565 58.9516 302.386 58.5256C302.207 58.0997 301.906 57.7363 301.52 57.4814C301.135 57.2265 300.682 57.0917 300.219 57.0939C299.912 57.089 299.607 57.1476 299.324 57.2662C299.04 57.3848 298.784 57.5607 298.572 57.7829C298.35 57.9946 298.174 58.25 298.055 58.533ZM301.777 68.8727H298.639L298.661 92.7859H301.777V68.8727Z" fill="#002163"/>
<path d="M65.5282 38.359C66.2182 43.6483 68.0211 50.4711 70.9147 53.9159C75.3664 59.1386 79.0612 48.5376 79.1503 42.8038C79.2616 36.5366 75.9896 30.9361 71.5157 30.1138C66.196 29.1804 64.9495 34.1141 65.5282 38.359Z" fill="#E50050"/>
<path d="M122.776 180.772C97.224 158.547 64.9051 155.169 44.8726 151.88C46.9268 142.259 49.9084 132.859 53.7759 123.811C58.8508 111.654 61.1657 104.209 61.8334 98.0309C61.9447 96.9419 60.8541 95.4306 59.7189 97.742C57.8492 101.52 49.6359 118.21 44.1381 127.856C34.9917 126.782 25.7227 127.538 16.8718 130.078C17.8988 128.99 18.9915 127.966 20.1437 127.011C28.6686 119.877 53.5311 106.187 83.6688 63.8723C84.1056 63.2993 84.3813 62.6202 84.4674 61.9053C84.5534 61.1903 84.4468 60.4653 84.1584 59.8053L83.09 57.2495C82.5336 56.205 81.1536 55.6716 80.0184 57.4273C75.1288 65.6895 69.4006 73.4272 62.9241 80.5182C62.5793 77.6541 61.9454 74.8321 61.0321 72.0953C58.695 62.85 53.264 43.9817 64.638 21.5797C69.8241 11.3788 70.5587 8.88968 63.0799 1.57792C62.6108 0.991441 61.9914 0.542742 61.2875 0.279472C60.5835 0.0162011 59.8213 -0.0518135 59.0818 0.0826499C58.3422 0.217113 57.653 0.549035 57.0872 1.04317C56.5214 1.53731 56.1001 2.17521 55.8682 2.88915C50.1033 14.2235 42.9807 27.8469 50.6153 57.4051C53.4198 68.2505 60.4534 82.9851 58.0718 85.7853C49.1685 96.2307 37.75 104.676 23.0373 114.343C9.68236 123.233 1.75843 125.967 0.222613 133.19C-1.04611 139.279 1.75843 148.235 19.565 153.347C24.306 154.703 29.1138 155.703 31.5622 156.192C22.926 190.261 26.6877 214.797 40.4655 238.021C46.3194 247.933 54.733 252.2 63.9034 252C67.6428 252 69.1341 248.689 66.8193 245.488C58.1531 235.1 51.5438 223.161 47.3433 210.307C47.0763 209.333 47.0763 208.304 47.3433 207.329C55.6679 181.083 73.8529 170.237 77.3029 168.393C77.8899 168.14 78.5223 168.01 79.1615 168.01C79.8006 168.01 80.4331 168.14 81.02 168.393C88.0025 171.059 94.5508 174.744 100.451 179.327C105.282 183.038 105.126 188.217 98.6708 194.884C84.1362 209.663 77.4587 220.575 74.1868 226.976C72.0934 230.28 71.2197 234.209 71.7161 238.088C72.4506 242.355 75.2551 242.533 78.171 238.732C87.9869 226.02 97.2018 214.886 119.95 199.418C130.099 192.417 129.298 186.483 122.776 180.772ZM33.7435 149.658C26.1312 148.435 20.6334 146.48 16.7827 142.479C15.9003 141.622 15.2221 140.578 14.7983 139.424C14.3745 138.27 14.2159 137.035 14.3343 135.812C20.5889 133.79 28.8467 133.323 40.4878 135.19C38.44 139.39 35.68 144.968 33.6322 149.658H33.7435ZM65.1499 164.014L63.4583 165.659C54.1829 174.082 47.4392 184.917 43.9823 196.951C41.6232 183.944 41.5404 170.627 43.7375 157.592C49.9298 158.467 56.0624 159.721 62.1005 161.348L64.6825 162.059H64.9273C65.9067 162.481 65.9735 163.214 65.1499 164.014Z" fill="url(#paint0_linear)"/>
</g>
<defs>
<linearGradient id="paint0_linear" x1="63.9487" y1="10.91" x2="63.7463" y2="243.108" gradientUnits="userSpaceOnUse">
<stop stop-color="#8FC31F"/>
<stop offset="0.3" stop-color="#38B673"/>
<stop offset="0.51" stop-color="#00ADA9"/>
<stop offset="0.61" stop-color="#008C99"/>
<stop offset="0.88" stop-color="#003F72"/>
<stop offset="1" stop-color="#002163"/>
</linearGradient>
<clipPath id="clip0">
<rect width="673" height="252" fill="white"/>
</clipPath>
</defs>
</svg>
