<svg width="418" height="2" viewBox="0 0 418 2" fill="none" xmlns="http://www.w3.org/2000/svg">
<path d="M1 0.5C0.723858 0.5 0.5 0.723858 0.5 1C0.5 1.27614 0.723858 1.5 1 1.5L1 0.5ZM417 1.49996C417.276 1.49996 417.5 1.27611 417.5 0.999964C417.5 0.723821 417.276 0.499964 417 0.499964L417 1.49996ZM1.00499 1.5C1.28113 1.5 1.50499 1.27614 1.50499 1C1.50499 0.723858 1.28113 0.5 1.00499 0.5L1.00499 1.5ZM4.99501 0.5C4.71887 0.5 4.49501 0.723857 4.49501 1C4.49501 1.27614 4.71887 1.5 4.99501 1.5L4.99501 0.5ZM5.00499 1.5C5.28113 1.5 5.50499 1.27614 5.50499 1C5.50499 0.723857 5.28113 0.5 5.00499 0.5L5.00499 1.5ZM8.99501 0.499999C8.71887 0.499999 8.49501 0.723857 8.49501 0.999999C8.49501 1.27614 8.71887 1.5 8.99501 1.5L8.99501 0.499999ZM9.00499 1.5C9.28113 1.5 9.50499 1.27614 9.50499 0.999999C9.50499 0.723857 9.28113 0.499999 9.00499 0.499999L9.00499 1.5ZM12.995 0.499999C12.7189 0.499999 12.495 0.723857 12.495 0.999999C12.495 1.27614 12.7189 1.5 12.995 1.5L12.995 0.499999ZM13.005 1.5C13.2811 1.5 13.505 1.27614 13.505 0.999999C13.505 0.723857 13.2811 0.499999 13.005 0.499999L13.005 1.5ZM16.995 0.499999C16.7189 0.499999 16.495 0.723856 16.495 0.999999C16.495 1.27614 16.7189 1.5 16.995 1.5L16.995 0.499999ZM17.005 1.5C17.2811 1.5 17.505 1.27614 17.505 0.999999C17.505 0.723856 17.2811 0.499999 17.005 0.499999L17.005 1.5ZM20.995 0.499998C20.7189 0.499998 20.495 0.723856 20.495 0.999998C20.495 1.27614 20.7189 1.5 20.995 1.5L20.995 0.499998ZM21.005 1.5C21.2811 1.5 21.505 1.27614 21.505 0.999998C21.505 0.723856 21.2811 0.499998 21.005 0.499998L21.005 1.5ZM24.995 0.499998C24.7189 0.499998 24.495 0.723856 24.495 0.999998C24.495 1.27614 24.7189 1.5 24.995 1.5L24.995 0.499998ZM25.005 1.5C25.2811 1.5 25.505 1.27614 25.505 0.999998C25.505 0.723855 25.2811 0.499998 25.005 0.499998L25.005 1.5ZM28.995 0.499998C28.7189 0.499998 28.495 0.723855 28.495 0.999998C28.495 1.27614 28.7189 1.5 28.995 1.5L28.995 0.499998ZM29.005 1.5C29.2811 1.5 29.505 1.27614 29.505 0.999998C29.505 0.723855 29.2811 0.499998 29.005 0.499998L29.005 1.5ZM32.995 0.499997C32.7189 0.499997 32.495 0.723855 32.495 0.999997C32.495 1.27614 32.7189 1.5 32.995 1.5L32.995 0.499997ZM33.005 1.5C33.2811 1.5 33.505 1.27614 33.505 0.999997C33.505 0.723855 33.2811 0.499997 33.005 0.499997L33.005 1.5ZM36.995 0.499997C36.7189 0.499997 36.495 0.723855 36.495 0.999997C36.495 1.27614 36.7189 1.5 36.995 1.5L36.995 0.499997ZM37.005 1.5C37.2811 1.5 37.505 1.27614 37.505 0.999997C37.505 0.723854 37.2811 0.499997 37.005 0.499997L37.005 1.5ZM40.995 0.499997C40.7189 0.499997 40.495 0.723854 40.495 0.999997C40.495 1.27614 40.7189 1.5 40.995 1.5L40.995 0.499997ZM41.005 1.5C41.2811 1.5 41.505 1.27614 41.505 0.999996C41.505 0.723854 41.2811 0.499996 41.005 0.499997L41.005 1.5ZM44.995 0.499996C44.7189 0.499996 44.495 0.723854 44.495 0.999996C44.495 1.27614 44.7189 1.5 44.995 1.5L44.995 0.499996ZM45.005 1.5C45.2811 1.5 45.505 1.27614 45.505 0.999996C45.505 0.723854 45.2811 0.499996 45.005 0.499996L45.005 1.5ZM48.995 0.499996C48.7189 0.499996 48.495 0.723853 48.495 0.999996C48.495 1.27614 48.7189 1.5 48.995 1.5L48.995 0.499996ZM49.005 1.5C49.2811 1.5 49.505 1.27614 49.505 0.999996C49.505 0.723853 49.2811 0.499996 49.005 0.499996L49.005 1.5ZM52.995 0.499995C52.7189 0.499995 52.495 0.723853 52.495 0.999995C52.495 1.27614 52.7189 1.5 52.995 1.5L52.995 0.499995ZM53.005 1.5C53.2811 1.5 53.505 1.27614 53.505 0.999995C53.505 0.723853 53.2811 0.499995 53.005 0.499995L53.005 1.5ZM56.995 0.499995C56.7189 0.499995 56.495 0.723853 56.495 0.999995C56.495 1.27614 56.7189 1.5 56.995 1.5L56.995 0.499995ZM57.005 1.5C57.2811 1.5 57.505 1.27614 57.505 0.999995C57.505 0.723853 57.2811 0.499995 57.005 0.499995L57.005 1.5ZM60.995 0.499995C60.7189 0.499995 60.495 0.723852 60.495 0.999995C60.495 1.27614 60.7189 1.49999 60.995 1.49999L60.995 0.499995ZM61.005 1.49999C61.2811 1.49999 61.505 1.27614 61.505 0.999995C61.505 0.723852 61.2811 0.499995 61.005 0.499995L61.005 1.49999ZM64.995 0.499994C64.7189 0.499994 64.495 0.723852 64.495 0.999994C64.495 1.27614 64.7189 1.49999 64.995 1.49999L64.995 0.499994ZM65.005 1.49999C65.2811 1.49999 65.505 1.27614 65.505 0.999994C65.505 0.723852 65.2811 0.499994 65.005 0.499994L65.005 1.49999ZM68.995 0.499994C68.7189 0.499994 68.495 0.723852 68.495 0.999994C68.495 1.27614 68.7189 1.49999 68.995 1.49999L68.995 0.499994ZM69.005 1.49999C69.2811 1.49999 69.505 1.27614 69.505 0.999994C69.505 0.723852 69.2811 0.499994 69.005 0.499994L69.005 1.49999ZM72.995 0.499994C72.7189 0.499994 72.495 0.723851 72.495 0.999994C72.495 1.27614 72.7189 1.49999 72.995 1.49999L72.995 0.499994ZM73.005 1.49999C73.2811 1.49999 73.505 1.27614 73.505 0.999994C73.505 0.723851 73.2811 0.499994 73.005 0.499994L73.005 1.49999ZM76.995 0.499993C76.7189 0.499993 76.495 0.723851 76.495 0.999993C76.495 1.27614 76.7189 1.49999 76.995 1.49999L76.995 0.499993ZM77.005 1.49999C77.2811 1.49999 77.505 1.27614 77.505 0.999993C77.505 0.723851 77.2811 0.499993 77.005 0.499993L77.005 1.49999ZM80.995 0.499993C80.7189 0.499993 80.495 0.723851 80.495 0.999993C80.495 1.27614 80.7189 1.49999 80.995 1.49999L80.995 0.499993ZM81.005 1.49999C81.2811 1.49999 81.505 1.27614 81.505 0.999993C81.505 0.723851 81.2811 0.499993 81.005 0.499993L81.005 1.49999ZM84.995 0.499993C84.7189 0.499993 84.495 0.72385 84.495 0.999993C84.495 1.27614 84.7189 1.49999 84.995 1.49999L84.995 0.499993ZM85.005 1.49999C85.2811 1.49999 85.505 1.27614 85.505 0.999993C85.505 0.72385 85.2811 0.499993 85.005 0.499993L85.005 1.49999ZM88.995 0.499992C88.7189 0.499992 88.495 0.72385 88.495 0.999992C88.495 1.27613 88.7189 1.49999 88.995 1.49999L88.995 0.499992ZM89.005 1.49999C89.2811 1.49999 89.505 1.27613 89.505 0.999992C89.505 0.72385 89.2811 0.499992 89.005 0.499992L89.005 1.49999ZM92.995 0.499992C92.7189 0.499992 92.495 0.72385 92.495 0.999992C92.495 1.27613 92.7189 1.49999 92.995 1.49999L92.995 0.499992ZM93.005 1.49999C93.2811 1.49999 93.505 1.27613 93.505 0.999992C93.505 0.72385 93.2811 0.499992 93.005 0.499992L93.005 1.49999ZM96.995 0.499992C96.7189 0.499992 96.495 0.723849 96.495 0.999992C96.495 1.27613 96.7189 1.49999 96.995 1.49999L96.995 0.499992ZM97.005 1.49999C97.2811 1.49999 97.505 1.27613 97.505 0.999992C97.505 0.723849 97.2811 0.499992 97.005 0.499992L97.005 1.49999ZM100.995 0.499991C100.719 0.499991 100.495 0.723849 100.495 0.999991C100.495 1.27613 100.719 1.49999 100.995 1.49999L100.995 0.499991ZM101.005 1.49999C101.281 1.49999 101.505 1.27613 101.505 0.999991C101.505 0.723849 101.281 0.499991 101.005 0.499991L101.005 1.49999ZM104.995 0.499991C104.719 0.499991 104.495 0.723849 104.495 0.999991C104.495 1.27613 104.719 1.49999 104.995 1.49999L104.995 0.499991ZM105.005 1.49999C105.281 1.49999 105.505 1.27613 105.505 0.999991C105.505 0.723848 105.281 0.499991 105.005 0.499991L105.005 1.49999ZM108.995 0.499991C108.719 0.499991 108.495 0.723848 108.495 0.999991C108.495 1.27613 108.719 1.49999 108.995 1.49999L108.995 0.499991ZM109.005 1.49999C109.281 1.49999 109.505 1.27613 109.505 0.999991C109.505 0.723848 109.281 0.499991 109.005 0.499991L109.005 1.49999ZM112.995 0.49999C112.719 0.49999 112.495 0.723848 112.495 0.99999C112.495 1.27613 112.719 1.49999 112.995 1.49999L112.995 0.49999ZM113.005 1.49999C113.281 1.49999 113.505 1.27613 113.505 0.99999C113.505 0.723848 113.281 0.49999 113.005 0.49999L113.005 1.49999ZM116.995 0.49999C116.719 0.49999 116.495 0.723848 116.495 0.99999C116.495 1.27613 116.719 1.49999 116.995 1.49999L116.995 0.49999ZM117.005 1.49999C117.281 1.49999 117.505 1.27613 117.505 0.99999C117.505 0.723847 117.281 0.49999 117.005 0.49999L117.005 1.49999ZM120.995 0.49999C120.719 0.49999 120.495 0.723847 120.495 0.99999C120.495 1.27613 120.719 1.49999 120.995 1.49999L120.995 0.49999ZM121.005 1.49999C121.281 1.49999 121.505 1.27613 121.505 0.999989C121.505 0.723847 121.281 0.499989 121.005 0.49999L121.005 1.49999ZM124.995 0.499989C124.719 0.499989 124.495 0.723847 124.495 0.999989C124.495 1.27613 124.719 1.49999 124.995 1.49999L124.995 0.499989ZM125.005 1.49999C125.281 1.49999 125.505 1.27613 125.505 0.999989C125.505 0.723847 125.281 0.499989 125.005 0.499989L125.005 1.49999ZM128.995 0.499989C128.719 0.499989 128.495 0.723846 128.495 0.999989C128.495 1.27613 128.719 1.49999 128.995 1.49999L128.995 0.499989ZM129.005 1.49999C129.281 1.49999 129.505 1.27613 129.505 0.999989C129.505 0.723846 129.281 0.499989 129.005 0.499989L129.005 1.49999ZM132.995 0.499988C132.719 0.499988 132.495 0.723846 132.495 0.999989C132.495 1.27613 132.719 1.49999 132.995 1.49999L132.995 0.499988ZM133.005 1.49999C133.281 1.49999 133.505 1.27613 133.505 0.999988C133.505 0.723846 133.281 0.499988 133.005 0.499988L133.005 1.49999ZM136.995 0.499988C136.719 0.499988 136.495 0.723846 136.495 0.999988C136.495 1.27613 136.719 1.49999 136.995 1.49999L136.995 0.499988ZM137.005 1.49999C137.281 1.49999 137.505 1.27613 137.505 0.999988C137.505 0.723846 137.281 0.499988 137.005 0.499988L137.005 1.49999ZM140.995 0.499988C140.719 0.499988 140.495 0.723845 140.495 0.999988C140.495 1.27613 140.719 1.49999 140.995 1.49999L140.995 0.499988ZM141.005 1.49999C141.281 1.49999 141.505 1.27613 141.505 0.999988C141.505 0.723845 141.281 0.499988 141.005 0.499988L141.005 1.49999ZM144.995 0.499987C144.719 0.499987 144.495 0.723845 144.495 0.999987C144.495 1.27613 144.719 1.49999 144.995 1.49999L144.995 0.499987ZM145.005 1.49999C145.281 1.49999 145.505 1.27613 145.505 0.999987C145.505 0.723845 145.281 0.499987 145.005 0.499987L145.005 1.49999ZM148.995 0.499987C148.719 0.499987 148.495 0.723845 148.495 0.999987C148.495 1.27613 148.719 1.49999 148.995 1.49999L148.995 0.499987ZM149.005 1.49999C149.281 1.49999 149.505 1.27613 149.505 0.999987C149.505 0.723845 149.281 0.499987 149.005 0.499987L149.005 1.49999ZM152.995 0.499987C152.719 0.499987 152.495 0.723844 152.495 0.999987C152.495 1.27613 152.719 1.49999 152.995 1.49999L152.995 0.499987ZM153.005 1.49999C153.281 1.49999 153.505 1.27613 153.505 0.999987C153.505 0.723844 153.281 0.499987 153.005 0.499987L153.005 1.49999ZM156.995 0.499986C156.719 0.499986 156.495 0.723844 156.495 0.999986C156.495 1.27613 156.719 1.49999 156.995 1.49999L156.995 0.499986ZM157.005 1.49999C157.281 1.49999 157.505 1.27613 157.505 0.999986C157.505 0.723844 157.281 0.499986 157.005 0.499986L157.005 1.49999ZM160.995 0.499986C160.719 0.499986 160.495 0.723844 160.495 0.999986C160.495 1.27613 160.719 1.49999 160.995 1.49999L160.995 0.499986ZM161.005 1.49999C161.281 1.49999 161.505 1.27613 161.505 0.999986C161.505 0.723844 161.281 0.499986 161.005 0.499986L161.005 1.49999ZM164.995 0.499986C164.719 0.499986 164.495 0.723843 164.495 0.999986C164.495 1.27613 164.719 1.49999 164.995 1.49999L164.995 0.499986ZM165.005 1.49999C165.281 1.49999 165.505 1.27613 165.505 0.999986C165.505 0.723843 165.281 0.499986 165.005 0.499986L165.005 1.49999ZM168.995 0.499985C168.719 0.499985 168.495 0.723843 168.495 0.999985C168.495 1.27613 168.719 1.49999 168.995 1.49999L168.995 0.499985ZM169.005 1.49999C169.281 1.49999 169.505 1.27613 169.505 0.999985C169.505 0.723843 169.281 0.499985 169.005 0.499985L169.005 1.49999ZM172.995 0.499985C172.719 0.499985 172.495 0.723843 172.495 0.999985C172.495 1.27613 172.719 1.49998 172.995 1.49998L172.995 0.499985ZM173.005 1.49998C173.281 1.49998 173.505 1.27613 173.505 0.999985C173.505 0.723843 173.281 0.499985 173.005 0.499985L173.005 1.49998ZM176.995 0.499985C176.719 0.499985 176.495 0.723842 176.495 0.999985C176.495 1.27613 176.719 1.49998 176.995 1.49998L176.995 0.499985ZM177.005 1.49998C177.281 1.49998 177.505 1.27613 177.505 0.999985C177.505 0.723842 177.281 0.499985 177.005 0.499985L177.005 1.49998ZM180.995 0.499984C180.719 0.499984 180.495 0.723842 180.495 0.999984C180.495 1.27613 180.719 1.49998 180.995 1.49998L180.995 0.499984ZM181.005 1.49998C181.281 1.49998 181.505 1.27613 181.505 0.999984C181.505 0.723842 181.281 0.499984 181.005 0.499984L181.005 1.49998ZM184.995 0.499984C184.719 0.499984 184.495 0.723842 184.495 0.999984C184.495 1.27613 184.719 1.49998 184.995 1.49998L184.995 0.499984ZM185.005 1.49998C185.281 1.49998 185.505 1.27613 185.505 0.999984C185.505 0.723841 185.281 0.499984 185.005 0.499984L185.005 1.49998ZM188.995 0.499984C188.719 0.499984 188.495 0.723841 188.495 0.999984C188.495 1.27613 188.719 1.49998 188.995 1.49998L188.995 0.499984ZM189.005 1.49998C189.281 1.49998 189.505 1.27613 189.505 0.999984C189.505 0.723841 189.281 0.499984 189.005 0.499984L189.005 1.49998ZM192.995 0.499983C192.719 0.499983 192.495 0.723841 192.495 0.999983C192.495 1.27613 192.719 1.49998 192.995 1.49998L192.995 0.499983ZM193.005 1.49998C193.281 1.49998 193.505 1.27613 193.505 0.999983C193.505 0.723841 193.281 0.499983 193.005 0.499983L193.005 1.49998ZM196.995 0.499983C196.719 0.499983 196.495 0.723841 196.495 0.999983C196.495 1.27613 196.719 1.49998 196.995 1.49998L196.995 0.499983ZM197.005 1.49998C197.281 1.49998 197.505 1.27613 197.505 0.999983C197.505 0.72384 197.281 0.499983 197.005 0.499983L197.005 1.49998ZM200.995 0.499983C200.719 0.499983 200.495 0.72384 200.495 0.999983C200.495 1.27612 200.719 1.49998 200.995 1.49998L200.995 0.499983ZM201.005 1.49998C201.281 1.49998 201.505 1.27612 201.505 0.999982C201.505 0.72384 201.281 0.499982 201.005 0.499983L201.005 1.49998ZM204.995 0.499982C204.719 0.499982 204.495 0.72384 204.495 0.999982C204.495 1.27612 204.719 1.49998 204.995 1.49998L204.995 0.499982ZM205.005 1.49998C205.281 1.49998 205.505 1.27612 205.505 0.999982C205.505 0.72384 205.281 0.499982 205.005 0.499982L205.005 1.49998ZM208.995 0.499982C208.719 0.499982 208.495 0.723839 208.495 0.999982C208.495 1.27612 208.719 1.49998 208.995 1.49998L208.995 0.499982ZM209.005 1.49998C209.281 1.49998 209.505 1.27612 209.505 0.999982C209.505 0.723839 209.281 0.499982 209.005 0.499982L209.005 1.49998ZM212.995 0.499981C212.719 0.499981 212.495 0.723839 212.495 0.999982C212.495 1.27612 212.719 1.49998 212.995 1.49998L212.995 0.499981ZM213.005 1.49998C213.281 1.49998 213.505 1.27612 213.505 0.999981C213.505 0.723839 213.281 0.499981 213.005 0.499981L213.005 1.49998ZM216.995 0.499981C216.719 0.499981 216.495 0.723839 216.495 0.999981C216.495 1.27612 216.719 1.49998 216.995 1.49998L216.995 0.499981ZM217.005 1.49998C217.281 1.49998 217.505 1.27612 217.505 0.999981C217.505 0.723839 217.281 0.499981 217.005 0.499981L217.005 1.49998ZM220.995 0.499981C220.719 0.499981 220.495 0.723838 220.495 0.999981C220.495 1.27612 220.719 1.49998 220.995 1.49998L220.995 0.499981ZM221.005 1.49998C221.281 1.49998 221.505 1.27612 221.505 0.999981C221.505 0.723838 221.281 0.499981 221.005 0.499981L221.005 1.49998ZM224.995 0.49998C224.719 0.49998 224.495 0.723838 224.495 0.99998C224.495 1.27612 224.719 1.49998 224.995 1.49998L224.995 0.49998ZM225.005 1.49998C225.281 1.49998 225.505 1.27612 225.505 0.99998C225.505 0.723838 225.281 0.49998 225.005 0.49998L225.005 1.49998ZM228.995 0.49998C228.719 0.49998 228.495 0.723838 228.495 0.99998C228.495 1.27612 228.719 1.49998 228.995 1.49998L228.995 0.49998ZM229.005 1.49998C229.281 1.49998 229.505 1.27612 229.505 0.99998C229.505 0.723838 229.281 0.49998 229.005 0.49998L229.005 1.49998ZM232.995 0.49998C232.719 0.49998 232.495 0.723837 232.495 0.99998C232.495 1.27612 232.719 1.49998 232.995 1.49998L232.995 0.49998ZM233.005 1.49998C233.281 1.49998 233.505 1.27612 233.505 0.99998C233.505 0.723837 233.281 0.49998 233.005 0.49998L233.005 1.49998ZM236.995 0.499979C236.719 0.499979 236.495 0.723837 236.495 0.999979C236.495 1.27612 236.719 1.49998 236.995 1.49998L236.995 0.499979ZM237.005 1.49998C237.281 1.49998 237.505 1.27612 237.505 0.999979C237.505 0.723837 237.281 0.499979 237.005 0.499979L237.005 1.49998ZM240.995 0.499979C240.719 0.499979 240.495 0.723837 240.495 0.999979C240.495 1.27612 240.719 1.49998 240.995 1.49998L240.995 0.499979ZM241.005 1.49998C241.281 1.49998 241.505 1.27612 241.505 0.999979C241.505 0.723837 241.281 0.499979 241.005 0.499979L241.005 1.49998ZM244.995 0.499979C244.719 0.499979 244.495 0.723836 244.495 0.999979C244.495 1.27612 244.719 1.49998 244.995 1.49998L244.995 0.499979ZM245.005 1.49998C245.281 1.49998 245.505 1.27612 245.505 0.999979C245.505 0.723836 245.281 0.499979 245.005 0.499979L245.005 1.49998ZM248.995 0.499978C248.719 0.499978 248.495 0.723836 248.495 0.999978C248.495 1.27612 248.719 1.49998 248.995 1.49998L248.995 0.499978ZM249.005 1.49998C249.281 1.49998 249.505 1.27612 249.505 0.999978C249.505 0.723836 249.281 0.499978 249.005 0.499978L249.005 1.49998ZM252.995 0.499978C252.719 0.499978 252.495 0.723836 252.495 0.999978C252.495 1.27612 252.719 1.49998 252.995 1.49998L252.995 0.499978ZM253.005 1.49998C253.281 1.49998 253.505 1.27612 253.505 0.999978C253.505 0.723836 253.281 0.499978 253.005 0.499978L253.005 1.49998ZM256.995 0.499978C256.719 0.499978 256.495 0.723835 256.495 0.999978C256.495 1.27612 256.719 1.49998 256.995 1.49998L256.995 0.499978ZM257.005 1.49998C257.281 1.49998 257.505 1.27612 257.505 0.999978C257.505 0.723835 257.281 0.499978 257.005 0.499978L257.005 1.49998ZM260.995 0.499977C260.719 0.499977 260.495 0.723835 260.495 0.999977C260.495 1.27612 260.719 1.49998 260.995 1.49998L260.995 0.499977ZM261.005 1.49998C261.281 1.49998 261.505 1.27612 261.505 0.999977C261.505 0.723835 261.281 0.499977 261.005 0.499977L261.005 1.49998ZM264.995 0.499977C264.719 0.499977 264.495 0.723835 264.495 0.999977C264.495 1.27612 264.719 1.49998 264.995 1.49998L264.995 0.499977ZM265.005 1.49998C265.281 1.49998 265.505 1.27612 265.505 0.999977C265.505 0.723834 265.281 0.499977 265.005 0.499977L265.005 1.49998ZM268.995 0.499977C268.719 0.499977 268.495 0.723834 268.495 0.999977C268.495 1.27612 268.719 1.49998 268.995 1.49998L268.995 0.499977ZM269.005 1.49998C269.281 1.49998 269.505 1.27612 269.505 0.999977C269.505 0.723834 269.281 0.499977 269.005 0.499977L269.005 1.49998ZM272.995 0.499976C272.719 0.499976 272.495 0.723834 272.495 0.999976C272.495 1.27612 272.719 1.49998 272.995 1.49998L272.995 0.499976ZM273.005 1.49998C273.281 1.49998 273.505 1.27612 273.505 0.999976C273.505 0.723834 273.281 0.499976 273.005 0.499976L273.005 1.49998ZM276.995 0.499976C276.719 0.499976 276.495 0.723834 276.495 0.999976C276.495 1.27612 276.719 1.49998 276.995 1.49998L276.995 0.499976ZM277.005 1.49998C277.281 1.49998 277.505 1.27612 277.505 0.999976C277.505 0.723833 277.281 0.499976 277.005 0.499976L277.005 1.49998ZM280.995 0.499976C280.719 0.499976 280.495 0.723833 280.495 0.999976C280.495 1.27612 280.719 1.49998 280.995 1.49998L280.995 0.499976ZM281.005 1.49998C281.281 1.49998 281.505 1.27612 281.505 0.999975C281.505 0.723833 281.281 0.499975 281.005 0.499976L281.005 1.49998ZM284.995 0.499975C284.719 0.499975 284.495 0.723833 284.495 0.999975C284.495 1.27612 284.719 1.49998 284.995 1.49998L284.995 0.499975ZM285.005 1.49998C285.281 1.49998 285.505 1.27612 285.505 0.999975C285.505 0.723833 285.281 0.499975 285.005 0.499975L285.005 1.49998ZM288.995 0.499975C288.719 0.499975 288.495 0.723832 288.495 0.999975C288.495 1.27612 288.719 1.49997 288.995 1.49997L288.995 0.499975ZM289.005 1.49997C289.281 1.49997 289.505 1.27612 289.505 0.999975C289.505 0.723832 289.281 0.499975 289.005 0.499975L289.005 1.49997ZM292.995 0.499974C292.719 0.499974 292.495 0.723832 292.495 0.999975C292.495 1.27612 292.719 1.49997 292.995 1.49997L292.995 0.499974ZM293.005 1.49997C293.281 1.49997 293.505 1.27612 293.505 0.999974C293.505 0.723832 293.281 0.499974 293.005 0.499974L293.005 1.49997ZM296.995 0.499974C296.719 0.499974 296.495 0.723832 296.495 0.999974C296.495 1.27612 296.719 1.49997 296.995 1.49997L296.995 0.499974ZM297.005 1.49997C297.281 1.49997 297.505 1.27612 297.505 0.999974C297.505 0.723832 297.281 0.499974 297.005 0.499974L297.005 1.49997ZM300.995 0.499974C300.719 0.499974 300.495 0.723831 300.495 0.999974C300.495 1.27612 300.719 1.49997 300.995 1.49997L300.995 0.499974ZM301.005 1.49997C301.281 1.49997 301.505 1.27612 301.505 0.999974C301.505 0.723831 301.281 0.499974 301.005 0.499974L301.005 1.49997ZM304.995 0.499973C304.719 0.499973 304.495 0.723831 304.495 0.999973C304.495 1.27612 304.719 1.49997 304.995 1.49997L304.995 0.499973ZM305.005 1.49997C305.281 1.49997 305.505 1.27612 305.505 0.999973C305.505 0.723831 305.281 0.499973 305.005 0.499973L305.005 1.49997ZM308.995 0.499973C308.719 0.499973 308.495 0.723831 308.495 0.999973C308.495 1.27612 308.719 1.49997 308.995 1.49997L308.995 0.499973ZM309.005 1.49997C309.281 1.49997 309.505 1.27612 309.505 0.999973C309.505 0.723831 309.281 0.499973 309.005 0.499973L309.005 1.49997ZM312.995 0.499973C312.719 0.499973 312.495 0.72383 312.495 0.999973C312.495 1.27612 312.719 1.49997 312.995 1.49997L312.995 0.499973ZM313.005 1.49997C313.281 1.49997 313.505 1.27612 313.505 0.999973C313.505 0.72383 313.281 0.499973 313.005 0.499973L313.005 1.49997ZM316.995 0.499972C316.719 0.499972 316.495 0.72383 316.495 0.999972C316.495 1.27611 316.719 1.49997 316.995 1.49997L316.995 0.499972ZM317.005 1.49997C317.281 1.49997 317.505 1.27611 317.505 0.999972C317.505 0.72383 317.281 0.499972 317.005 0.499972L317.005 1.49997ZM320.995 0.499972C320.719 0.499972 320.495 0.72383 320.495 0.999972C320.495 1.27611 320.719 1.49997 320.995 1.49997L320.995 0.499972ZM321.005 1.49997C321.281 1.49997 321.505 1.27611 321.505 0.999972C321.505 0.72383 321.281 0.499972 321.005 0.499972L321.005 1.49997ZM324.995 0.499972C324.719 0.499972 324.495 0.723829 324.495 0.999972C324.495 1.27611 324.719 1.49997 324.995 1.49997L324.995 0.499972ZM325.005 1.49997C325.281 1.49997 325.505 1.27611 325.505 0.999972C325.505 0.723829 325.281 0.499972 325.005 0.499972L325.005 1.49997ZM328.995 0.499971C328.719 0.499971 328.495 0.723829 328.495 0.999971C328.495 1.27611 328.719 1.49997 328.995 1.49997L328.995 0.499971ZM329.005 1.49997C329.281 1.49997 329.505 1.27611 329.505 0.999971C329.505 0.723829 329.281 0.499971 329.005 0.499971L329.005 1.49997ZM332.995 0.499971C332.719 0.499971 332.495 0.723829 332.495 0.999971C332.495 1.27611 332.719 1.49997 332.995 1.49997L332.995 0.499971ZM333.005 1.49997C333.281 1.49997 333.505 1.27611 333.505 0.999971C333.505 0.723829 333.281 0.499971 333.005 0.499971L333.005 1.49997ZM336.995 0.499971C336.719 0.499971 336.495 0.723828 336.495 0.999971C336.495 1.27611 336.719 1.49997 336.995 1.49997L336.995 0.499971ZM337.005 1.49997C337.281 1.49997 337.505 1.27611 337.505 0.999971C337.505 0.723828 337.281 0.499971 337.005 0.499971L337.005 1.49997ZM340.995 0.49997C340.719 0.49997 340.495 0.723828 340.495 0.99997C340.495 1.27611 340.719 1.49997 340.995 1.49997L340.995 0.49997ZM341.005 1.49997C341.281 1.49997 341.505 1.27611 341.505 0.99997C341.505 0.723828 341.281 0.49997 341.005 0.49997L341.005 1.49997ZM344.995 0.49997C344.719 0.49997 344.495 0.723828 344.495 0.99997C344.495 1.27611 344.719 1.49997 344.995 1.49997L344.995 0.49997ZM345.005 1.49997C345.281 1.49997 345.505 1.27611 345.505 0.99997C345.505 0.723827 345.281 0.49997 345.005 0.49997L345.005 1.49997ZM348.995 0.49997C348.719 0.49997 348.495 0.723827 348.495 0.99997C348.495 1.27611 348.719 1.49997 348.995 1.49997L348.995 0.49997ZM349.005 1.49997C349.281 1.49997 349.505 1.27611 349.505 0.99997C349.505 0.723827 349.281 0.49997 349.005 0.49997L349.005 1.49997ZM352.995 0.499969C352.719 0.499969 352.495 0.723827 352.495 0.999969C352.495 1.27611 352.719 1.49997 352.995 1.49997L352.995 0.499969ZM353.005 1.49997C353.281 1.49997 353.505 1.27611 353.505 0.999969C353.505 0.723827 353.281 0.499969 353.005 0.499969L353.005 1.49997ZM356.995 0.499969C356.719 0.499969 356.495 0.723827 356.495 0.999969C356.495 1.27611 356.719 1.49997 356.995 1.49997L356.995 0.499969ZM357.005 1.49997C357.281 1.49997 357.505 1.27611 357.505 0.999969C357.505 0.723826 357.281 0.499969 357.005 0.499969L357.005 1.49997ZM360.995 0.499969C360.719 0.499969 360.495 0.723826 360.495 0.999969C360.495 1.27611 360.719 1.49997 360.995 1.49997L360.995 0.499969ZM361.005 1.49997C361.281 1.49997 361.505 1.27611 361.505 0.999968C361.505 0.723826 361.281 0.499969 361.005 0.499969L361.005 1.49997ZM364.995 0.499968C364.719 0.499968 364.495 0.723826 364.495 0.999968C364.495 1.27611 364.719 1.49997 364.995 1.49997L364.995 0.499968ZM365.005 1.49997C365.281 1.49997 365.505 1.27611 365.505 0.999968C365.505 0.723826 365.281 0.499968 365.005 0.499968L365.005 1.49997ZM368.995 0.499968C368.719 0.499968 368.495 0.723825 368.495 0.999968C368.495 1.27611 368.719 1.49997 368.995 1.49997L368.995 0.499968ZM369.005 1.49997C369.281 1.49997 369.505 1.27611 369.505 0.999968C369.505 0.723825 369.281 0.499968 369.005 0.499968L369.005 1.49997ZM372.995 0.499967C372.719 0.499968 372.495 0.723825 372.495 0.999968C372.495 1.27611 372.719 1.49997 372.995 1.49997L372.995 0.499967ZM373.005 1.49997C373.281 1.49997 373.505 1.27611 373.505 0.999967C373.505 0.723825 373.281 0.499967 373.005 0.499967L373.005 1.49997ZM376.995 0.499967C376.719 0.499967 376.495 0.723825 376.495 0.999967C376.495 1.27611 376.719 1.49997 376.995 1.49997L376.995 0.499967ZM377.005 1.49997C377.281 1.49997 377.505 1.27611 377.505 0.999967C377.505 0.723825 377.281 0.499967 377.005 0.499967L377.005 1.49997ZM380.995 0.499967C380.719 0.499967 380.495 0.723824 380.495 0.999967C380.495 1.27611 380.719 1.49997 380.995 1.49997L380.995 0.499967ZM381.005 1.49997C381.281 1.49997 381.505 1.27611 381.505 0.999967C381.505 0.723824 381.281 0.499967 381.005 0.499967L381.005 1.49997ZM384.995 0.499966C384.719 0.499966 384.495 0.723824 384.495 0.999966C384.495 1.27611 384.719 1.49997 384.995 1.49997L384.995 0.499966ZM385.005 1.49997C385.281 1.49997 385.505 1.27611 385.505 0.999966C385.505 0.723824 385.281 0.499966 385.005 0.499966L385.005 1.49997ZM388.995 0.499966C388.719 0.499966 388.495 0.723824 388.495 0.999966C388.495 1.27611 388.719 1.49997 388.995 1.49997L388.995 0.499966ZM389.005 1.49997C389.281 1.49997 389.505 1.27611 389.505 0.999966C389.505 0.723824 389.281 0.499966 389.005 0.499966L389.005 1.49997ZM392.995 0.499966C392.719 0.499966 392.495 0.723823 392.495 0.999966C392.495 1.27611 392.719 1.49997 392.995 1.49997L392.995 0.499966ZM393.005 1.49997C393.281 1.49997 393.505 1.27611 393.505 0.999966C393.505 0.723823 393.281 0.499966 393.005 0.499966L393.005 1.49997ZM396.995 0.499965C396.719 0.499965 396.495 0.723823 396.495 0.999965C396.495 1.27611 396.719 1.49997 396.995 1.49997L396.995 0.499965ZM397.005 1.49997C397.281 1.49997 397.505 1.27611 397.505 0.999965C397.505 0.723823 397.281 0.499965 397.005 0.499965L397.005 1.49997ZM400.995 0.499965C400.719 0.499965 400.495 0.723823 400.495 0.999965C400.495 1.27611 400.719 1.49997 400.995 1.49997L400.995 0.499965ZM401.005 1.49997C401.281 1.49997 401.505 1.27611 401.505 0.999965C401.505 0.723823 401.281 0.499965 401.005 0.499965L401.005 1.49997ZM404.995 0.499965C404.719 0.499965 404.495 0.723822 404.495 0.999965C404.495 1.27611 404.719 1.49996 404.995 1.49996L404.995 0.499965ZM405.005 1.49996C405.281 1.49996 405.505 1.27611 405.505 0.999965C405.505 0.723822 405.281 0.499965 405.005 0.499965L405.005 1.49996ZM408.995 0.499964C408.719 0.499964 408.495 0.723822 408.495 0.999964C408.495 1.27611 408.719 1.49996 408.995 1.49996L408.995 0.499964ZM409.005 1.49996C409.281 1.49996 409.505 1.27611 409.505 0.999964C409.505 0.723822 409.281 0.499964 409.005 0.499964L409.005 1.49996ZM412.995 0.499964C412.719 0.499964 412.495 0.723822 412.495 0.999964C412.495 1.27611 412.719 1.49996 412.995 1.49996L412.995 0.499964ZM413.005 1.49996C413.281 1.49996 413.505 1.27611 413.505 0.999964C413.505 0.723822 413.281 0.499964 413.005 0.499964L413.005 1.49996ZM416.995 0.499964C416.719 0.499964 416.495 0.723821 416.495 0.999964C416.495 1.27611 416.719 1.49996 416.995 1.49996L416.995 0.499964ZM1 1.5L1.00499 1.5L1.00499 0.5L1 0.5L1 1.5ZM4.99501 1.5L5.00499 1.5L5.00499 0.5L4.99501 0.5L4.99501 1.5ZM8.99501 1.5L9.00499 1.5L9.00499 0.499999L8.99501 0.499999L8.99501 1.5ZM12.995 1.5L13.005 1.5L13.005 0.499999L12.995 0.499999L12.995 1.5ZM16.995 1.5L17.005 1.5L17.005 0.499999L16.995 0.499999L16.995 1.5ZM20.995 1.5L21.005 1.5L21.005 0.499998L20.995 0.499998L20.995 1.5ZM24.995 1.5L25.005 1.5L25.005 0.499998L24.995 0.499998L24.995 1.5ZM28.995 1.5L29.005 1.5L29.005 0.499998L28.995 0.499998L28.995 1.5ZM32.995 1.5L33.005 1.5L33.005 0.499997L32.995 0.499997L32.995 1.5ZM36.995 1.5L37.005 1.5L37.005 0.499997L36.995 0.499997L36.995 1.5ZM40.995 1.5L41.005 1.5L41.005 0.499997L40.995 0.499997L40.995 1.5ZM44.995 1.5L45.005 1.5L45.005 0.499996L44.995 0.499996L44.995 1.5ZM48.995 1.5L49.005 1.5L49.005 0.499996L48.995 0.499996L48.995 1.5ZM52.995 1.5L53.005 1.5L53.005 0.499995L52.995 0.499995L52.995 1.5ZM56.995 1.5L57.005 1.5L57.005 0.499995L56.995 0.499995L56.995 1.5ZM60.995 1.49999L61.005 1.49999L61.005 0.499995L60.995 0.499995L60.995 1.49999ZM64.995 1.49999L65.005 1.49999L65.005 0.499994L64.995 0.499994L64.995 1.49999ZM68.995 1.49999L69.005 1.49999L69.005 0.499994L68.995 0.499994L68.995 1.49999ZM72.995 1.49999L73.005 1.49999L73.005 0.499994L72.995 0.499994L72.995 1.49999ZM76.995 1.49999L77.005 1.49999L77.005 0.499993L76.995 0.499993L76.995 1.49999ZM80.995 1.49999L81.005 1.49999L81.005 0.499993L80.995 0.499993L80.995 1.49999ZM84.995 1.49999L85.005 1.49999L85.005 0.499993L84.995 0.499993L84.995 1.49999ZM88.995 1.49999L89.005 1.49999L89.005 0.499992L88.995 0.499992L88.995 1.49999ZM92.995 1.49999L93.005 1.49999L93.005 0.499992L92.995 0.499992L92.995 1.49999ZM96.995 1.49999L97.005 1.49999L97.005 0.499992L96.995 0.499992L96.995 1.49999ZM100.995 1.49999L101.005 1.49999L101.005 0.499991L100.995 0.499991L100.995 1.49999ZM104.995 1.49999L105.005 1.49999L105.005 0.499991L104.995 0.499991L104.995 1.49999ZM108.995 1.49999L109.005 1.49999L109.005 0.499991L108.995 0.499991L108.995 1.49999ZM112.995 1.49999L113.005 1.49999L113.005 0.49999L112.995 0.49999L112.995 1.49999ZM116.995 1.49999L117.005 1.49999L117.005 0.49999L116.995 0.49999L116.995 1.49999ZM120.995 1.49999L121.005 1.49999L121.005 0.49999L120.995 0.49999L120.995 1.49999ZM124.995 1.49999L125.005 1.49999L125.005 0.499989L124.995 0.499989L124.995 1.49999ZM128.995 1.49999L129.005 1.49999L129.005 0.499989L128.995 0.499989L128.995 1.49999ZM132.995 1.49999L133.005 1.49999L133.005 0.499988L132.995 0.499988L132.995 1.49999ZM136.995 1.49999L137.005 1.49999L137.005 0.499988L136.995 0.499988L136.995 1.49999ZM140.995 1.49999L141.005 1.49999L141.005 0.499988L140.995 0.499988L140.995 1.49999ZM144.995 1.49999L145.005 1.49999L145.005 0.499987L144.995 0.499987L144.995 1.49999ZM148.995 1.49999L149.005 1.49999L149.005 0.499987L148.995 0.499987L148.995 1.49999ZM152.995 1.49999L153.005 1.49999L153.005 0.499987L152.995 0.499987L152.995 1.49999ZM156.995 1.49999L157.005 1.49999L157.005 0.499986L156.995 0.499986L156.995 1.49999ZM160.995 1.49999L161.005 1.49999L161.005 0.499986L160.995 0.499986L160.995 1.49999ZM164.995 1.49999L165.005 1.49999L165.005 0.499986L164.995 0.499986L164.995 1.49999ZM168.995 1.49999L169.005 1.49999L169.005 0.499985L168.995 0.499985L168.995 1.49999ZM172.995 1.49998L173.005 1.49998L173.005 0.499985L172.995 0.499985L172.995 1.49998ZM176.995 1.49998L177.005 1.49998L177.005 0.499985L176.995 0.499985L176.995 1.49998ZM180.995 1.49998L181.005 1.49998L181.005 0.499984L180.995 0.499984L180.995 1.49998ZM184.995 1.49998L185.005 1.49998L185.005 0.499984L184.995 0.499984L184.995 1.49998ZM188.995 1.49998L189.005 1.49998L189.005 0.499984L188.995 0.499984L188.995 1.49998ZM192.995 1.49998L193.005 1.49998L193.005 0.499983L192.995 0.499983L192.995 1.49998ZM196.995 1.49998L197.005 1.49998L197.005 0.499983L196.995 0.499983L196.995 1.49998ZM200.995 1.49998L201.005 1.49998L201.005 0.499983L200.995 0.499983L200.995 1.49998ZM204.995 1.49998L205.005 1.49998L205.005 0.499982L204.995 0.499982L204.995 1.49998ZM208.995 1.49998L209.005 1.49998L209.005 0.499982L208.995 0.499982L208.995 1.49998ZM212.995 1.49998L213.005 1.49998L213.005 0.499981L212.995 0.499981L212.995 1.49998ZM216.995 1.49998L217.005 1.49998L217.005 0.499981L216.995 0.499981L216.995 1.49998ZM220.995 1.49998L221.005 1.49998L221.005 0.499981L220.995 0.499981L220.995 1.49998ZM224.995 1.49998L225.005 1.49998L225.005 0.49998L224.995 0.49998L224.995 1.49998ZM228.995 1.49998L229.005 1.49998L229.005 0.49998L228.995 0.49998L228.995 1.49998ZM232.995 1.49998L233.005 1.49998L233.005 0.49998L232.995 0.49998L232.995 1.49998ZM236.995 1.49998L237.005 1.49998L237.005 0.499979L236.995 0.499979L236.995 1.49998ZM240.995 1.49998L241.005 1.49998L241.005 0.499979L240.995 0.499979L240.995 1.49998ZM244.995 1.49998L245.005 1.49998L245.005 0.499979L244.995 0.499979L244.995 1.49998ZM248.995 1.49998L249.005 1.49998L249.005 0.499978L248.995 0.499978L248.995 1.49998ZM252.995 1.49998L253.005 1.49998L253.005 0.499978L252.995 0.499978L252.995 1.49998ZM256.995 1.49998L257.005 1.49998L257.005 0.499978L256.995 0.499978L256.995 1.49998ZM260.995 1.49998L261.005 1.49998L261.005 0.499977L260.995 0.499977L260.995 1.49998ZM264.995 1.49998L265.005 1.49998L265.005 0.499977L264.995 0.499977L264.995 1.49998ZM268.995 1.49998L269.005 1.49998L269.005 0.499977L268.995 0.499977L268.995 1.49998ZM272.995 1.49998L273.005 1.49998L273.005 0.499976L272.995 0.499976L272.995 1.49998ZM276.995 1.49998L277.005 1.49998L277.005 0.499976L276.995 0.499976L276.995 1.49998ZM280.995 1.49998L281.005 1.49998L281.005 0.499976L280.995 0.499976L280.995 1.49998ZM284.995 1.49998L285.005 1.49998L285.005 0.499975L284.995 0.499975L284.995 1.49998ZM288.995 1.49997L289.005 1.49997L289.005 0.499975L288.995 0.499975L288.995 1.49997ZM292.995 1.49997L293.005 1.49997L293.005 0.499974L292.995 0.499974L292.995 1.49997ZM296.995 1.49997L297.005 1.49997L297.005 0.499974L296.995 0.499974L296.995 1.49997ZM300.995 1.49997L301.005 1.49997L301.005 0.499974L300.995 0.499974L300.995 1.49997ZM304.995 1.49997L305.005 1.49997L305.005 0.499973L304.995 0.499973L304.995 1.49997ZM308.995 1.49997L309.005 1.49997L309.005 0.499973L308.995 0.499973L308.995 1.49997ZM312.995 1.49997L313.005 1.49997L313.005 0.499973L312.995 0.499973L312.995 1.49997ZM316.995 1.49997L317.005 1.49997L317.005 0.499972L316.995 0.499972L316.995 1.49997ZM320.995 1.49997L321.005 1.49997L321.005 0.499972L320.995 0.499972L320.995 1.49997ZM324.995 1.49997L325.005 1.49997L325.005 0.499972L324.995 0.499972L324.995 1.49997ZM328.995 1.49997L329.005 1.49997L329.005 0.499971L328.995 0.499971L328.995 1.49997ZM332.995 1.49997L333.005 1.49997L333.005 0.499971L332.995 0.499971L332.995 1.49997ZM336.995 1.49997L337.005 1.49997L337.005 0.499971L336.995 0.499971L336.995 1.49997ZM340.995 1.49997L341.005 1.49997L341.005 0.49997L340.995 0.49997L340.995 1.49997ZM344.995 1.49997L345.005 1.49997L345.005 0.49997L344.995 0.49997L344.995 1.49997ZM348.995 1.49997L349.005 1.49997L349.005 0.49997L348.995 0.49997L348.995 1.49997ZM352.995 1.49997L353.005 1.49997L353.005 0.499969L352.995 0.499969L352.995 1.49997ZM356.995 1.49997L357.005 1.49997L357.005 0.499969L356.995 0.499969L356.995 1.49997ZM360.995 1.49997L361.005 1.49997L361.005 0.499969L360.995 0.499969L360.995 1.49997ZM364.995 1.49997L365.005 1.49997L365.005 0.499968L364.995 0.499968L364.995 1.49997ZM368.995 1.49997L369.005 1.49997L369.005 0.499968L368.995 0.499968L368.995 1.49997ZM372.995 1.49997L373.005 1.49997L373.005 0.499967L372.995 0.499967L372.995 1.49997ZM376.995 1.49997L377.005 1.49997L377.005 0.499967L376.995 0.499967L376.995 1.49997ZM380.995 1.49997L381.005 1.49997L381.005 0.499967L380.995 0.499967L380.995 1.49997ZM384.995 1.49997L385.005 1.49997L385.005 0.499966L384.995 0.499966L384.995 1.49997ZM388.995 1.49997L389.005 1.49997L389.005 0.499966L388.995 0.499966L388.995 1.49997ZM392.995 1.49997L393.005 1.49997L393.005 0.499966L392.995 0.499966L392.995 1.49997ZM396.995 1.49997L397.005 1.49997L397.005 0.499965L396.995 0.499965L396.995 1.49997ZM400.995 1.49997L401.005 1.49997L401.005 0.499965L400.995 0.499965L400.995 1.49997ZM404.995 1.49996L405.005 1.49996L405.005 0.499965L404.995 0.499965L404.995 1.49996ZM408.995 1.49996L409.005 1.49996L409.005 0.499964L408.995 0.499964L408.995 1.49996ZM412.995 1.49996L413.005 1.49996L413.005 0.499964L412.995 0.499964L412.995 1.49996ZM416.995 1.49996L417 1.49996L417 0.499964L416.995 0.499964L416.995 1.49996Z" fill="#909090"/>
</svg>
