<svg width="125" height="28" viewBox="0 0 125 28" fill="none" xmlns="http://www.w3.org/2000/svg">
<line x1="58" y1="14.5" x2="123" y2="14.5" stroke="white"/>
<path d="M118.501 9.55025L123.45 14.5L118.501 19.4497" stroke="white"/>
<path d="M10.336 19H12.624V8.328H9.424L6.832 14.984L4.24 8.328H1.056V19H3.328V11.32L6.336 19H7.328L10.336 11.32V19ZM14.2315 13.672C14.2315 16.888 16.5835 19.192 19.7995 19.192C23.0315 19.192 25.3835 16.888 25.3835 13.672C25.3835 10.456 23.0315 8.152 19.7995 8.152C16.5835 8.152 14.2315 10.456 14.2315 13.672ZM23.0475 13.672C23.0475 15.656 21.7675 17.176 19.7995 17.176C17.8315 17.176 16.5675 15.656 16.5675 13.672C16.5675 11.672 17.8315 10.168 19.7995 10.168C21.7675 10.168 23.0475 11.672 23.0475 13.672ZM33.0099 19H35.6179L33.2179 14.936C34.3699 14.664 35.5539 13.656 35.5539 11.768C35.5539 9.784 34.1939 8.328 31.9699 8.328H26.9779V19H29.2499V15.176H30.9139L33.0099 19ZM33.2339 11.752C33.2339 12.648 32.5459 13.224 31.6339 13.224H29.2499V10.28H31.6339C32.5459 10.28 33.2339 10.856 33.2339 11.752ZM37.2591 19H44.8111V17.032H39.5311V14.552H44.6991V12.6H39.5311V10.28H44.8111V8.328H37.2591V19Z" fill="white"/>
</svg>
