<svg width="125" height="100" viewBox="0 0 125 100" fill="none" xmlns="http://www.w3.org/2000/svg">
<mask id="path-1-inside-1" fill="white">
<path fill-rule="evenodd" clip-rule="evenodd" d="M4 100C1.79086 100 0 98.2091 0 96V28.1073L28.2081 0H80C82.2091 0 84 1.79086 84 4V96C84 98.2091 82.2091 100 80 100H4Z"/>
</mask>
<path fill-rule="evenodd" clip-rule="evenodd" d="M4 100C1.79086 100 0 98.2091 0 96V28.1073L28.2081 0H80C82.2091 0 84 1.79086 84 4V96C84 98.2091 82.2091 100 80 100H4Z" fill="white"/>
<path d="M0 28.1073H-2.5C-2.5 27.4428 -2.23538 26.8055 -1.7646 26.3364L0 28.1073ZM28.2081 0L26.4435 -1.77093C26.9121 -2.23783 27.5466 -2.5 28.2081 -2.5V0ZM2.5 96C2.5 96.8284 3.17157 97.5 4 97.5V102.5C0.410148 102.5 -2.5 99.5898 -2.5 96H2.5ZM2.5 28.1073V96H-2.5V28.1073H2.5ZM-1.7646 26.3364L26.4435 -1.77093L29.9727 1.77093L1.7646 29.8783L-1.7646 26.3364ZM80 2.5H28.2081V-2.5H80V2.5ZM81.5 4C81.5 3.17158 80.8284 2.5 80 2.5V-2.5C83.5899 -2.5 86.5 0.410149 86.5 4H81.5ZM81.5 96V4H86.5V96H81.5ZM80 97.5C80.8284 97.5 81.5 96.8284 81.5 96H86.5C86.5 99.5899 83.5899 102.5 80 102.5V97.5ZM4 97.5H80V102.5H4V97.5Z" fill="black" mask="url(#path-1-inside-1)"/>
<path d="M2 29H27C28.1046 29 29 28.1046 29 27V2" stroke="black" stroke-width="2.5" stroke-linecap="round" stroke-linejoin="round"/>
<mask id="path-4-inside-2" fill="white">
<rect x="91.707" y="63.0312" width="7" height="13" rx="2" transform="rotate(-45 91.707 63.0312)"/>
</mask>
<rect x="91.707" y="63.0312" width="7" height="13" rx="2" transform="rotate(-45 91.707 63.0312)" fill="white" stroke="black" stroke-width="5" mask="url(#path-4-inside-2)"/>
<rect x="98.071" y="69.749" width="7.5" height="27.5" rx="1.75" transform="rotate(-45 98.071 69.749)" fill="white" stroke="black" stroke-width="2.5"/>
<circle cx="78.6255" cy="45" r="23.75" fill="white" stroke="black" stroke-width="2.5"/>
<circle cx="69.1257" cy="45" r="2.99995" fill="#2E87EF"/>
<circle cx="78.6254" cy="45" r="2.99995" fill="#2E87EF"/>
<circle cx="88.1254" cy="45" r="2.99995" fill="#2E87EF"/>
</svg>
