<svg width="561" height="541" viewBox="0 0 561 541" fill="none" xmlns="http://www.w3.org/2000/svg">
<g filter="url(#filter0_d)">
<path fill-rule="evenodd" clip-rule="evenodd" d="M67.2791 173.572C53.1334 187.977 53.3435 211.122 67.7485 225.268C84.0493 241.275 111.923 263.847 144.71 281.717C171.985 296.583 206.34 310.218 242.072 310.948C243.807 335.024 248.439 356.844 256.946 377.052C272.994 415.175 300.778 442.76 336.708 468.589C353.101 480.373 375.943 476.638 387.728 460.245C399.512 443.851 395.776 421.009 379.383 409.225C348.794 387.235 333.007 369.297 324.331 348.686C320.273 339.046 317.351 327.833 315.763 313.984C329.579 317.203 343.269 321.927 356.283 327.765C387.336 341.696 409.43 359.634 418.189 371.613C430.104 387.911 452.976 391.463 469.274 379.548C485.572 367.632 489.124 344.76 477.208 328.463C458.436 302.787 424.186 278.096 386.208 261.059C365.271 251.666 341.689 243.911 316.912 239.653C321.03 151.856 280.236 81.7786 256.375 54.7482C243.014 39.6125 219.913 38.1737 204.777 51.5346C189.641 64.8955 188.203 87.9966 201.563 103.132C216.066 119.562 247.406 172.416 243.797 237.854C225.113 237.528 202.854 230.141 179.699 217.521C153.545 203.267 131.041 184.952 118.975 173.103C104.57 158.957 81.4248 159.167 67.2791 173.572Z" stroke="#E0E0E0" stroke-opacity="0.45" stroke-linecap="round"/>
<path fill-rule="evenodd" clip-rule="evenodd" d="M282.98 210.786C262.868 209.014 245.129 223.881 243.357 243.992C238.721 296.612 241.181 339.602 256.946 377.053C272.993 415.176 300.777 442.761 336.708 468.59C353.101 480.374 375.943 476.638 387.727 460.245C399.512 443.852 395.776 421.01 379.383 409.226C348.794 387.236 333.006 369.298 324.33 348.687C315.371 327.404 311.953 298.45 316.186 250.409C317.958 230.297 303.091 212.558 282.98 210.786Z" fill="url(#paint0_linear)" fill-opacity="0.5"/>
</g>
<defs>
<filter id="filter0_d" x="36.3057" y="41.884" width="488.451" height="499.081" filterUnits="userSpaceOnUse" color-interpolation-filters="sRGB">
<feFlood flood-opacity="0" result="BackgroundImageFix"/>
<feColorMatrix in="SourceAlpha" type="matrix" values="0 0 0 0 0 0 0 0 0 0 0 0 0 0 0 0 0 0 127 0" result="hardAlpha"/>
<feOffset dx="10" dy="35"/>
<feGaussianBlur stdDeviation="15"/>
<feColorMatrix type="matrix" values="0 0 0 0 0 0 0 0 0 0 0 0 0 0 0 0 0 0 0.12 0"/>
<feBlend mode="normal" in2="BackgroundImageFix" result="effect1_dropShadow"/>
<feBlend mode="normal" in="SourceGraphic" in2="effect1_dropShadow" result="shape"/>
</filter>
<linearGradient id="paint0_linear" x1="295.428" y1="109.281" x2="182.798" y2="356.159" gradientUnits="userSpaceOnUse">
<stop stop-color="#00ADA9"/>
<stop offset="1" stop-color="#2088E9"/>
</linearGradient>
</defs>
</svg>
