<svg width="607" height="741" viewBox="0 0 607 741" fill="none" xmlns="http://www.w3.org/2000/svg">
<g filter="url(#filter0_d)">
<path fill-rule="evenodd" clip-rule="evenodd" d="M215.374 628.35C234.615 641.506 260.877 636.573 274.033 617.332C288.92 595.559 308.921 559.301 322.581 518.413C333.945 484.398 342.474 442.587 336.056 401.828C363.068 394.974 386.928 385.283 408.17 371.516C448.244 345.545 473.96 308.373 496.029 262.298C506.098 241.277 497.219 216.073 476.197 206.004C455.176 195.936 429.972 204.815 419.903 225.836C401.116 265.061 383.93 286.643 362.265 300.684C352.131 307.251 339.979 312.845 324.562 317.459C325.418 301.104 328.011 284.586 332.007 268.612C341.542 230.493 357.447 201.744 369.286 189.36C385.392 172.512 384.791 145.797 367.943 129.691C351.095 113.584 324.38 114.185 308.273 131.033C282.899 157.576 261.783 201.511 250.122 248.13C243.693 273.831 239.663 302.206 239.848 331.229C139.228 344.356 67.8555 404.933 41.9736 437.534C27.4811 455.789 30.5311 482.336 48.7861 496.829C67.0411 511.321 93.5883 508.271 108.081 490.016C123.812 470.201 177.527 423.862 252.632 414.693C256.051 435.993 252.171 462.791 242.523 491.666C231.627 524.282 215.376 553.574 204.356 569.691C191.2 588.932 196.133 615.194 215.374 628.35Z" stroke="#E0E0E0" stroke-opacity="0.45" stroke-linecap="round"/>
<path fill-rule="evenodd" clip-rule="evenodd" d="M213.921 375.651C215.986 398.867 236.481 416.014 259.698 413.949C320.443 408.546 368.805 397.031 408.172 371.518C448.245 345.547 473.961 308.375 496.03 262.299C506.099 241.278 497.22 216.074 476.199 206.006C455.177 195.937 429.974 204.816 419.905 225.837C401.117 265.063 383.932 286.644 362.266 300.685C339.894 315.184 307.68 324.941 252.22 329.874C229.003 331.939 211.856 352.434 213.921 375.651Z" fill="url(#paint0_linear)" fill-opacity="0.5"/>
</g>
<defs>
<filter id="filter0_d" x="12.322" y="117.493" width="528.358" height="583.726" filterUnits="userSpaceOnUse" color-interpolation-filters="sRGB">
<feFlood flood-opacity="0" result="BackgroundImageFix"/>
<feColorMatrix in="SourceAlpha" type="matrix" values="0 0 0 0 0 0 0 0 0 0 0 0 0 0 0 0 0 0 127 0" result="hardAlpha"/>
<feOffset dx="10" dy="35"/>
<feGaussianBlur stdDeviation="15"/>
<feColorMatrix type="matrix" values="0 0 0 0 0 0 0 0 0 0 0 0 0 0 0 0 0 0 0.12 0"/>
<feBlend mode="normal" in2="BackgroundImageFix" result="effect1_dropShadow"/>
<feBlend mode="normal" in="SourceGraphic" in2="effect1_dropShadow" result="shape"/>
</filter>
<linearGradient id="paint0_linear" x1="96.0318" y1="382.089" x2="399.463" y2="460.028" gradientUnits="userSpaceOnUse">
<stop stop-color="#00ADA9"/>
<stop offset="1" stop-color="#2088E9"/>
</linearGradient>
</defs>
</svg>
