<svg width="23" height="16" viewBox="0 0 23 16" fill="none" xmlns="http://www.w3.org/2000/svg">
<path d="M22.5191 2.496C22.3889 2.01224 22.1333 1.57091 21.7778 1.21615C21.4223 0.861381 20.9793 0.605592 20.4933 0.474351C18.6927 -2.06442e-06 11.5 0 11.5 0C11.5 0 4.3054 1.61564e-06 2.51432 0.478119C2.02683 0.60821 1.58233 0.863482 1.22542 1.21832C0.868511 1.57317 0.611752 2.0151 0.480904 2.49976C1.62505e-06 4.28235 0 8.00376 0 8.00376C0 8.00376 1.62505e-06 11.7252 0.480904 13.5078C0.611673 13.9908 0.867551 14.4314 1.22302 14.7854C1.57848 15.1395 2.02111 15.3947 2.50675 15.5256C4.30729 16 11.5 16 11.5 16C11.5 16 18.6946 16 20.4857 15.5219C20.9732 15.3918 21.4177 15.1365 21.7746 14.7817C22.1315 14.4268 22.3883 13.9849 22.5191 13.5002C23 11.7176 23 7.99624 23 7.99624C23 7.99624 23 4.27859 22.5191 2.496Z" fill="black"/>
<path d="M9.19971 11.4295L15.1769 7.99989L9.19971 4.56836V11.4295Z" fill="white"/>
</svg>
