<svg width="22" height="18" viewBox="0 0 22 18" fill="none" xmlns="http://www.w3.org/2000/svg">
<path fill-rule="evenodd" clip-rule="evenodd" d="M21.7374 12.7332C21.9115 12.3224 22.0008 11.8822 22 11.4379V3.39232C22.0012 2.94773 21.9122 2.50728 21.7383 2.09613C21.5643 1.68499 21.3088 1.3112 20.9862 0.996159C20.6636 0.681114 20.2804 0.430977 19.8583 0.26005C19.4363 0.0891229 18.9838 0.000758524 18.5266 0H3.47338C3.01622 0.000758524 2.56369 0.0891229 2.14167 0.26005C1.71964 0.430977 1.3364 0.681114 1.01382 0.996159C0.691253 1.3112 0.435687 1.68499 0.261732 2.09613C0.0877773 2.50728 -0.00116142 2.94773 1.14508e-05 3.39232V11.4379C-0.00077026 11.8822 0.0884551 12.3224 0.262585 12.7332C0.436715 13.144 0.692345 13.5175 1.01488 13.8322C1.33741 14.1469 1.72053 14.3968 2.14236 14.5676C2.56419 14.7383 3.01647 14.8266 3.47338 14.8273H8.65844L10.4286 17.6302C10.4447 17.6589 10.4636 17.6861 10.4851 17.7112C10.5373 17.799 10.6123 17.872 10.7026 17.9227C10.7929 17.9735 10.8953 18.0003 10.9996 18.0004C11.1034 17.9998 11.2052 17.9727 11.2949 17.922C11.3847 17.8713 11.4592 17.7986 11.5111 17.7112C11.5343 17.6856 11.5543 17.6575 11.5705 17.6273L13.3429 14.8273H18.5266C18.9835 14.8266 19.4358 14.7383 19.8576 14.5676C20.2795 14.3968 20.6626 14.1469 20.9851 13.8322C21.3077 13.5175 21.5633 13.144 21.7374 12.7332Z" fill="black"/>
<path fill-rule="evenodd" clip-rule="evenodd" d="M7.48308 5.41033V4.21094C9.31257 4.21094 9.26006 6.17032 9.26006 6.17032V9.55571H8.05514V6.44944C8.05514 5.38546 7.48308 5.41033 7.48308 5.41033ZM4.25743 6.31417C4.53994 6.02511 4.91831 5.8492 5.32141 5.8195C7.01549 5.8195 7.07905 7.75124 7.07905 7.75124C7.09093 7.99418 7.05469 8.23707 6.97241 8.46596C6.89013 8.69485 6.76342 8.90522 6.59958 9.08499C6.43573 9.26475 6.23798 9.41037 6.01768 9.51347C5.79738 9.61657 5.55888 9.67512 5.31589 9.68575C5.10923 9.69409 4.90393 9.64885 4.71992 9.55443C4.53591 9.46 4.37945 9.31959 4.26572 9.14685V9.55586H3V4.32992H4.25743V6.31417ZM4.59826 8.44754C4.73051 8.53591 4.886 8.58308 5.04505 8.58308V8.57203C5.25644 8.57205 5.45933 8.48883 5.60984 8.3404C5.76034 8.19196 5.84635 7.99024 5.84926 7.77888C5.84926 7.61982 5.80209 7.46433 5.71373 7.33208C5.62536 7.19983 5.49976 7.09675 5.35281 7.03589C5.20586 6.97502 5.04416 6.95909 4.88816 6.99012C4.73216 7.02115 4.58886 7.09775 4.47639 7.21022C4.36392 7.32269 4.28733 7.46598 4.2563 7.62198C4.22527 7.77798 4.2412 7.93968 4.30207 8.08663C4.36294 8.23358 4.46601 8.35918 4.59826 8.44754ZM12.211 5.8361C12.211 5.8361 10.141 5.8361 10.141 7.77061C10.141 7.77061 10.0747 9.67748 12.211 9.67748C12.211 9.67748 14.3251 9.67748 14.3251 7.77061L14.3251 7.77035C14.3259 7.74468 14.3811 5.8361 12.211 5.8361ZM12.211 8.57205C12.0519 8.57205 11.8964 8.52488 11.7642 8.43652C11.6319 8.34815 11.5289 8.22255 11.468 8.0756C11.4071 7.92865 11.3912 7.76695 11.4222 7.61095C11.4533 7.45495 11.5298 7.31166 11.6423 7.19919C11.7548 7.08672 11.8981 7.01012 12.0541 6.97909C12.2101 6.94806 12.3718 6.96399 12.5187 7.02486C12.6657 7.08573 12.7913 7.1888 12.8796 7.32105C12.968 7.4533 13.0152 7.60879 13.0152 7.76784C13.0152 7.87345 12.9944 7.97803 12.954 8.0756C12.9135 8.17317 12.8543 8.26182 12.7796 8.3365C12.7049 8.41118 12.6163 8.47041 12.5187 8.51083C12.4212 8.55124 12.3166 8.57205 12.211 8.57205ZM17.7787 6.31409V5.96312H18.9947V9.48945C19.0138 9.74055 18.9806 9.99289 18.8971 10.2305C18.8136 10.4681 18.6817 10.6857 18.5097 10.8697C18.3377 11.0536 18.1294 11.1998 17.898 11.299C17.6665 11.3983 17.417 11.4483 17.1652 11.4461H16.6788V10.3406H16.9855C17.8726 10.3406 17.7842 9.42866 17.7842 9.42866V9.13572C17.6455 9.29043 17.4747 9.41309 17.2839 9.49517C17.093 9.57726 16.8865 9.6168 16.6788 9.61105C14.9377 9.61105 14.9571 7.75392 14.9571 7.75392C14.9571 5.76138 16.7285 5.83599 16.7285 5.83599C16.9278 5.83418 17.1252 5.87604 17.3066 5.95864C17.488 6.04124 17.6491 6.16256 17.7787 6.31409ZM16.583 8.43641C16.7152 8.52478 16.8707 8.57194 17.0297 8.57194C17.1354 8.57194 17.2399 8.55114 17.3375 8.51072C17.4351 8.47031 17.5237 8.41107 17.5984 8.3364C17.6731 8.26172 17.7323 8.17307 17.7727 8.0755C17.8132 7.97793 17.8339 7.87335 17.8339 7.76774C17.8339 7.60868 17.7868 7.4532 17.6984 7.32095C17.6101 7.1887 17.4845 7.08562 17.3375 7.02475C17.1906 6.96389 17.0288 6.94795 16.8728 6.97898C16.7168 7.01002 16.5736 7.08661 16.4611 7.19908C16.3486 7.31155 16.272 7.45484 16.241 7.61084C16.21 7.76684 16.2259 7.92855 16.2868 8.0755C16.3476 8.22244 16.4507 8.34804 16.583 8.43641Z" fill="white"/>
</svg>
