<svg width="18" height="18" viewBox="0 0 18 18" fill="none" xmlns="http://www.w3.org/2000/svg">
<rect width="18" height="18" rx="3" fill="black"/>
<path fill-rule="evenodd" clip-rule="evenodd" d="M5.33999 6.74851H2.66645V15.3383H5.33999V6.74851ZM4.86438 2.73886C4.6095 2.56848 4.3098 2.47754 4.00322 2.47754C3.79983 2.47723 3.59839 2.51701 3.41039 2.59463C3.2224 2.67224 3.05155 2.78616 2.90763 2.92986C2.7637 3.07357 2.64952 3.24423 2.57162 3.4321C2.49371 3.61997 2.45361 3.82137 2.45362 4.02475C2.45314 4.33134 2.54362 4.63117 2.71361 4.88632C2.88359 5.14146 3.12544 5.34044 3.40855 5.4581C3.69166 5.57575 4.00331 5.60678 4.30406 5.54726C4.60482 5.48774 4.88115 5.34034 5.0981 5.12372C5.31506 4.9071 5.46288 4.63099 5.52287 4.33034C5.58285 4.02968 5.55231 3.71798 5.43509 3.43468C5.31788 3.15139 5.11926 2.90924 4.86438 2.73886ZM9.57313 6.74847H7.01437V15.3382H9.68074V11.0888C9.68074 9.96963 9.9127 8.88395 11.283 8.88395C12.6532 8.88395 12.6699 10.1633 12.6699 11.1605V15.3382H15.3387V10.6273C15.3387 8.31242 14.8389 6.53564 12.1367 6.53564C11.6293 6.5164 11.1262 6.63526 10.681 6.87952C10.2358 7.12379 9.86533 7.48431 9.609 7.92263H9.57313V6.74847Z" fill="white"/>
</svg>
