<svg width="151" height="49" viewBox="0 0 151 49" fill="none" xmlns="http://www.w3.org/2000/svg">
<path d="M14.21 48H24.15V1.31H15.47L0.77 16.08L6.44 22.03L14.21 14.12V48ZM33.4693 43.94C36.7593 46.88 41.5193 48.77 47.1893 48.77C60.9793 48.77 68.8893 38.76 68.8893 24.69C68.8893 11.46 62.9393 0.539998 48.7993 0.539998C38.1593 0.539998 30.8793 7.47 30.8793 16.57C30.8793 26.51 38.4393 31.69 46.8393 31.69C51.9493 31.69 56.6393 28.82 58.8793 25.67V26.65C58.8793 33.72 54.6793 40.09 47.1893 40.09C43.0593 40.09 40.3993 38.83 37.8793 36.52L33.4693 43.94ZM58.8093 18.95C56.5693 21.68 53.1393 23.29 49.6393 23.29C45.1593 23.29 41.0293 21.12 41.0293 16.15C41.0293 12.86 43.8993 9.15 49.2193 9.15C55.8693 9.15 58.3893 14.47 58.8093 18.95ZM76.0572 43.94C79.3472 46.88 84.1072 48.77 89.7772 48.77C103.567 48.77 111.477 38.76 111.477 24.69C111.477 11.46 105.527 0.539998 91.3872 0.539998C80.7472 0.539998 73.4672 7.47 73.4672 16.57C73.4672 26.51 81.0272 31.69 89.4272 31.69C94.5372 31.69 99.2272 28.82 101.467 25.67V26.65C101.467 33.72 97.2672 40.09 89.7772 40.09C85.6472 40.09 82.9872 38.83 80.4672 36.52L76.0572 43.94ZM101.397 18.95C99.1572 21.68 95.7272 23.29 92.2272 23.29C87.7472 23.29 83.6172 21.12 83.6172 16.15C83.6172 12.86 86.4872 9.15 91.8072 9.15C98.4572 9.15 100.977 14.47 101.397 18.95ZM122.425 48H133.345L150.705 8.24V1.31H115.635V10.06H139.155L122.425 48Z" fill="black"/>
</svg>
