<svg width="102" height="38" viewBox="0 0 102 38" fill="none" xmlns="http://www.w3.org/2000/svg">
<path d="M9.88427 5.78871C9.99151 6.58628 10.2596 7.61842 10.6952 8.1345C11.3521 8.92537 11.9218 7.32353 11.9352 6.46564C11.9486 5.52062 11.4593 4.67613 10.7891 4.54879C9.98481 4.40134 9.79714 5.15199 9.88427 5.78871Z" fill="white"/>
<path d="M18.5021 27.2627C14.6557 23.9183 9.77744 23.4022 6.76201 22.8995C7.03675 21.5725 7.46561 20.1583 8.0888 18.6637C8.85271 16.834 9.20116 15.708 9.30167 14.7764C9.32178 14.6155 9.15425 14.3877 8.98003 14.7295C8.69859 15.2992 7.46561 17.8125 6.63469 19.2736C5.21409 19.1195 3.61256 19.2535 2.527 19.6154C2.62081 19.4948 2.88215 19.2669 3.01617 19.153C4.30276 18.0739 8.04189 16.0096 12.5784 9.62906C12.7125 9.44139 12.7661 9.24032 12.6723 9.01915L12.5114 8.63712C12.4243 8.48297 12.2166 8.40254 12.0491 8.66393C11.7073 9.20011 10.9501 10.554 9.4826 12.1491C9.4558 11.6799 9.26817 11.1639 9.19446 10.8757C8.84601 9.48161 8.02849 6.63985 9.73724 3.26191C10.5212 1.72038 10.6285 1.34506 9.5027 0.239184C9.14085 -0.122738 8.67848 -0.0825242 8.41715 0.43355C7.55272 2.14263 6.48057 4.20022 7.62643 8.65723C8.04859 10.2926 9.10734 12.511 8.75219 12.9333C7.4187 14.5083 5.68985 15.7817 3.47854 17.2361C1.44815 18.5699 0.275478 18.9921 0.0409447 20.0779C-0.153383 20.9961 0.268777 22.35 2.95586 23.114C3.67287 23.3218 4.39657 23.4692 4.76512 23.543C3.47854 28.6903 4.04142 32.3899 6.11202 35.8952C6.98984 37.3898 8.26302 38.0332 9.63672 37.9997C10.1996 37.9863 10.4274 37.4971 10.0723 37.0212C9.79754 36.6459 8.15581 34.8229 7.15066 31.7197C7.11046 31.5723 7.11716 31.4248 7.15737 31.2707V31.264C8.41045 27.3096 11.1444 25.6743 11.6671 25.3928C11.8547 25.3124 12.029 25.3325 12.23 25.3995C13.2954 25.7748 14.381 26.4517 15.1583 27.0482C15.882 27.6112 15.8619 28.4021 14.8903 29.394C12.7058 31.6259 11.7006 33.2679 11.1913 34.2331C10.8764 34.8296 10.7223 35.3389 10.8228 35.8952C10.9367 36.5386 11.3589 36.5588 11.7944 35.9891C13.2753 34.0722 14.6624 32.3966 18.0866 30.0643C19.6077 29.0187 19.4871 28.1139 18.5021 27.2627ZM5.08007 22.5711C3.95431 22.3902 3.11669 22.0953 2.5471 21.4921C2.27236 21.1972 2.13835 20.8553 2.17855 20.4934C3.11669 20.1851 4.36307 20.1181 6.11872 20.3996C5.81717 21.0229 5.39501 21.8674 5.08007 22.5711ZM9.83105 24.736C9.73053 24.8298 9.64342 24.9169 9.57641 24.9839C7.73365 26.6126 6.94293 28.6635 6.64139 29.7023C6.32645 27.9933 6.24603 26.0094 6.60789 23.7641C7.34499 23.8647 8.32333 24.0523 9.36868 24.3338C9.496 24.3673 9.63002 24.4008 9.75734 24.4411C9.77074 24.4411 9.77744 24.4478 9.79754 24.4545C9.94497 24.5081 9.95167 24.6153 9.83105 24.736Z" fill="white"/>
<path d="M91.9976 23.1243C91.9909 23.2863 91.9842 23.3808 91.9842 23.3808L85.1559 23.3741C85.2699 24.2043 86.2013 25.2303 87.5482 25.2303C88.493 25.2303 89.2435 24.9805 89.927 24.4675C89.9739 24.4338 90.2152 24.265 90.4363 24.535L91.4414 25.696C91.4414 25.696 90.1549 27.2485 87.5348 27.2485C84.5998 27.2485 83.0317 24.9873 83.0317 22.3953C83.0317 19.8236 84.9348 17.7987 87.441 17.8054C89.7997 17.7987 92.1786 19.3647 91.9976 23.1243ZM89.927 21.4774C89.726 20.3974 88.8884 19.6886 87.6018 19.6751C86.4693 19.6684 85.4441 20.3299 85.1559 21.4706L89.927 21.4774Z" fill="white"/>
<path d="M77.4431 31.2243C79.9291 31.2243 82.0868 29.1319 82.0935 26.7559C82.0935 25.7975 82.0935 22.9153 82.0935 22.9153C82.1002 22.5913 82.0935 22.3145 82.0935 22.3145C81.9863 19.7969 79.9492 17.7854 77.423 17.7854C74.8297 17.7854 72.7323 19.8981 72.7256 22.5103C72.7256 25.1225 74.823 27.2419 77.4096 27.2419C78.3812 27.2419 79.2791 26.9517 80.0296 26.4455V26.5534C80.0296 27.9912 78.8704 29.1589 77.4431 29.1521C76.6456 29.1521 75.9018 28.6864 75.3591 28.1059C75.2451 27.9844 75.1312 27.9102 74.9302 28.0452C74.7359 28.1734 73.4962 29.0239 73.4962 29.0239C74.6756 30.8936 76.458 31.2243 77.4431 31.2243ZM77.4297 25.1225C76.0024 25.1225 74.8431 23.9548 74.8431 22.5103C74.8431 21.0726 76.0024 19.9049 77.4297 19.9049C78.857 19.9049 80.0162 21.0726 80.0162 22.5103C80.0162 23.9548 78.857 25.1225 77.4297 25.1225Z" fill="white"/>
<path d="M46.5249 18.3863L46.5182 26.9654H44.4275V25.9731C43.7172 26.7291 42.7188 27.1273 41.5059 27.1273C38.792 27.1273 36.9023 25.1969 36.9023 22.4362C36.9023 19.6755 38.7987 17.7518 41.5126 17.7586C42.7188 17.7586 43.7105 18.1501 44.4141 18.906C44.4141 18.906 44.776 17.9881 45.627 17.9881H46.1162C46.4512 17.9881 46.5316 18.1028 46.5249 18.3863ZM41.7337 19.7093C40.2528 19.7093 39.0467 20.931 39.0467 22.443C39.0467 23.9549 40.2528 25.1766 41.7337 25.1766C43.2213 25.1766 44.4275 23.9549 44.4275 22.443C44.4275 20.9377 43.2146 19.7093 41.7337 19.7093Z" fill="white"/>
<path d="M56.5292 18.3249L56.5225 26.9782H58.6333C58.6333 26.9782 58.6266 23.0363 58.64 21.936C58.6601 20.4578 59.4843 19.9178 60.657 19.9111C61.4745 19.9043 62.0105 20.2621 62.0105 20.2621L63.2569 18.5679C62.6672 18.1494 61.8497 17.8591 61.0925 17.8591C60.2482 17.8591 59.2162 18.0886 58.5931 18.7164C58.5931 18.7164 58.1642 17.9874 57.3333 17.9874H56.891C56.6699 17.9941 56.5292 18.1089 56.5292 18.3249Z" fill="white"/>
<path d="M22.1737 18.285L22.167 26.9518H24.3113L24.318 21.6666C24.318 20.4449 25.2293 19.8104 26.1206 19.8172C27.1592 19.8172 27.9231 20.6272 27.9231 21.6734L27.9164 26.9585H30.1545L30.1612 21.6734C30.1612 20.6272 30.9251 19.8172 31.9638 19.8239C33.0024 19.8239 33.7664 20.6339 33.7664 21.6801L33.7597 26.9653H35.9174L35.9241 20.9309C35.9241 19.1962 34.3359 17.7787 32.3793 17.7787C31.0592 17.7787 29.8664 18.4132 29.2566 19.4324C28.7138 18.4132 27.6685 17.772 26.5025 17.772C25.6381 17.772 24.8139 18.1365 24.2242 18.7642C24.2175 18.6697 23.9427 17.9745 23.0381 17.9677H22.4953C22.2608 17.9677 22.1737 18.042 22.1737 18.285Z" fill="white"/>
<path d="M93.2909 18.3992L93.2842 26.9917H95.4151L95.4218 21.7268C95.4218 20.5119 96.3934 19.8706 97.3048 19.8706C98.4372 19.8706 99.181 20.6064 99.181 21.7268L99.1743 26.9917H101.319L101.325 21.7268C101.325 17.9334 98.0687 17.8254 97.6934 17.8254C96.8156 17.8254 95.9713 18.1899 95.3749 18.8244C95.3682 18.7367 95.194 18.0212 94.363 18.0212H93.6728C93.4182 18.0279 93.2909 18.1427 93.2909 18.3992Z" fill="white"/>
<path d="M67.2174 17.7786C64.6241 17.7786 62.52 19.8913 62.52 22.5035C62.52 25.1156 64.6174 27.2351 67.2107 27.2351C69.804 27.2351 71.9014 25.1224 71.9081 22.5102C71.9081 19.898 69.8107 17.7786 67.2174 17.7786ZM67.2241 25.1156C65.7968 25.1156 64.6375 23.9479 64.6375 22.5035C64.6375 21.0657 65.7968 19.898 67.2241 19.898C68.6514 19.898 69.8107 21.0657 69.8107 22.5035C69.8107 23.9479 68.6514 25.1156 67.2241 25.1156Z" fill="white"/>
<path d="M52.1806 27.2082C49.6007 27.2082 47.4966 25.0887 47.4966 22.4833C47.4966 19.8778 49.6007 17.7651 52.1873 17.7651C53.3733 17.7651 54.4991 18.2106 55.3702 19.0274C55.397 19.0544 55.5779 19.2096 55.3702 19.4323C55.1558 19.6551 54.0367 20.6743 54.0367 20.6743L53.9228 20.5663C53.447 20.1276 52.8305 19.8913 52.194 19.8913C50.7734 19.8913 49.6141 21.0523 49.6141 22.49C49.6141 23.921 50.7734 25.0887 52.194 25.0887C52.8372 25.0887 53.5475 24.8457 54.0233 24.4137C54.0635 24.3732 54.2243 24.245 54.4187 24.4205L55.4372 25.5612L55.598 25.7367C55.598 25.7367 55.4305 25.9054 55.4037 25.9324C54.5192 26.7559 53.38 27.2082 52.1806 27.2082Z" fill="white"/>
<path d="M22.1805 8.34155H22.6965V10.7917H25.7856V8.34155H26.3016L26.2949 13.9034H25.7789V11.2642H22.6898V13.9034H22.1738L22.1805 8.34155Z" fill="white"/>
<path d="M30.343 12.8851C30.343 12.9526 30.343 13.0403 30.3497 13.1348C30.3564 13.2293 30.3564 13.3238 30.3564 13.4318C30.3564 13.5331 30.3631 13.6208 30.3698 13.7085C30.3765 13.7963 30.3765 13.8638 30.3765 13.911H29.9074C29.9007 13.776 29.9007 13.6411 29.894 13.5196C29.894 13.3913 29.8873 13.3103 29.8739 13.2766H29.8538C29.7599 13.4723 29.6058 13.6478 29.3846 13.7895C29.1634 13.9313 28.9087 14.0055 28.6205 14.0055C28.3391 14.0055 28.1112 13.9583 27.9302 13.8705C27.756 13.7828 27.6085 13.6681 27.508 13.5196C27.4074 13.3778 27.3337 13.2091 27.3002 13.0201C27.26 12.8311 27.2466 12.6421 27.2466 12.4463V10.2864H27.7157V12.4261C27.7157 12.5678 27.7291 12.7163 27.756 12.8581C27.7828 12.9931 27.823 13.1213 27.8967 13.2293C27.957 13.3373 28.0509 13.4251 28.1715 13.4926C28.2854 13.5601 28.4329 13.5938 28.6272 13.5938C28.7948 13.5938 28.9624 13.5601 29.1165 13.4993C29.2707 13.4386 29.398 13.3508 29.5119 13.2226C29.6259 13.1011 29.713 12.9458 29.78 12.7636C29.8471 12.5813 29.8806 12.3586 29.8806 12.1088V10.2931H30.3497L30.343 12.8851Z" fill="white"/>
<path d="M31.2469 11.3055C31.2469 11.238 31.2402 11.157 31.2402 11.0558C31.2402 10.9613 31.2335 10.8601 31.2335 10.7656C31.2268 10.6643 31.2268 10.5698 31.2201 10.4888C31.2134 10.4011 31.2134 10.3336 31.2134 10.2863H31.6824C31.6891 10.4213 31.6891 10.5563 31.6958 10.6846C31.6958 10.8061 31.7025 10.8871 31.716 10.9276H31.7361C31.8366 10.7251 31.9907 10.5563 32.2051 10.4146C32.4263 10.2728 32.6809 10.2053 32.969 10.2053C33.2103 10.2053 33.4247 10.2661 33.619 10.3876C33.8134 10.5091 33.9608 10.7048 34.0479 10.9883C34.1618 10.7183 34.336 10.5158 34.5639 10.3943C34.7917 10.2661 35.0262 10.2053 35.2809 10.2053C35.5623 10.2053 35.7901 10.2526 35.9644 10.3403C36.1453 10.4281 36.2793 10.5428 36.3798 10.6913C36.4803 10.8398 36.5473 11.0018 36.5942 11.1908C36.6345 11.3798 36.6479 11.5755 36.6479 11.7713V13.9312H36.1788V11.7915C36.1788 11.643 36.1654 11.508 36.1386 11.3663C36.1185 11.2313 36.0716 11.1031 36.0046 10.9883C35.9443 10.8736 35.8437 10.7926 35.7298 10.7251C35.6159 10.6643 35.4618 10.6306 35.2742 10.6306C35.053 10.6306 34.8788 10.6711 34.7381 10.7521C34.5974 10.8331 34.4834 10.9343 34.403 11.0626C34.3226 11.184 34.269 11.3258 34.2288 11.4675C34.1953 11.616 34.1819 11.7578 34.1819 11.886V13.9245H33.7128V11.7375C33.7128 11.4 33.6525 11.1301 33.5319 10.9276C33.4113 10.7251 33.217 10.6238 32.969 10.6238C32.7948 10.6238 32.634 10.6508 32.4799 10.7116C32.3257 10.7723 32.1984 10.8601 32.0845 10.9816C31.9773 11.1098 31.8835 11.265 31.8165 11.4473C31.7495 11.6295 31.716 11.8523 31.716 12.102V13.9177H31.2536L31.2469 11.3055Z" fill="white"/>
<path d="M40.2538 12.3922C40.2538 12.5677 40.2538 12.7297 40.2538 12.8714C40.2605 13.0132 40.2605 13.1414 40.2672 13.2629C40.2739 13.3844 40.2739 13.4924 40.2873 13.6004C40.294 13.7084 40.3074 13.8097 40.3208 13.9177H39.8851C39.8516 13.7354 39.8382 13.5464 39.8382 13.3304H39.8248C39.6908 13.5667 39.5232 13.7422 39.3222 13.8502C39.1211 13.9649 38.8664 14.0189 38.5648 14.0189C38.4039 14.0189 38.2565 13.9986 38.1023 13.9582C37.9482 13.9177 37.8141 13.8569 37.6935 13.7692C37.5729 13.6882 37.479 13.5734 37.3986 13.4384C37.3249 13.2967 37.2847 13.1414 37.2847 12.9457C37.2847 12.6689 37.3517 12.4462 37.4924 12.2842C37.6332 12.1222 37.8074 12.0007 38.0152 11.9197C38.223 11.8387 38.4375 11.7847 38.672 11.7645C38.8999 11.7375 39.1077 11.724 39.2819 11.724H39.8248V11.508C39.8248 11.1907 39.731 10.968 39.5366 10.833C39.349 10.698 39.1077 10.6305 38.8128 10.6305C38.3972 10.6305 38.0286 10.7655 37.7136 11.0355L37.4388 10.7115C37.6131 10.5427 37.8208 10.4145 38.0755 10.3267C38.3302 10.2457 38.5715 10.1985 38.8061 10.1985C39.2417 10.1985 39.5902 10.2997 39.8449 10.509C40.1063 10.7182 40.2337 11.049 40.2337 11.508L40.2538 12.3922ZM39.3155 12.0952C39.1211 12.0952 38.9267 12.1087 38.7458 12.1357C38.5581 12.1627 38.3905 12.2032 38.2431 12.2707C38.0956 12.3314 37.975 12.4192 37.8879 12.5204C37.8007 12.6284 37.7538 12.7567 37.7538 12.9119C37.7538 13.0199 37.7806 13.1212 37.8276 13.2089C37.8745 13.2967 37.9482 13.3642 38.0219 13.4249C38.1023 13.4789 38.1828 13.5194 38.2833 13.5464C38.3771 13.5734 38.471 13.5869 38.5715 13.5869C38.8195 13.5869 39.0273 13.5532 39.1881 13.4789C39.349 13.4047 39.4763 13.3102 39.5701 13.1954C39.6707 13.0739 39.731 12.9389 39.7712 12.7972C39.8047 12.6487 39.8248 12.4934 39.8248 12.3449V12.1019L39.3155 12.0952Z" fill="white"/>
<path d="M41.1105 11.3121C41.1105 11.2446 41.1105 11.1636 41.1038 11.0624C41.0971 10.9679 41.0971 10.8666 41.0904 10.7722C41.0837 10.6709 41.0837 10.5764 41.077 10.4954C41.0703 10.4077 41.0703 10.3469 41.0703 10.2929H41.5395C41.5462 10.4279 41.5462 10.5629 41.5462 10.6912C41.5462 10.8127 41.5596 10.8936 41.5663 10.9341H41.5864C41.6802 10.7317 41.8344 10.5629 42.0555 10.4212C42.27 10.2794 42.5314 10.2119 42.8196 10.2119C43.1011 10.2119 43.329 10.2592 43.5099 10.3469C43.6842 10.4347 43.8249 10.5494 43.9322 10.6979C44.0327 10.8464 44.0997 11.0084 44.1399 11.1974C44.1802 11.3864 44.2003 11.5821 44.2003 11.7779V13.9378H43.7311V11.7981C43.7311 11.6496 43.7177 11.5146 43.6909 11.3729C43.6641 11.2379 43.6239 11.1096 43.5569 10.9949C43.4898 10.8801 43.4027 10.7992 43.2821 10.7317C43.1614 10.6709 43.014 10.6372 42.8263 10.6372C42.6587 10.6372 42.4979 10.6642 42.337 10.7249C42.1829 10.7857 42.0555 10.8734 41.9416 10.9949C41.8277 11.1164 41.7405 11.2716 41.6735 11.4606C41.6065 11.6429 41.573 11.8656 41.573 12.1154V13.9311H41.1038L41.1105 11.3121Z" fill="white"/>
<path d="M46.0293 13.6341L48.1941 10.7182H46.1432V10.293H48.8375V10.5765L46.6861 13.4991H48.9314V13.9244H46.0293V13.6341Z" fill="white"/>
<path d="M49.3193 8.86214C49.3193 8.76089 49.3528 8.67989 49.4199 8.61239C49.4869 8.54489 49.5673 8.50439 49.6746 8.50439C49.7684 8.50439 49.8555 8.53814 49.9225 8.61239C49.9896 8.67989 50.0231 8.76089 50.0231 8.86214C50.0231 8.96338 49.9896 9.04438 49.9225 9.11188C49.8555 9.17938 49.7684 9.21313 49.6746 9.21313C49.574 9.21313 49.4936 9.17938 49.4199 9.11188C49.3528 9.03763 49.3193 8.95663 49.3193 8.86214ZM49.4333 10.2931H49.9024V13.9245H49.4333V10.2931Z" fill="white"/>
<path d="M50.827 11.3189C50.827 11.2514 50.8203 11.1704 50.8203 11.0691C50.8136 10.9746 50.8136 10.8734 50.8069 10.7789C50.8069 10.6777 50.8002 10.5832 50.8002 10.5022C50.7935 10.4144 50.7935 10.3537 50.7935 10.2997H51.2626C51.2693 10.4347 51.276 10.5697 51.276 10.6979C51.276 10.8194 51.2894 10.9004 51.2961 10.9409H51.3162C51.4101 10.7384 51.5709 10.5697 51.7854 10.4212C52.0066 10.2794 52.2546 10.2119 52.5495 10.2119C52.8309 10.2119 53.0588 10.2592 53.2331 10.3469C53.414 10.4347 53.5481 10.5494 53.6486 10.6979C53.7492 10.8464 53.8162 11.0084 53.8631 11.1974C53.8966 11.3864 53.9167 11.5821 53.9167 11.7779V13.9378H53.4543V11.7981C53.4543 11.6496 53.4409 11.5146 53.414 11.3729C53.3872 11.2379 53.347 11.1096 53.28 10.9949C53.213 10.8801 53.1258 10.7992 53.0052 10.7317C52.8846 10.6642 52.7304 10.6304 52.5427 10.6304C52.3685 10.6304 52.2076 10.6574 52.0535 10.7182C51.8993 10.7789 51.7653 10.8666 51.6513 10.9881C51.5441 11.1096 51.457 11.2649 51.39 11.4539C51.3229 11.6361 51.2961 11.8589 51.2894 12.1086V13.9243H50.8203L50.827 11.3189Z" fill="white"/>
<path d="M58.2251 13.6949C58.2251 14.1404 58.1581 14.5117 58.0241 14.7884C57.8968 15.0651 57.7293 15.2811 57.5416 15.4364C57.3406 15.5849 57.1329 15.6929 56.9118 15.7401C56.6906 15.7874 56.4829 15.8144 56.302 15.8144C56.121 15.8144 55.9401 15.7941 55.7659 15.7604C55.5917 15.7266 55.4308 15.6794 55.27 15.6186C55.1159 15.5511 54.9752 15.4701 54.8479 15.3756C54.7205 15.2811 54.6133 15.1731 54.5128 15.0584L54.8814 14.7074C55.0489 14.9436 55.2499 15.1191 55.4979 15.2271C55.7525 15.3419 56.0138 15.3959 56.2953 15.3959C56.5298 15.3959 56.7375 15.3621 56.8984 15.3014C57.0659 15.2406 57.1999 15.1596 57.3071 15.0584C57.4143 14.9571 57.4947 14.8424 57.555 14.7209C57.6154 14.5994 57.6623 14.4779 57.6891 14.3497C57.7159 14.2282 57.736 14.1134 57.7427 13.9987C57.7427 13.8907 57.7494 13.8029 57.7494 13.7287V13.2292H57.736C57.602 13.4519 57.421 13.6207 57.1865 13.7489C56.952 13.8704 56.6839 13.9379 56.369 13.9379C56.1076 13.9379 55.8597 13.8907 55.6185 13.7894C55.3839 13.6949 55.1829 13.5599 55.0087 13.3912C54.8345 13.2224 54.7004 13.0267 54.5932 12.7972C54.4927 12.5744 54.4458 12.3315 54.4458 12.075C54.4458 11.8185 54.4994 11.5822 54.5999 11.3527C54.7004 11.1232 54.8412 10.9275 55.0154 10.7655C55.1896 10.5967 55.3906 10.4617 55.6252 10.3672C55.8597 10.266 56.1143 10.2188 56.3757 10.2188C56.6906 10.2188 56.9587 10.2795 57.1865 10.4077C57.421 10.536 57.602 10.7047 57.736 10.9275H57.7494V10.3132H58.2184L58.2251 13.6949ZM57.7762 12.0682C57.7762 11.8657 57.736 11.6835 57.6623 11.508C57.5885 11.3325 57.488 11.1772 57.3607 11.049C57.2334 10.9207 57.086 10.8195 56.9051 10.7452C56.7308 10.671 56.5499 10.6305 56.3489 10.6305C56.1478 10.6305 55.9602 10.671 55.7927 10.7452C55.6185 10.8195 55.471 10.9207 55.337 11.049C55.2097 11.1772 55.1092 11.3325 55.0355 11.508C54.9618 11.6835 54.9216 11.8657 54.9216 12.0682C54.9216 12.264 54.9618 12.4529 55.0355 12.6284C55.1092 12.8039 55.2097 12.9592 55.337 13.0874C55.4643 13.2157 55.6118 13.3169 55.7927 13.3979C55.9669 13.4722 56.1545 13.5127 56.3489 13.5127C56.5432 13.5127 56.7241 13.4722 56.9051 13.3979C57.0793 13.3237 57.2334 13.2224 57.3607 13.0942C57.488 12.9659 57.5885 12.8174 57.6623 12.6352C57.736 12.4529 57.7762 12.2707 57.7762 12.0682Z" fill="white"/>
<path d="M65.3011 13.5735C64.9862 13.7557 64.6511 13.884 64.3027 13.9582C63.9609 14.0325 63.6058 14.073 63.2506 14.073C62.8284 14.073 62.4465 13.9987 62.0913 13.857C61.7429 13.7085 61.4413 13.5128 61.1867 13.2495C60.9388 12.993 60.7444 12.6825 60.6037 12.3248C60.463 11.967 60.396 11.5755 60.396 11.1503C60.396 10.7318 60.463 10.3336 60.6104 9.98259C60.7511 9.62484 60.9455 9.3211 61.1934 9.05786C61.448 8.80136 61.7429 8.59887 62.098 8.45037C62.4532 8.30187 62.8351 8.23438 63.2573 8.23438C64.0748 8.23438 64.7382 8.49087 65.2475 9.00386L64.8722 9.4021C64.7918 9.30085 64.6846 9.20635 64.564 9.11861C64.4434 9.03761 64.3094 8.96336 64.1686 8.90261C64.0279 8.84186 63.8805 8.79461 63.7197 8.76086C63.5656 8.72711 63.4114 8.70686 63.2573 8.70686C62.9022 8.70686 62.5738 8.77436 62.2857 8.90261C61.9975 9.02411 61.7563 9.1996 61.5486 9.42235C61.3475 9.63834 61.1934 9.90159 61.0795 10.1986C60.9723 10.4956 60.912 10.8196 60.912 11.1638C60.912 11.5081 60.9656 11.832 61.0795 12.129C61.1867 12.426 61.3475 12.6893 61.5486 12.9053C61.7496 13.1213 61.9975 13.2968 62.2857 13.4183C62.5738 13.5465 62.9022 13.6073 63.2573 13.6073C63.5521 13.6073 63.8336 13.5803 64.0882 13.5398C64.3496 13.4925 64.5841 13.4048 64.7985 13.2833V11.4136H63.4717V10.9411H65.3078L65.3011 13.5735Z" fill="white"/>
<path d="M69.4562 13.2561C69.2753 13.5328 69.0475 13.7286 68.7795 13.8501C68.5114 13.9648 68.2166 14.0256 67.8949 14.0256C67.6202 14.0256 67.3723 13.9783 67.1444 13.8838C66.9166 13.7893 66.729 13.6543 66.5681 13.4856C66.4073 13.3168 66.2867 13.1143 66.1996 12.8781C66.1192 12.6419 66.0723 12.3854 66.0723 12.1019C66.0723 11.8319 66.1192 11.5821 66.2063 11.3526C66.3001 11.1231 66.4207 10.9206 66.5815 10.7519C66.7424 10.5832 66.93 10.4482 67.1511 10.3537C67.3723 10.2592 67.6135 10.2119 67.8748 10.2119C68.1496 10.2119 68.3975 10.2592 68.6052 10.3537C68.813 10.4482 68.9939 10.5764 69.1279 10.7384C69.2753 10.9004 69.3825 11.0826 69.4496 11.2851C69.5233 11.4876 69.5568 11.6969 69.5568 11.9061V12.2369H66.5279C66.5279 12.3314 66.548 12.4596 66.5882 12.6149C66.6284 12.7701 66.6955 12.9186 66.8027 13.0671C66.9032 13.2156 67.0439 13.3438 67.2181 13.4451C67.3924 13.5531 67.6202 13.6003 67.8949 13.6003C68.1362 13.6003 68.364 13.5396 68.5851 13.4248C68.8063 13.3101 68.9805 13.1548 69.1011 12.9524L69.4562 13.2561ZM69.0944 11.8184C69.0944 11.6564 69.0609 11.5011 68.9939 11.3594C68.9336 11.2176 68.8465 11.0961 68.7325 10.9814C68.6186 10.8734 68.4913 10.7924 68.3305 10.7317C68.1764 10.6642 68.0155 10.6372 67.8413 10.6372C67.5867 10.6372 67.3722 10.6912 67.2047 10.7924C67.0372 10.8936 66.9032 11.0151 66.8027 11.1501C66.7022 11.2851 66.6351 11.4201 66.5882 11.5484C66.548 11.6766 66.5279 11.7644 66.5279 11.8116L69.0944 11.8184Z" fill="white"/>
<path d="M70.1257 11.3326C70.1257 11.2651 70.119 11.1841 70.119 11.0828C70.1123 10.9883 70.1123 10.8871 70.1056 10.7926C70.1056 10.6913 70.0989 10.5968 70.0922 10.5158C70.0855 10.4281 70.0854 10.3673 70.0854 10.3133H70.5546C70.5546 10.4483 70.5613 10.5833 70.5613 10.7116C70.5613 10.8331 70.568 10.9141 70.5814 10.9546H70.6015C70.6954 10.7521 70.8495 10.5833 71.0774 10.4348C71.2919 10.2931 71.5465 10.2256 71.8414 10.2256C72.1229 10.2256 72.3508 10.2728 72.5318 10.3606C72.706 10.4483 72.8468 10.5631 72.9473 10.7116C73.0478 10.8601 73.1149 11.0221 73.1618 11.2111C73.202 11.4001 73.2221 11.5958 73.2221 11.7915V13.9515H72.753V11.8118C72.753 11.6633 72.7395 11.5283 72.7127 11.3866C72.6859 11.2516 72.639 11.1233 72.572 11.0086C72.505 10.8938 72.4178 10.8128 72.2972 10.7453C72.1766 10.6846 72.0291 10.6508 71.8414 10.6508C71.6672 10.6508 71.5063 10.6778 71.3522 10.7386C71.2047 10.7993 71.064 10.8871 70.9567 11.0086C70.8495 11.1301 70.7624 11.2853 70.6954 11.4743C70.635 11.6566 70.6015 11.8793 70.5948 12.129V13.9448H70.1257V11.3326Z" fill="white"/>
<path d="M73.751 12.129C73.751 11.8522 73.7979 11.5957 73.8917 11.3595C73.9855 11.13 74.1195 10.9275 74.2804 10.7587C74.4479 10.5832 74.6489 10.455 74.8767 10.3605C75.1113 10.266 75.3659 10.2188 75.6406 10.2188C75.9154 10.2188 76.17 10.266 76.4046 10.3605C76.6324 10.455 76.8334 10.5832 77.0009 10.7587C77.1685 10.9275 77.3025 11.13 77.3963 11.3595C77.4901 11.5957 77.537 11.8522 77.537 12.129C77.537 12.4057 77.4901 12.6622 77.3963 12.8917C77.3025 13.1279 77.1685 13.3304 77.0009 13.4992C76.8334 13.6679 76.6324 13.8029 76.4046 13.8974C76.17 13.9919 75.9154 14.0392 75.6406 14.0392C75.3659 14.0392 75.1113 13.9919 74.8767 13.8974C74.6489 13.8029 74.4479 13.6679 74.2804 13.4992C74.1128 13.3304 73.9855 13.1279 73.8917 12.8917C73.7979 12.6622 73.751 12.4057 73.751 12.129ZM74.22 12.129C74.22 12.3315 74.2535 12.5272 74.3206 12.7027C74.3876 12.8849 74.4747 13.0469 74.602 13.1752C74.7293 13.3102 74.8767 13.4182 75.0577 13.4992C75.2386 13.5802 75.4329 13.6207 75.6473 13.6207C75.8685 13.6207 76.0628 13.5802 76.237 13.5059C76.418 13.4249 76.5654 13.3169 76.6927 13.1819C76.8133 13.0537 76.9138 12.8917 76.9808 12.7094C77.0478 12.5339 77.0814 12.3382 77.0814 12.1357C77.0814 11.9332 77.0478 11.7375 76.9808 11.5552C76.9138 11.373 76.82 11.2177 76.6994 11.0827C76.5721 10.9477 76.4247 10.8397 76.2437 10.7655C76.0695 10.6845 75.8752 10.644 75.654 10.644C75.4329 10.644 75.2386 10.6845 75.0644 10.7587C74.8834 10.833 74.736 10.941 74.6087 11.076C74.4814 11.211 74.3943 11.3662 74.3273 11.5485C74.2535 11.7307 74.22 11.9265 74.22 12.129Z" fill="white"/>
<path d="M78.214 11.3394C78.214 11.2719 78.2073 11.1909 78.2073 11.0897C78.2006 10.9952 78.2006 10.8939 78.1939 10.7994C78.1939 10.6982 78.1872 10.6037 78.1805 10.5227C78.1738 10.4349 78.1738 10.3742 78.1738 10.3202H78.6429C78.6429 10.4552 78.6496 10.5902 78.6496 10.7184C78.6496 10.8399 78.6563 10.9209 78.6697 10.9614H78.6898C78.7836 10.7589 78.9377 10.5902 79.1589 10.4417C79.3733 10.2999 79.6279 10.2324 79.9228 10.2324C80.164 10.2324 80.3784 10.2932 80.5795 10.4147C80.7738 10.5362 80.9145 10.7319 81.0083 11.0154C81.1223 10.7454 81.2898 10.5429 81.5176 10.4214C81.7387 10.2932 81.98 10.2324 82.2279 10.2324C82.5094 10.2324 82.7372 10.2797 82.9114 10.3674C83.0856 10.4552 83.2331 10.5699 83.3269 10.7184C83.4274 10.8669 83.4944 11.0289 83.5346 11.2179C83.5748 11.4069 83.5949 11.6026 83.5949 11.7984V13.9583H83.1258V11.8186C83.1258 11.6701 83.1124 11.5351 83.0856 11.3934C83.0588 11.2584 83.0119 11.1302 82.9516 11.0154C82.8846 10.9007 82.7908 10.8197 82.6769 10.7522C82.563 10.6914 82.4088 10.6577 82.2212 10.6577C82.0068 10.6577 81.8259 10.6982 81.6851 10.7792C81.5444 10.8602 81.4305 10.9682 81.3501 11.0897C81.2697 11.2111 81.2094 11.3529 81.1759 11.4946C81.1424 11.6431 81.1223 11.7849 81.1223 11.9131V13.9516H80.6532V11.7646C80.6532 11.4271 80.5929 11.1639 80.4723 10.9614C80.3516 10.7589 80.164 10.6577 79.9094 10.6509C79.7419 10.6509 79.581 10.6779 79.4202 10.7387C79.2661 10.7994 79.1321 10.8872 79.0249 11.0087C78.9109 11.1302 78.8238 11.2854 78.7568 11.4744C78.6898 11.6566 78.6563 11.8794 78.6563 12.1291V13.9448H78.1939L78.214 11.3394Z" fill="white"/>
<path d="M84.3853 8.88924C84.3853 8.78799 84.4188 8.70699 84.4858 8.63949C84.5528 8.57199 84.6332 8.53149 84.7338 8.53149C84.8343 8.53149 84.9147 8.57199 84.9885 8.63949C85.0555 8.70699 85.089 8.78799 85.089 8.88924C85.089 8.99048 85.0555 9.07148 84.9885 9.13898C84.9147 9.20648 84.8343 9.24023 84.7338 9.24023C84.6332 9.24023 84.5528 9.20648 84.4858 9.13898C84.4188 9.07148 84.3853 8.98373 84.3853 8.88924ZM84.4992 10.327H84.9683V13.9584H84.4992V10.327Z" fill="white"/>
<path d="M88.7751 13.4183C88.5941 13.6343 88.393 13.7895 88.1719 13.8975C87.9507 13.9987 87.7027 14.046 87.4413 14.046C87.1665 14.046 86.9118 13.9987 86.6773 13.9043C86.4427 13.8098 86.2416 13.6748 86.0807 13.506C85.9132 13.3373 85.7858 13.1348 85.692 12.8985C85.5982 12.6623 85.5513 12.4125 85.5513 12.1358C85.5513 11.859 85.5982 11.6026 85.692 11.3663C85.7858 11.1368 85.9132 10.9343 86.0874 10.7656C86.255 10.5901 86.4494 10.4618 86.6907 10.3673C86.9252 10.2728 87.1799 10.2256 87.4547 10.2256C87.7161 10.2256 87.9641 10.2796 88.192 10.3876C88.4198 10.5023 88.6209 10.6508 88.7952 10.8533L88.4198 11.1368C88.2791 10.9883 88.1383 10.8668 87.9775 10.7791C87.8166 10.6981 87.6424 10.6508 87.4547 10.6508C87.2335 10.6508 87.0392 10.6913 86.8649 10.7656C86.6907 10.8398 86.5365 10.9478 86.4092 11.0828C86.2818 11.2178 86.188 11.3731 86.1277 11.5553C86.0606 11.7376 86.0271 11.9265 86.0271 12.1358C86.0271 12.3383 86.0606 12.534 86.1277 12.7095C86.1947 12.8918 86.2885 13.0538 86.4092 13.182C86.5365 13.317 86.684 13.425 86.8649 13.506C87.0392 13.587 87.2402 13.6275 87.4547 13.6275C87.6491 13.6275 87.8367 13.5803 87.9976 13.4925C88.1652 13.4048 88.3059 13.2833 88.4265 13.128L88.7751 13.4183Z" fill="white"/>
<path d="M89.4982 13.0337C89.5987 13.2294 89.7462 13.3779 89.9338 13.4724C90.1282 13.5737 90.3293 13.6277 90.5438 13.6277C90.6376 13.6277 90.7381 13.6074 90.8386 13.5804C90.9325 13.5467 91.0263 13.5062 91.1 13.4454C91.1805 13.3914 91.2408 13.3172 91.2944 13.2362C91.348 13.1552 91.3681 13.0607 91.3681 12.9594C91.3681 12.7907 91.3145 12.6625 91.2073 12.5815C91.1 12.5005 90.966 12.433 90.8118 12.3857C90.6577 12.3385 90.4901 12.298 90.3025 12.2642C90.1148 12.2305 89.9473 12.1765 89.7864 12.1022C89.6255 12.0347 89.4982 11.9335 89.391 11.812C89.2837 11.6837 89.2301 11.5082 89.2301 11.2787C89.2301 11.1032 89.2703 10.948 89.3373 10.8197C89.4111 10.6915 89.5049 10.5767 89.6255 10.489C89.7395 10.408 89.8735 10.3405 90.021 10.3C90.1684 10.2595 90.3159 10.2393 90.4633 10.2393C90.7582 10.2393 91.0129 10.2933 91.2341 10.4013C91.4486 10.516 91.6161 10.6847 91.7368 10.921L91.3145 11.1707C91.2207 11.002 91.1134 10.8805 90.9861 10.786C90.8521 10.705 90.6778 10.6577 90.4633 10.6577C90.3829 10.6577 90.2958 10.6712 90.2019 10.6982C90.1148 10.7252 90.0344 10.759 89.9607 10.8062C89.8936 10.8467 89.8266 10.9142 89.7797 10.9885C89.7328 11.0627 89.706 11.1437 89.706 11.2382C89.706 11.4002 89.7596 11.5217 89.8668 11.6027C89.9741 11.677 90.1014 11.7445 90.2556 11.785C90.4164 11.8255 90.584 11.866 90.7783 11.8997C90.9593 11.9335 91.1336 11.9807 91.2877 12.055C91.4419 12.1225 91.5759 12.2237 91.6831 12.3587C91.7904 12.4937 91.844 12.6827 91.844 12.9257C91.844 13.1147 91.8105 13.2767 91.7368 13.4184C91.663 13.5534 91.5692 13.6682 91.4486 13.7694C91.3279 13.8639 91.1872 13.9314 91.033 13.9787C90.8789 14.0259 90.7113 14.0529 90.537 14.0529C90.2287 14.0529 89.9406 13.9922 89.6859 13.8707C89.4312 13.7492 89.2301 13.5602 89.0894 13.3104L89.4982 13.0337Z" fill="white"/>
<path d="M44.8569 8.8553C44.8569 8.75405 44.8904 8.67305 44.9575 8.60556C45.0245 8.53806 45.1049 8.49756 45.2055 8.49756C45.306 8.49756 45.3864 8.53806 45.4534 8.60556C45.5205 8.67305 45.554 8.75405 45.554 8.8553C45.554 8.95655 45.5205 9.03755 45.4534 9.10504C45.3864 9.17254 45.2993 9.20629 45.2055 9.20629C45.1049 9.20629 45.0245 9.17254 44.9575 9.10504C44.8904 9.03755 44.8569 8.95655 44.8569 8.8553ZM44.9709 10.293H45.44V13.9244H44.9709V10.293Z" fill="white"/>
</svg>
